<?xml version='1.0' encoding='utf-8'?>
<svg xmlns="http://www.w3.org/2000/svg" width="1146px" height="818px" version="1.1" viewBox="-213 302 1146 818"> <g fill="#aedfe1" stroke-linejoin="miter"> <path d="m-213 301.17c-0.21935 0-0.42971 0.08715-0.5848 0.24223-0.15509 0.1551-0.24223 0.36546-0.24223 0.5848l1e-3 818c0 0.4568 0.37027 0.827 0.82703 0.827l1146 1e-3c0.21934 0 0.42966-0.087 0.58475-0.2422 0.15509-0.1551 0.24225-0.3655 0.24225-0.5848l-1e-3 -818c0-0.45676-0.3703-0.82703-0.827-0.82703l-1146-1e-3z"/> </g> <g fill-opacity=".40392" stroke-linejoin="miter"> <path d="m892.4 1039.2-4.6039 0.7424q-32.735 2.2432-191.56 3.5875-159.92 1.3438-376.64 1.09-206.83-0.3544-330.84-2.077-39.733-0.557-65.456-1.2138l-21.619-0.6744q-17.816-0.6972-18.016-1.4542 5.4087-2.3247 147.73-3.8677 142.32-1.5437 356.64-1.6028 214.32 0.0591 356.64 1.6024 142.32 1.5431 147.73 3.8676z"/> </g> <g fill="#fff" fill-opacity=".99608" stroke-linejoin="miter"> <path d="m643.85 741.14-137.01-0.51306q-0.13879 37.018-0.27757 74.037 68.503 0.2572 137.01 0.5146 0.1387-37.019 0.2774-74.038z"/> </g> <g fill="#0b0b09" stroke-linejoin="miter"> <path d="m707.05 993.23-28.488 28.159-0.4174 0.5601q-0.3744 0.34703-2.2537 1.1351-8.3171 3.2321-9.3453 3.7317-2.1376 0.9313-3.549 1.7187-3.6568 2.0042-2.6395 3.3222 1.3832 1.8704 10.386 3.1844 2.534 0.3627 5.0274 0.5914l10.473 0.8324q1.9358 0.1176 3.3299-0.3926 2.2846-0.7908 4.1545-3.7196 0.8826-0.9877 5.9086-11.526 0.94714-1.7721 1.8146-2.8717 2.1428-2.7416 4.4234-2.6958 1.667-0.00694 3.0915 1.5613l0.26484 15.202 2.0203-0.0758q-0.4128-10.579-0.1492-14.192-0.0362-2.4924 1.5962-10.368 0.2007-1.5426 0.05753-2.9193-0.40087-4.2059-5.6885-11.216z"/> </g> <g fill="#ffba9a" stroke-linejoin="miter"> <path d="m709.23 993.82-19.827 3.3012-0.48214 0.44276q-3.0567 3.0849-6.359 11.969-4.6974 12.835-4.0687 15.582 0.21434 1.2144 1.7486 1.1585-1.2599 2.5659-0.46494 3.8419 0.6204 1.0496 2.5569 1.871 3.2547 1.3258 6.6817 1.2598 2.4683-0.0978 4.1557-1.8159 1.445-1.4792 2.4896-4.2285 0.22436-0.1112 3.6862-11.788 0.85885-2.567 1.7292-4.2854 0.8277-1.6285 1.8776-3.0333 0.40994-0.6968 4.2629-4.883 0.77536-0.95142 1.2235-2.0061 1.0703-2.2463 0.79225-7.3736z"/> </g> <g fill="#0b0b09" stroke-linejoin="miter"> <path d="m709.8 997.72-28.688 28.356q-0.08333 0.2702-0.21759 0.3634-0.37414 0.3468-2.2533 1.1347-8.5535 3.3283-9.252 3.691-2.2781 0.9922-3.6425 1.7595-3.6569 2.0039-2.6399 3.3224 1.3834 1.8705 10.386 3.1837 2.5337 0.363 5.0275 0.5919l10.472 0.8325q1.9356 0.1172 3.3299-0.3929 2.2846-0.7909 4.1544-3.7196 0.88275-0.9877 5.9088-11.526 0.94725-1.7718 1.8146-2.8717 2.1429-2.7414 4.4231-2.6958 1.6669-0.0067 3.0917 1.5614l0.26455 15.202 2.0204-0.0756q-0.41244-10.579-0.149-14.192-0.03615-2.4922 1.5964-10.367 0.2007-1.543 0.0574-2.9198-0.4007-4.2058-5.6884-11.216z"/> </g> <g stroke-linejoin="miter"> <path d="m726.79 932.9-31.189 8.2604-7.1536 56.372 20.25 1.7744 0.5178-0.04358q8.1996-18 11.292-30.159 3.5486-13.335 6.2779-36.149z"/> <path d="m641.23 651.55q-9.6559 0.38614-16.61 5.2324-5.6604 3.8627-6.9492 11.782-1.8521 12.207 2.7238 36.976 3.1815 16.48 8.4993 18.754l36.231-5.3348q4.6475-4.1266 5.2067-8.1377 0.6089-3.349-0.8944-9.0252-0.6257-2.4094-1.6061-5.2533-0.90144-2.7068-3.5873-9.3153-0.54996-1.5156-0.74576-2.63-0.2426-1.2351-0.2879-3.0586 0.30075-9.9337-0.0896-12.466-0.4769-4.5562-1.9159-7.445-5.5333-9.9542-19.96-10.078z"/> <path d="m711.25 775.99-17.88 15.882q-19.024 1.5315-16.265 35.652 1.2255 29.851 7.2379 61.478l7.1624 28.711 5.2763 53.764q11.911-24.057 13.728 13.405 18.474-46.105 23.697-87.568 12.996-36.229 9.3026-65.474-10.049-43.684-31.954-55.738z"/> </g> <g fill="#fff" stroke-linejoin="miter"> <path d="m704.37 767.38-35.51 23.875 9.3774 12.857q11.183-2.8927 17.879-7.8165 6.4435-4.3921 19.479-18.839l-11.221-10.074z"/> <path d="m659.22 699.94-26.376 14.207q5.3594 3.2761 3.6126 5.181-0.58789 0.9081-2.6018 2.0886l-9.426 5.0081q-1.0602 0.40693-1.6836 3.006-0.45134 0.6189-1.7294 1.339-2.3256 2.5592-62.339 18-0.76236 4.5008 0.16044 7.1309 1.5659 5.0064 11.832 4.7996 4.3833-0.0235 11.988-0.93506l31.889-4.3589q8.2861-0.79924 16.63-0.28136l-6.8415 6.0878q3.6978 6.281 9.0866 11.79 9.6294 9.6388 27.481 21.713 9.9047 6.3058 13.056 4.034 2.6017-1.0595 4.408-9.3726 16.965-10.221 21.712-14.256 5.3958-4.3661 4.7724-7.7119-0.21124-1.2751-1.099-2.7948l-5.2914-8.3083q-1.3737-2.6313-2.1795-5.2505-0.93986-3.0673-1.3004-6.1412-0.6793-13.495-1.2462-14.968-0.86652-4.6602-3.2326-8.2156-3.2788-4.8467-11.126-9.1928-11.199-5.8216-18.254-7.1854l-1.8549-5.2813z"/> </g> <g fill="#ffba9a" stroke-linejoin="miter"> <path d="m639.4 659.81q-8.3509 0.24102-14.218 7.2081-1.1741 1.6991-1.586 3.9084-0.16415 0.85015-0.25485 2.0114-0.14135 6.1506-0.33435 5.8614-0.142 0.49749-0.42774 0.80624-1.2473 0.9363-1.3767 1.2307-0.2969 0.39776-0.4977 1.237-0.438 2.2515-0.11935 5.7302 0.34305 3.3458 1.1548 4.5279 0.32456 0.46425 0.72516 0.69124l1.9706 0.69516q0.52576 0.2757 0.8197 0.6816 0.17616-0.25743 2.8738 6.1793 0.6422 1.2919 1.3994 2.4116 1.6734 2.6092 6.4876 7.5347l10.16 19.582q6.3059-8.6527 8.3933-14.89 1.5212-4.5963 1.6642-9.3714 0.05735-2.3786-0.21017-3.9638-0.23593-1.4998-1.0063-2.495-0.0446-0.22095 0.03514-0.52161 1.353-3.0574 1.348-5.2168 3.1225 0.34986 4.547-3.2646 1.9406-5.1846 1.7335-9.4109-0.15174-3.0136-3.7358-2.9138-0.69076-10.424-4.6201-13.524-5.5056-4.5682-14.898-4.7256z"/> </g> <g fill-opacity=".31373" stroke-linejoin="miter"> <path d="m653.87 700.93q-6.8727 9.128-9.9015 10.477-1.7586 0.90324-3.557 0.5838-1.5847-0.223-4.3694-1.8951l9.3886 9.5657 8.434-18.716z"/> </g> <g stroke-linejoin="miter"> <path d="m635.16 715.99-9.9354 4.5862q3.3882 8.0469 5.7926 10.927 1.4192 1.7872 3.0357 2.8124 0.807 0.52474 1.783 1.0024l4.0791 1.8862q1.101 0.59396 1.7294 1.2078 1.6455 1.547 1.8972 5.1083 0.77485-13.411-0.85275-17.811-1.5561-5.534-7.4979-9.6974m8.3494 27.534q-0.05375 1.1026-0.0318 1.2592 0.0387 0.0762 0.0501-0.38976 0.01-0.37274-0.0162-0.8601z"/> </g> <g fill-opacity=".12941" stroke-linejoin="miter"> <path d="m666.37 741.31-5.1655 27.583 0.1195 3.9668v3e-4l-5.5058-3.3854-20.852-12.164-0.02816-0.0163-0.00126 3.7e-4q7.6258 8.7696 13.333 12.181 5.1203 3.2436 15.045 4.8467 0.89422-17.203 3.0577-33.012zm22.246-6.9778-9.9402 54.256-3.3743 11.21 5.9902-11.969 7.3165-53.435 0.00787-0.06126z"/> </g> <g fill-opacity=".14902" stroke-linejoin="miter"> <path d="m693.15 816.65 1.6013 128.97q-6.306-54.387-6.5703-80.147-0.15754-13.269 1.058-24.791 0.98703-9.739 3.9045-23.995z"/> </g> <g fill="#fff" stroke-linejoin="miter"> <path d="m15.489 539.43-3.1513 492.56 429.32-0.0011 3.135-489.82-429.31-2.7446z"/> <path d="m318.18 554.61-279.97-1.7895c-5.8134-0.03894-10.604 4.6855-10.641 10.501-0.037148 5.8133 4.6927 10.604 10.506 10.641l279.97 1.7927c5.8188 0.03546 10.61-4.6888 10.647-10.508 0.03536-5.8135-4.6946-10.6-10.513-10.638z"/> <path d="m354.38 556.38c4.9846 0.03193 9.0044 4.1016 8.9725 9.0935-0.03205 4.9848-4.1017 9.0048-9.0881 8.9728-4.9938-0.0318-9.0099-4.1018-8.9782-9.0884 0.03186-4.9865 4.1017-9.0097 9.0937-8.9779z"/> <path d="m388.17 556.6c4.9884 0.03195 9.0044 4.1018 8.9724 9.0936-0.03187 4.9847-4.1015 9.0044-9.0878 8.9726-4.9883-0.0318-9.0046-4.1018-8.9727-9.0882 0.03185-4.9864 4.0998-9.0098 9.0882-8.978z"/> <path d="m421.97 556.81c4.9882 0.03194 9.0043 4.1018 8.9726 9.0936-0.03197 4.9849-4.1017 9.0047-9.0881 8.9728-4.9883-0.03206-9.0046-4.1019-8.9726-9.0884 0.03192-4.9865 4.1015-9.0097 9.0881-8.978z"/> </g> <g fill="#ecf0f1" stroke-linejoin="miter"> <path d="m41.92 615.62 184.34 1.1812-1.3917 217.53-184.34-1.1772 1.3917-217.53z"/> <path d="m249 616.96-0.05463 8.5346 158.54 1.0122 0.05445-8.5326-158.54-1.0142z"/> <path d="m248.78 652.29-0.05469 8.5328 158.54 1.0122 0.05462-8.5328-158.54-1.0122z"/> <path d="m248.55 687.62-0.05447 8.5347 127.18 0.8118 0.05475-8.5328-127.18-0.8137z"/> <path d="m248.33 722.95-0.05463 8.5346 158.54 1.0122 0.05464-8.5325-158.54-1.0142z"/> <path d="m248.1 758.28-0.05469 8.5346 158.54 1.0124 0.05463-8.5331-158.54-1.0139z"/> <path d="m247.87 793.61-0.02731 4.2654-0.02728 4.2655q44.54 0.28396 89.08 0.56806l0.05443-8.5272q-44.54-0.2861-89.08-0.57174z"/> <path d="m40.38 856.2-0.054664 8.5344 323.2 2.0654 0.05466-8.5325-323.2-2.0673z"/> <path d="m40.154 891.53-0.054542 8.5347 323.2 2.0656 0.05463-8.5328-323.2-2.0675z"/> <path d="m39.928 926.86-0.054612 8.5344 259.27 1.6566 0.05463-8.5328-259.27-1.6582z"/> <path d="m39.702 962.19-0.05461 8.5344 323.2 2.0654 0.05463-8.5328-323.2-2.067z"/> <path d="m39.476 997.52-0.054605 8.5345 323.2 2.0653 0.0546-8.5324-323.2-2.0674z"/> <path d="m248.78 652.29v7.3e-4l-9e-5 9.8e-4q9e-5 3e-4 9e-5 8.5e-4v-8.5e-4q0-9.8e-4 0-0.00171z"/> </g> <g fill="#154b6f" stroke-linejoin="miter"> <path d="m14.421 530.94 430.08 7.4e-4q0 22.586 0 45.173-215.04 2e-4 -430.08 6e-4 0-22.587 0-45.174z"/> </g> <g fill="#fff" stroke-linejoin="miter"> <path d="m21.861 539.19 354.99 4.3e-4q0 13.157 0 26.315-177.49 4e-4 -354.99 7e-4 0-13.158 0-26.316z"/> <path d="m383.92 541.91 34.41 4.4e-4q0 10.444 0 20.887-17.205 3e-4 -34.41 3e-4 0-10.444 0-20.888z"/> </g> <g stroke-linejoin="miter"> <path d="m248.5 692.36 1.6e-4 2e-4 1.5e-4 0.0011-1.5e-4 -0.0011-1.6e-4 -2e-4 1.6e-4 2e-4 1.5e-4 0.0011q-1.5e-4 -0.0011-3.1e-4 -0.0013z"/> <path d="m248.5 692.36 1.6e-4 2e-4 1.5e-4 0.0011-1.5e-4 -0.0011-1.6e-4 -2e-4 1.6e-4 2e-4 1.5e-4 0.0011q-1.5e-4 -0.0011-3.1e-4 -0.0013z"/> <path d="m287.9 714.77 2e-4 2e-4 1.7e-4 3.3e-4 -1.7e-4 -3.3e-4 -2e-4 -2e-4 2e-4 2e-4 1.7e-4 3.3e-4q-1.7e-4 -3.3e-4 -3.7e-4 -5.3e-4z"/> </g> <g fill="#f00" stroke-linejoin="miter"> <path d="m184.6 563.95 1.3e-4 1e-4 8e-5 0.0011-8e-5 -0.0011-1.3e-4 -1e-4 1.3e-4 1e-4 8e-5 0.0011q-8e-5 -0.0011-2.1e-4 -0.0012z"/> </g> <g fill="#fff" stroke-linejoin="miter"> <path d="m493.87 740.12 150.01 0.0012q0 96.101 0 192.2-75.005 6e-4 -150.01 0.0012 0-96.102 0-192.2"/> </g> <g fill="#ffba9a" stroke-linejoin="miter"> <path d="m618.63 731.74q-2.5712 0.067-4.942 1.3443-2.463 1.3887-3.4255 3.2114-0.6566 1.232-0.65926 3.3319-0.03254 7.4733 0.43346 8.947 0.4238 2.0043 1.6228 1.7418 0.53493-0.10876 1.1936-0.53286 0.35036-0.15116 2.8905-2.2776 0.45814-0.3228 0.63394-0.19107 0.1356 0.07287 0.1924 0.49517 0.1128 2.4279 0.26485 3.2129 0.15711 0.99786 0.44725 2.0657 0.7192 2.6172 1.8929 4.4702 1.8481 3.0424 6.1592 3.6793l6.0786-5.0104q-0.78235-1.9275-1.1905-4.0167-0.14726-0.39135-1.1945-7.5452-0.26629-1.5838-0.56834-2.9217-1.2086-5.4181-3.3894-7.4947-2.5019-2.5338-6.4171-2.5099z"/> <path d="m563.23 739.71q-1.8829-2.8227-4.5468-3.3277-2.3052-0.35211-4.3282 1.9721-2.8584 3.338-4.1476 8.4331-0.9954 4.1059 0.63716 6.7427 1.2711 2.2193 5.4749 4.6501 1.9253 0.705 3.6569-1.1051 1.5457-1.8016 1.5235-4.1879-0.03504-0.89365-0.31617-1.6156-0.13617-0.3573-0.33209-0.68921-0.86434-1.2344-0.97229-1.5094-0.25335-0.513-0.18115-0.8708 0.05865-0.31723 0.41656-0.55704l1.9145-0.92016q0.4544-0.274 0.54927-0.5293 0.08758-0.1905 0.04833-0.5002 0.05476 0.03706-0.3942-1.3712-0.07326-0.35223-0.0117-0.5938 0.0478-0.20643 0.2228-0.41487 0.98017-0.92673 1.0453-1.0907 0.2328-0.3251 0.2854-0.7571 0.0731-0.7447-0.52686-1.7291z"/> <path d="m613.87 733.31q-1.1009 0.0045-1.6822 0.5777-0.90183 0.7667-2.3031 2.7482-2.5086 3.6583-2.6507 6.2201-0.1242 2.0637 1.5014 4.3063 0.87686 1.2332 2.6905 3.0989 0.7672 0.6879 1.589 0.6764 1.6816-0.0907 3.0434-2.9916 1.3926-3.1204 1.6211-7.0707 0.1548-3.565-0.86154-5.619-1.0125-1.9818-2.9415-1.9466z"/> </g> <g fill="#d9e2e7" stroke-linejoin="miter"> <path d="m504.83 771.71 129.15 0.00107q0 73.653 0 147.31-64.577 5.3e-4 -129.15 0.0011 0-73.654 0-147.31"/> </g> <g fill="#fff" stroke-linejoin="miter"> <path d="m545.12 822.91 3.8249 22.949h-7.8459l3.8249-22.949zm55.412-6.9633q1.275 0 2.1576 0.8827 0.88267 0.8826 0.88267 2.2557v34.62q0 1.2749-0.88267 2.1576-0.88265 0.8827-2.1576 0.8827h-6.8652v-40.799zm-64.827-15.692 0.88266 0.88263-17.85 70.516-1.0788 0.8826h18.242l-0.88269-0.8826 2.7461-10.984h14.613l2.8441 10.984-0.98076 0.8826h18.144l-0.88269-0.8826-18.144-70.516 0.98075-0.88263zm41.289-0.098 0.88266 0.8826v70.614l-0.88266 0.8826h23.538q3.923 0 7.3555-1.1768 3.4327-1.0788 5.9826-3.4326 2.5499-2.2558 4.0211-5.7864 1.4711-3.5306 1.4711-8.4344v-34.62q0-4.6095-1.4711-8.1402-1.4712-3.5307-4.0211-5.9825-2.5499-2.3538-5.9826-3.6287-3.4325-1.1769-7.3555-1.1769z"/> </g> </svg>