<svg xmlns="http://www.w3.org/2000/svg" width="800" height="618.868" viewBox="0 0 800 618.868" xmlns:xlink="http://www.w3.org/1999/xlink" role="img" artist="Katerina Limpitsouni" source="https://undraw.co/"><g transform="translate(-457 -260)"><path d="M15.18,488.765a1.456,1.456,0,0,0,1.308,1.575H668.472a1.6,1.6,0,0,0,0-3.15H16.488a1.456,1.456,0,0,0-1.308,1.575Z" transform="translate(518.678 388.527)" fill="#d6d6e3"/><path d="M353.105,370.945a27.478,27.478,0,0,1-54.387,0H229.146V524.776H422.677V370.945Z" transform="translate(531.09 350.941)" fill="#d6d6e3"/><path d="M789.214,487.736H10.789A10.8,10.8,0,0,1,0,476.947V32.7A10.8,10.8,0,0,1,10.789,21.911H789.214A10.8,10.8,0,0,1,800,32.7V476.947a10.8,10.8,0,0,1-10.789,10.789Z" transform="translate(457 238.089)" fill="#090814"/><rect width="761.747" height="429.819" transform="translate(477.088 278.003)" fill="#fff"/><path d="M4,0H76a4,4,0,0,1,4,4v8a4,4,0,0,1-4,4H4a4,4,0,0,1-4-4V4A4,4,0,0,1,4,0Z" transform="translate(593 302)" fill="#e6e6e6"/><path d="M4,0H76a4,4,0,0,1,4,4v8a4,4,0,0,1-4,4H4a4,4,0,0,1-4-4V4A4,4,0,0,1,4,0Z" transform="translate(1041 302)" fill="#090814"/><rect width="528" height="66" rx="16" transform="translate(593 352)" fill="#6c63ff"/><rect width="160" height="88" rx="8" transform="translate(593 452)" fill="#e6e6e6"/><rect width="160" height="88" rx="8" transform="translate(961 452)" fill="#e6e6e6"/><rect width="160" height="88" rx="8" transform="translate(777 452)" fill="#e6e6e6"/><rect width="160" height="88" rx="8" transform="translate(593 562)" fill="#e6e6e6"/><path d="M8-1.5H152A9.511,9.511,0,0,1,161.5,8V80a9.511,9.511,0,0,1-9.5,9.5H8A9.511,9.511,0,0,1-1.5,80V8A9.511,9.511,0,0,1,8-1.5Zm144,88a6.507,6.507,0,0,0,6.5-6.5V8A6.507,6.507,0,0,0,152,1.5H8A6.507,6.507,0,0,0,1.5,8V80A6.507,6.507,0,0,0,8,86.5Z" transform="translate(593 562)" fill="#6c63ff"/><rect width="160" height="88" rx="8" transform="translate(961 562)" fill="#e6e6e6"/><rect width="160" height="88" rx="8" transform="translate(777 562)" fill="#e6e6e6"/><path d="M820.2,418.347a2.043,2.043,0,0,1-.289-.021,1.963,1.963,0,0,1-1.3-.774l-12.154-16.3a.49.49,0,0,0-.842.1l-6.229,14.573a1.976,1.976,0,0,1-3.729-.289l-12.43-48.111a1.976,1.976,0,0,1,2.933-2.186l42.561,25.642a1.976,1.976,0,0,1-.793,3.654l-15.743,1.825a.49.49,0,0,0-.336.779l12.158,16.29a1.979,1.979,0,0,1-.4,2.766l-2.226,1.659a1.961,1.961,0,0,1-1.181.386Z" transform="translate(-52.68 265.735)" fill="#6c63ff"/><path d="M0,25.5A1.5,1.5,0,0,1-1.5,24V0A1.5,1.5,0,0,1,0-1.5,1.5,1.5,0,0,1,1.5,0V24A1.5,1.5,0,0,1,0,25.5Z" transform="translate(601 528.5)" fill="#6c63ff"/><path d="M16,17.5a1.5,1.5,0,0,1-1.061-.439l-16-16a1.5,1.5,0,0,1,0-2.121,1.5,1.5,0,0,1,2.121,0l16,16A1.5,1.5,0,0,1,16,17.5Z" transform="translate(572 541)" fill="#6c63ff"/><path d="M0,25.5A1.5,1.5,0,0,1-1.5,24V0A1.5,1.5,0,0,1,0-1.5,1.5,1.5,0,0,1,1.5,0V24A1.5,1.5,0,0,1,0,25.5Z" transform="translate(582 572) rotate(90)" fill="#6c63ff"/></g></svg>