<?xml version="1.0" encoding="UTF-8"?>
<svg version="1.1" xmlns="http://www.w3.org/2000/svg" width="512" height="512">
<path d="M0 0 C0.82862045 0.00359528 1.65724091 0.00719055 2.51097107 0.01089478 C3.81329178 0.01067574 3.81329178 0.01067574 5.141922 0.01045227 C8.02594967 0.01115171 10.9099136 0.01894554 13.79393005 0.02676392 C15.78790247 0.02862799 17.78187535 0.03005194 19.77584839 0.03105164 C25.03498082 0.03487769 30.29408583 0.04470871 35.5532074 0.05575562 C40.91534555 0.06596786 46.27748811 0.07054885 51.63963318 0.07559204 C62.16894213 0.0863309 72.69823069 0.10340837 83.2275238 0.12442017 C83.8013253 1.15485191 83.8013253 1.15485191 84.38671875 2.20610046 C94.57778952 20.49807573 94.57778952 20.49807573 105.1650238 38.56192017 C106.49929255 40.80355115 107.83259806 43.04575571 109.1650238 45.28848267 C109.82889099 46.40513306 110.49275818 47.52178345 111.17674255 48.67227173 C111.86040119 49.82294933 112.54399382 50.97366614 113.2275238 52.12442017 C113.58040466 52.71831543 113.93328552 53.31221069 114.29685974 53.92410278 C116.42981816 57.51709913 118.55185293 61.11620201 120.66041565 64.72357178 C121.64034004 66.39482226 122.62997949 68.06036441 123.61985779 69.72573853 C124.21097351 70.74031128 124.80208923 71.75488403 125.41111755 72.80020142 C125.93246277 73.68619019 126.45380798 74.57217896 126.99095154 75.48501587 C128.74593836 79.23095122 129.84375276 82.40262563 128.41062927 86.40689087 C127.97637634 87.11418335 127.54212341 87.82147583 127.0947113 88.55020142 C126.61775818 89.34748657 126.14080505 90.14477173 125.6493988 90.96621704 C125.13893005 91.78154907 124.6284613 92.5968811 124.1025238 93.43692017 C123.12000307 95.05755952 122.13822919 96.6786519 121.1572113 98.30020142 C120.66857605 99.09732544 120.1799408 99.89444946 119.67649841 100.71572876 C117.80714721 103.82322985 116.05525773 106.98858766 114.30857849 110.16616821 C113.05778141 112.43189616 111.75306376 114.65917577 110.4150238 116.87442017 C109.90713318 117.71746704 109.39924255 118.56051392 108.8759613 119.42910767 C107.74709135 121.27489029 106.60581616 123.11312703 105.4540863 124.94473267 C98.5217893 136.00811278 92.01195679 147.41515533 86.2275238 159.12442017 C83.00277255 157.77425744 81.56224192 156.58279419 79.8681488 153.53457642 C79.47498474 152.83268188 79.08182068 152.13078735 78.67674255 151.40762329 C78.28100037 150.67479126 77.88525818 149.94195923 77.4775238 149.18692017 C77.06631287 148.45795532 76.65510193 147.72899048 76.23143005 146.97793579 C73.2275238 141.53397945 73.2275238 141.53397945 73.2275238 138.12442017 C72.5675238 138.12442017 71.9075238 138.12442017 71.2275238 138.12442017 C70.50435974 136.64328735 70.50435974 136.64328735 69.7665863 135.13223267 C69.12877804 133.83785707 68.49074551 132.54359196 67.8525238 131.24942017 C67.37685974 130.27295532 67.37685974 130.27295532 66.8915863 129.27676392 C65.5386226 126.54264976 64.39979862 124.29669498 62.2275238 122.12442017 C61.36261126 120.66349417 60.53257641 119.18166723 59.7275238 117.68692017 C58.31110593 115.06568343 56.88371583 112.60870821 55.2275238 110.12442017 C55.2275238 109.13442017 55.2275238 108.14442017 55.2275238 107.12442017 C54.5675238 107.12442017 53.9075238 107.12442017 53.2275238 107.12442017 C52.91299255 106.46055298 52.5984613 105.79668579 52.2743988 105.11270142 C49.53668357 99.46184419 49.53668357 99.46184419 45.9775238 94.31192017 C44.01851781 91.86316267 43.73415972 90.16423568 43.2275238 87.12442017 C42.5675238 86.79442017 41.9075238 86.46442017 41.2275238 86.12442017 C40.18661721 84.48299053 39.18248054 82.81729801 38.2275238 81.12442017 C37.5675238 82.77442017 36.9075238 84.42442017 36.2275238 86.12442017 C35.5675238 86.12442017 34.9075238 86.12442017 34.2275238 86.12442017 C33.98775818 86.78570923 33.74799255 87.44699829 33.5009613 88.12832642 C31.88208658 91.93715131 29.89533473 95.46697349 27.8525238 99.06192017 C27.46580505 99.75221313 27.0790863 100.4425061 26.6806488 101.15371704 C24.8783424 104.3440413 23.03774524 107.46296018 20.97361755 110.49160767 C19.37398825 112.90357669 18.88565842 114.39786248 18.2275238 117.12442017 C17.2481359 118.1446159 16.24856932 119.14591822 15.2275238 120.12442017 C14.8975238 121.11442017 14.5675238 122.10442017 14.2275238 123.12442017 C13.5675238 123.12442017 12.9075238 123.12442017 12.2275238 123.12442017 C11.95674011 124.00855591 11.68595642 124.89269165 11.40696716 125.80361938 C10.30564794 128.90445649 9.03936693 131.44117366 7.35643005 134.25723267 C6.78779236 135.21790649 6.21915466 136.17858032 5.63328552 137.16836548 C4.72087097 138.69348755 4.72087097 138.69348755 3.7900238 140.24942017 C-0.73206094 147.89397952 -5.16810221 155.56399893 -9.3974762 163.37442017 C-13.47861821 170.8866836 -17.78209073 178.2349684 -22.21559143 185.5440979 C-26.42327887 192.49477576 -30.46310008 199.53256796 -34.46998596 206.60049438 C-37.45046907 211.84673533 -40.50532784 217.03613234 -43.6474762 222.18692017 C-46.80986309 227.37770673 -49.58571731 232.67802896 -52.2412262 238.14395142 C-56.06810186 245.59269156 -60.59452946 252.68795589 -65.63575745 259.37051392 C-67.08026437 261.59932357 -68.06905113 263.94883629 -69.1474762 266.37442017 C-70.74481691 269.65923368 -71.88575618 271.73788108 -75.2099762 273.37442017 C-79.26053253 274.22716887 -81.10975058 273.9983728 -84.7724762 272.12442017 C-86.81934095 269.05412304 -87.36335509 267.25464551 -87.2671051 263.59463501 C-86.15552778 258.04333226 -82.81539126 253.25033412 -79.9599762 248.43692017 C-79.31737854 247.32252563 -78.67478088 246.2081311 -78.01271057 245.05996704 C-76.2840728 242.07022979 -74.53679365 239.09321084 -72.7724762 236.12442017 C-72.24951965 235.18235718 -71.72656311 234.24029419 -71.1877594 233.26968384 C-70.72071594 232.56174683 -70.25367249 231.85380981 -69.7724762 231.12442017 C-69.1124762 231.12442017 -68.4524762 231.12442017 -67.7724762 231.12442017 C-67.50225647 230.24519897 -67.23203674 229.36597778 -66.95362854 228.46011353 C-65.83788944 225.30915377 -64.53259325 222.64725982 -62.8740387 219.75332642 C-62.31200745 218.76654907 -61.7499762 217.77977173 -61.1709137 216.76309204 C-60.58567932 215.74795532 -60.00044495 214.7328186 -59.3974762 213.68692017 C-58.8199762 212.67565063 -58.2424762 211.6643811 -57.6474762 210.62246704 C-53.2102044 202.85724141 -53.2102044 202.85724141 -51.47779846 199.9569397 C-49.17845516 196.08505995 -48.25581768 193.67101507 -48.7724762 189.12442017 C-49.1024762 188.13442017 -49.4324762 187.14442017 -49.7724762 186.12442017 C-55.52691368 186.21121849 -55.52691368 186.21121849 -59.99513245 189.37051392 C-60.60228088 190.42367798 -61.20942932 191.47684204 -61.8349762 192.56192017 C-62.18729309 193.15593628 -62.53960999 193.74995239 -62.90260315 194.36196899 C-63.72590895 195.76164019 -64.53523484 197.16958465 -65.33399963 198.58340454 C-67.01713645 201.55660346 -68.74183338 204.50400176 -70.4677887 207.45254517 C-75.94718685 216.84992455 -81.36677393 226.27021053 -86.49732971 235.86343384 C-88.4068179 239.24918342 -90.24079746 242.3585808 -93.7724762 244.12442017 C-97.78550859 244.65949115 -99.31175653 244.45493645 -102.6474762 242.06192017 C-104.75116353 239.15388179 -105.3114755 237.78352281 -105.19581604 234.25405884 C-104.25646113 229.52857273 -101.52879902 225.44123527 -99.1474762 221.31192017 C-98.62540588 220.37799438 -98.10333557 219.4440686 -97.56544495 218.48184204 C-94.47896923 212.99096364 -91.26043572 207.59553844 -87.92189026 202.25430298 C-86.34988744 199.34135639 -85.98638752 197.34738373 -86.7724762 194.12442017 C-88.2724762 191.9577535 -88.2724762 191.9577535 -90.7724762 191.12442017 C-93.98181086 191.59300071 -96.05718854 192.20878878 -98.09913635 194.82266235 C-99.40388022 197.0135598 -100.60506167 199.23237648 -101.7724762 201.49942017 C-104.69251974 207.11343937 -106.87228449 211.17827357 -112.7724762 214.12442017 C-116.29422864 214.06472945 -118.65476564 213.83230352 -121.6474762 211.93692017 C-123.35439638 209.1868821 -123.71093825 207.38593141 -123.7724762 204.12442017 C-121.32677384 198.06333172 -117.67349038 192.71097905 -114.2256012 187.17520142 C-109.40841177 179.31420553 -104.99361576 171.20800106 -100.48243713 163.16934204 C-96.12589549 155.41166252 -91.74282999 147.66889385 -87.35890198 139.92666626 C-86.30963745 138.07325625 -85.26112244 136.2194217 -84.21339417 134.36514282 C-79.01717865 125.17488288 -73.76962383 116.03786792 -68.2099762 107.06192017 C-63.94204656 100.16768927 -59.98123478 93.14613177 -56.11476135 86.02017212 C-50.73248334 76.13744214 -45.00246243 66.45999896 -39.30860901 56.75479126 C-37.33283738 53.37161206 -35.3929831 49.96971123 -33.4599762 46.56192017 C-30.57019733 41.4819931 -27.59047358 36.46201213 -24.56617737 31.46157837 C-20.08110991 24.02216035 -15.73499768 16.50113232 -11.38136292 8.98428345 C-10.7988678 7.98123169 -10.21637268 6.97817993 -9.6162262 5.94473267 C-8.83022034 4.58759155 -8.83022034 4.58759155 -8.02833557 3.20303345 C-5.78281488 -0.51360014 -4.26969474 0.00782342 0 0 Z " fill="#E09145" transform="translate(194.77247619628906,118.87557983398438)"/>
<path d="M0 0 C3.5625 0.9375 3.5625 0.9375 6 3.125 C7.86419514 6.48055124 7.88871035 8.13947945 7.5625 11.9375 C6.41796875 14.734375 6.41796875 14.734375 4.75 17.6875 C3.79287109 19.38712891 3.79287109 19.38712891 2.81640625 21.12109375 C-0.12825466 26.15337752 -3.18698516 31.11675433 -6.24951172 36.07788086 C-9.6113167 41.53609232 -12.83573726 47.05112451 -15.93066406 52.66479492 C-18.11512716 56.62082821 -20.3724285 60.52013303 -22.69921875 64.39453125 C-23.25617432 65.33385498 -23.81312988 66.27317871 -24.38696289 67.2409668 C-25.4835706 69.08760753 -26.59299242 70.92671326 -27.71655273 72.75708008 C-30.71589976 77.78128068 -30.71589976 77.78128068 -31.3984375 83.4921875 C-30.69285694 86.08852622 -30.69285694 86.08852622 -28.4375 86.9375 C-27.06407169 87.0064472 -25.68747898 87.02217708 -24.3125 87 C-23.03375 86.979375 -21.755 86.95875 -20.4375 86.9375 C-20.18742188 86.2465625 -19.93734375 85.555625 -19.6796875 84.84375 C-18.25624573 81.51343341 -16.46089915 78.50928784 -14.5625 75.4375 C-10.72814651 69.14178254 -7.02372065 62.77999408 -3.375 56.375 C-2.86541748 55.48256592 -2.35583496 54.59013184 -1.83081055 53.6706543 C0.46585107 49.64272565 2.75060622 45.6092198 5 41.5546875 C5.54515259 40.5793103 5.54515259 40.5793103 6.10131836 39.58422852 C7.05345764 37.8781893 7.99775485 36.16777993 8.94140625 34.45703125 C10.5625 31.9375 10.5625 31.9375 13.5625 29.9375 C17.96434998 29.36688982 19.86087208 29.42993938 23.5 32.0625 C25.97420077 35.51138593 25.96569553 36.77888979 25.5625 40.9375 C24.35668945 43.84667969 24.35668945 43.84667969 22.67578125 46.859375 C22.06669922 47.96796875 21.45761719 49.0765625 20.83007812 50.21875 C19.86231445 51.93578125 19.86231445 51.93578125 18.875 53.6875 C16.42957998 58.09983354 13.99193858 62.51634716 11.5625 66.9375 C10.76658447 68.36352539 10.76658447 68.36352539 9.95458984 69.81835938 C9.48875488 70.68783203 9.02291992 71.55730469 8.54296875 72.453125 C8.13328857 73.20368164 7.7236084 73.95423828 7.30151367 74.72753906 C6.38256079 77.47559375 6.78886431 79.18450756 7.5625 81.9375 C8.820625 81.958125 10.07875 81.97875 11.375 82 C12.43654297 82.01740234 12.43654297 82.01740234 13.51953125 82.03515625 C15.76555461 82.02013217 15.76555461 82.02013217 18.5625 80.9375 C19.27951607 78.95499341 19.93831262 76.95116198 20.5625 74.9375 C21.60207797 73.02593345 22.70828644 71.1492331 23.875 69.3125 C24.73544922 67.93191406 24.73544922 67.93191406 25.61328125 66.5234375 C28.41262919 62.80967329 30.92316655 60.24487502 35.5625 59.375 C39.73283126 60.15693711 41.12121269 61.49097674 43.5625 64.9375 C44.96678724 70.98673736 43.11590244 74.14680252 39.9375 79.375 C37.98478774 82.40683134 35.94638097 85.37797538 33.90625 88.3515625 C31.19598006 92.3160531 28.85198286 96.23759828 26.75 100.5625 C24.52161732 105.14018534 22.08643808 109.53039109 19.4375 113.875 C15.7507619 119.92248176 12.18963822 126.03120435 8.6875 132.1875 C-5.75171147 157.55068998 -5.75171147 157.55068998 -12.890625 169.34008789 C-14.67602691 172.33801891 -16.40836598 175.36334325 -18.13671875 178.39453125 C-18.66094925 179.31336594 -18.66094925 179.31336594 -19.19577026 180.25076294 C-20.27691209 182.14602034 -21.35731328 184.04169811 -22.4375 185.9375 C-32.95759987 204.39674364 -43.56694103 222.79733186 -54.30761719 241.12939453 C-56.18552311 244.33551663 -58.06153007 247.54274484 -59.9375 250.75 C-60.78272217 252.19004395 -60.78272217 252.19004395 -61.64501953 253.65917969 C-62.18497559 254.5824707 -62.72493164 255.50576172 -63.28125 256.45703125 C-63.80976563 257.35244629 -64.33828125 258.24786133 -64.8828125 259.17041016 C-65.96325063 261.09341358 -66.97474834 263.05612277 -67.9296875 265.04443359 C-68.41695312 266.0442627 -68.90421875 267.0440918 -69.40625 268.07421875 C-69.82326172 268.98260498 -70.24027344 269.89099121 -70.66992188 270.8269043 C-72.4375 272.9375 -72.4375 272.9375 -75.46142578 273.73754883 C-80.34457156 273.98311535 -85.19750211 274.04209368 -90.0859375 274 C-91.09790192 273.99621338 -92.10986633 273.99242676 -93.15249634 273.98852539 C-97.45588241 273.97227415 -101.75917114 273.94414661 -106.0625 273.91699219 C-109.21614129 273.89881282 -112.36976682 273.8867783 -115.5234375 273.875 C-116.96292252 273.86255249 -116.96292252 273.86255249 -118.43148804 273.84985352 C-123.49743575 273.83161888 -128.40642287 274.07080986 -133.43313599 274.69927979 C-138.32853054 275.28110122 -143.26408603 275.24871018 -148.1875 275.3125 C-149.29738281 275.34988281 -150.40726563 275.38726562 -151.55078125 275.42578125 C-159.6620157 275.51362855 -159.6620157 275.51362855 -163.61328125 272.578125 C-165.55759674 269.76365547 -166.99875517 267.04518883 -168.4375 263.9375 C-172.70979022 255.82782336 -177.3421314 247.96217368 -182.1484375 240.16015625 C-182.69757813 239.26167969 -183.24671875 238.36320313 -183.8125 237.4375 C-184.31523437 236.6228125 -184.81796875 235.808125 -185.3359375 234.96875 C-186.4375 232.9375 -186.4375 232.9375 -186.4375 230.9375 C-187.0975 230.6075 -187.7575 230.2775 -188.4375 229.9375 C-192.33196813 224.23656172 -195.51815304 218.02393825 -198.78515625 211.94921875 C-200.01714161 209.70368515 -201.27121968 207.48294146 -202.55859375 205.26953125 C-202.92162598 204.64401367 -203.2846582 204.01849609 -203.65869141 203.37402344 C-204.37170574 202.14961672 -205.08866594 200.92749701 -205.81005859 199.70800781 C-207.49120458 196.81633729 -208.95136899 194.26186663 -209.4375 190.9375 C-208.20299684 188.30231057 -206.92904259 185.91959337 -205.4375 183.4375 C-205.02757812 182.73278564 -204.61765625 182.02807129 -204.1953125 181.30200195 C-202.95433567 179.17340874 -201.6975675 177.05483475 -200.4375 174.9375 C-199.10072919 172.66866337 -197.76902963 170.39692243 -196.4375 168.125 C-195.880625 167.19042969 -195.32375 166.25585938 -194.75 165.29296875 C-193.32307632 162.90345071 -193.32307632 162.90345071 -192.4375 159.9375 C-191.7775 159.9375 -191.1175 159.9375 -190.4375 159.9375 C-190.08365234 158.67873047 -190.08365234 158.67873047 -189.72265625 157.39453125 C-188.23442829 153.39124328 -186.21026387 150.17617801 -183.875 146.625 C-179.62148695 140.02221735 -175.84448671 133.26981329 -172.30639648 126.25854492 C-169.63846536 121.03798268 -169.63846536 121.03798268 -167.4375 119.9375 C-166.71590576 118.29386866 -166.04398579 116.62699614 -165.4375 114.9375 C-161.12265478 116.41413592 -159.60917777 119.50193593 -157.5625 123.3125 C-157.22025391 123.93157227 -156.87800781 124.55064453 -156.52539062 125.18847656 C-147.4375 141.76499214 -147.4375 141.76499214 -147.4375 144.9375 C-146.7775 144.9375 -146.1175 144.9375 -145.4375 144.9375 C-145.07398438 145.7109375 -144.71046875 146.484375 -144.3359375 147.28125 C-141.59971446 152.95014286 -138.81118979 158.00279989 -134.89453125 162.921875 C-132.13115864 166.74466391 -128.4375 172.10294689 -128.4375 176.9375 C-127.7775 177.2675 -127.1175 177.5975 -126.4375 177.9375 C-124.9968979 180.43975064 -123.63500409 182.93677212 -122.3125 185.5 C-121.93996094 186.21091797 -121.56742187 186.92183594 -121.18359375 187.65429688 C-120.26309462 189.41268624 -119.34963039 191.174755 -118.4375 192.9375 C-118.09976563 192.37160156 -117.76203125 191.80570313 -117.4140625 191.22265625 C-116.96804688 190.48917969 -116.52203125 189.75570312 -116.0625 189 C-115.40121094 187.90365234 -115.40121094 187.90365234 -114.7265625 186.78515625 C-113.4375 184.9375 -113.4375 184.9375 -111.4375 183.9375 C-110.75015944 182.27925238 -110.08898114 180.61016092 -109.4375 178.9375 C-108.11295231 176.45642335 -106.76625818 174.00535952 -105.375 171.5625 C-104.97651855 170.85843018 -104.57803711 170.15436035 -104.16748047 169.42895508 C-101.1773411 164.17240059 -98.09061715 158.97881324 -94.96142578 153.80419922 C-91.83718077 148.62954179 -88.78173389 143.4168536 -85.75 138.1875 C-85.09088623 137.05380981 -85.09088623 137.05380981 -84.41845703 135.8972168 C-82.0741736 131.84405336 -79.78955362 127.76513384 -77.55859375 123.6484375 C-74.20663906 117.47511527 -70.70678796 111.39159926 -67.1875 105.3125 C-66.51819049 104.15431922 -65.84892019 102.99611579 -65.1796875 101.83789062 C-61.24971256 95.04150539 -57.29072694 88.26298957 -53.29492188 81.50512695 C-48.73105017 73.77116892 -44.26223985 65.98195455 -39.7890625 58.1953125 C-36.47976919 52.44277497 -33.12077974 46.72676081 -29.69287109 41.04418945 C-28.26521848 38.64838736 -26.92641391 36.21648922 -25.625 33.75 C-21.79942 26.66967262 -17.63466104 19.80170372 -13.4375 12.9375 C-12.76847656 11.83792969 -12.09945312 10.73835937 -11.41015625 9.60546875 C-10.80042969 8.62191406 -10.19070313 7.63835937 -9.5625 6.625 C-9.02882813 5.76261719 -8.49515625 4.90023437 -7.9453125 4.01171875 C-5.54486514 0.70954894 -4.09175757 -0.07439559 0 0 Z " fill="#E09145" transform="translate(396.4375,119.0625)"/>
<path d="M0 0 C2.562964 2.23225897 2.93752331 3.58051369 3.4375 6.9375 C2.8844646 10.80874779 1.8677605 12.35864164 -1 15 C-3.9375 16.0625 -3.9375 16.0625 -7 16 C-9.8125 14.5 -9.8125 14.5 -12 12 C-13.15697704 8.02289141 -13.41083866 5.94492892 -11.75 2.125 C-8.37840927 -1.96907446 -4.7889305 -1.11171601 0 0 Z " fill="#E09145" transform="translate(447,162)"/>
<path d="M0 0 C2.4375 1.125 2.4375 1.125 4 3 C5.16379881 6.56898301 5.30920437 8.28394777 3.8125 11.75 C1.88971429 14.1369064 0.93359496 15.16183001 -2 16 C-5.8872673 15.91901526 -7.49419818 15.46587009 -10.375 12.8125 C-12.30281734 9.47589307 -12.64524143 7.79079343 -12 4 C-9.00631568 -0.74000018 -5.14715238 -0.85609721 0 0 Z " fill="#E09145" transform="translate(429,130)"/>
<path d="M0 0 C2.59191186 1.69814915 2.96408796 2.8820033 3.875 5.875 C4.02405268 9.60131711 3.25133987 11.08159647 1 14 C-2.13871188 15.56935594 -4.53855822 15.35201103 -8 15 C-11 12.9375 -11 12.9375 -13 10 C-13.1875 6.4375 -13.1875 6.4375 -12 3 C-7.96071636 -0.75747315 -5.28015755 -1.76005252 0 0 Z " fill="#E09145" transform="translate(91,367)"/>
<path d="M0 0 C2.16409761 1.80341467 2.84211548 3.1456693 3.3515625 5.90234375 C3.62325247 9.74175203 3.42001922 11.46185038 1 14.5625 C-3.28419084 16.61534144 -5.41313527 16.20311206 -10 15 C-12.20864279 12.60730364 -12.02156423 10.75848066 -12.3125 7.5 C-11.98590397 3.84212446 -11.60685066 2.51030063 -9 0 C-5.4314543 -1.18951523 -3.60804584 -0.97717908 0 0 Z " fill="#E09145" transform="translate(74,335)"/>
</svg>
