<?xml version="1.0" encoding="UTF-8"?>
<svg version="1.1" xmlns="http://www.w3.org/2000/svg" width="689" height="362">
<path d="M0 0 C2.75 2.375 2.75 2.375 4.75 5.375 C7.73484346 5.66519246 7.73484346 5.66519246 11.1875 5.4375 C21.49957977 5.24751286 29.37220893 6.15590356 37.75 12.375 C38.45253906 12.85324219 39.15507812 13.33148438 39.87890625 13.82421875 C44.23023859 16.87736354 47.08508354 19.68842277 49.75 24.375 C50.183125 25.09042969 50.61625 25.80585938 51.0625 26.54296875 C54.65698398 32.63929527 55.87546233 37.33613192 55.63671875 44.45703125 C55.60642578 45.38966797 55.57613281 46.32230469 55.54492188 47.28320312 C55.47370964 49.20852295 55.3827782 51.13322145 55.27148438 53.05664062 C55.10660291 59.53158037 56.2384097 63.19609567 60.25317383 68.3112793 C66.19858543 76.50840282 65.43081257 88.26553098 64.51171875 97.86328125 C63.01680578 106.36465501 58.125442 113.68879497 51.75 119.375 C51.193125 119.973125 50.63625 120.57125 50.0625 121.1875 C48.75 122.375 48.75 122.375 46.75 122.375 C46.75 123.035 46.75 123.695 46.75 124.375 C42.3436101 127.90011192 37.16407912 128.48141413 31.75 129.375 C31.440625 130.65375 31.13125 131.9325 30.8125 133.25 C28.71079067 139.59516055 24.41539861 143.75024075 19.75 148.375 C18.4196875 149.7671875 18.4196875 149.7671875 17.0625 151.1875 C6.74011762 158.00416761 -4.19634838 159.83425113 -16.25 158.375 C-24.32646162 156.51183253 -30.85416878 153.78981676 -36.69921875 147.828125 C-39.87349049 144.85374443 -43.21832824 145.32526406 -47.3125 145.4375 C-60.44455156 145.46658539 -69.50580671 142.03950882 -79.1875 132.875 C-82.15411416 129.6823581 -84.43036771 126.33445739 -86.25 122.375 C-86.62253906 121.60800781 -86.99507812 120.84101563 -87.37890625 120.05078125 C-91.01907779 111.56550334 -91.70053601 101.59158289 -89.59375 92.5625 C-89.4803125 91.840625 -89.366875 91.11875 -89.25 90.375 C-90.41754153 88.97395016 -91.59607759 87.57993768 -92.83984375 86.24609375 C-99.01835432 78.04801462 -100.09195121 66.25310362 -99.25 56.375 C-97.51598225 48.51742244 -94.29444626 40.70578006 -89.25 34.375 C-87.9225744 33.69664648 -86.58996583 33.02823334 -85.25 32.375 C-84.92 31.385 -84.59 30.395 -84.25 29.375 C-80.09477253 25.81337645 -75.7315552 23.35204727 -70.4375 22 C-67.81485922 21.23050991 -66.5929516 20.83124812 -64.9375 18.62890625 C-63.94298849 16.57384144 -63.08857697 14.49777454 -62.25 12.375 C-56.4473897 2.22043198 -47.28264979 -3.16357257 -36.5 -6.9375 C-23.71487321 -9.55614043 -10.85607737 -7.39471937 0 0 Z M-49.25 15.375 C-52.99637612 21.18680067 -55.38348533 26.92210348 -55.36352539 33.86816406 C-55.36344986 34.74877502 -55.36337433 35.62938599 -55.36329651 36.53668213 C-55.35813522 37.47848328 -55.35297394 38.42028442 -55.34765625 39.390625 C-55.34553383 40.84707428 -55.34553383 40.84707428 -55.34336853 42.33294678 C-55.33777663 45.43032935 -55.32522559 48.52763932 -55.3125 51.625 C-55.30748395 53.72656146 -55.30292123 55.82812404 -55.29882812 57.9296875 C-55.28780985 63.07815292 -55.27055074 68.22656416 -55.25 73.375 C-51.29 75.355 -47.33 77.335 -43.25 79.375 C-43.24589111 78.00770752 -43.24178223 76.64041504 -43.23754883 75.23168945 C-43.21575709 70.15285684 -43.16146614 65.07479889 -43.09741211 59.99633789 C-43.07423262 57.79947338 -43.05983653 55.60249775 -43.05444336 53.40551758 C-43.04515373 50.24490109 -43.00416123 47.08603224 -42.95703125 43.92578125 C-42.9609639 42.94539383 -42.96489655 41.96500641 -42.96894836 40.95491028 C-42.86983513 36.30995264 -42.80538203 34.09254576 -39.89208984 30.32861328 C-37.04404609 28.22271362 -34.22111846 26.54181656 -31.0625 24.9375 C-26.89883175 22.77559533 -22.81682478 20.57006498 -18.8125 18.125 C-15.35980239 16.01846019 -11.90443059 14.10604607 -8.25 12.375 C-8.96451307 9.15113367 -8.96451307 9.15113367 -11.9375 7.75 C-24.82315567 2.40123727 -39.63512719 5.17223556 -49.25 15.375 Z M-17.25 31.375 C-23.25 34.375 -23.25 34.375 -25.8515625 35.40234375 C-28.8856759 36.80829207 -30.95967484 37.92044609 -33.25 40.375 C-34.12222186 45.14562808 -33.8411811 49.57986442 -33.25 54.375 C-22.54925225 48.80064889 -22.54925225 48.80064889 -12.2109375 42.59375 C-8.82112369 40.48693345 -5.30838792 38.61140708 -1.78125 36.74609375 C0.89828046 35.34206644 0.89828046 35.34206644 3.875 33.3125 C8.36091707 31.84970096 11.62115683 33.35419295 15.75 35.375 C17.53321614 36.52470514 19.19929143 37.75909547 20.87890625 39.0546875 C23.79379344 41.111539 26.97224712 42.56060068 30.1796875 44.10546875 C33.51377147 45.75224275 36.72221016 47.59101483 39.9375 49.45703125 C41.70875197 50.52560733 41.70875197 50.52560733 43.75 50.375 C44.26167896 43.46733405 42.7856558 38.56814394 39.75 32.375 C39.45738281 31.73304688 39.16476563 31.09109375 38.86328125 30.4296875 C34.90011057 23.44322851 25.75210169 19.91347535 18.375 17.64453125 C5.468512 15.43273391 -7.10457196 24.54325853 -17.25 31.375 Z M-79.0078125 42.9453125 C-84.20457516 48.35099024 -86.21412005 54.87206582 -86.2734375 62.31640625 C-85.6212814 71.19297539 -83.40540628 77.84098738 -77.25 84.375 C-71.6379303 89.09961892 -66.06529148 92.64888341 -59.25 95.375 C-57.65254328 96.28822655 -56.07040132 97.22849511 -54.5 98.1875 C-53.64792969 98.69410156 -52.79585937 99.20070312 -51.91796875 99.72265625 C-50.08874012 100.85554602 -48.29992354 102.05559022 -46.55078125 103.30859375 C-43.73925861 105.17358381 -41.52428461 106.53381638 -38.25 107.375 C-34.04238985 106.08759689 -30.74716511 104.0130936 -27.25 101.375 C-31.37937035 96.70956534 -35.95962536 94.07726467 -41.4375 91.1875 C-43.05759327 90.32200564 -44.67615928 89.45364459 -46.29296875 88.58203125 C-47.00477295 88.2053833 -47.71657715 87.82873535 -48.44995117 87.44067383 C-50.25 86.375 -50.25 86.375 -52.25 84.375 C-53.93340505 83.68183322 -55.61686488 82.98879871 -57.30078125 82.296875 C-61.06034351 80.51880548 -65.36038391 78.15423217 -67.25 74.375 C-67.40720097 71.4601463 -67.50855654 68.56560364 -67.56640625 65.6484375 C-67.58718735 64.78562164 -67.60796844 63.92280579 -67.62937927 63.03384399 C-67.69486034 60.27264507 -67.75375298 57.51134962 -67.8125 54.75 C-67.8556866 52.88019828 -67.89930093 51.01040638 -67.94335938 49.140625 C-68.05054024 44.55218272 -68.15181175 39.96364317 -68.25 35.375 C-71.81635906 35.375 -76.47014299 40.67832774 -79.0078125 42.9453125 Z M1.68359375 44.27734375 C-0.38062495 45.55132488 -2.30848209 46.92323435 -4.25 48.375 C-5.24 48.87 -5.24 48.87 -6.25 49.375 C-4.99607866 53.13676401 -4.08240476 53.25599937 -0.625 55 C6.08593258 58.50818582 12.52396403 62.39566002 18.99462891 66.32177734 C20.59356845 67.28114107 22.20814805 68.2143152 23.82421875 69.14453125 C24.70722656 69.65371094 25.59023437 70.16289062 26.5 70.6875 C27.25796875 71.11675781 28.0159375 71.54601562 28.796875 71.98828125 C31.17186006 73.67452065 32.28602777 74.82350554 33.75 77.375 C34.07532355 80.34130417 34.23831358 83.10919103 34.26171875 86.078125 C34.27966995 86.91591492 34.29762115 87.75370483 34.31611633 88.61688232 C34.37019056 91.28620407 34.40410532 93.95534731 34.4375 96.625 C34.47067568 98.43752482 34.50516557 100.2500261 34.54101562 102.0625 C34.62591523 106.49987114 34.69273997 110.93718961 34.75 115.375 C35.85883545 114.74343994 36.9676709 114.11187988 38.11010742 113.46118164 C38.73382736 113.10592911 39.3575473 112.75067657 40.00016785 112.38465881 C44.66180992 109.69487626 46.58083799 107.33862998 48.9375 102.4375 C49.44667969 101.39722656 49.95585937 100.35695312 50.48046875 99.28515625 C53.69683561 91.91225375 53.50697254 85.0662065 50.7109375 77.6015625 C45.0096861 64.39134585 32.79827558 59.04288705 20.75 52.375 C19.71746094 51.80265625 18.68492187 51.2303125 17.62109375 50.640625 C15.78005734 49.62868118 13.93162324 48.63001476 12.07421875 47.6484375 C9.75 46.375 9.75 46.375 6.5625 44.1875 C3.83610437 43.07544281 3.83610437 43.07544281 1.68359375 44.27734375 Z M-21.4375 57.75 C-22.31269287 58.36705811 -22.31269287 58.36705811 -23.20556641 58.99658203 C-25.25 60.375 -25.25 60.375 -27.33276367 61.37792969 C-30.495827 62.96149821 -32.78397968 64.12409591 -34.05639648 67.53955078 C-34.40497299 70.15869782 -34.46096734 72.60933369 -34.375 75.25 C-34.36106201 76.15024902 -34.34712402 77.05049805 -34.33276367 77.97802734 C-34.08177357 82.2351006 -33.75178228 84.700936 -31.16796875 88.171875 C-28.57054407 89.99435588 -26.20929827 91.24312241 -23.25 92.375 C-22.39792969 92.77460938 -21.54585937 93.17421875 -20.66796875 93.5859375 C-17.10438222 94.74885265 -15.33274862 93.9134689 -12.06640625 92.2890625 C-10.95072266 91.65097656 -10.95072266 91.65097656 -9.8125 91 C-8.70068359 90.36964844 -8.70068359 90.36964844 -7.56640625 89.7265625 C-6.80199219 89.28054687 -6.03757812 88.83453125 -5.25 88.375 C-3.88101563 87.86646484 -3.88101563 87.86646484 -2.484375 87.34765625 C-0.07277802 85.62627197 -0.07277802 85.62627197 0.14477539 83.26269531 C0.24387088 80.55425775 0.1846241 77.89489733 0.0625 75.1875 C0.02866211 73.77694336 0.02866211 73.77694336 -0.00585938 72.33789062 C-0.06480773 70.01532527 -0.14702215 67.69596224 -0.25 65.375 C-2.23 64.715 -4.21 64.055 -6.25 63.375 C-6.25 62.715 -6.25 62.055 -6.25 61.375 C-13.52358396 56.76849516 -13.52358396 56.76849516 -21.4375 57.75 Z M9.75 71.375 C9.74635437 71.94240906 9.74270874 72.50981812 9.73895264 73.09442139 C9.69714554 78.99956232 9.62781314 84.9039247 9.54248047 90.80859375 C9.5142529 93.01229059 9.4930473 95.216089 9.47900391 97.41992188 C9.45759953 100.58776932 9.41096102 103.75439308 9.359375 106.921875 C9.35753204 108.40019806 9.35753204 108.40019806 9.35565186 109.90838623 C9.20884712 116.76262295 9.20884712 116.76262295 6.8215332 119.94873047 C6.13792725 120.41939941 5.45432129 120.89006836 4.75 121.375 C3.88181641 122.00535156 3.88181641 122.00535156 2.99609375 122.6484375 C-3.48607986 126.59654324 -10.15337365 130.18807917 -16.84765625 133.76171875 C-17.64042969 134.19097656 -18.43320313 134.62023437 -19.25 135.0625 C-19.95125 135.43761719 -20.6525 135.81273437 -21.375 136.19921875 C-23.29326078 137.40212812 -24.71939177 138.7152467 -26.25 140.375 C-24.6721875 141.3340625 -24.6721875 141.3340625 -23.0625 142.3125 C-22.47082031 142.67214844 -21.87914062 143.03179687 -21.26953125 143.40234375 C-14.70132271 146.5657556 -6.00162911 146.13423038 1 144.6875 C8.16737038 142.17892037 13.48092209 137.63917012 17.75 131.375 C20.77711619 124.89382065 21.15943088 118.70654024 21.04296875 111.65234375 C21.03660149 110.17321251 21.03660149 110.17321251 21.03010559 108.66419983 C21.01345171 105.54667651 20.9758248 102.4298245 20.9375 99.3125 C20.92243597 97.18555628 20.90875059 95.05860232 20.89648438 92.93164062 C20.86359182 87.74583918 20.8119026 82.560533 20.75 77.375 C19.29195831 76.56197675 17.83355685 75.74959869 16.375 74.9375 C15.15683594 74.25880859 15.15683594 74.25880859 13.9140625 73.56640625 C12.54003378 72.8099464 11.15290739 72.07645369 9.75 71.375 Z M-16.75 105.375 C-21.8438665 108.52975783 -26.97033322 111.54445621 -32.25 114.375 C-32.94867188 114.77976562 -33.64734375 115.18453125 -34.3671875 115.6015625 C-35.05039063 115.98054688 -35.73359375 116.35953125 -36.4375 116.75 C-37.02917969 117.08773437 -37.62085938 117.42546875 -38.23046875 117.7734375 C-42.37814191 119.00891461 -45.67950936 117.65500826 -49.44140625 115.80859375 C-51.11009766 114.82052734 -51.11009766 114.82052734 -52.8125 113.8125 C-53.41239746 113.4611499 -54.01229492 113.1097998 -54.63037109 112.74780273 C-57.75082856 110.90909298 -60.83687619 109.01791121 -63.91015625 107.1015625 C-64.49273193 106.73877197 -65.07530762 106.37598145 -65.67553711 106.00219727 C-67.29132683 104.98992044 -68.89978665 103.96597135 -70.5078125 102.94140625 C-72.8534976 101.60149211 -74.61478475 100.82260833 -77.25 100.375 C-77.65606859 108.9024404 -76.67634368 115.68108103 -71.3125 122.5625 C-64.94388848 129.2663016 -56.20354705 133.237483 -46.97265625 133.609375 C-36.43235632 132.70203211 -27.13287944 126.23058173 -18.42578125 120.69921875 C-14.97783914 118.60074052 -11.42083826 116.70960225 -7.86328125 114.8046875 C-7.00089844 114.33289063 -6.13851562 113.86109375 -5.25 113.375 C-4.321875 112.96894531 -3.39375 112.56289062 -2.4375 112.14453125 C0.12184882 110.48362353 0.12184882 110.48362353 0.23828125 107.01953125 C0.18027344 105.75496094 0.12226563 104.49039063 0.0625 103.1875 C-0.00517578 101.27904297 -0.00517578 101.27904297 -0.07421875 99.33203125 C-0.13222656 98.35621094 -0.19023437 97.38039063 -0.25 96.375 C-5.28998314 96.375 -12.64857204 102.83327 -16.75 105.375 Z " fill="#101010" transform="translate(163.25,105.625)"/>
<path d="M0 0 C4.42148677 3.41326176 6.57235449 8.77601374 8.1875 14 C7.8575 14.66 7.5275 15.32 7.1875 16 C4.24609375 16.6328125 4.24609375 16.6328125 0.625 17.125 C-0.57253906 17.29257813 -1.77007812 17.46015625 -3.00390625 17.6328125 C-3.93074219 17.75398438 -4.85757813 17.87515625 -5.8125 18 C-6.34875 17.071875 -6.885 16.14375 -7.4375 15.1875 C-10.07462571 11.6481997 -11.68345337 10.45731057 -15.8125 9 C-21.29991364 8.37878336 -27.11577369 8.90634794 -31.8125 12 C-35.47793134 18.03582069 -35.6875934 26.15482497 -34.8125 33 C-33.54551639 37.9044527 -32.25694128 41.83740092 -28.25 45.0625 C-20.34243975 48.10386933 -14.50214364 46.92938805 -6.8125 44 C-6.4825 42.02 -6.1525 40.04 -5.8125 38 C-7.20275391 38.01740234 -7.20275391 38.01740234 -8.62109375 38.03515625 C-9.81863281 38.04417969 -11.01617187 38.05320313 -12.25 38.0625 C-13.44496094 38.07410156 -14.63992188 38.08570313 -15.87109375 38.09765625 C-18.8125 38 -18.8125 38 -19.8125 37 C-19.8125 33.04 -19.8125 29.08 -19.8125 25 C-10.5725 25 -1.3325 25 8.1875 25 C8.1875 33.91 8.1875 42.82 8.1875 52 C0.23665912 56.54333765 0.23665912 56.54333765 -3.9375 58.1875 C-5.14792969 58.67283203 -5.14792969 58.67283203 -6.3828125 59.16796875 C-16.37107003 62.58838491 -26.98298274 61.53496336 -36.4375 57 C-42.90654088 53.19334897 -47.71452964 46.16643148 -49.8125 39 C-50.90110692 28.3095843 -51.93135764 15.75475674 -44.8125 7 C-44.28140625 6.34128906 -43.7503125 5.68257812 -43.203125 5.00390625 C-32.12544028 -7.21711749 -13.88803738 -8.24883429 0 0 Z " fill="#111111" transform="translate(502.8125,152)"/>
<path d="M0 0 C4.14428309 -0.02488484 8.28852554 -0.04294686 12.43286133 -0.05493164 C13.84009561 -0.0599327 15.24732477 -0.0667357 16.65454102 -0.07543945 C18.68767569 -0.08769159 20.72074114 -0.0932707 22.75390625 -0.09765625 C23.97408447 -0.10289307 25.1942627 -0.10812988 26.45141602 -0.11352539 C34.45387071 0.14248709 39.29915406 1.36335278 45 7 C48.99728308 13.12083971 48.65397004 19.8708055 48 27 C46.31697426 32.44508327 42.76002992 35.99464778 38 39 C30.60360163 42.14421793 21.86085014 41.18642332 14 41 C14.00523682 41.6612085 14.01047363 42.32241699 14.01586914 43.00366211 C14.03657656 45.98159851 14.04964012 48.95951982 14.0625 51.9375 C14.07087891 52.97841797 14.07925781 54.01933594 14.08789062 55.09179688 C14.09111328 56.08115234 14.09433594 57.07050781 14.09765625 58.08984375 C14.10289307 59.00628662 14.10812988 59.92272949 14.11352539 60.86694336 C14 63 14 63 13 64 C11.00200428 64.09873816 9.00042842 64.12971799 7 64.125 C5.906875 64.12757813 4.81375 64.13015625 3.6875 64.1328125 C1 64 1 64 0 63 C-0.0940067 61.03630847 -0.11743381 59.06920801 -0.11352539 57.10327148 C-0.11344986 55.84203964 -0.11337433 54.5808078 -0.11329651 53.28135681 C-0.1081891 51.89460206 -0.10297309 50.50784771 -0.09765625 49.12109375 C-0.09579201 47.71004791 -0.09436814 46.29900143 -0.09336853 44.88795471 C-0.08954379 41.16759465 -0.0797139 37.4472734 -0.06866455 33.72692871 C-0.05844948 29.93319219 -0.05387071 26.13944942 -0.04882812 22.34570312 C-0.03809158 14.89711769 -0.0210157 7.44856428 0 0 Z M14 13 C14 17.95 14 22.9 14 28 C23.37772479 28.96054935 23.37772479 28.96054935 31.9375 25.9375 C34.31673603 23.1022931 34.31673603 23.1022931 34.1875 19.375 C33.31487454 15.94643114 33.31487454 15.94643114 30.8828125 14.30078125 C27.28755968 12.67853303 24.61552595 12.70236843 20.6875 12.8125 C18.480625 12.874375 16.27375 12.93625 14 13 Z " fill="#0F0F0F" transform="translate(521,148)"/>
<path d="M0 0 C4.18275939 3.32283081 6.15061948 7.31947196 7.6875 12.375 C7.6875 13.035 7.6875 13.695 7.6875 14.375 C-2.90374963 18.25153581 -2.90374963 18.25153581 -6.3125 17.375 C-7.70550182 15.41609119 -9.03495446 13.4110882 -10.3125 11.375 C-12.69991661 9.260431 -14.25244763 8.40396318 -17.45703125 8.31640625 C-21.97006326 8.66816828 -25.87191941 9.24719947 -29.3125 12.375 C-32.2729136 20.70376926 -32.83131549 31.61498314 -30.25 40.1875 C-27.73271151 44.32884559 -25.99539054 45.22346954 -21.3125 46.375 C-17.3940799 46.53583068 -14.28056207 46.05525983 -11 43.75 C-8.86583297 40.74635751 -7.63512509 37.81382524 -6.3125 34.375 C0.6175 35.86 0.6175 35.86 7.6875 37.375 C6.5917392 43.94956479 5.19654527 48.86595473 0.4375 53.625 C-7.01197809 58.36557697 -13.3231461 60.97429026 -22.3125 60.375 C-31.13626107 58.35586909 -37.99760134 54.77749765 -43.1875 47.25 C-48.88345709 37.53566222 -49.47395685 26.9761076 -46.74609375 16.12109375 C-46.059351 14.11580491 -45.25697691 12.2718906 -44.3125 10.375 C-43.98507812 9.69695312 -43.65765625 9.01890625 -43.3203125 8.3203125 C-39.88313525 2.03857477 -34.90462287 -1.79868727 -28.26953125 -4.4375 C-18.25182017 -7.31684211 -8.64727606 -5.76485071 0 0 Z " fill="#111111" transform="translate(310.3125,152.625)"/>
<path d="M0 0 C4.62 0 9.24 0 14 0 C14.33 6.6 14.66 13.2 15 20 C16.32 19.01 17.64 18.02 19 17 C25.51215611 14.8292813 31.16211999 15.59657629 37.2734375 18.5390625 C40.21288796 21.02628981 41.76206447 24.17442949 42.26141357 28.00570679 C42.34568792 30.30915131 42.33755968 32.59389119 42.29296875 34.8984375 C42.28872391 35.73339752 42.28447906 36.56835754 42.28010559 37.42861938 C42.26340333 40.07775035 42.22576775 42.7261016 42.1875 45.375 C42.1724422 47.17837438 42.15875571 48.98176076 42.14648438 50.78515625 C42.11352762 55.1904015 42.06180469 59.59506886 42 64 C40.02090602 64.02686553 38.04171029 64.04633375 36.0625 64.0625 C34.96035156 64.07410156 33.85820312 64.08570313 32.72265625 64.09765625 C30 64 30 64 29 63 C28.87772204 60.6714188 28.82017309 58.33939446 28.7890625 56.0078125 C28.76099167 54.56639494 28.73232719 53.12498884 28.703125 51.68359375 C28.66185609 49.40348658 28.62498374 47.12359286 28.59863281 44.84326172 C28.57103909 42.64765809 28.52516655 40.45303801 28.4765625 38.2578125 C28.45674316 36.9392627 28.43692383 35.62071289 28.41650391 34.26220703 C28.25372055 31.06617095 28.25372055 31.06617095 26.69287109 29.03466797 C23.76922695 27.24776231 21.18641901 28.24684642 18 29 C14.43308646 32.56691354 14.84750327 36.61078705 14.71875 41.48046875 C14.68136719 42.72634766 14.64398438 43.97222656 14.60546875 45.25585938 C14.53484211 47.88866347 14.46453239 50.52147608 14.39453125 53.15429688 C14.35714844 54.39630859 14.31976563 55.63832031 14.28125 56.91796875 C14.23581055 58.63149536 14.23581055 58.63149536 14.18945312 60.37963867 C14 63 14 63 13 64 C11.00200428 64.09873816 9.00042842 64.12971799 7 64.125 C5.906875 64.12757813 4.81375 64.13015625 3.6875 64.1328125 C1 64 1 64 0 63 C-0.0940067 61.03630847 -0.11743381 59.06920801 -0.11352539 57.10327148 C-0.11344986 55.84203964 -0.11337433 54.5808078 -0.11329651 53.28135681 C-0.1081891 51.89460206 -0.10297309 50.50784771 -0.09765625 49.12109375 C-0.09579201 47.71004791 -0.09436814 46.29900143 -0.09336853 44.88795471 C-0.08954379 41.16759465 -0.0797139 37.4472734 -0.06866455 33.72692871 C-0.05844948 29.93319219 -0.05387071 26.13944942 -0.04882812 22.34570312 C-0.03809158 14.89711564 -0.02049515 7.4485682 0 0 Z " fill="#101010" transform="translate(326,148)"/>
<path d="M0 0 C4.58494882 4.18782727 5.81340012 7.98747005 6.18945312 14.05859375 C6.21974609 15.17363281 6.25003906 16.28867188 6.28125 17.4375 C6.33732422 19.27441406 6.33732422 19.27441406 6.39453125 21.1484375 C6.46484375 23.71614583 6.53515625 26.28385417 6.60546875 28.8515625 C6.66154297 30.68847656 6.66154297 30.68847656 6.71875 32.5625 C6.74904297 33.67753906 6.77933594 34.79257813 6.81054688 35.94140625 C6.92764962 38.98174664 6.92764962 38.98174664 7.58007812 41.83984375 C7.71865234 42.55269531 7.85722656 43.26554687 8 44 C7 45 7 45 4.27734375 45.09765625 C3.17519531 45.08605469 2.07304687 45.07445312 0.9375 45.0625 C-0.71958984 45.04896484 -0.71958984 45.04896484 -2.41015625 45.03515625 C-3.26480469 45.02355469 -4.11945313 45.01195312 -5 45 C-5.33 43.68 -5.66 42.36 -6 41 C-6.94875 41.639375 -7.8975 42.27875 -8.875 42.9375 C-13.41122694 45.50864077 -17.81495699 46.20873764 -23 46 C-28.25878258 44.44822809 -31.45814314 42.16689042 -35 38 C-36.53603239 33.39190282 -36.432846 29.54587856 -35.125 24.875 C-29.72556061 17.56987611 -19.5228514 15.59560232 -11 14 C-10.01 14 -9.02 14 -8 14 C-8.99135641 11.3726974 -8.99135641 11.3726974 -11 9 C-14.45704496 8.16654185 -14.45704496 8.16654185 -18 9 C-18.598125 9.845625 -19.19625 10.69125 -19.8125 11.5625 C-22 14 -22 14 -24.359375 14.21484375 C-31.22548566 13.66912686 -31.22548566 13.66912686 -33.80859375 11.4375 C-34.39833984 10.7259375 -34.39833984 10.7259375 -35 10 C-32.24825112 4.60233873 -29.3059261 -0.49149374 -23.23828125 -2.6171875 C-15.48424599 -3.94335758 -6.77564005 -4.32487663 0 0 Z M-13.875 24.3125 C-14.75929688 24.55613281 -15.64359375 24.79976562 -16.5546875 25.05078125 C-19.08259921 26.03206327 -20.35932598 26.85999041 -22 29 C-21.72963853 31.97397616 -21.14553974 32.85446026 -19 35 C-15.83851964 35.34363917 -13.64424701 35.26118122 -10.6875 34.0625 C-8.01842025 30.80029141 -8.17211116 27.10485124 -8 23 C-10.00457457 23 -11.96314868 23.77219419 -13.875 24.3125 Z " fill="#181818" transform="translate(411,167)"/>
<path d="M0 0 C16.17 0 32.34 0 49 0 C49 4.29 49 8.58 49 13 C43.39 13 37.78 13 32 13 C32.00523682 14.50941162 32.01047363 16.01882324 32.01586914 17.57397461 C32.03391205 23.1517681 32.0454294 28.729559 32.05493164 34.30737305 C32.05997349 36.72567172 32.06680678 39.14396733 32.07543945 41.56225586 C32.08751157 45.02979283 32.09322963 48.49728966 32.09765625 51.96484375 C32.10281754 53.05337143 32.10797882 54.14189911 32.11329651 55.26341248 C32.11337204 56.26437454 32.11344757 57.26533661 32.11352539 58.29663086 C32.115746 59.18265488 32.11796661 60.06867889 32.12025452 60.98155212 C32 63 32 63 31 64 C29.00200428 64.09873816 27.00042842 64.12971799 25 64.125 C23.906875 64.12757813 22.81375 64.13015625 21.6875 64.1328125 C19 64 19 64 18 63 C17.90673284 61.43452952 17.88254418 59.86487228 17.88647461 58.29663086 C17.88655014 57.29566879 17.88662567 56.29470673 17.88670349 55.26341248 C17.89186478 54.1748848 17.89702606 53.08635712 17.90234375 51.96484375 C17.9037587 50.85645645 17.90517365 49.74806915 17.90663147 48.60609436 C17.91224967 45.04986931 17.92480525 41.49370617 17.9375 37.9375 C17.94251266 35.53320403 17.94707597 33.12890708 17.95117188 30.72460938 C17.96222501 24.81638223 17.97950184 18.90820163 18 13 C12.06 13 6.12 13 0 13 C0 8.71 0 4.42 0 0 Z " fill="#101010" transform="translate(574,148)"/>
<path d="M0 0 C0 4.95 0 9.9 0 15 C2.64 15 5.28 15 8 15 C8 18.96 8 22.92 8 27 C5.36 27 2.72 27 0 27 C0.33 34.26 0.66 41.52 1 49 C3.39467611 50.45314664 3.39467611 50.45314664 8 49 C8.33 52.96 8.66 56.92 9 61 C3.62671683 62.94352796 -1.45406615 63.86741258 -7 62 C-11.29254819 59.88722118 -11.29254819 59.88722118 -13 57 C-13.75884171 51.88353788 -13.56371505 46.83562269 -13.375 41.6875 C-13.34488282 40.26502997 -13.31751005 38.84249902 -13.29296875 37.41992188 C-13.22706199 33.94534317 -13.12364151 30.47305835 -13 27 C-14.98 27 -16.96 27 -19 27 C-19 23.04 -19 19.08 -19 15 C-17.02 15 -15.04 15 -13 15 C-13.11601562 14.41992188 -13.23203125 13.83984375 -13.3515625 13.2421875 C-13.66314184 10.54480065 -13.71491051 8.63275426 -13 6 C-9.27947305 2.60835941 -5.10087045 0 0 0 Z " fill="#101010" transform="translate(440,150)"/>
<path d="M0 0 C0.66 0.33 1.32 0.66 2 1 C-1.96 4.96 -5.92 8.92 -10 13 C-10.66 12.67 -11.32 12.34 -12 12 C-10.38405168 9.95880212 -8.7143618 7.95927063 -7 6 C-6.34 6 -5.68 6 -5 6 C-4.67 5.01 -4.34 4.02 -4 3 C-1.9375 1.3125 -1.9375 1.3125 0 0 Z " fill="#525252" transform="translate(83,132)"/>
</svg>
