<?xml version="1.0" encoding="UTF-8"?>
<svg version="1.1" xmlns="http://www.w3.org/2000/svg" width="641" height="389">
<path d="M0 0 C9.35981225 7.71880621 15.55928636 17.3720304 16.8671875 29.48828125 C17.6549495 39.43377655 16.05683687 47.47814677 9.8671875 55.48828125 C7.4296875 58.11328125 7.4296875 58.11328125 4.8671875 60.48828125 C3.8153125 61.47828125 3.8153125 61.47828125 2.7421875 62.48828125 C-6.09680094 68.63714278 -15.63230915 70.78388627 -26.1328125 72.48828125 C-26.90753906 72.62105469 -27.68226563 72.75382812 -28.48046875 72.890625 C-48.79908907 75.93633195 -68.58372139 70.90780051 -85.234375 59.33203125 C-92.02383767 54.20646506 -92.02383767 54.20646506 -93.1328125 49.48828125 C-94.1228125 49.15828125 -95.1128125 48.82828125 -96.1328125 48.48828125 C-99.29962049 42.15466527 -96.25982523 34.8011583 -94.22265625 28.56640625 C-93.00259138 25.12048828 -91.67395762 21.80174327 -90.1328125 18.48828125 C-89.4728125 18.48828125 -88.8128125 18.48828125 -88.1328125 18.48828125 C-88.04128906 17.92882812 -87.94976562 17.369375 -87.85546875 16.79296875 C-85.4117423 8.99946277 -77.82617202 2.73037248 -71.1328125 -1.51171875 C-70.42253906 -1.96289062 -69.71226562 -2.4140625 -68.98046875 -2.87890625 C-48.46821888 -15.06368737 -19.36603642 -13.72647636 0 0 Z M-64.5703125 30.92578125 C-67.30090651 34.27392104 -68.1328125 37.10607353 -68.1328125 41.48828125 C-62.42030663 47.20078712 -48.62755052 48.78594957 -40.8203125 49.05078125 C-33.12422503 48.69206531 -24.57557164 46.78345401 -18.1328125 42.48828125 C-18.1328125 41.82828125 -18.1328125 41.16828125 -18.1328125 40.48828125 C-17.4728125 40.48828125 -16.8128125 40.48828125 -16.1328125 40.48828125 C-14.49572849 35.57702921 -14.34966464 31.24104074 -16.4453125 26.55078125 C-18.04520427 24.22082122 -18.04520427 24.22082122 -21.1328125 23.48828125 C-21.1328125 22.82828125 -21.1328125 22.16828125 -21.1328125 21.48828125 C-36.87750772 13.7765938 -53.11128742 18.78467134 -64.5703125 30.92578125 Z " fill="#383442" transform="translate(344.1328125,36.51171875)"/>
<path d="M0 0 C0.99 0 1.98 0 3 0 C3.495 1.11375 3.99 2.2275 4.5 3.375 C8.73969265 11.78000473 14.64374554 18.23614551 22.3125 23.625 C22.869375 24.07875 23.42625 24.5325 24 25 C24 25.66 24 26.32 24 27 C24.721875 27.103125 25.44375 27.20625 26.1875 27.3125 C29 28 29 28 31.23046875 29.40625 C43.16643423 36.2749015 59.55791025 36.72202047 72.8125 34.3046875 C80.65465357 32.14446464 87.40654872 28.89017692 92 22 C92.66 22 93.32 22 94 22 C94.103125 21.4225 94.20625 20.845 94.3125 20.25 C95.09792798 17.67950842 96.30504197 16.06342716 98 14 C102.30764815 15.56641751 106.06171464 17.68336156 110 20 C110 20.66 110 21.32 110 22 C110.57234375 22.12246094 111.1446875 22.24492188 111.734375 22.37109375 C114.09953191 23.02762868 116.07206797 23.93723512 118.25 25.0625 C118.95640625 25.42472656 119.6628125 25.78695312 120.390625 26.16015625 C121.18726563 26.57587891 121.18726563 26.57587891 122 27 C122.45778941 33.04707876 119.55355854 36.36934853 116 41 C113.625 43.625 113.625 43.625 111 46 C110.42636719 46.55429688 109.85273438 47.10859375 109.26171875 47.6796875 C104.29205367 52.32069737 99.19869383 55.26611972 93 58 C92.23042969 58.37125 91.46085937 58.7425 90.66796875 59.125 C80.98655799 63.49207086 69.5648379 64.78637952 59 64 C57.89398438 63.92007813 56.78796875 63.84015625 55.6484375 63.7578125 C37.68069592 61.93499814 22.85025277 54.52697374 11.00390625 40.625 C1.52675363 28.21048428 -0.62149093 15.35312775 0 0 Z " fill="#2EB35F" transform="translate(244,94)"/>
<path d="M0 0 C3.3 0 6.6 0 10 0 C10.02505615 0.74161377 10.0501123 1.48322754 10.07592773 2.24731445 C10.19186132 5.60255328 10.31459985 8.95750944 10.4375 12.3125 C10.47681641 13.47974609 10.51613281 14.64699219 10.55664062 15.84960938 C10.61948242 17.52700195 10.61948242 17.52700195 10.68359375 19.23828125 C10.72025146 20.26993408 10.75690918 21.30158691 10.79467773 22.36450195 C10.90161242 25.10748258 10.90161242 25.10748258 12 28 C16.16720407 28.38620869 16.16720407 28.38620869 19.8125 26.6875 C21.96854915 23.62364068 22.15312304 20.77620231 22.28125 17.1484375 C22.31863281 16.21515625 22.35601562 15.281875 22.39453125 14.3203125 C22.46512315 12.34896832 22.53543345 10.37761403 22.60546875 8.40625 C22.64285156 7.47554687 22.68023437 6.54484375 22.71875 5.5859375 C22.76418945 4.30275635 22.76418945 4.30275635 22.81054688 2.99365234 C23 1 23 1 24 0 C25.49738124 -0.0979057 26.99942892 -0.12974864 28.5 -0.125 C29.3146875 -0.12757813 30.129375 -0.13015625 30.96875 -0.1328125 C33 0 33 0 34 1 C34.1135051 3.41584646 34.16418243 5.80194801 34.16796875 8.21875 C34.17296135 9.31660828 34.17296135 9.31660828 34.17805481 10.43664551 C34.18313136 11.99356456 34.18546291 13.55049455 34.18530273 15.10742188 C34.1874655 17.46243 34.20554618 19.81695136 34.22460938 22.171875 C34.29191011 39.8745618 34.29191011 39.8745618 30.4375 46.8125 C24.57677571 52.07212437 18.359377 53.63938119 10.578125 53.32421875 C4.65823718 52.57974801 0.47050137 49.92862242 -4 46 C-3.45773019 42.20411134 -1.79872437 40.52788007 1 38 C3.18785263 38.98076152 4.75512761 39.70848526 6.3125 41.5625 C9.03034996 43.87770552 11.50693198 43.87954938 15 44 C18.12622271 42.6800393 19.56648858 41.72251903 21.3125 38.8125 C21.539375 38.214375 21.76625 37.61625 22 37 C20.824375 37.515625 19.64875 38.03125 18.4375 38.5625 C14.23423947 40.11185 11.38539113 40.29937515 7 39 C3.59207703 36.86621039 1.30414368 34.91243104 0 31 C-0.08397157 28.64319787 -0.10728187 26.28405919 -0.09765625 23.92578125 C-0.0962413 23.2419487 -0.09482635 22.55811615 -0.09336853 21.8535614 C-0.08777876 19.67316278 -0.07522822 17.49286749 -0.0625 15.3125 C-0.05748367 13.83268378 -0.052921 12.35286594 -0.04882812 10.87304688 C-0.03781271 7.24866443 -0.02055512 3.6243423 0 0 Z M22 35 C23 37 23 37 23 37 Z " fill="#3A3542" transform="translate(261,217)"/>
<path d="M0 0 C1.37478516 0.01740234 1.37478516 0.01740234 2.77734375 0.03515625 C3.69644531 0.04417969 4.61554688 0.05320313 5.5625 0.0625 C6.27277344 0.07410156 6.98304688 0.08570313 7.71484375 0.09765625 C8.04484375 0.75765625 8.37484375 1.41765625 8.71484375 2.09765625 C9.70484375 1.43765625 10.69484375 0.77765625 11.71484375 0.09765625 C16.9560818 -0.76643975 22.41877539 -1.34744854 27.0546875 1.5703125 C32.02816241 6.8592298 33.73647644 12.46104897 33.703125 19.609375 C33.52758856 22.15660373 33.1842599 24.58870788 32.71484375 27.09765625 C32.5859375 27.835 32.45703125 28.57234375 32.32421875 29.33203125 C31.41696682 32.7795886 30.41866473 34.56694743 27.5390625 36.73828125 C23.48907505 38.97530012 20.56538627 40.09765625 15.90234375 40.09765625 C12.71484375 39.09765625 12.71484375 39.09765625 7.71484375 36.09765625 C7.71484375 41.70765625 7.71484375 47.31765625 7.71484375 53.09765625 C4.08484375 53.09765625 0.45484375 53.09765625 -3.28515625 53.09765625 C-3.30979696 45.71037034 -3.32798785 38.32310813 -3.34008789 30.93579102 C-3.34512988 28.4204873 -3.35196328 25.90518653 -3.3605957 23.38989258 C-3.37266719 19.7833585 -3.37838574 16.17686302 -3.3828125 12.5703125 C-3.38797379 11.43803726 -3.39313507 10.30576202 -3.39845276 9.13917542 C-3.39852829 8.09817184 -3.39860382 7.05716827 -3.39868164 5.98461914 C-3.40090225 5.06306534 -3.40312286 4.14151154 -3.40541077 3.19203186 C-3.23563577 0.23519811 -2.96457695 0.12669132 0 0 Z M11.90234375 10.34765625 C9.63263268 11.91286323 9.63263268 11.91286323 8.71484375 14.09765625 C8.21134134 19.2234759 8.02174557 23.65601203 10.27734375 28.34765625 C12.69765685 30.4266115 12.69765685 30.4266115 16.27734375 30.22265625 C19.73648247 29.38627213 19.73648247 29.38627213 21.65234375 27.09765625 C23.30553379 22.42982554 23.677048 17.59225985 21.87109375 12.91015625 C20.75077996 10.81691822 20.75077996 10.81691822 17.90234375 9.66015625 C14.70265139 8.78941619 14.70265139 8.78941619 11.90234375 10.34765625 Z " fill="#433F4D" transform="translate(302.28515625,216.90234375)"/>
<path d="M0 0 C1.15371094 -0.01417969 2.30742187 -0.02835938 3.49609375 -0.04296875 C6.5625 0.1875 6.5625 0.1875 9.5625 2.1875 C9.5625 1.5275 9.5625 0.8675 9.5625 0.1875 C13.1925 0.1875 16.8225 0.1875 20.5625 0.1875 C20.5625 13.0575 20.5625 25.9275 20.5625 39.1875 C16.08275503 40.08344899 13.85340063 40.26022516 9.5625 39.1875 C9.2325 38.5275 8.9025 37.8675 8.5625 37.1875 C7.98242188 37.42726562 7.40234375 37.66703125 6.8046875 37.9140625 C0.37200361 40.35551018 0.37200361 40.35551018 -3.75 39.5 C-4.636875 39.066875 -5.52375 38.63375 -6.4375 38.1875 C-7.13875 37.94 -7.84 37.6925 -8.5625 37.4375 C-12.21316858 35.00372094 -14.07980955 31.26057134 -15.4375 27.1875 C-15.5859944 24.56885839 -15.6685027 21.9942523 -15.6875 19.375 C-15.708125 18.67568359 -15.72875 17.97636719 -15.75 17.25585938 C-15.78585728 12.46443023 -14.88422136 9.28897764 -12.4375 5.1875 C-11.7775 5.1875 -11.1175 5.1875 -10.4375 5.1875 C-10.004375 4.2284375 -10.004375 4.2284375 -9.5625 3.25 C-7.38703904 -0.73834509 -4.17282404 0.02325989 0 0 Z M-2.625 10.8203125 C-5.47330459 14.54029651 -5.04591688 17.78357104 -4.890625 22.3203125 C-4.60082445 25.43728125 -4.60082445 25.43728125 -2.25 28.5 C0.38315389 30.38085957 0.38315389 30.38085957 3.125 30.3125 C6.49510118 28.75706869 7.73226097 27.44125827 9.5625 24.1875 C10.26360533 19.88738733 9.95218964 16.28780016 8.5 12.1875 C6.58865927 9.89385097 6.58865927 9.89385097 3.125 9.125 C-0.41649146 8.84026419 -0.41649146 8.84026419 -2.625 10.8203125 Z " fill="#4E4955" transform="translate(353.4375,216.8125)"/>
<path d="M0 0 C0.99 0.66 1.98 1.32 3 2 C3.33 1.34 3.66 0.68 4 0 C7.63 0 11.26 0 15 0 C15 12.87 15 25.74 15 39 C10.05 39.495 10.05 39.495 5 40 C4.67 38.68 4.34 37.36 4 36 C3.38125 36.495 2.7625 36.99 2.125 37.5 C-2.28889151 39.61866793 -6.18335574 39.70242729 -11 39 C-15.67589544 36.61954414 -19.0550645 33.79141659 -20.765625 28.73828125 C-22.44156755 20.34505283 -22.49030731 11.88482047 -17.9921875 4.30078125 C-13.42415978 -1.5665358 -6.87659153 -0.95482713 0 0 Z M-8.375 10.8125 C-10.66005374 13.88853388 -11.15609656 15.59402622 -11.1875 19.375 C-11.20167969 20.14585937 -11.21585938 20.91671875 -11.23046875 21.7109375 C-10.97169787 24.2811025 -10.40508475 25.83833116 -9 28 C-5.99604572 29.43667379 -4.09028171 30.28035815 -0.8125 29.4375 C2.11193661 27.11811924 3.72676803 24.82400804 4.2890625 21.0703125 C4.42873206 17.70554579 4.09025064 15.24951646 2.9375 12.0625 C1.04002855 9.70221569 1.04002855 9.70221569 -2.4375 8.9375 C-6.02578255 8.64846663 -6.02578255 8.64846663 -8.375 10.8125 Z " fill="#423E4B" transform="translate(206,217)"/>
<path d="M0 0 C1.12664062 0.01289063 2.25328125 0.02578125 3.4140625 0.0390625 C6.375 0.375 6.375 0.375 9.375 2.375 C9.375 1.715 9.375 1.055 9.375 0.375 C12.675 0.375 15.975 0.375 19.375 0.375 C19.375 13.575 19.375 26.775 19.375 40.375 C16.405 40.375 13.435 40.375 10.375 40.375 C9.715 39.385 9.055 38.395 8.375 37.375 C6.8590625 38.1484375 6.8590625 38.1484375 5.3125 38.9375 C1.32831139 40.62435405 -1.3950797 40.52861463 -5.625 39.375 C-10.40078686 37.03392801 -12.75988506 34.40086544 -14.87109375 29.6484375 C-17.5479438 21.57627828 -16.96359523 14.27491381 -13.3125 6.625 C-9.48962801 1.52783735 -6.37997457 -0.16133269 0 0 Z M-4.671875 13.4609375 C-6.45604355 17.04389894 -6.39495349 20.50384498 -5.625 24.375 C-3.77452764 27.66472865 -2.65377397 28.98920976 0.875 30.3125 C3.79241929 30.38543548 5.0486268 30.13983484 7.375 28.375 C10.09358746 23.61747194 9.596042 18.86172253 9.125 13.5625 C8.56509009 11.26137387 8.56509009 11.26137387 6.625 10.0625 C1.39189964 8.46349711 -1.19866857 8.82266815 -4.671875 13.4609375 Z " fill="#45414D" transform="translate(445.625,216.625)"/>
<path d="M0 0 C0.75925781 -0.00773438 1.51851562 -0.01546875 2.30078125 -0.0234375 C9.3050049 0.00109568 9.3050049 0.00109568 12.5 2.25 C15.66783125 5.59382187 16.5 6.51882208 16.5 11.25 C14.25 13.0625 14.25 13.0625 11.5 14.25 C9.1875 13.9375 9.1875 13.9375 7.5 13.25 C7.5 12.59 7.5 11.93 7.5 11.25 C4.50519083 10.3776588 1.86424089 10.14170234 -1.25 10.1875 C-2.44882813 10.20103516 -2.44882813 10.20103516 -3.671875 10.21484375 C-4.27515625 10.22644531 -4.8784375 10.23804688 -5.5 10.25 C-2.82666675 13.7885211 0.08128379 13.86914774 4.3125 14.5 C9.93538363 15.61062128 13.3696097 16.60097934 16.63671875 21.42578125 C18.03968484 24.39042 18.23700878 26.0339617 17.5 29.25 C14.93802363 34.29828256 11.9343501 37.36887881 6.5 39.25 C-0.09936166 40.84682097 -5.37330309 40.15274572 -11.5 37.25 C-14.88834734 35.0151326 -17.16489129 33.13395262 -18.5 29.25 C-18.5 27.93 -18.5 26.61 -18.5 25.25 C-15.53 24.26 -12.56 23.27 -9.5 22.25 C-9.2525 23.219375 -9.005 24.18875 -8.75 25.1875 C-7.86969431 28.28954701 -7.86969431 28.28954701 -5.8125 29.125 C0.0092476 29.67678198 0.0092476 29.67678198 5.5 28.25 C5.17 27.26 4.84 26.27 4.5 25.25 C1.20342938 24.29414505 -2.05354119 23.60094996 -5.421875 22.96484375 C-10.43113475 21.88748457 -13.29149012 20.50096348 -16.5 16.25 C-17.0234375 13.86328125 -17.0234375 13.86328125 -16.875 11.5625 C-16.84148437 10.79550781 -16.80796875 10.02851563 -16.7734375 9.23828125 C-16.5 7.25 -16.5 7.25 -15.5 5.25 C-14.84 5.25 -14.18 5.25 -13.5 5.25 C-13.17 4.26 -12.84 3.27 -12.5 2.25 C-8.83926813 -0.55158051 -4.39414581 -0.0447621 0 0 Z " fill="#44404D" transform="translate(240.5,216.75)"/>
<path d="M0 0 C0.75087891 -0.01611328 1.50175781 -0.03222656 2.27539062 -0.04882812 C6.82656794 -0.05283092 9.89356445 0.31462224 13.5625 3.3125 C13.5625 3.9725 13.5625 4.6325 13.5625 5.3125 C14.2225 5.3125 14.8825 5.3125 15.5625 5.3125 C16.0575 8.2825 16.0575 8.2825 16.5625 11.3125 C11.9375 14.3125 11.9375 14.3125 8.5625 14.3125 C8.129375 13.85875 7.69625 13.405 7.25 12.9375 C4.89055782 10.66544457 2.72509836 10.07152361 -0.4375 9.3125 C-3.21497682 9.59889786 -3.21497682 9.59889786 -5.4375 10.3125 C-5.1075 10.9725 -4.7775 11.6325 -4.4375 12.3125 C-1.36060439 13.20555019 1.71353482 13.94399134 4.83984375 14.63671875 C9.31149657 15.71729497 12.24008769 17.12594842 15.5625 20.3125 C17.26182147 23.24769164 17.57895196 24.91765287 17.4375 28.3125 C16.08305076 32.95632598 13.93671362 35.39635759 9.9375 38.0625 C2.29700287 40.89231375 -3.83608288 40.97227013 -11.296875 37.546875 C-14.23162757 35.85457242 -15.86121568 34.32177007 -17.4375 31.3125 C-17.6875 28 -17.6875 28 -17.4375 25.3125 C-15.7875 24.9825 -14.1375 24.6525 -12.4375 24.3125 C-12.4375 23.6525 -12.4375 22.9925 -12.4375 22.3125 C-11.4475 22.3125 -10.4575 22.3125 -9.4375 22.3125 C-8.05626037 24.27972008 -6.72261874 26.28118328 -5.4375 28.3125 C-2.44752175 29.80748913 0.26292775 29.42827446 3.5625 29.3125 C4.5525 28.9825 5.5425 28.6525 6.5625 28.3125 C4.21318088 24.78852132 2.92456887 24.72288741 -1.05664062 23.87109375 C-2.50612552 23.58455266 -3.9566478 23.30320494 -5.40820312 23.02734375 C-10.40155111 21.94645251 -13.21776223 20.52675137 -16.4375 16.3125 C-17.28872242 13.22483605 -17.05690285 10.4436098 -16.4375 7.3125 C-12.34226156 0.43834976 -7.55193607 -0.03224567 0 0 Z " fill="#43404C" transform="translate(410.4375,216.6875)"/>
<path d="M0 0 C1.0209375 1.3303125 1.0209375 1.3303125 2.0625 2.6875 C2.660625 3.285625 3.25875 3.88375 3.875 4.5 C5.69852597 7.8591268 5.79743672 11.0198831 5.0625 14.6875 C2.21337372 19.40636539 -0.5896135 21.56635566 -5.83203125 23.21875 C-13.74748165 24.98100241 -19.88120521 22.84510361 -26.875 19.125 C-28.9375 17.6875 -28.9375 17.6875 -29.9375 15.6875 C-30.49014426 9.93999968 -29.44089699 7.22130788 -25.9375 2.6875 C-25.2775 1.6975 -24.6175 0.7075 -23.9375 -0.3125 C-17.36370563 -4.69502958 -6.18347132 -4.86783912 0 0 Z M-18.9375 8.6875 C-19.74278889 10.73750871 -19.74278889 10.73750871 -19.9375 12.6875 C-17.44995214 13.93127393 -15.71094699 13.82056235 -12.9375 13.8125 C-11.6071875 13.81636719 -11.6071875 13.81636719 -10.25 13.8203125 C-7.91073034 13.83877902 -7.91073034 13.83877902 -5.9375 12.6875 C-6.28194881 10.21483235 -6.28194881 10.21483235 -6.9375 7.6875 C-10.87579653 5.71835174 -15.39750906 6.06528449 -18.9375 8.6875 Z " fill="#3F3C49" transform="translate(175.9375,219.3125)"/>
<path d="M0 0 C3.3 0 6.6 0 10 0 C10.02505615 0.74161377 10.0501123 1.48322754 10.07592773 2.24731445 C10.19186132 5.60255328 10.31459985 8.95750944 10.4375 12.3125 C10.47681641 13.47974609 10.51613281 14.64699219 10.55664062 15.84960938 C10.61948242 17.52700195 10.61948242 17.52700195 10.68359375 19.23828125 C10.72025146 20.26993408 10.75690918 21.30158691 10.79467773 22.36450195 C10.90161242 25.10748258 10.90161242 25.10748258 12 28 C16.16720407 28.38620869 16.16720407 28.38620869 19.8125 26.6875 C21.96934857 23.62250466 22.16238977 20.7436697 22.31640625 17.11328125 C22.35830078 16.17548828 22.40019531 15.23769531 22.44335938 14.27148438 C22.48267578 13.29501953 22.52199219 12.31855469 22.5625 11.3125 C22.60568359 10.32443359 22.64886719 9.33636719 22.69335938 8.31835938 C22.79941654 5.87904454 22.90147714 3.43962887 23 1 C23.33 1 23.66 1 24 1 C24.02893932 4.62498334 24.04677792 8.24993713 24.0625 11.875 C24.07087891 12.90753906 24.07925781 13.94007813 24.08789062 15.00390625 C24.09272461 16.48310547 24.09272461 16.48310547 24.09765625 17.9921875 C24.10551147 19.35899658 24.10551147 19.35899658 24.11352539 20.75341797 C24 23 24 23 23 25 C23.99 25 24.98 25 26 25 C25.52013969 30.56890517 24.70084819 35.67067568 23 41 C22.34 41 21.68 41 21 41 C21.33 39.68 21.66 38.36 22 37 C20.824375 37.515625 19.64875 38.03125 18.4375 38.5625 C14.23423947 40.11185 11.38539113 40.29937515 7 39 C3.59207703 36.86621039 1.30414368 34.91243104 0 31 C-0.08397157 28.64319787 -0.10728187 26.28405919 -0.09765625 23.92578125 C-0.0962413 23.2419487 -0.09482635 22.55811615 -0.09336853 21.8535614 C-0.08777876 19.67316278 -0.07522822 17.49286749 -0.0625 15.3125 C-0.05748367 13.83268378 -0.052921 12.35286594 -0.04882812 10.87304688 C-0.03781271 7.24866443 -0.02055512 3.6243423 0 0 Z M22 35 C23 37 23 37 23 37 Z " fill="#4D4955" transform="translate(261,217)"/>
<path d="M0 0 C2.97 0 5.94 0 9 0 C9 13.2 9 26.4 9 40 C6.03 40 3.06 40 0 40 C0.33 37.69 0.66 35.38 1 33 C0.0409375 32.8453125 0.0409375 32.8453125 -0.9375 32.6875 C-1.618125 32.460625 -2.29875 32.23375 -3 32 C-3.33 31.01 -3.66 30.02 -4 29 C-3.34 28.67 -2.68 28.34 -2 28 C-2 22.39 -2 16.78 -2 11 C-3.32 10.67 -4.64 10.34 -6 10 C-7.8125 8.6875 -7.8125 8.6875 -9 7 C-8.6875 4.8125 -8.6875 4.8125 -8 3 C-5.39417629 2.06934867 -4.35801776 1.85082593 -1.75 2.9375 C-0.88375 3.4634375 -0.88375 3.4634375 0 4 C0 2.68 0 1.36 0 0 Z " fill="#3B3744" transform="translate(456,217)"/>
<path d="M0 0 C4.4604936 1.13698857 8.22017858 2.33189076 12 5 C13.45887389 7.91774779 13.36823233 9.74728105 13 13 C10.51457967 18.0565448 7.38249707 21.13682794 2 23 C-4.59936166 24.59682097 -9.87330309 23.90274572 -16 21 C-19.38834734 18.7651326 -21.66489129 16.88395262 -23 13 C-23 11.68 -23 10.36 -23 9 C-20.03 8.01 -17.06 7.02 -14 6 C-13.7525 6.969375 -13.505 7.93875 -13.25 8.9375 C-12.36969431 12.03954701 -12.36969431 12.03954701 -10.3125 12.875 C-3.57612592 13.26524095 -3.57612592 13.26524095 3 12 C2.56802365 7.2482602 1.67230705 5.07999946 -2 2 C-1.34 1.34 -0.68 0.68 0 0 Z " fill="#413E4B" transform="translate(245,233)"/>
<path d="M0 0 C3.3 0 6.6 0 10 0 C10 12.54 10 25.08 10 38 C7.03 38 4.06 38 1 38 C1.33 36.35 1.66 34.7 2 33 C0.68 32.34 -0.64 31.68 -2 31 C-1.84273438 30.45730469 -1.68546875 29.91460937 -1.5234375 29.35546875 C0.24912179 21.37895194 -0.42746939 14.59577335 -4.7109375 7.64453125 C-5.91842009 5.86243562 -5.91842009 5.86243562 -8 5 C-8 4.34 -8 3.68 -8 3 C-8.66 3 -9.32 3 -10 3 C-10 2.34 -10 1.68 -10 1 C-2.25 0.875 -2.25 0.875 0 2 C0 1.34 0 0.68 0 0 Z " fill="#35313D" transform="translate(363,217)"/>
<path d="M0 0 C3.63 0 7.26 0 11 0 C11.02464775 5.53588533 11.04283496 11.071739 11.05493164 16.60766602 C11.05997244 18.4924373 11.06680498 20.37720465 11.07543945 22.26196289 C11.08751617 24.96501636 11.09323068 27.66801831 11.09765625 30.37109375 C11.10281754 31.21900986 11.10797882 32.06692596 11.11329651 32.9405365 C11.11349195 34.96071068 11.06206211 36.98077934 11 39 C9.10114904 40.89885096 6.42752097 40.12367506 3.91015625 40.1328125 C2 40 2 40 0 39 C0 26.13 0 13.26 0 0 Z " fill="#56525C" transform="translate(378,217)"/>
<path d="M0 0 C3.83511953 1.56245611 6.10365784 4.10365784 9 7 C13.4196668 9.69469136 17.96248088 9.84092132 23 9 C24.76882281 7.86352592 24.76882281 7.86352592 26.1875 6.375 C27.115625 5.59125 28.04375 4.8075 29 4 C34.98039216 4.98039216 34.98039216 4.98039216 37 7 C37.4375 9.25 37.4375 9.25 37 12 C34.99424669 14.00575331 33.31111835 15.44680037 31 17 C29.6696875 17.8971875 29.6696875 17.8971875 28.3125 18.8125 C22.69039563 20.82797138 17.09156241 21.14171682 11.4296875 19.05078125 C5.95190238 16.1853392 2.0089472 13.02684161 0 7 C-0.03954234 4.66700175 -0.04401732 2.33291811 0 0 Z " fill="#32AD62" transform="translate(145,237)"/>
<path d="M0 0 C0.99 0.33 1.98 0.66 3 1 C2.01 1.495 2.01 1.495 1 2 C0.34444881 4.52733235 0.34444881 4.52733235 0 7 C1.32 7 2.64 7 4 7 C4 7.66 4 8.32 4 9 C4.99 9.33 5.98 9.66 7 10 C6.01 10.33 5.02 10.66 4 11 C2.9292951 13.80598526 2.86479285 16.51951211 2.875 19.5 C2.87242187 20.2528125 2.86984375 21.005625 2.8671875 21.78125 C3.00050928 24.008508 3.27087378 25.89057822 4 28 C5.9837767 29.28436734 5.9837767 29.28436734 8 30 C6.68 30.33 5.36 30.66 4 31 C3.67 29.68 3.34 28.36 3 27 C2.21625 27.495 1.4325 27.99 0.625 28.5 C-2 30 -2 30 -4 30 C-4 30.99 -4 31.98 -4 33 C-3.01 33 -2.02 33 -1 33 C-1 33.99 -1 34.98 -1 36 C-0.01 36 0.98 36 2 36 C2 36.66 2 37.32 2 38 C-2.46520629 36.63563141 -4.57895595 35.00724532 -7 31 C-9.67224484 22.78212878 -9.69347429 13.91458777 -6 6 C-4.1177774 3.81662179 -2.13672488 1.95092272 0 0 Z " fill="#484551" transform="translate(193,217)"/>
<path d="M0 0 C2.18785263 0.98076152 3.75512761 1.70848526 5.3125 3.5625 C8.0426014 5.88814193 10.48501877 5.88084809 14 6 C17.36878771 4.69280737 17.36878771 4.69280737 20 3 C20 3.99 20 4.98 20 6 C20.66 5.67 21.32 5.34 22 5 C22.33 6.32 22.66 7.64 23 9 C24.65 8.67 26.3 8.34 28 8 C27 11 27 11 25.3203125 12.16796875 C18.63925317 15.2707383 12.16058465 16.34834825 4.921875 14.45703125 C1.10858128 12.95658307 -1.94235715 10.68701948 -5 8 C-4.45773019 4.20411134 -2.79872437 2.52788007 0 0 Z " fill="#46414E" transform="translate(262,255)"/>
<path d="M0 0 C0.66 0.33 1.32 0.66 2 1 C1.01 2.485 1.01 2.485 0 4 C-0.35505425 6.6057687 -0.35505425 6.6057687 -0.3125 9.4375 C-0.32925781 10.38496094 -0.34601563 11.33242187 -0.36328125 12.30859375 C0.05011109 15.37125309 0.96270529 16.72618559 3 19 C6.43793339 18.81870185 6.43793339 18.81870185 10 18 C11.90254427 15.19625055 12.33091215 12.58299564 12.625 9.25 C12.69976562 8.45078125 12.77453125 7.6515625 12.8515625 6.828125 C12.90054687 6.22484375 12.94953125 5.6215625 13 5 C13.33 5 13.66 5 14 5 C14 8.3 14 11.6 14 15 C15.32 14.67 16.64 14.34 18 14 C18.33 14.66 18.66 15.32 19 16 C19.99 15.01 20.98 14.02 22 13 C23.22434682 16.89880653 22.8608382 19.2805295 21.33984375 23.0234375 C18.65314652 26.98690338 14.47153186 28.65854044 10 30 C7.22526263 30.1924088 5.71721116 29.84912849 3 29 C2.34 28.34 1.68 27.68 1 27 C1.61875 26.731875 2.2375 26.46375 2.875 26.1875 C5.2995233 25.04443152 5.2995233 25.04443152 7 22 C2.545 21.01 2.545 21.01 -2 20 C-2 13.66666667 -2 7.33333333 -2 1 C-1.34 0.67 -0.68 0.34 0 0 Z " fill="#4D4955" transform="translate(312,227)"/>
<path d="M0 0 C0.33 0.66 0.66 1.32 1 2 C2.98 1.34 4.96 0.68 7 0 C7 3 7 3 6 6 C9.60795953 7.80397977 13.86915355 7.00913492 17.8359375 6.9375 C20.46650699 6.98946187 22.51248727 7.21575953 25 8 C24.1875 11.4375 24.1875 11.4375 23 15 C16.99848712 17.00050429 11.52084618 16.35646852 5.765625 14 C3.13704152 12.51124476 1.62353758 10.50295376 0 8 C0.66 7.34 1.32 6.68 2 6 C1.01 5.34 0.02 4.68 -1 4 C-0.67 2.68 -0.34 1.36 0 0 Z M25 6 C25.66 6.66 26.32 7.32 27 8 C26.34 8 25.68 8 25 8 C25 7.34 25 6.68 25 6 Z " fill="#312D3A" transform="translate(148,227)"/>
<path d="M0 0 C0.99 0 1.98 0 3 0 C4.38123963 1.96722008 5.71488126 3.96868328 7 6 C9.96390838 7.48195419 12.72443978 7.05746597 16 7 C16.99 7 17.98 7 19 7 C15.25 10 15.25 10 13 10 C12.67 10.66 12.34 11.32 12 12 C11.34 12 10.68 12 10 12 C10.33 12.99 10.66 13.98 11 15 C13.64 15.33 16.28 15.66 19 16 C19 16.33 19 16.66 19 17 C11.40313546 18.48704582 5.77089102 17.90438241 -1 14 C-4.1719989 11.13009623 -4.9282039 9.95129835 -5.25 5.6875 C-5.1675 4.800625 -5.085 3.91375 -5 3 C-3.35 2.67 -1.7 2.34 0 2 C0 1.34 0 0.68 0 0 Z " fill="#4F4A55" transform="translate(398,239)"/>
<path d="M0 0 C0.99 0 1.98 0 3 0 C5.03690127 4.07380254 5.27875769 6.61568793 4 11 C1.72995795 14.44420172 -0.14798137 16.53820832 -4 18 C-7.234375 18.1953125 -7.234375 18.1953125 -10.75 18.125 C-11.92046875 18.10695312 -13.0909375 18.08890625 -14.296875 18.0703125 C-15.18890625 18.04710937 -16.0809375 18.02390625 -17 18 C-16.34 17.34 -15.68 16.68 -15 16 C-15.33 15.01 -15.66 14.02 -16 13 C-14.741875 12.608125 -13.48375 12.21625 -12.1875 11.8125 C-8.23701932 10.34935901 -6.79769754 8.89501134 -5 5 C-3 3 -3 3 0 2 C0 1.34 0 0.68 0 0 Z " fill="#373340" transform="translate(423,237)"/>
<path d="M0 0 C0.86625 0.4640625 0.86625 0.4640625 1.75 0.9375 C4.96273798 2.45462627 7.44278415 3 11 3 C11 3.66 11 4.32 11 5 C11.66 5 12.32 5 13 5 C13.65867457 8.35858814 14.1465164 11.57256278 14 15 C11.5625 18.125 11.5625 18.125 9 20 C8.34 19.34 7.68 18.68 7 18 C6.01 18 5.02 18 4 18 C4 14.7 4 11.4 4 8 C3.34 8 2.68 8 2 8 C0.74335022 5.09399739 0 3.20395416 0 0 Z " fill="#3A3643" transform="translate(322,224)"/>
<path d="M0 0 C1.32 0.33 2.64 0.66 4 1 C3.67 1.66 3.34 2.32 3 3 C6.465 2.505 6.465 2.505 10 2 C10 5.63 10 9.26 10 13 C9.01 13.495 9.01 13.495 8 14 C9.32 14.66 10.64 15.32 12 16 C11.67 16.66 11.34 17.32 11 18 C4.57142857 19.28571429 4.57142857 19.28571429 2 18 C2 17.34 2 16.68 2 16 C1.34 16 0.68 16 0 16 C0 10.72 0 5.44 0 0 Z " fill="#383440" transform="translate(338,228)"/>
<path d="M0 0 C0.99 0 1.98 0 3 0 C3.515625 1.134375 4.03125 2.26875 4.5625 3.4375 C7.05649946 8.47051697 10.44132749 12.68161088 14 17 C13.34 17.66 12.68 18.32 12 19 C12 18.34 12 17.68 12 17 C11.34 17 10.68 17 10 17 C10 16.01 10 15.02 10 14 C9.0409375 13.8453125 9.0409375 13.8453125 8.0625 13.6875 C7.381875 13.460625 6.70125 13.23375 6 13 C5.67 12.01 5.34 11.02 5 10 C4.34 9.67 3.68 9.34 3 9 C3 11.97 3 14.94 3 18 C3.66 18 4.32 18 5 18 C5.2475 18.94875 5.495 19.8975 5.75 20.875 C6.90551528 24.97791658 8.52824033 28.84739697 10.1953125 32.765625 C11 35 11 35 11 38 C11.66 38 12.32 38 13 38 C12.67 39.32 12.34 40.64 12 42 C2.81244273 28.7761615 -0.89702508 16.17136881 0 0 Z " fill="#59B27C" transform="translate(244,94)"/>
<path d="M0 0 C0.51304687 0.4640625 1.02609375 0.928125 1.5546875 1.40625 C5.60211938 4.04419283 10.18457178 4.33576721 14.8828125 5.15625 C18 6 18 6 20 9 C18.906875 8.835 17.81375 8.67 16.6875 8.5 C13.12474127 7.93281816 13.12474127 7.93281816 10 8 C10 8.66 10 9.32 10 10 C10.639375 10.268125 11.27875 10.53625 11.9375 10.8125 C14 12 14 12 15 15 C14.01 16.485 14.01 16.485 13 18 C12.34 17.01 11.68 16.02 11 15 C8.2709656 14.1374405 5.65771705 13.43008056 2.875 12.8125 C2.12089844 12.63525391 1.36679688 12.45800781 0.58984375 12.27539062 C-1.27097967 11.83962818 -3.13519867 11.41841214 -5 11 C-4.34 10.67 -3.68 10.34 -3 10 C-2.08968728 7.65613191 -2.08968728 7.65613191 -1.375 4.9375 C-1.11460937 4.01839844 -0.85421875 3.09929687 -0.5859375 2.15234375 C-0.39257812 1.44207031 -0.19921875 0.73179687 0 0 Z " fill="#524F5A" transform="translate(234,227)"/>
<path d="M0 0 C2.75026417 -0.05404449 5.49946203 -0.09369306 8.25 -0.125 C9.02730469 -0.14175781 9.80460938 -0.15851563 10.60546875 -0.17578125 C17.87307467 -0.23789754 17.87307467 -0.23789754 21 2 C24.16783125 5.34382187 25 6.26882208 25 11 C22.75 12.8125 22.75 12.8125 20 14 C17.6875 13.6875 17.6875 13.6875 16 13 C16 12.34 16 11.68 16 11 C13.00519083 10.1276588 10.36424089 9.89170234 7.25 9.9375 C6.05117187 9.95103516 6.05117187 9.95103516 4.828125 9.96484375 C4.22484375 9.97644531 3.6215625 9.98804688 3 10 C3.33 9.34 3.66 8.68 4 8 C6.64 8 9.28 8 12 8 C11.7215625 6.824375 11.7215625 6.824375 11.4375 5.625 C11 3 11 3 12 1 C8.04 1 4.08 1 0 1 C0 0.67 0 0.34 0 0 Z " fill="#5D5A63" transform="translate(232,217)"/>
<path d="M0 0 C2 3 2 3 1.875 6.5625 C1 10 1 10 -0.6875 11.5 C-3.8146234 12.17613479 -5.94266963 11.93049185 -9 11 C-10.71396885 8.8185851 -10.97249328 7.16111079 -11.4375 4.4375 C-11 2 -11 2 -8.875 0.125 C-5.38031769 -1.24248438 -3.56086712 -1.10782533 0 0 Z " fill="#5EA77B" transform="translate(388,202)"/>
<path d="M0 0 C0.33 0 0.66 0 1 0 C1 12.87 1 25.74 1 39 C-3.47974497 39.89594899 -5.70909937 40.07272516 -10 39 C-10.33 38.34 -10.66 37.68 -11 37 C-11.928125 37.2784375 -11.928125 37.2784375 -12.875 37.5625 C-15 38 -15 38 -17 37 C-17 36.34 -17 35.68 -17 35 C-17.66 35 -18.32 35 -19 35 C-19 33.68 -19 32.36 -19 31 C-18.1646875 30.6596875 -18.1646875 30.6596875 -17.3125 30.3125 C-14.36753316 28.64103234 -12.31843456 26.44723648 -10 24 C-10.165 24.598125 -10.33 25.19625 -10.5 25.8125 C-11.1114124 28.11344336 -11.1114124 28.11344336 -11 31 C-9.68 31.66 -8.36 32.32 -7 33 C-7.33 34.32 -7.66 35.64 -8 37 C-5.36 37.33 -2.72 37.66 0 38 C0 25.46 0 12.92 0 0 Z " fill="#87848B" transform="translate(373,217)"/>
<path d="M0 0 C0.33 0.66 0.66 1.32 1 2 C1.85271484 1.83951172 1.85271484 1.83951172 2.72265625 1.67578125 C8.53570263 0.77325485 11.80452875 1.23645146 17 4 C16.34 5.32 15.68 6.64 15 8 C17.475 8.495 17.475 8.495 20 9 C19.67 9.99 19.34 10.98 19 12 C14.6798277 13.27063891 12.13706974 12.67243245 8 11 C7.29875 10.7525 6.5975 10.505 5.875 10.25 C3.03670368 8.35780245 1.67321512 5.92812646 0 3 C0 2.01 0 1.02 0 0 Z " fill="#45414D" transform="translate(339,244)"/>
<path d="M0 0 C4.0138236 1.21348155 7.69100609 2.37226954 11 5 C11.766423 10.92235953 8.44248872 14.51408391 5 19 C2.625 21.625 2.625 21.625 0 24 C-0.89525391 24.84884766 -0.89525391 24.84884766 -1.80859375 25.71484375 C-6.24120803 29.80183509 -10.41417066 32.68862234 -16 35 C-16.66 34.67 -17.32 34.34 -18 34 C-17.67 33.34 -17.34 32.68 -17 32 C-16.01 32 -15.02 32 -14 32 C-14 31.34 -14 30.68 -14 30 C-13.030625 29.7525 -12.06125 29.505 -11.0625 29.25 C-10.051875 28.8375 -9.04125 28.425 -8 28 C-7.03122943 25.96756452 -7.03122943 25.96756452 -7 24 C-5.02 23.67 -3.04 23.34 -1 23 C-1 22.01 -1 21.02 -1 20 C-0.34 19.67 0.32 19.34 1 19 C1.65213292 16.97536745 1.65213292 16.97536745 2 15 C2.99 15 3.98 15 5 15 C5 13.68 5 12.36 5 11 C5.99 10.34 6.98 9.68 8 9 C8.33 8.01 8.66 7.02 9 6 C7.88625 5.7525 6.7725 5.505 5.625 5.25 C2 4 2 4 0.5625 1.875 C0.376875 1.25625 0.19125 0.6375 0 0 Z " fill="#64B482" transform="translate(355,116)"/>
<path d="M0 0 C-14.10017623 9.40011749 -33.0495947 7.89210646 -49 5 C-51.81989686 4.17652584 -54.31526376 3.20539178 -57 2 C-54 0 -54 0 -50 0 C-50 0.99 -50 1.98 -50 3 C-44.51907306 3.07420027 -39.03843901 3.1286258 -33.55712891 3.16479492 C-31.69281928 3.17987414 -29.82854508 3.20034061 -27.96435547 3.22631836 C-25.28343967 3.26273996 -22.6029932 3.2797349 -19.921875 3.29296875 C-19.08944275 3.30845261 -18.2570105 3.32393646 -17.39935303 3.33988953 C-12.94967702 3.34118133 -10.34127603 3.25042406 -7 0 C-3.94862074 -1.10959246 -3.20219758 -1.06739919 0 0 Z " fill="#46A470" transform="translate(337,151)"/>
<path d="M0 0 C3.82675111 1.55904675 6.18007783 4.03166087 9 7 C9.66 7.66 10.32 8.32 11 9 C9.33388095 9.042721 7.66617115 9.04063832 6 9 C5.67 8.67 5.34 8.34 5 8 C5 9.32 5 10.64 5 12 C6.32 12.33 7.64 12.66 9 13 C9 13.66 9 14.32 9 15 C11.97 15.495 11.97 15.495 15 16 C15 16.66 15 17.32 15 18 C16.64630328 17.85957123 18.29204179 17.71250671 19.9375 17.5625 C20.85402344 17.48128906 21.77054688 17.40007812 22.71484375 17.31640625 C24.96159732 17.23955024 24.96159732 17.23955024 26 16 C27.66617115 15.95936168 29.33388095 15.957279 31 16 C25.34584261 20.334854 21.10751245 20.83452323 14 20 C8.46575168 17.9852661 4.1799799 15.03496817 1 10 C-0.1577506 6.52674819 -0.06866652 3.63932552 0 0 Z " fill="#5CB17B" transform="translate(145,237)"/>
<path d="M0 0 C4.95769796 -0.29162929 8.02806853 -0.12940055 12 3 C12 3.66 12 4.32 12 5 C12.66 5 13.32 5 14 5 C14.33 6.98 14.66 8.96 15 11 C10.375 14 10.375 14 7 14 C6 13 5 12 4 11 C1.40084462 9.80972016 1.40084462 9.80972016 -1 9 C0.32 8.67 1.64 8.34 3 8 C3.144375 7.401875 3.28875 6.80375 3.4375 6.1875 C3.8872439 4.43849596 4.42892341 2.71322977 5 1 C3.35 1 1.7 1 0 1 C0 0.67 0 0.34 0 0 Z " fill="#55515C" transform="translate(412,217)"/>
<path d="M0 0 C11.18618064 -1.21113535 11.18618064 -1.21113535 15.45703125 1.640625 C17.34554677 3.71760745 18.83349812 5.44302789 20 8 C19.6640625 10.265625 19.6640625 10.265625 19 12 C18.67 11.34 18.34 10.68 18 10 C17.01 10 16.02 10 15 10 C11 10 11 10 9.3125 8.75 C7.87148345 6.8286446 7.40501203 5.34906978 7 3 C10.875 2 10.875 2 12 2 C7.71 2 3.42 2 -1 2 C-0.67 1.34 -0.34 0.68 0 0 Z M8 7 C8.33 8.32 8.66 9.64 9 11 C6.36 10.67 3.72 10.34 1 10 C2.59557315 6.80885369 4.64094718 7 8 7 Z " fill="#595661" transform="translate(314,217)"/>
<path d="M0 0 C2.97 0 5.94 0 9 0 C6 2 6 2 2 4 C2 17.2 2 30.4 2 44 C0 42 0 42 -0.24050903 40.16500854 C-0.23606781 39.42332428 -0.23162659 38.68164001 -0.22705078 37.91748047 C-0.22689972 37.07675995 -0.22674866 36.23603943 -0.22659302 35.36984253 C-0.21627045 34.46146637 -0.20594788 33.55309021 -0.1953125 32.6171875 C-0.1924826 31.68778351 -0.18965271 30.75837952 -0.18673706 29.80081177 C-0.17552069 26.8254115 -0.1504136 23.85030965 -0.125 20.875 C-0.11497208 18.86068142 -0.1058459 16.84635814 -0.09765625 14.83203125 C-0.07557661 9.88790544 -0.04103693 4.94400335 0 0 Z " fill="#2C2834" transform="translate(300,218)"/>
<path d="M0 0 C0.33 1.32 0.66 2.64 1 4 C1.66 4 2.32 4 3 4 C2.67 5.65 2.34 7.3 2 9 C2.66 9.33 3.32 9.66 4 10 C3.34 10 2.68 10 2 10 C1.67 10.66 1.34 11.32 1 12 C0.67 11.34 0.34 10.68 0 10 C-2.31 10.33 -4.62 10.66 -7 11 C-7.22609337 13.12364481 -7.22609337 13.12364481 -5.5 14.625 C-5.005 15.07875 -4.51 15.5325 -4 16 C-4.66 16.66 -5.32 17.32 -6 18 C-5.67 18.66 -5.34 19.32 -5 20 C-5.99 19.67 -6.98 19.34 -8 19 C-9.5547669 15.89046621 -9.28644437 13.43733239 -9 10 C-7.125 6.75 -7.125 6.75 -5 4 C-4.34 3.01 -3.68 2.02 -3 1 C-2.01 0.67 -1.02 0.34 0 0 Z " fill="#4F4B57" transform="translate(155,218)"/>
<path d="M0 0 C2.91280837 1.30574169 4.80294493 2.7074208 7 5 C7.99 5.66 8.98 6.32 10 7 C8.68 7 7.36 7 6 7 C5.34 8.65 4.68 10.3 4 12 C-2.75 10.25 -2.75 10.25 -5 8 C-4.74739753 4.21096292 -2.72150557 2.45813407 0 0 Z " fill="#504C58" transform="translate(262,255)"/>
<path d="M0 0 C0.66 0.66 1.32 1.32 2 2 C1.34 2 0.68 2 0 2 C0 1.34 0 0.68 0 0 Z M-17 1 C-14.91673869 0.97290556 -12.83337559 0.95356127 -10.75 0.9375 C-9.58984375 0.92589844 -8.4296875 0.91429687 -7.234375 0.90234375 C-4.59022872 0.98217908 -2.50173909 1.21356222 0 2 C-0.66 3.98 -1.32 5.96 -2 8 C-3.43655854 8.08131463 -4.8744483 8.13933559 -6.3125 8.1875 C-7.51326172 8.23970703 -7.51326172 8.23970703 -8.73828125 8.29296875 C-11.51953174 7.93270314 -12.20935215 7.08214866 -14 5 C-16.09989652 3.82425289 -16.09989652 3.82425289 -18 3 C-17.67 2.34 -17.34 1.68 -17 1 Z " fill="#312C39" transform="translate(173,233)"/>
<path d="M0 0 C3.71599191 -0.20086443 4.77208445 -0.1519437 8 2 C8 1.34 8 0.68 8 0 C10.64 0 13.28 0 16 0 C15.67 0.66 15.34 1.32 15 2 C14.34 2 13.68 2 13 2 C12.7018576 5.7763932 12.7018576 5.7763932 14 8 C11.03 7.67 8.06 7.34 5 7 C5 7.66 5 8.32 5 9 C3.68 9 2.36 9 1 9 C1.33 7.35 1.66 5.7 2 4 C1.34 4 0.68 4 0 4 C0 2.68 0 1.36 0 0 Z " fill="#35313E" transform="translate(156,218)"/>
<path d="M0 0 C-0.33 2.31 -0.66 4.62 -1 7 C-0.34 7.33 0.32 7.66 1 8 C-0.77174819 7.91276622 -2.54247377 7.80458345 -4.3125 7.6875 C-5.29863281 7.62949219 -6.28476562 7.57148438 -7.30078125 7.51171875 C-10.27559125 6.94775332 -11.21696805 6.39301656 -13 4 C-13.6875 1.8125 -13.6875 1.8125 -14 0 C-9.20699867 -1.39151652 -4.84864218 -0.68662689 0 0 Z " fill="#312D3A" transform="translate(417,218)"/>
<path d="M0 0 C1.50433594 0.01353516 1.50433594 0.01353516 3.0390625 0.02734375 C3.80992187 0.03894531 4.58078125 0.05054688 5.375 0.0625 C5.375 1.0525 5.375 2.0425 5.375 3.0625 C4.055 2.7325 2.735 2.4025 1.375 2.0625 C1.375 3.3825 1.375 4.7025 1.375 6.0625 C-0.22649886 6.73555018 -1.83131029 7.40072227 -3.4375 8.0625 C-4.33082031 8.43375 -5.22414063 8.805 -6.14453125 9.1875 C-8.625 10.0625 -8.625 10.0625 -11.625 10.0625 C-11.295 8.4125 -10.965 6.7625 -10.625 5.0625 C-9.965 5.0625 -9.305 5.0625 -8.625 5.0625 C-8.50125 4.423125 -8.3775 3.78375 -8.25 3.125 C-8.04375 2.444375 -7.8375 1.76375 -7.625 1.0625 C-4.98041621 -0.25979189 -2.94738699 -0.03427194 0 0 Z " fill="#302C39" transform="translate(320.625,217.9375)"/>
<path d="M0 0 C-0.99 0.33 -1.98 0.66 -3 1 C-3 1.66 -3 2.32 -3 3 C-7.92565229 3.96320386 -12.68725084 4.24778582 -17.6875 4.3125 C-18.44611328 4.34150391 -19.20472656 4.37050781 -19.98632812 4.40039062 C-22.19921875 4.42578125 -22.19921875 4.42578125 -26 4 C-27.73754883 1.97338867 -27.73754883 1.97338867 -29 0 C-27.97845825 0.00785522 -27.97845825 0.00785522 -26.9362793 0.01586914 C-23.85336223 0.03664458 -20.7704599 0.04966198 -17.6875 0.0625 C-16.0797168 0.07506836 -16.0797168 0.07506836 -14.43945312 0.08789062 C-13.41142578 0.09111328 -12.38339844 0.09433594 -11.32421875 0.09765625 C-10.37635498 0.10289307 -9.42849121 0.10812988 -8.4519043 0.11352539 C-0.73177129 -0.24392376 -0.73177129 -0.24392376 0 0 Z " fill="#53B276" transform="translate(319,129)"/>
<path d="M0 0 C1.0625 1.875 1.0625 1.875 2 4 C1.67 4.66 1.34 5.32 1 6 C1.99 6.33 2.98 6.66 4 7 C4 7.33 4 7.66 4 8 C1.36 8.33 -1.28 8.66 -4 9 C-4 8.34 -4 7.68 -4 7 C-5.32 7 -6.64 7 -8 7 C-8.1875 4.625 -8.1875 4.625 -8 2 C-4.77208445 -0.1519437 -3.71599191 -0.20086443 0 0 Z " fill="#332F3C" transform="translate(201,217)"/>
<path d="M0 0 C4.30764815 1.56641751 8.06171464 3.68336156 12 6 C12 6.66 12 7.32 12 8 C10.02 8 8.04 8 6 8 C5.67 7.01 5.34 6.02 5 5 C1.27385847 6.11854586 1.27385847 6.11854586 -1 9 C-2.33333333 9.33333333 -3.66666667 9.66666667 -5 10 C-5.33 10.66 -5.66 11.32 -6 12 C-6.66 11.67 -7.32 11.34 -8 11 C-7.34 10.01 -6.68 9.02 -6 8 C-5.34 8 -4.68 8 -4 8 C-3.896875 7.4225 -3.79375 6.845 -3.6875 6.25 C-2.90207202 3.67950842 -1.69495803 2.06342716 0 0 Z " fill="#64B484" transform="translate(342,108)"/>
<path d="M0 0 C0.33 0.66 0.66 1.32 1 2 C3.75026417 2.05404449 6.49946203 2.09369306 9.25 2.125 C10.41595703 2.15013672 10.41595703 2.15013672 11.60546875 2.17578125 C17.08306936 2.25968301 17.08306936 2.25968301 22 0 C22 1.65 22 3.3 22 5 C11.11 5.495 11.11 5.495 0 6 C-0.33 4.35 -0.66 2.7 -1 1 C-0.67 0.67 -0.34 0.34 0 0 Z " fill="#3BA564" transform="translate(150,244)"/>
<path d="M0 0 C6.6 0.33 13.2 0.66 20 1 C20 1.66 20 2.32 20 3 C18.576875 3.2165625 18.576875 3.2165625 17.125 3.4375 C14.1065506 3.82935399 14.1065506 3.82935399 12 5 C7.53507661 5.30442659 4.1693589 4.5883272 0 3 C0 2.01 0 1.02 0 0 Z " fill="#2CB45D" transform="translate(154,249)"/>
<path d="M0 0 C0.66 0.33 1.32 0.66 2 1 C1.34 2.32 0.68 3.64 0 5 C0.515625 5.391875 1.03125 5.78375 1.5625 6.1875 C2.036875 6.785625 2.51125 7.38375 3 8 C2.6875 10.6875 2.6875 10.6875 2 13 C0.02 13 -1.96 13 -4 13 C-4 12.34 -4 11.68 -4 11 C-4.66 10.67 -5.32 10.34 -6 10 C-5.34 8.02 -4.68 6.04 -4 4 C-3.34 4 -2.68 4 -2 4 C-1.34 2.68 -0.68 1.36 0 0 Z " fill="#4F4A57" transform="translate(345,218)"/>
<path d="M0 0 C2.64 0 5.28 0 8 0 C8 7.92 8 15.84 8 24 C7.67 24 7.34 24 7 24 C7 18.06 7 12.12 7 6 C4.36893239 4.94729537 4.36893239 4.94729537 3 5 C2.01 5.66 1.02 6.32 0 7 C0 4.69 0 2.38 0 0 Z " fill="#3D3A41" transform="translate(262,217)"/>
<path d="M0 0 C0.99 0.33 1.98 0.66 3 1 C3.66 0.67 4.32 0.34 5 0 C4.67 1.093125 4.34 2.18625 4 3.3125 C2.86913351 6.84578884 2.86913351 6.84578884 3 10 C1.35 10.33 -0.3 10.66 -2 11 C-2.66 10.01 -3.32 9.02 -4 8 C-4.99 8.495 -4.99 8.495 -6 9 C-5.67 7.68 -5.34 6.36 -5 5 C-4.34 5 -3.68 5 -3 5 C-2.67 4.01 -2.34 3.02 -2 2 C-1.34 1.34 -0.68 0.68 0 0 Z " fill="#2E2B39" transform="translate(287,253)"/>
<path d="M0 0 C0.66 0 1.32 0 2 0 C2 0.66 2 1.32 2 2 C2.721875 2.103125 3.44375 2.20625 4.1875 2.3125 C7 3 7 3 9.28125 4.4375 C12.28028434 6.16108295 14.94979641 6.91149148 18.3125 7.6875 C19.38113281 7.93886719 20.44976562 8.19023438 21.55078125 8.44921875 C22.35902344 8.63097656 23.16726563 8.81273438 24 9 C24 9.33 24 9.66 24 10 C18.73296603 10.18162186 14.96647 9.92577408 10 8 C8.37715151 7.45192102 6.75201918 6.91057106 5.125 6.375 C3.75 5.91666667 2.375 5.45833333 1 5 C0.67 3.35 0.34 1.7 0 0 Z " fill="#7BC496" transform="translate(266,119)"/>
<path d="M0 0 C1.64092358 3.47489699 2.26259473 5.33847528 1 9 C1 9.66 1 10.32 1 11 C1.99 11.33 2.98 11.66 4 12 C2.35 12 0.7 12 -1 12 C-1 11.01 -1 10.02 -1 9 C-1.99 9 -2.98 9 -4 9 C-4 8.01 -4 7.02 -4 6 C-4.99 6 -5.98 6 -7 6 C-7 5.01 -7 4.02 -7 3 C-2.77777778 0 -2.77777778 0 0 0 Z " fill="#3A3643" transform="translate(196,244)"/>
<path d="M0 0 C0.33 0.66 0.66 1.32 1 2 C5.455 1.505 5.455 1.505 10 1 C10 4.38023517 9.12544378 6.83468937 8 10 C6.25 9.875 6.25 9.875 4 9 C0 3.88888889 0 3.88888889 0 0 Z " fill="#4B4853" transform="translate(339,244)"/>
<path d="M0 0 C3.96 0 7.92 0 12 0 C13 4 13 4 12 7 C10.35 7 8.7 7 7 7 C6.67 5.68 6.34 4.36 6 3 C2.97878489 2.02889514 0.99536737 1.86382617 -2 3 C-2.33 3.66 -2.66 4.32 -3 5 C-3 4.01 -3 3.02 -3 2 C-2.01 2 -1.02 2 0 2 C0 1.34 0 0.68 0 0 Z M7 1 C7.33 1.66 7.66 2.32 8 3 C8.33 2.34 8.66 1.68 9 1 C8.34 1 7.68 1 7 1 Z " fill="#2F2B38" transform="translate(232,218)"/>
<path d="M0 0 C0.33 1.32 0.66 2.64 1 4 C0.360625 4.185625 -0.27875 4.37125 -0.9375 4.5625 C-3.42126213 5.94246056 -3.42126213 5.94246056 -3.75 9.625 C-3.8325 10.73875 -3.915 11.8525 -4 13 C-7.67230705 9.92000054 -8.56802365 7.7517398 -9 3 C-2.25 0 -2.25 0 0 0 Z " fill="#66636B" transform="translate(231,239)"/>
<path d="M0 0 C6.875 1.875 6.875 1.875 8 3 C8.3125 5.3125 8.3125 5.3125 8 8 C6.125 10.3125 6.125 10.3125 4 12 C3.34 12 2.68 12 2 12 C1.67 10.68 1.34 9.36 1 8 C1.99 7.67 2.98 7.34 4 7 C3.67 5.68 3.34 4.36 3 3 C1.35 3 -0.3 3 -2 3 C-1.34 2.01 -0.68 1.02 0 0 Z " fill="#6CB187" transform="translate(174,241)"/>
<path d="M0 0 C0.66 0.99 1.32 1.98 2 3 C1.01 3 0.02 3 -1 3 C0.72226496 6.24849977 0.72226496 6.24849977 4 7 C3.67 8.98 3.34 10.96 3 13 C2.34 12.34 1.68 11.68 1 11 C-1.10820797 11.3185177 -1.10820797 11.3185177 -3 12 C-3.38133299 10.0085944 -3.71325582 8.00720923 -4 6 C-3.67 5.67 -3.34 5.34 -3 5 C-4.32 4.67 -5.64 4.34 -7 4 C-4.69 3.34 -2.38 2.68 0 2 C0 1.34 0 0.68 0 0 Z " fill="#5E5A65" transform="translate(453,243)"/>
<path d="M0 0 C0.99 0 1.98 0 3 0 C4.32 2.31 5.64 4.62 7 7 C6.236875 6.690625 5.47375 6.38125 4.6875 6.0625 C2.81210323 5.32106407 0.91315348 4.63771783 -1 4 C-1.99 5.32 -2.98 6.64 -4 8 C-2.68 8.66 -1.36 9.32 0 10 C-0.33 11.32 -0.66 12.64 -1 14 C-3.70272533 11.12835434 -4.94791837 9.69008159 -5.25 5.6875 C-5.1675 4.800625 -5.085 3.91375 -5 3 C-3.35 2.67 -1.7 2.34 0 2 C0 1.34 0 0.68 0 0 Z " fill="#76747B" transform="translate(398,239)"/>
<path d="M0 0 C3.71599191 -0.20086443 4.77208445 -0.1519437 8 2 C8.66 1.34 9.32 0.68 10 0 C10 1.32 10 2.64 10 4 C8.68 4.33 7.36 4.66 6 5 C6 6.65 6 8.3 6 10 C3.69 9.67 1.38 9.34 -1 9 C0.32 8.34 1.64 7.68 3 7 C2.34 6.67 1.68 6.34 1 6 C0.375 2.9375 0.375 2.9375 0 0 Z " fill="#5C5963" transform="translate(201,217)"/>
<path d="M0 0 C-8.20157502 5.46771668 -15.46941592 6.1665539 -25 6 C-25 5.34 -25 4.68 -25 4 C-23.55367188 3.94392578 -23.55367188 3.94392578 -22.078125 3.88671875 C-20.81484375 3.82097656 -19.5515625 3.75523437 -18.25 3.6875 C-16.99703125 3.62949219 -15.7440625 3.57148438 -14.453125 3.51171875 C-10.91376334 2.98722059 -9.60057045 2.33384528 -7 0 C-3.94862074 -1.10959246 -3.20219758 -1.06739919 0 0 Z " fill="#72BA8C" transform="translate(337,151)"/>
<path d="M0 0 C0.33 0.99 0.66 1.98 1 3 C3.29629994 4.14814997 5.07698086 4.30769809 7.625 4.5625 C8.44226563 4.64628906 9.25953125 4.73007813 10.1015625 4.81640625 C10.72804687 4.87699219 11.35453125 4.93757812 12 5 C8.26235849 7.49176101 5.32144608 7.39952992 1 7 C-2.4375 6.1875 -2.4375 6.1875 -5 5 C-5.33 4.01 -5.66 3.02 -6 2 C-4.02 1.34 -2.04 0.68 0 0 Z " fill="#6D6C75" transform="translate(159,236)"/>
<path d="M0 0 C1.32 0 2.64 0 4 0 C4.38063221 2.3260857 4.71269945 4.66055264 5 7 C4 8 4 8 1.4375 8.0625 C0.633125 8.041875 -0.17125 8.02125 -1 8 C-1.625 5.6875 -1.625 5.6875 -2 3 C-1.34 2.01 -0.68 1.02 0 0 Z " fill="#2CB160" transform="translate(382,203)"/>
<path d="M0 0 C0 0.33 0 0.66 0 1 C-1.65 1 -3.3 1 -5 1 C-5 1.66 -5 2.32 -5 3 C-4.34 3.33 -3.68 3.66 -3 4 C-6 4 -6 4 -9 3 C-9.33 4.65 -9.66 6.3 -10 8 C-10.99 8 -11.98 8 -13 8 C-12.67 10.97 -12.34 13.94 -12 17 C-11.34 17 -10.68 17 -10 17 C-10.33 17.66 -10.66 18.32 -11 19 C-12.96026975 17.36730848 -13.9065055 16.44978435 -14.43359375 13.9140625 C-14.44044416 9.89972005 -14.34722835 7.58284758 -12.25 4.0625 C-8.15015043 0.30430456 -5.57333762 -0.25333353 0 0 Z " fill="#7E7C86" transform="translate(408,217)"/>
<path d="M0 0 C3.82675111 1.55904675 6.18007783 4.03166087 9 7 C9.66 7.66 10.32 8.32 11 9 C9.35 9 7.7 9 6 9 C6 8.34 6 7.68 6 7 C4.68 6.67 3.36 6.34 2 6 C2.33 7.98 2.66 9.96 3 12 C0.13700494 9.13700494 0.00578775 7.34147716 -0.0625 3.3125 C-0.041875 2.219375 -0.02125 1.12625 0 0 Z " fill="#7DB092" transform="translate(145,237)"/>
<path d="M0 0 C0.33 0.99 0.66 1.98 1 3 C1.99 2.34 2.98 1.68 4 1 C4 2.32 4 3.64 4 5 C2.35 5.33 0.7 5.66 -1 6 C-1.22609337 8.12364481 -1.22609337 8.12364481 0.5 9.625 C0.995 10.07875 1.49 10.5325 2 11 C1.34 11.66 0.68 12.32 0 13 C0.33 13.66 0.66 14.32 1 15 C0.01 14.67 -0.98 14.34 -2 14 C-3.53214888 10.93570224 -3.22938548 8.3834358 -3 5 C-1.5 2.0625 -1.5 2.0625 0 0 Z " fill="#6B6873" transform="translate(149,223)"/>
<path d="M0 0 C2.77186988 -0.10787818 5.53955537 -0.18723327 8.3125 -0.25 C9.09818359 -0.28351563 9.88386719 -0.31703125 10.69335938 -0.3515625 C12.86660547 -0.38855392 14.85969901 -0.38367634 17 0 C19.04296875 2.015625 19.04296875 2.015625 20 4 C18.02253397 4.73080266 16.01927511 5.39421747 14 6 C12 5 12 5 11 3 C11.33 2.34 11.66 1.68 12 1 C8.04 1 4.08 1 0 1 C0 0.67 0 0.34 0 0 Z " fill="#4D4A56" transform="translate(232,217)"/>
<path d="M0 0 C0 0.99 0 1.98 0 3 C1.010625 2.95875 2.02125 2.9175 3.0625 2.875 C7.18076052 3.00573843 10.11830533 3.73250786 14 5 C14 5.33 14 5.66 14 6 C6.42733125 6.5939348 0.12481267 4.43286286 -7 2 C-4 0 -4 0 0 0 Z " fill="#70BE8E" transform="translate(287,151)"/>
<path d="M0 0 C0.98120464 3.05263664 0.98120464 4.94736336 0 8 C-0.66 7.67 -1.32 7.34 -2 7 C-1.67 12.61 -1.34 18.22 -1 24 C-4.28329107 20.71670893 -3.95401572 16.4933215 -4 12 C-3.41205562 7.73195928 -2.18006849 3.73726026 0 0 Z " fill="#8E8C91" transform="translate(433,222)"/>
<path d="M0 0 C4.0138236 1.21348155 7.69100609 2.37226954 11 5 C11.66499679 8.24185935 11.30056348 9.5366313 9.5 12.3125 C9.005 12.869375 8.51 13.42625 8 14 C7.06934867 11.39417629 6.85082593 10.35801776 7.9375 7.75 C8.288125 7.1725 8.63875 6.595 9 6 C7.88625 5.7525 6.7725 5.505 5.625 5.25 C2 4 2 4 0.5625 1.875 C0.376875 1.25625 0.19125 0.6375 0 0 Z " fill="#71B38B" transform="translate(355,116)"/>
<path d="M0 0 C0.33 1.32 0.66 2.64 1 4 C-4.22771463 7.04157942 -7.92671312 8.50610724 -14 8 C-11 6 -11 6 -8.6875 5.125 C-5.49257705 3.78759039 -2.83434348 1.97744894 0 0 Z " fill="#67BA88" transform="translate(333,120)"/>
<path d="M0 0 C-1 3 -1 3 -3.875 4.75 C-7 6 -7 6 -10 5 C-10.33 4.34 -10.66 3.68 -11 3 C-7.48550811 -0.37391222 -4.73940561 -0.27342725 0 0 Z " fill="#4E4A54" transform="translate(290,263)"/>
<path d="M0 0 C2.16874252 0.50603992 3.99967627 0.99983813 6 2 C5.34 3.65 4.68 5.3 4 7 C1 7 1 7 -2 5 C-1.34 3.35 -0.68 1.7 0 0 Z " fill="#302B39" transform="translate(396,242)"/>
<path d="M0 0 C2.31 0 4.62 0 7 0 C7 0.66 7 1.32 7 2 C7.99 2.33 8.98 2.66 10 3 C9.34 3 8.68 3 8 3 C7.67 3.99 7.34 4.98 7 6 C4.525 5.01 4.525 5.01 2 4 C2 3.34 2 2.68 2 2 C1.34 2 0.68 2 0 2 C0 1.34 0 0.68 0 0 Z " fill="#33303B" transform="translate(353,218)"/>
<path d="M0 0 C5.07612318 -0.61528766 7.82982006 1.38341651 12 4 C12 4.99 12 5.98 12 7 C7.39104317 5.68315519 3.85859765 3.84801255 0 1 C0 0.67 0 0.34 0 0 Z " fill="#68B98B" transform="translate(267,145)"/>
<path d="M0 0 C1.2065625 0.0309375 1.2065625 0.0309375 2.4375 0.0625 C-1.76857928 3.28716078 -3.84635359 4.18710635 -9.1875 4.125 C-10.19039062 4.11597656 -11.19328125 4.10695313 -12.2265625 4.09765625 C-12.99742187 4.08605469 -13.76828125 4.07445312 -14.5625 4.0625 C-14.5625 3.4025 -14.5625 2.7425 -14.5625 2.0625 C-13.78003906 2.00191406 -12.99757812 1.94132813 -12.19140625 1.87890625 C-11.17949219 1.79511719 -10.16757813 1.71132812 -9.125 1.625 C-8.11566406 1.54378906 -7.10632813 1.46257812 -6.06640625 1.37890625 C-3.14883217 1.01022684 -2.96221017 0.07224903 0 0 Z " fill="#7CBD99" transform="translate(173.5625,252.9375)"/>
<path d="M0 0 C1.796875 1.546875 1.796875 1.546875 3 3 C1.68 3 0.36 3 -1 3 C-1 2.34 -1 1.68 -1 1 C-2.423125 1.2784375 -2.423125 1.2784375 -3.875 1.5625 C-7 2 -7 2 -9 1 C-9 1.66 -9 2.32 -9 3 C-11.64 2.34 -14.28 1.68 -17 1 C-17 0.67 -17 0.34 -17 0 C-11.31970727 -1.11136162 -5.67102237 -1.38801247 0 0 Z " fill="#6A666E" transform="translate(173,217)"/>
<path d="M0 0 C0.66 0.33 1.32 0.66 2 1 C2 1.66 2 2.32 2 3 C6.62 3 11.24 3 16 3 C15.67 3.66 15.34 4.32 15 5 C10.71 5 6.42 5 2 5 C1.67 5.66 1.34 6.32 1 7 C-1 4 -1 4 -0.625 1.8125 C-0.41875 1.214375 -0.2125 0.61625 0 0 Z " fill="#85828A" transform="translate(154,229)"/>
<path d="M0 0 C0.99 0 1.98 0 3 0 C3 1.98 3 3.96 3 6 C2.01 5.67 1.02 5.34 0 5 C-0.75 3 -0.75 3 -1 1 C-0.67 0.67 -0.34 0.34 0 0 Z M0 5 C0.33 6.32 0.66 7.64 1 9 C-1.64 8.67 -4.28 8.34 -7 8 C-5.40442685 4.80885369 -3.35905282 5 0 5 Z " fill="#5F5C68" transform="translate(322,219)"/>
<path d="M0 0 C0.99 0.33 1.98 0.66 3 1 C2.52797514 5.24822374 0.03344482 7.19989709 -3 10 C-4.24546405 7.50907189 -3.7767578 6.58919267 -3 4 C-2.01 4 -1.02 4 0 4 C0 2.68 0 1.36 0 0 Z " fill="#54AE76" transform="translate(360,127)"/>
<path d="M0 0 C4.64322514 4.49344368 4.76182476 8.86698764 5 15 C4.67 13.68 4.34 12.36 4 11 C2.35 10.67 0.7 10.34 -1 10 C-0.34 9.34 0.32 8.68 1 8 C0.64644564 5.73725212 0.02455574 4.04911148 -1 2 C-0.67 1.34 -0.34 0.68 0 0 Z " fill="#6E6C73" transform="translate(355,51)"/>
<path d="M0 0 C0.99 0 1.98 0 3 0 C2.91291331 1.45945288 2.80473093 2.91765868 2.6875 4.375 C2.62949219 5.18710937 2.57148438 5.99921875 2.51171875 6.8359375 C2 9 2 9 -1 11 C-2.1643582 6.92474631 -1.79835859 4.80828877 0 1 C0 0.67 0 0.34 0 0 Z " fill="#585561" transform="translate(291,252)"/>
<path d="M0 0 C1.32 0.33 2.64 0.66 4 1 C4 1.66 4 2.32 4 3 C5.32 2.67 6.64 2.34 8 2 C7.67 2.66 7.34 3.32 7 4 C4.93359375 4.4140625 4.93359375 4.4140625 2.4375 4.625 C1.61121094 4.69976562 0.78492188 4.77453125 -0.06640625 4.8515625 C-1.02353516 4.92503906 -1.02353516 4.92503906 -2 5 C-2.33 4.01 -2.66 3.02 -3 2 C-2.01 2 -1.02 2 0 2 C0 1.34 0 0.68 0 0 Z " fill="#66626B" transform="translate(240,252)"/>
<path d="M0 0 C6.75 1.875 6.75 1.875 9 3 C9 3.66 9 4.32 9 5 C8.236875 4.814375 7.47375 4.62875 6.6875 4.4375 C3.91032625 3.77180827 3.91032625 3.77180827 1 5 C0.01 4.01 -0.98 3.02 -2 2 C-1.34 1.34 -0.68 0.68 0 0 Z " fill="#2F2C38" transform="translate(245,233)"/>
<path d="M0 0 C1.11375 0.185625 1.11375 0.185625 2.25 0.375 C1.92 1.035 1.59 1.695 1.25 2.375 C0.59 2.375 -0.07 2.375 -0.75 2.375 C-1.0481424 6.1513932 -1.0481424 6.1513932 0.25 8.375 C-2.06 7.715 -4.37 7.055 -6.75 6.375 C-3.42692308 0.46730769 -3.42692308 0.46730769 0 0 Z " fill="#2E2A37" transform="translate(169.75,217.625)"/>
<path d="M0 0 C-2.8293078 2.8293078 -5.06844341 2.73345379 -9 3 C-11.9375 2.0625 -11.9375 2.0625 -14 1 C-12.66961551 0.6550855 -11.33542939 0.32483418 -10 0 C-9.195625 -0.20625 -8.39125 -0.4125 -7.5625 -0.625 C-4.76208787 -1.03481641 -2.72398926 -0.70045438 0 0 Z " fill="#78757E" transform="translate(327,254)"/>
<path d="M0 0 C2.97 0.495 2.97 0.495 6 1 C4.29374499 3.78388975 3.52373261 4.85384206 0.3125 5.75 C-0.8321875 5.87375 -0.8321875 5.87375 -2 6 C-1.67 5.01 -1.34 4.02 -1 3 C-1.66 2.67 -2.32 2.34 -3 2 C-2.01 2 -1.02 2 0 2 C0 1.34 0 0.68 0 0 Z " fill="#58555F" transform="translate(173,235)"/>
<path d="M0 0 C2.31 0 4.62 0 7 0 C7 1.65 7 3.3 7 5 C6.01 4.67 5.02 4.34 4 4 C2.53774984 3.90754997 2.53774984 3.90754997 0 6 C0 4.02 0 2.04 0 0 Z " fill="#2E2B35" transform="translate(262,218)"/>
<path d="M0 0 C0.66 0 1.32 0 2 0 C2 0.66 2 1.32 2 2 C3.65 2.33 5.3 2.66 7 3 C7 3.99 7 4.98 7 6 C7.99 6.33 8.98 6.66 10 7 C6.87709365 6.51421457 4.00419641 6.0013988 1 5 C0.67 3.35 0.34 1.7 0 0 Z " fill="#5CB681" transform="translate(266,119)"/>
<path d="M0 0 C3.18005028 3.88672813 6.10554447 7.89952133 9 12 C8.01 12.495 8.01 12.495 7 13 C7 12.34 7 11.68 7 11 C6.34 11 5.68 11 5 11 C5 10.01 5 9.02 5 8 C3.68 7.67 2.36 7.34 1 7 C0.67 4.69 0.34 2.38 0 0 Z " fill="#7EC097" transform="translate(249,100)"/>
<path d="M0 0 C0.33 0 0.66 0 1 0 C1.06058594 0.68707031 1.12117188 1.37414062 1.18359375 2.08203125 C1.26738281 2.98308594 1.35117187 3.88414062 1.4375 4.8125 C1.51871094 5.70582031 1.59992188 6.59914062 1.68359375 7.51953125 C1.93489767 10.12743559 1.93489767 10.12743559 3 13 C3.99 13.33 4.98 13.66 6 14 C5.01 14.495 5.01 14.495 4 15 C3.34 14.67 2.68 14.34 2 14 C2 13.34 2 12.68 2 12 C0.35 11.67 -1.3 11.34 -3 11 C-2.67 10.34 -2.34 9.68 -2 9 C-1.34 9 -0.68 9 0 9 C0 6.03 0 3.06 0 0 Z " fill="#939198" transform="translate(348,232)"/>
<path d="M0 0 C0 1.65 0 3.3 0 5 C-3.96 4.67 -7.92 4.34 -12 4 C-12 3.67 -12 3.34 -12 3 C-9.02148438 2.70703125 -9.02148438 2.70703125 -6.04296875 2.4140625 C-3.73908653 1.94711888 -2.22303593 0 0 0 Z " fill="#77C195" transform="translate(172,244)"/>
<path d="M0 0 C0.33 0 0.66 0 1 0 C1 3.3 1 6.6 1 10 C2.32 9.67 3.64 9.34 5 9 C4.67 9.99 4.34 10.98 4 12 C1.52260646 12.90837763 -0.33579484 13 -3 13 C-2.68289063 12.43796875 -2.36578125 11.8759375 -2.0390625 11.296875 C-0.93125475 8.84803683 -0.61024601 6.91612145 -0.375 4.25 C-0.30023438 3.45078125 -0.22546875 2.6515625 -0.1484375 1.828125 C-0.09945313 1.22484375 -0.05046875 0.6215625 0 0 Z " fill="#74717D" transform="translate(325,232)"/>
<path d="M0 0 C3.875 1.75 3.875 1.75 5 4 C3.02 4.99 1.04 5.98 -1 7 C-1.625 4.625 -1.625 4.625 -2 2 C-1.34 1.34 -0.68 0.68 0 0 Z " fill="#5D5B63" transform="translate(262,255)"/>
<path d="M0 0 C3.3 0 6.6 0 10 0 C10 0.33 10 0.66 10 1 C7.69 1.33 5.38 1.66 3 2 C2.67 3.32 2.34 4.64 2 6 C1.34 6 0.68 6 0 6 C0 5.01 0 4.02 0 3 C-0.99 3 -1.98 3 -3 3 C-2.67 2.34 -2.34 1.68 -2 1 C-1.34 1.33 -0.68 1.66 0 2 C0 1.34 0 0.68 0 0 Z " fill="#76747C" transform="translate(363,217)"/>
<path d="M0 0 C0.66 0.33 1.32 0.66 2 1 C1.67 2.65 1.34 4.3 1 6 C0.360625 6.12375 -0.27875 6.2475 -0.9375 6.375 C-1.9584375 6.684375 -1.9584375 6.684375 -3 7 C-3.33 7.66 -3.66 8.32 -4 9 C-4.66 8.67 -5.32 8.34 -6 8 C-5.34 7.01 -4.68 6.02 -4 5 C-3.34 5 -2.68 5 -2 5 C-1.855625 4.360625 -1.71125 3.72125 -1.5625 3.0625 C-1 1 -1 1 0 0 Z " fill="#71BF91" transform="translate(340,111)"/>
<path d="M0 0 C0.99 0 1.98 0 3 0 C3.66 1.98 4.32 3.96 5 6 C4.34 6 3.68 6 3 6 C3 5.01 3 4.02 3 3 C2.34 3 1.68 3 1 3 C1 6.63 1 10.26 1 14 C0.67 14 0.34 14 0 14 C0 9.38 0 4.76 0 0 Z " fill="#95CBB0" transform="translate(244,94)"/>
<path d="M0 0 C0.598125 0.309375 1.19625 0.61875 1.8125 0.9375 C4.08956772 2.10209704 4.08956772 2.10209704 7 3 C6.67 4.32 6.34 5.64 6 7 C3 5.1875 3 5.1875 0 3 C0 2.01 0 1.02 0 0 Z " fill="#2E2A39" transform="translate(322,224)"/>
<path d="M0 0 C0.99 0.33 1.98 0.66 3 1 C3 3 3 5 3 7 C0.525 6.01 0.525 6.01 -2 5 C-1.125 1.125 -1.125 1.125 0 0 Z " fill="#2E2B37" transform="translate(449,219)"/>
<path d="M0 0 C-0.99 0.33 -1.98 0.66 -3 1 C-3 1.66 -3 2.32 -3 3 C-6.96 3 -10.92 3 -15 3 C-15 2.67 -15 2.34 -15 2 C-12.03 2 -9.06 2 -6 2 C-6 1.34 -6 0.68 -6 0 C-3 -1 -3 -1 0 0 Z " fill="#54B176" transform="translate(319,129)"/>
<path d="M0 0 C6.64615385 2.33846154 6.64615385 2.33846154 8.4375 5.6875 C8.7159375 6.8321875 8.7159375 6.8321875 9 8 C5.56247993 6.4722133 2.81046312 4.49818944 0 2 C0 1.34 0 0.68 0 0 Z " fill="#77757D" transform="translate(252,88)"/>
<path d="M0 0 C0.66 0 1.32 0 2 0 C3.2077558 3.62326739 2.54311128 4.64146369 1 8 C0.01 7.01 -0.98 6.02 -2 5 C-1.34 3.35 -0.68 1.7 0 0 Z " fill="#3B3742" transform="translate(361,221)"/>
<path d="M0 0 C0.66 0 1.32 0 2 0 C2 1.32 2 2.64 2 4 C-0.50484597 6.41847197 -1.46013806 7 -5 7 C-4.1875 5.0625 -4.1875 5.0625 -3 3 C-2.01 2.67 -1.02 2.34 0 2 C0 1.34 0 0.68 0 0 Z " fill="#322C39" transform="translate(423,237)"/>
<path d="M0 0 C0.99 0 1.98 0 3 0 C2.34 1.65 1.68 3.3 1 5 C-0.32 5 -1.64 5 -3 5 C-1.125 1.125 -1.125 1.125 0 0 Z " fill="#302D38" transform="translate(347,218)"/>
<path d="M0 0 C0.99 0.495 0.99 0.495 2 1 C2 2.65 2 4.3 2 6 C2.66 6.33 3.32 6.66 4 7 C3.02149805 8.02104551 2.02019573 9.0206121 1 10 C0.67 10 0.34 10 0 10 C0 6.7 0 3.4 0 0 Z " fill="#2D2A34" transform="translate(330,65)"/>
<path d="M0 0 C2.97 0.495 2.97 0.495 6 1 C5.67 2.65 5.34 4.3 5 6 C4.34 6 3.68 6 3 6 C3 5.34 3 4.68 3 4 C2.01 3.67 1.02 3.34 0 3 C0 2.01 0 1.02 0 0 Z " fill="#312E3A" transform="translate(334,33)"/>
<path d="M0 0 C2.31 0.33 4.62 0.66 7 1 C6.67 1.99 6.34 2.98 6 4 C3.83125748 3.49396008 2.00032373 3.00016187 0 2 C0 1.34 0 0.68 0 0 Z " fill="#53AC75" transform="translate(153,252)"/>
<path d="M0 0 C2.63326457 2.63326457 2.71180635 4.32553101 3 8 C2.0625 10.875 2.0625 10.875 1 13 C-0.00496852 9.98509443 -0.10335303 7.95818308 -0.0625 4.8125 C-0.05347656 3.91144531 -0.04445313 3.01039063 -0.03515625 2.08203125 C-0.02355469 1.39496094 -0.01195312 0.70789063 0 0 Z " fill="#85828A" transform="translate(425,237)"/>
<path d="M0 0 C0.99 0.33 1.98 0.66 3 1 C3.33 2.98 3.66 4.96 4 7 C3.01 7.33 2.02 7.66 1 8 C0.67 5.36 0.34 2.72 0 0 Z " fill="#6E6C73" transform="translate(253,221)"/>
<path d="M0 0 C2 1.5 2 1.5 4 4 C4.35800135 6.75871627 4.18660165 9.20097524 4 12 C3.67 12 3.34 12 3 12 C2.34 9.36 1.68 6.72 1 4 C0.34 4 -0.32 4 -1 4 C-0.67 2.68 -0.34 1.36 0 0 Z " fill="#86858C" transform="translate(177,222)"/>
<path d="M0 0 C0.99 0 1.98 0 3 0 C1.9024777 2.99324263 1.32317108 3.84610901 -1.625 5.25 C-2.40875 5.4975 -3.1925 5.745 -4 6 C-2.84826645 3.53199953 -1.95216435 1.95216435 0 0 Z " fill="#58535F" transform="translate(262,45)"/>
<path d="M0 0 C0.99 0 1.98 0 3 0 C2.8125 1.875 2.8125 1.875 2 4 C-0.5625 5.25 -0.5625 5.25 -3 6 C-1.125 1.125 -1.125 1.125 0 0 Z " fill="#2F2C39" transform="translate(229,243)"/>
<path d="M0 0 C0.93065133 2.60582371 1.14917407 3.64198224 0.0625 6.25 C-0.4634375 7.11625 -0.4634375 7.11625 -1 8 C-1.33 7.34 -1.66 6.68 -2 6 C-2.99 6.495 -2.99 6.495 -4 7 C-4 6.01 -4 5.02 -4 4 C-3.34 4 -2.68 4 -2 4 C-1.67 3.01 -1.34 2.02 -1 1 C-0.67 0.67 -0.34 0.34 0 0 Z " fill="#57545D" transform="translate(334,240)"/>
<path d="M0 0 C0.66 0 1.32 0 2 0 C2 0.99 2 1.98 2 3 C2.99 3.33 3.98 3.66 5 4 C3.02 4.66 1.04 5.32 -1 6 C-1.33 5.01 -1.66 4.02 -2 3 C-1.34 2.01 -0.68 1.02 0 0 Z " fill="#433E4C" transform="translate(153,234)"/>
<path d="M0 0 C2.475 0.99 2.475 0.99 5 2 C4.01 3.485 4.01 3.485 3 5 C3.33 5.66 3.66 6.32 4 7 C3.01 6.67 2.02 6.34 1 6 C0.67 4.02 0.34 2.04 0 0 Z " fill="#726E77" transform="translate(146,231)"/>
<path d="M0 0 C2 3 2 3 2 6 C0.35 6.66 -1.3 7.32 -3 8 C-2.37240135 5.07120629 -1.41377341 2.63904371 0 0 Z " fill="#747278" transform="translate(425,222)"/>
<path d="M0 0 C0.66 0 1.32 0 2 0 C2 0.66 2 1.32 2 2 C2.99 2 3.98 2 5 2 C5 2.99 5 3.98 5 5 C5.99 5 6.98 5 8 5 C8 5.66 8 6.32 8 7 C4.59679258 5.98823563 3.24274669 5.35156418 1.1875 2.375 C0.795625 1.59125 0.40375 0.8075 0 0 Z " fill="#87828B" transform="translate(187,248)"/>
<path d="M0 0 C5.75 1.625 5.75 1.625 8 5 C5.125 4.75 5.125 4.75 2 4 C0.625 1.9375 0.625 1.9375 0 0 Z " fill="#7ABF94" transform="translate(355,116)"/>
<path d="M0 0 C0.33 0.99 0.66 1.98 1 3 C-0.4375 5.6875 -0.4375 5.6875 -2 8 C-3.32 7.34 -4.64 6.68 -6 6 C-5.01 5.67 -4.02 5.34 -3 5 C-1.30117552 2.50240018 -1.30117552 2.50240018 0 0 Z " fill="#79777F" transform="translate(209,240)"/>
<path d="M0 0 C0.99 0.33 1.98 0.66 3 1 C2.34 4.63 1.68 8.26 1 12 C0.67 12 0.34 12 0 12 C0 8.04 0 4.08 0 0 Z " fill="#2B282F" transform="translate(431,229)"/>
<path d="M0 0 C2.375 0.25 2.375 0.25 5 1 C6.3125 3.0625 6.3125 3.0625 7 5 C5.35 4.67 3.7 4.34 2 4 C2 3.34 2 2.68 2 2 C1.34 2 0.68 2 0 2 C0 1.34 0 0.68 0 0 Z " fill="#2E2A36" transform="translate(365,218)"/>
<path d="M0 0 C1.485 0.99 1.485 0.99 3 2 C1.25 5.875 1.25 5.875 -1 7 C-0.67 4.69 -0.34 2.38 0 0 Z " fill="#2E2A35" transform="translate(251,66)"/>
</svg>
