<?xml version="1.0" encoding="UTF-8"?>
<svg version="1.1" xmlns="http://www.w3.org/2000/svg" width="1501" height="472">
<path d="M0 0 C0.86238281 0.32613281 1.72476563 0.65226562 2.61328125 0.98828125 C17.9873785 7.73130636 27.85114927 22.33192927 35.5625 36.5625 C36.79244823 38.7952758 38.02426737 41.02702187 39.2578125 43.2578125 C40.19028809 44.94632324 40.19028809 44.94632324 41.14160156 46.66894531 C44.00392588 51.79946988 46.96410654 56.87076677 49.9375 61.9375 C51.10429543 63.92830996 52.270961 65.91919603 53.4375 67.91015625 C54.02144531 68.9067627 54.60539062 69.90336914 55.20703125 70.93017578 C58.30437038 76.2332725 61.37113858 81.55394935 64.4375 86.875 C65.06003662 87.95515381 65.68257324 89.03530762 66.32397461 90.14819336 C67.58576826 92.33796334 68.84740534 94.52782355 70.10888672 96.71777344 C73.23680148 102.14659942 76.36858448 107.57319281 79.5 113 C80.75001879 115.16665583 82.00001878 117.3333225 83.25 119.5 C83.86875 120.5725 84.4875 121.645 85.125 122.75 C105.75 158.5 105.75 158.5 107.62524414 161.75048828 C108.87435518 163.91557071 110.12354129 166.08060982 111.37280273 168.24560547 C114.51202309 173.68615706 117.64990563 179.12747216 120.78515625 184.5703125 C122.0442026 186.75524766 123.30331691 188.94014365 124.5625 191.125 C125.17875244 192.19468018 125.79500488 193.26436035 126.42993164 194.36645508 C130.1359017 200.79192097 133.87063576 207.1996702 137.62548828 213.59667969 C161.78428666 254.80530102 161.78428666 254.80530102 156.1015625 281.12109375 C152.24152356 295.84902434 142.64953863 308.6802893 130 317 C114.52778093 325.58270266 98.39717263 328.55499162 81.1875 324.375 C59.09930691 317.73926132 47.30188574 302.51830029 36.78125 283.078125 C33.7433612 277.48224577 30.53450369 271.99136054 27.3125 266.5 C22.36769364 258.05768057 17.44785762 249.60187623 12.5625 241.125 C11.94173584 240.04831055 11.32097168 238.97162109 10.68139648 237.86230469 C7.51014805 232.3602809 4.34209046 226.85642993 1.17578125 221.3515625 C-1.92946811 215.95493001 -5.04246188 210.56284391 -8.16259766 205.17480469 C-9.40645714 203.02556887 -10.64826027 200.87514186 -11.88818359 198.72363281 C-13.68877206 195.60298822 -15.49921924 192.48828239 -17.3125 189.375 C-18.13065186 187.9513916 -18.13065186 187.9513916 -18.96533203 186.49902344 C-19.46790527 185.64083008 -19.97047852 184.78263672 -20.48828125 183.8984375 C-21.14630737 182.76414307 -21.14630737 182.76414307 -21.81762695 181.60693359 C-22.20781006 181.07664551 -22.59799316 180.54635742 -23 180 C-23.66 180 -24.32 180 -25 180 C-25.35078613 180.63164062 -25.70157227 181.26328125 -26.06298828 181.9140625 C-33.70985139 195.66702135 -41.48090039 209.33369051 -49.4375 222.91015625 C-53.1321339 229.21570556 -56.78836352 235.54303734 -60.4375 241.875 C-61.36804199 243.48870483 -61.36804199 243.48870483 -62.31738281 245.13500977 C-65.5025289 250.66035576 -68.68306961 256.18831736 -71.859375 261.71875 C-74.97481631 267.14059157 -78.10242601 272.55522358 -81.24072266 277.96386719 C-82.38975771 279.94685357 -83.53541867 281.93179995 -84.67724609 283.91894531 C-95.28979927 302.36022086 -106.07385754 316.96433791 -127.09765625 324.04296875 C-143.00407285 328.24131662 -158.90453648 326.74426564 -173.6875 319.4375 C-189.20308717 310.25763695 -199.08507707 296.35194767 -204.11328125 279.203125 C-210.58638819 252.08353749 -194.80062814 229.5880252 -181.73828125 207.37109375 C-177.97879036 200.97533247 -174.26543211 194.55363443 -170.5625 188.125 C-169.94036621 187.04549072 -169.31823242 185.96598145 -168.67724609 184.85375977 C-167.41502167 182.6633525 -166.15297763 180.47284128 -164.89111328 178.28222656 C-161.76319852 172.85340058 -158.63141552 167.42680719 -155.5 162 C-154.24998121 159.83334417 -152.99998122 157.6666775 -151.75 155.5 C-139.25 133.83333333 -126.75 112.16666667 -114.25 90.5 C-113.63116943 89.42733887 -113.01233887 88.35467773 -112.37475586 87.24951172 C-111.12564482 85.08442929 -109.87645871 82.91939018 -108.62719727 80.75439453 C-104.85652575 74.21948123 -101.08843916 67.68308871 -97.32324219 61.14501953 C-96.07212637 58.97549012 -94.8188907 56.80718171 -93.56347656 54.64013672 C-90.44939426 49.26430737 -87.36355725 43.87599909 -84.33203125 38.453125 C-73.01175252 18.34606616 -61.94769769 4.08841143 -39 -3 C-25.62094084 -6.50155064 -12.81563596 -4.85767314 0 0 Z " fill="#4285F3" transform="translate(260,63)"/>
<path d="M0 0 C0.84902534 2.80118834 1.09384995 3.73409182 0.0859375 6.58984375 C-3.63217741 18.26579453 -2.12726738 33.96403678 3 45 C4.9430209 48.69874906 6.96601405 52.3506487 9 56 C9.77851318 57.4068103 9.77851318 57.4068103 10.57275391 58.84204102 C18.01755354 72.27504905 25.63460412 85.59917544 33.40234375 98.84765625 C37.92899056 106.57238217 42.39121455 114.33413765 46.85131836 122.09741211 C47.4366333 123.11456299 48.02194824 124.13171387 48.625 125.1796875 C49.18445313 126.15647461 49.74390625 127.13326172 50.3203125 128.13964844 C51.44755781 130.05924234 52.60984165 131.95865259 53.8046875 133.83691406 C54.36414063 134.71831055 54.92359375 135.59970703 55.5 136.5078125 C56.0053125 137.28012207 56.510625 138.05243164 57.03125 138.84814453 C58 141 58 141 57.82299805 142.96728516 C56.82405934 145.43455412 55.63919103 147.69530406 54.33203125 150.015625 C53.77588135 151.0068335 53.21973145 151.99804199 52.64672852 153.01928711 C52.04143311 154.08542236 51.4361377 155.15155762 50.8125 156.25 C50.184646 157.36318604 49.55679199 158.47637207 48.90991211 159.62329102 C43.54697604 169.10260671 38.0700557 178.51428458 32.5625 187.91015625 C28.8678661 194.21570556 25.21163648 200.54303734 21.5625 206.875 C20.63195801 208.48870483 20.63195801 208.48870483 19.68261719 210.13500977 C16.4974711 215.66035576 13.31693039 221.18831736 10.140625 226.71875 C7.02518369 232.14059157 3.89757399 237.55522358 0.75927734 242.96386719 C-0.38975771 244.94685357 -1.53541867 246.93179995 -2.67724609 248.91894531 C-13.28979927 267.36022086 -24.07385754 281.96433791 -45.09765625 289.04296875 C-61.00407285 293.24131662 -76.90453648 291.74426564 -91.6875 284.4375 C-107.20308717 275.25763695 -117.08507707 261.35194767 -122.11328125 244.203125 C-128.58638819 217.08353749 -112.80062814 194.5880252 -99.73828125 172.37109375 C-95.97879036 165.97533247 -92.26543211 159.55363443 -88.5625 153.125 C-87.94036621 152.04549072 -87.31823242 150.96598145 -86.67724609 149.85375977 C-85.41502167 147.6633525 -84.15297763 145.47284128 -82.89111328 143.28222656 C-79.76319852 137.85340058 -76.63141552 132.42680719 -73.5 127 C-72.24998121 124.83334417 -70.99998122 122.6666775 -69.75 120.5 C-57.25 98.83333333 -44.75 77.16666667 -32.25 55.5 C-31.32078735 53.88931641 -31.32078735 53.88931641 -30.37280273 52.24609375 C-29.13023981 50.0923828 -27.88756511 47.93873633 -26.64477539 45.78515625 C-23.74685377 40.76315738 -20.84996651 35.74057193 -17.95724487 30.71557617 C-16.94052802 28.94954478 -15.92344342 27.18372569 -14.90625 25.41796875 C-13.63599127 23.21265845 -12.36640982 21.00695784 -11.09765625 18.80078125 C-7.46359212 12.49366105 -3.76901741 6.22744663 0 0 Z " fill="#FABB04" transform="translate(178,98)"/>
<path d="M0 0 C3.53731097 2.81342005 6.79969166 5.81100017 10 9 C10.84691406 9.81210937 10.84691406 9.81210937 11.7109375 10.640625 C22.03287313 21.45408138 26.54413717 37.25892998 26.34741211 51.86010742 C25.69136457 70.07571128 19.03858713 83.3306472 6 96 C-6.43945203 107.22830863 -22.39979156 111.95082896 -38.94140625 111.34765625 C-56.08497176 110.20036559 -69.39194135 102.13947192 -81 90 C-93.02536554 75.86414983 -96.44189456 59.03500574 -95 41 C-93.02372714 28.76712114 -87.19001564 14.16679202 -77.0546875 6.4765625 C-76.37664062 5.98929687 -75.69859375 5.50203125 -75 5 C-74.30132812 4.40960938 -73.60265625 3.81921875 -72.8828125 3.2109375 C-67.37153689 -1.39813641 -61.69855653 -4.43878721 -55 -7 C-54.18273437 -7.32097656 -53.36546875 -7.64195312 -52.5234375 -7.97265625 C-35.14012444 -13.75812422 -14.96107605 -10.16903215 0 0 Z " fill="#34A753" transform="translate(150,278)"/>
<path d="M0 0 C2.36924352 1.87745103 4.69124181 3.78681216 6.97265625 5.76953125 C5.36255098 9.84329156 2.43443354 12.53460194 -0.65234375 15.51953125 C-1.16796875 16.02613281 -1.68359375 16.53273437 -2.21484375 17.0546875 C-3.48117714 18.29757027 -4.75365815 19.53418401 -6.02734375 20.76953125 C-8.96091002 19.38825565 -11.51402988 17.77347803 -14.15234375 15.89453125 C-26.1220917 7.81593898 -39.24901843 6.27675849 -53.35546875 8.23046875 C-67.76878965 11.43762131 -77.94672105 19.21236951 -85.97265625 31.33984375 C-93.22238873 43.44110823 -94.87246387 57.57690984 -92.37890625 71.3515625 C-88.50953044 85.02666418 -81.32091129 96.25740254 -68.96484375 103.5859375 C-55.43519174 110.60444448 -39.02557512 112.73700609 -24.21484375 108.14453125 C-12.68591321 103.42363297 -4.12251321 96.22346362 0.9296875 84.80859375 C1.8187727 82.21792601 2.45878955 79.74937005 3.0378418 77.07958984 C3.21405563 76.27170013 3.39026947 75.46381042 3.57182312 74.63143921 C3.70409805 74.01700958 3.83637299 73.40257996 3.97265625 72.76953125 C3.39858536 72.77175186 2.82451447 72.77397247 2.23304749 72.77626038 C-3.71987285 72.79831382 -9.67278165 72.81343809 -15.62573242 72.82446289 C-17.85002107 72.82950442 -20.07430638 72.83633748 -22.29858398 72.8449707 C-25.48812684 72.85704423 -28.67762604 72.86276121 -31.8671875 72.8671875 C-33.36873634 72.87492943 -33.36873634 72.87492943 -34.90061951 72.88282776 C-36.2819381 72.88294106 -36.2819381 72.88294106 -37.69116211 72.88305664 C-38.50612656 72.88527725 -39.321091 72.88749786 -40.16075134 72.88978577 C-42.02734375 72.76953125 -42.02734375 72.76953125 -43.02734375 71.76953125 C-43.12594506 70.3660439 -43.15813312 68.95772648 -43.16015625 67.55078125 C-43.16144531 66.70128906 -43.16273438 65.85179687 -43.1640625 64.9765625 C-43.16019531 64.08324219 -43.15632812 63.18992187 -43.15234375 62.26953125 C-43.15621094 61.37621094 -43.16007813 60.48289062 -43.1640625 59.5625 C-43.16277344 58.71300781 -43.16148437 57.86351562 -43.16015625 56.98828125 C-43.15902832 56.20388672 -43.15790039 55.41949219 -43.15673828 54.61132812 C-43.02734375 52.76953125 -43.02734375 52.76953125 -42.02734375 51.76953125 C-39.97177714 51.67539438 -37.91294194 51.65210127 -35.85522461 51.65600586 C-35.21134293 51.65585983 -34.56746124 51.65571381 -33.90406799 51.65556335 C-31.76674072 51.6562624 -29.62949962 51.66405434 -27.4921875 51.671875 C-26.0138809 51.67373921 -24.53557368 51.6751631 -23.05726624 51.67616272 C-19.15935573 51.67998766 -15.26148226 51.68981773 -11.36358643 51.7008667 C-7.38888042 51.71108133 -3.41416846 51.71566045 0.56054688 51.72070312 C8.36460025 51.73144003 16.16862307 51.74851616 23.97265625 51.76953125 C28.77843935 66.18688054 24.43309398 85.42695056 17.84765625 98.64453125 C8.60222153 114.41499558 -5.28172007 124.51112003 -22.71484375 129.51953125 C-27.12615287 130.62235853 -31.48301405 131.49437 -36.02734375 131.76953125 C-37.31318359 131.84880859 -37.31318359 131.84880859 -38.625 131.9296875 C-58.00271096 132.52953589 -76.60528634 126.21921061 -91.21484375 113.39453125 C-92.83537171 111.87007203 -94.440751 110.3292781 -96.02734375 108.76953125 C-96.65511719 108.15464844 -97.28289062 107.53976562 -97.9296875 106.90625 C-111.48691628 92.54972882 -116.62889984 73.93515697 -116.30078125 54.57421875 C-115.49678854 34.69728995 -105.61876893 18.07403996 -91.66015625 4.4609375 C-66.02553466 -17.67805387 -27.34408374 -20.14641525 0 0 Z " fill="#5F6368" transform="translate(573.02734375,173.23046875)"/>
<path d="M0 0 C2.16904727 1.43584819 4.28678993 2.90916771 6.37109375 4.46484375 C6.70109375 2.48484375 7.03109375 0.50484375 7.37109375 -1.53515625 C13.97109375 -1.53515625 20.57109375 -1.53515625 27.37109375 -1.53515625 C27.46190596 10.18381077 27.53510275 21.90253938 27.57834244 33.6217804 C27.59910813 39.06504519 27.62722162 44.50805422 27.67285156 49.95117188 C27.71670585 55.21616079 27.74031342 60.48090559 27.75060272 65.74606323 C27.75792372 67.74246049 27.77221709 69.73884625 27.79401398 71.73513794 C27.98138525 89.62737019 26.7350664 106.38713387 14.12109375 120.27734375 C4.03363584 129.73991488 -8.5631357 131.04044332 -21.7265625 130.77734375 C-27.59728076 130.50973266 -32.44977027 129.27312525 -37.62890625 126.46484375 C-38.41265625 126.04074219 -39.19640625 125.61664063 -40.00390625 125.1796875 C-48.65122064 119.93579246 -54.61268837 112.6686764 -58.62890625 103.46484375 C-56.75653254 102.50138931 -54.88087635 101.54431273 -53.00390625 100.58984375 C-51.95976563 100.05617188 -50.915625 99.5225 -49.83984375 98.97265625 C-46.81089 97.55030084 -43.82247291 96.45264365 -40.62890625 95.46484375 C-40.02755859 96.46064453 -40.02755859 96.46064453 -39.4140625 97.4765625 C-34.96384315 104.38903473 -30.56068918 108.73334402 -22.5546875 111.0703125 C-14.93261853 112.6318317 -7.36097253 110.65540439 -0.75390625 106.77734375 C4.90480855 100.61933059 6.51531436 93.88690454 6.43359375 85.71484375 C6.42457031 84.544375 6.41554688 83.37390625 6.40625 82.16796875 C6.39464844 81.2759375 6.38304687 80.38390625 6.37109375 79.46484375 C5.04078125 80.82609375 5.04078125 80.82609375 3.68359375 82.21484375 C-2.07697372 87.15581829 -10.1476188 89.53935816 -17.69140625 89.90234375 C-31.52329441 88.36546729 -43.38647692 83.02686825 -52.47265625 72.28515625 C-59.71748853 62.67654395 -63.69680121 50.56765335 -62.62890625 38.46484375 C-60.57319546 25.01561723 -55.05989837 13.06889536 -44.1953125 4.55859375 C-30.8765782 -4.56541582 -14.57432135 -8.51071069 0 0 Z M-35.62890625 23.46484375 C-40.60838596 31.49377227 -42.9368356 39.49291529 -41.16796875 48.921875 C-39.19345801 56.48308966 -35.76580062 61.98146904 -29.62890625 66.83984375 C-23.37332501 70.22828359 -17.69627798 71.46259035 -10.62890625 70.46484375 C-2.13166577 67.66575277 2.95840545 62.87423962 7.18359375 55.15234375 C10.07230578 46.18213272 10.4313444 36.49316883 6.07421875 27.91015625 C1.94151192 21.41285943 -2.99139278 16.50743456 -10.62890625 14.46484375 C-20.45956642 13.27616915 -29.08627938 15.82381967 -35.62890625 23.46484375 Z " fill="#5F6368" transform="translate(876.62890625,215.53515625)"/>
<path d="M0 0 C6.27 0 12.54 0 19 0 C25.21018143 15.30780702 31.05543999 30.72759902 36.79322815 46.21791077 C38.96648863 52.08204028 41.14706716 57.94345455 43.328125 63.8046875 C43.68915943 64.77518539 43.68915943 64.77518539 44.05748749 65.76528931 C49.36476905 80.02681365 54.77988341 94.24672332 60.25195312 108.44580078 C60.56207336 109.25371063 60.8721936 110.06162048 61.19171143 110.89401245 C61.75713548 112.36694542 62.32488778 113.83898819 62.89569092 115.30984497 C64.51061134 119.52238955 65.75224786 123.63286753 67 128 C60.73 128 54.46 128 48 128 C46.42902122 123.641554 44.86098142 119.28227576 43.30029297 114.92016602 C42.76847002 113.43648059 42.23495164 111.95340175 41.69970703 110.47094727 C40.93075408 108.34027708 40.16792014 106.2075015 39.40625 104.07421875 C39.16563843 103.41161545 38.92502686 102.74901215 38.67712402 102.06632996 C37.67009285 99.22936915 37 97.03673783 37 94 C19.18 94.33 1.36 94.66 -17 95 C-20.96 105.89 -24.92 116.78 -29 128 C-35.27 128 -41.54 128 -48 128 C-42.11515347 110.86123001 -35.76723729 93.91139834 -29.36006927 76.96331406 C-28.49291099 74.6687419 -27.62670011 72.37381431 -26.76080322 70.07876587 C-17.93369157 46.6832092 -9.03939588 23.31448145 0 0 Z M9 21 C5.98389136 28.99398746 2.98709419 36.99512956 0 45 C-0.24564697 45.657724 -0.49129395 46.315448 -0.74438477 46.99310303 C-2.27506832 51.09304309 -3.79972599 55.19515087 -5.31723022 59.29998779 C-5.81358831 60.64034364 -6.31165298 61.98006875 -6.81143188 63.31915283 C-7.51563701 65.20714169 -8.21304205 67.09766268 -8.91015625 68.98828125 C-9.31371338 70.07665283 -9.71727051 71.16502441 -10.13305664 72.28637695 C-11.1521624 75.00149354 -11.1521624 75.00149354 -11 78 C2.53 78 16.06 78 30 78 C29.33454412 74.00726473 28.80214817 71.05023379 27.46533203 67.39086914 C27.15475861 66.53300308 26.84418518 65.67513702 26.52420044 64.79127502 C26.18879242 63.88175583 25.8533844 62.97223663 25.5078125 62.03515625 C25.16120575 61.08362167 24.814599 60.1320871 24.45748901 59.15171814 C23.7252516 57.14460106 22.99050734 55.13839698 22.25341797 53.13305664 C21.13082148 50.07834094 20.01591519 47.02090639 18.90234375 43.96289062 C18.18795029 42.00764792 17.47312086 40.05256443 16.7578125 38.09765625 C16.42645294 37.19016129 16.09509338 36.28266632 15.75369263 35.34767151 C13.96901271 30.49835047 12.08506435 25.72821134 10 21 C9.67 21 9.34 21 9 21 Z " fill="#5F6368" transform="translate(1130,174)"/>
<path d="M0 0 C5.61 0 11.22 0 17 0 C17 42.24 17 84.48 17 128 C11.72 128 6.44 128 1 128 C0.67 124.37 0.34 120.74 0 117 C-0.7425 118.03125 -1.485 119.0625 -2.25 120.125 C-8.10872603 127.00445873 -17.06218622 130.51381659 -25.91015625 131.23828125 C-39.6736333 131.56232842 -49.07441843 127.55732223 -58.93359375 118.15625 C-69.12708214 107.45856756 -71.61675346 94.04283315 -71.30859375 79.80859375 C-70.67209216 66.36811 -64.49915402 55.69006473 -54.88671875 46.53125 C-44.76346082 38.31527255 -33.61132647 36.87892641 -21 38 C-11.57980867 39.71171769 -7.43836845 44.30546839 0 51 C0 34.17 0 17.34 0 0 Z M-47.53125 62.0625 C-54.5861632 71.36898124 -54.93362209 81.74056851 -54 93 C-52.33818306 100.69183842 -48.26440993 106.79336363 -42 111.50390625 C-35.48557776 115.58705305 -28.95050139 116.70302978 -21.359375 115.625 C-13.29181272 113.64523012 -7.76457554 108.90175611 -3.125 102.125 C1.88660562 93.35047164 2.12440814 83.11659342 -0.0625 73.4375 C-2.20645288 66.29773238 -6.2774991 61.16688847 -12.0625 56.5625 C-24.22355395 50.09385428 -38.0813726 51.72112473 -47.53125 62.0625 Z " fill="#5F6368" transform="translate(1270,174)"/>
<path d="M0 0 C7.70650146 7.15346079 11.87884588 15.59629458 15.50390625 25.32421875 C5.25432927 30.76324484 -5.37909179 35.09647423 -16.12109375 39.44921875 C-17.86085037 40.15842924 -19.60043481 40.86806223 -21.33984375 41.578125 C-29.37977777 44.85697435 -37.42615829 48.11978733 -45.49609375 51.32421875 C-43.56113733 56.73124651 -40.66452056 59.61761976 -35.67578125 62.3046875 C-28.61880741 65.34747177 -21.5992833 65.31860932 -14.37109375 62.82421875 C-8.97495273 60.46767615 -5.31492501 56.71907483 -1.49609375 52.32421875 C-0.76003906 52.79472656 -0.02398438 53.26523437 0.734375 53.75 C1.71019531 54.37261719 2.68601562 54.99523437 3.69140625 55.63671875 C4.65433594 56.25160156 5.61726563 56.86648438 6.609375 57.5 C9.22024928 59.14544978 11.85086645 60.7479154 14.50390625 62.32421875 C10.82107012 71.02910414 3.0405805 76.83346557 -5.37890625 80.62109375 C-19.5174212 85.93748357 -32.75437767 85.3908942 -46.62109375 79.26171875 C-58.43922502 72.84995572 -65.4092119 62.12472255 -69.3671875 49.55859375 C-72.43551662 36.10026741 -70.04023871 22.39346907 -63.49609375 10.32421875 C-56.12792016 0.16615419 -46.82013577 -6.44611903 -34.62109375 -9.36328125 C-21.58601552 -10.66678907 -10.48569108 -8.25729094 0 0 Z M-44.93359375 17.82421875 C-48.65133779 23.77260922 -49.99343427 28.41265088 -50.49609375 35.32421875 C-41.77096688 32.59946098 -33.38344976 29.10191525 -24.93359375 25.63671875 C-23.43305022 25.02382525 -21.93240001 24.41119287 -20.43164062 23.79882812 C-16.78522112 22.31030003 -13.14026466 20.81824287 -9.49609375 19.32421875 C-10.3067141 14.68786575 -12.76503595 13.08520152 -16.49609375 10.32421875 C-27.50585843 6.65429719 -37.04425137 9.73258554 -44.93359375 17.82421875 Z " fill="#5F6368" transform="translate(1021.49609375,220.67578125)"/>
<path d="M0 0 C9.51910269 7.40205425 16.03311775 18.66899223 17.7890625 30.6484375 C18.99248573 44.0643779 16.20415661 56.71960089 8.02734375 67.6328125 C-0.31536778 77.49104306 -11.05965279 83.65204717 -24 85 C-37.05357971 86.07469231 -49.72920414 81.61018739 -59.75 73.3125 C-68.16102194 65.43645472 -73.67033651 54.36803757 -74.2734375 42.84765625 C-74.69905267 28.72994197 -72.82978289 17.22307745 -63.16796875 6.18359375 C-45.71872272 -11.39141261 -20.71089044 -14.13946505 0 0 Z M-48.8203125 20.23828125 C-53.99764725 27.96999639 -55.3138925 36.25238256 -53.5390625 45.3671875 C-51.07217617 53.75460102 -46.42183017 59.65172711 -38.9296875 64.08984375 C-32.52675386 67.10985091 -25.53874808 66.80021121 -18.9375 64.5625 C-12.15264063 61.57166635 -7.10490831 56.0277668 -4 49.3125 C-1.42367542 40.87629991 -1.9398909 31.14700679 -5.6796875 23.18359375 C-9.7423928 16.46450422 -15.40216367 12.06001942 -23 10 C-33.4307718 8.38116865 -42.36952397 11.83767811 -48.8203125 20.23828125 Z " fill="#5F6368" transform="translate(786,220)"/>
<path d="M0 0 C7.10595334 5.94403394 12.75133214 12.17239621 16 21 C16.31582031 21.85078125 16.63164063 22.7015625 16.95703125 23.578125 C21.14888296 36.67048376 19.56632568 49.47556329 13.6796875 61.75390625 C6.99585725 73.71540574 -2.84107571 80.82092077 -15.80859375 84.87890625 C-18.21764995 85.41634 -20.54335697 85.77323295 -23 86 C-24.08474609 86.10441406 -24.08474609 86.10441406 -25.19140625 86.2109375 C-36.74918016 86.74850838 -48.64993831 82.42204853 -57.6875 75.3125 C-66.77275075 66.93435603 -72.46326436 55.52617755 -73.23828125 43.21484375 C-73.62384169 28.41831338 -70.27760191 16.29665873 -60.19140625 4.96875 C-43.95458449 -10.4241621 -18.57182394 -12.54463263 0 0 Z M-47 20 C-51.99146417 28.04825231 -54.23545679 35.97263111 -52.57421875 45.421875 C-50.7380619 52.67638429 -47.23218489 59.18889738 -40.87109375 63.4140625 C-33.91804893 66.97381657 -27.00552016 68.58928978 -19.3671875 66.1640625 C-11.94025029 62.77992292 -7.01599205 57.98919183 -3.34375 50.72265625 C-0.24923603 42.14977308 -0.71898723 32.62729218 -4.5 24.375 C-8.11913578 18.09272656 -12.42728326 14.70869061 -18.875 11.625 C-29.69264503 9.46147099 -39.61901904 11.37987626 -47 20 Z " fill="#5F6368" transform="translate(682,219)"/>
<path d="M0 0 C4.85219093 3.28262824 8.35106183 7.2969668 10.73828125 12.6796875 C10.73828125 13.6696875 10.73828125 14.6596875 10.73828125 15.6796875 C8.80595304 16.54549037 6.86720931 17.39698691 4.92578125 18.2421875 C3.84683594 18.71785156 2.76789063 19.19351563 1.65625 19.68359375 C-1.26171875 20.6796875 -1.26171875 20.6796875 -4.26171875 19.6796875 C-5.81420309 17.98722507 -7.17246313 16.19540729 -8.56640625 14.37109375 C-12.60267536 10.3441248 -17.23800585 10.38368663 -22.69921875 10.3671875 C-23.97667969 10.35042969 -25.25414062 10.33367187 -26.5703125 10.31640625 C-31.32780102 10.78460353 -34.65438693 12.22790392 -38.19921875 15.4296875 C-39.84516465 18.91522 -39.36628708 21.04110948 -38.26171875 24.6796875 C-32.02116086 30.27655148 -23.28621666 31.11489054 -15.35742188 32.94726562 C-4.98612109 35.46099743 3.5860619 38.56967038 9.73828125 47.6796875 C13.46071401 54.13190428 13.99271693 60.97555369 12.08203125 68.140625 C8.92269089 76.12068298 3.80504157 80.93138183 -3.88671875 84.5546875 C-15.14075651 89.42391301 -27.87028609 89.0144911 -39.32421875 85 C-48.07367223 81.0673999 -55.6397676 73.78324592 -59.453125 64.90625 C-59.71996094 64.17148437 -59.98679687 63.43671875 -60.26171875 62.6796875 C-58.7032012 61.85957438 -57.13970159 61.04892537 -55.57421875 60.2421875 C-54.70410156 59.78972656 -53.83398438 59.33726562 -52.9375 58.87109375 C-50.35173611 57.71976822 -48.04815347 57.11647997 -45.26171875 56.6796875 C-44.83761719 57.35515625 -44.41351562 58.030625 -43.9765625 58.7265625 C-39.87839663 64.9593774 -36.70517647 69.01262857 -29.38671875 71.25390625 C-22.25040567 72.68379251 -15.60585645 72.24826496 -9.26171875 68.6796875 C-7.28780653 67.03476065 -6.40537415 65.96699829 -5.26171875 63.6796875 C-5.00242084 59.70378623 -5.10212557 57.05418483 -7.26171875 53.6796875 C-12.8673637 50.03688347 -19.63461848 48.71496932 -26.07421875 47.3046875 C-37.88717396 44.50163186 -48.14892316 41.11908288 -55.26171875 30.6796875 C-58.03145361 26.10360382 -57.77595901 20.87922792 -57.26171875 15.6796875 C-55.15380552 8.77041635 -51.54984936 3.63848016 -45.34375 -0.05859375 C-31.01560983 -7.37100633 -14.21846034 -8.3002411 0 0 Z " fill="#5F6368" transform="translate(1357.26171875,217.3203125)"/>
<path d="M0 0 C6.93 0 13.86 0 21 0 C21 45.21 21 90.42 21 137 C14.07 137 7.14 137 0 137 C0 91.79 0 46.58 0 0 Z " fill="#5F6368" transform="translate(919,165)"/>
</svg>
