<?xml version="1.0" encoding="UTF-8"?>
<svg version="1.1" xmlns="http://www.w3.org/2000/svg" width="761" height="328">
<path d="M0 0 C7.82245804 4.37173479 13.915212 10.45196925 19.48828125 17.390625 C22.95899928 16.23371899 23.39123536 15.09852362 25.2734375 12.13671875 C29.94557365 5.42146197 36.51599136 0.39866173 44.2890625 -2.21484375 C55.52435752 -4.23041177 64.88515673 -2.9917593 74.48828125 3.390625 C75.14054688 3.82375 75.7928125 4.256875 76.46484375 4.703125 C90.16870094 15.21567298 96.6924044 31.95730567 99.48828125 48.390625 C99.67261719 49.26847656 99.85695313 50.14632812 100.046875 51.05078125 C101.94880255 65.44147202 103.20918391 85.96436228 94.48828125 98.390625 C92.4375 100.33984375 92.4375 100.33984375 90.17578125 102.078125 C89.43714844 102.65949219 88.69851563 103.24085938 87.9375 103.83984375 C80.48416094 108.55910309 71.96281168 108.17314549 63.48828125 107.390625 C49.19998014 103.44506196 40.77952517 90.28686508 33.48828125 78.390625 C33.08158203 77.73126953 32.67488281 77.07191406 32.25585938 76.39257812 C19.48828125 55.617175 19.48828125 55.617175 19.48828125 52.390625 C18.82828125 52.390625 18.16828125 52.390625 17.48828125 52.390625 C17.28203125 53.195 17.07578125 53.999375 16.86328125 54.828125 C15.40428754 58.60824508 13.53293412 61.42477952 11.23828125 64.734375 C9.27923418 67.70792859 7.58036981 70.77124745 5.86328125 73.890625 C-9.28809381 100.80699076 -9.28809381 100.80699076 -23.3046875 106.53125 C-27.05863355 107.53717951 -30.59268461 107.72136783 -34.44921875 107.703125 C-35.46532227 107.72729492 -35.46532227 107.72729492 -36.50195312 107.75195312 C-45.36036272 107.76044633 -51.07915331 103.7669125 -57.2734375 97.8828125 C-64.87943346 89.41400723 -65.72598828 76.14889209 -65.45703125 65.15527344 C-64.41574409 48.07357007 -59.71042686 31.40061582 -49.84375 17.3125 C-48.41476849 15.32248875 -48.41476849 15.32248875 -47.07421875 12.765625 C-37.0167622 -2.52170895 -16.52637267 -7.12213936 0 0 Z M39.48828125 19.390625 C38.60140625 20.215625 37.71453125 21.040625 36.80078125 21.890625 C34.25130908 24.64681113 31.8581909 27.47902172 29.48828125 30.390625 C30.79828917 33.89485734 32.3398206 36.98266772 34.31640625 40.15625 C34.86941406 41.04699219 35.42242187 41.93773437 35.9921875 42.85546875 C36.56839844 43.77457031 37.14460938 44.69367188 37.73828125 45.640625 C38.29902344 46.54425781 38.85976562 47.44789063 39.4375 48.37890625 C43.01597485 54.12264763 46.705099 59.78005029 50.48828125 65.390625 C51.801058 67.34964101 53.11246971 69.30956566 54.42382812 71.26953125 C55.26930936 72.5331366 56.11568603 73.7961432 56.96289062 75.05859375 C58.7646613 77.75424443 60.52214189 80.44721508 62.1875 83.23046875 C63.76813966 85.85537485 64.7278133 87.01039102 67.48828125 88.390625 C72.24955683 89.20352571 75.41466132 89.14444325 79.42578125 86.328125 C86.25064874 76.60785918 84.07493143 62.37255745 82.30078125 51.203125 C79.71321894 36.46643131 74.68246694 24.32167971 62.1875 15.484375 C54.07324611 10.26140698 45.9026063 13.21114938 39.48828125 19.390625 Z M-31.51171875 23.390625 C-42.12496556 36.98219942 -48.51939485 57.03660281 -46.51171875 74.390625 C-45.33731277 80.20803139 -43.59912414 84.96215615 -38.51171875 88.390625 C-35.29871938 89.24455791 -32.73054694 89.22233564 -29.51171875 88.390625 C-26.32606395 86.5103701 -23.98594389 84.12063484 -21.51171875 81.390625 C-20.85300781 80.66488281 -20.19429687 79.93914062 -19.515625 79.19140625 C-15.1353817 74.02562224 -11.71110078 68.48292543 -8.44580078 62.57519531 C-4.99641072 56.35509499 -0.93360013 50.66173752 3.29296875 44.953125 C3.85242188 44.169375 4.411875 43.385625 4.98828125 42.578125 C5.49359375 41.89105469 5.99890625 41.20398438 6.51953125 40.49609375 C7.83692135 37.63289511 7.51562221 36.35152033 6.48828125 33.390625 C1.33673624 24.98418457 -5.17933244 19.59145793 -14.51171875 16.390625 C-20.93906453 16.390625 -26.61543096 19.31038518 -31.51171875 23.390625 Z " fill="#0677ED" transform="translate(173.51171875,111.609375)"/>
<path d="M0 0 C3.74838549 -0.12714159 7.49621629 -0.20481742 11.24609375 -0.2734375 C12.30904663 -0.31009521 13.37199951 -0.34675293 14.46716309 -0.38452148 C22.34404938 -0.4929119 22.34404938 -0.4929119 25.70019531 2.02905273 C27.20761836 4.62490006 28.09962022 7.14020343 29 10 C29.8750155 11.50418073 30.79361776 12.98369643 31.75 14.4375 C35.08247997 19.98295496 38.03768325 25.71696946 41.02832031 31.45092773 C44.10893911 37.34426028 47.26910699 43.18771118 50.5 49 C50.92120117 49.75925781 51.34240234 50.51851562 51.77636719 51.30078125 C53.43860827 54.27947371 55.10569798 57.15854698 57 60 C63.50242369 50.82010773 70.0970403 40.69201879 73.9375 30.0625 C77.84524036 19.40667096 85.02678565 9.55714296 91 0 C97.93 0 104.86 0 112 0 C112 34.98 112 69.96 112 106 C106.39 106 100.78 106 95 106 C93.09659885 104.09659885 93.82500994 100.71154214 93.79467773 98.18530273 C93.78477814 97.47314606 93.77487854 96.76098938 93.76467896 96.0272522 C93.73297788 93.66273372 93.70827276 91.29819511 93.68359375 88.93359375 C93.66303164 87.29833948 93.64203537 85.66309062 93.62062073 84.02784729 C93.56532328 79.71571214 93.51594799 75.40352842 93.46777344 71.09130859 C93.41761428 66.69429176 93.36189913 62.2973458 93.30664062 57.90039062 C93.19896527 49.26698693 93.09754129 40.6335241 93 32 C92.63237549 32.65484375 92.26475098 33.3096875 91.88598633 33.984375 C90.19679026 36.99069284 88.5046672 39.9953536 86.8125 43 C86.23435547 44.02996094 85.65621094 45.05992187 85.06054688 46.12109375 C82.14295368 51.29693704 79.18773973 56.4190948 75.96678162 61.41285706 C74.69666343 63.49798061 73.85443299 65.63262041 73.0625 67.9375 C72.38124695 69.62753159 71.69366163 71.31502343 71 73 C70.67515625 73.87011719 70.3503125 74.74023438 70.015625 75.63671875 C68.5988875 78.56678949 67.67140111 80.10083585 65 82 C59.40762886 83.10492723 53.63291049 82.50809104 48 82 C42.00787134 71.68178191 36.0464728 61.40433564 30.84741211 50.65966797 C28.81067848 46.55002648 26.55717729 42.56955533 24.29296875 38.58203125 C23.87865601 37.84907837 23.46434326 37.11612549 23.03747559 36.36096191 C22.02655601 34.57308468 21.01350003 32.78641571 20 31 C19.9845388 32.38728554 19.9845388 32.38728554 19.96876526 33.80259705 C19.87096818 42.49959224 19.76847962 51.19651656 19.66066074 59.89339352 C19.60539123 64.36501994 19.55196493 68.83665285 19.50268555 73.30834961 C19.45510123 77.62017766 19.40276084 81.93192368 19.34705925 86.24365425 C19.32660872 87.89233939 19.30790019 89.54104706 19.29092598 91.18977165 C19.26694141 93.4910996 19.23687923 95.7922711 19.20532227 98.09350586 C19.18977798 99.4058873 19.1742337 100.71826874 19.15821838 102.07041931 C19 105 19 105 18 106 C15.15664952 106.09986975 12.34302837 106.13877881 9.5 106.125 C8.70207031 106.12886719 7.90414063 106.13273437 7.08203125 106.13671875 C1.12660767 106.12660767 1.12660767 106.12660767 0 105 C-0.09535213 103.63391674 -0.1218867 102.26294545 -0.12025452 100.89353943 C-0.12162918 100.00867859 -0.12300385 99.12381775 -0.12442017 98.21214294 C-0.12082489 97.23391068 -0.11722961 96.25567841 -0.11352539 95.24780273 C-0.11367142 94.2235318 -0.11381744 93.19926086 -0.1139679 92.14395142 C-0.11326828 88.74047771 -0.10547363 85.33705796 -0.09765625 81.93359375 C-0.09579224 79.58089732 -0.09436826 77.2282005 -0.09336853 74.87550354 C-0.08954199 68.66943295 -0.07971055 62.4633856 -0.06866455 56.25732422 C-0.05845334 49.93001622 -0.05387154 43.60270448 -0.04882812 37.27539062 C-0.0380884 24.85025018 -0.02101036 12.42512702 0 0 Z " fill="#2A373F" transform="translate(307,112)"/>
<path d="M0 0 C1.80078125 1.63671875 1.80078125 1.63671875 3 3 C3.99 1.35 4.98 -0.3 6 -2 C11.61 -2 17.22 -2 23 -2 C23 24.4 23 50.8 23 78 C17.39 78 11.78 78 6 78 C5.505 74.535 5.505 74.535 5 71 C4.43152344 71.40992188 3.86304688 71.81984375 3.27734375 72.2421875 C2.50519531 72.78101563 1.73304688 73.31984375 0.9375 73.875 C0.18339844 74.40867187 -0.57070313 74.94234375 -1.34765625 75.4921875 C-9.72541917 80.25480383 -20.66916892 80.40218673 -29.9453125 78.34765625 C-39.14742759 74.9870092 -46.80995143 68.92447354 -51 60 C-56.16671379 47.03979775 -56.92941386 33.11676856 -52.2578125 19.90234375 C-47.8653697 9.76698659 -40.83788572 2.46841677 -30.859375 -2.2734375 C-20.99702251 -6.12721389 -9.25593463 -4.89827337 0 0 Z M-29.83203125 19.0234375 C-35.0956397 26.52824177 -36.86715799 33.92193982 -36 43 C-34.53006745 50.69417817 -31.86787497 57.36281252 -25.25 61.875 C-17.37487721 64.60100404 -10.65313066 64.53027444 -3 61 C0.23893737 58.78976325 3.22581581 56.54836838 5 53 C5.3041734 48.95182561 5.35632028 44.90209833 5.4050293 40.84350586 C5.43710554 38.83717316 5.50641112 36.83154795 5.57617188 34.82617188 C5.82537101 26.67249405 5.82537101 26.67249405 2.16796875 19.69140625 C-2.72347194 15.01200681 -8.10353636 13.24546302 -14.6875 12.6875 C-20.61721341 12.82000756 -25.79290651 14.56231466 -29.83203125 19.0234375 Z " fill="#29353E" transform="translate(629,140)"/>
<path d="M0 0 C0 0.66 0 1.32 0 2 C0.58910156 2.26039063 1.17820312 2.52078125 1.78515625 2.7890625 C9.7327249 7.13429404 13.27017722 15.81053167 16 24 C17.68681707 31.00677859 17 37.61393958 17 45 C-10.225 45.495 -10.225 45.495 -38 46 C-36.03749175 53.62503805 -36.03749175 53.62503805 -31.625 58.4375 C-31.06039063 58.88996094 -30.49578125 59.34242188 -29.9140625 59.80859375 C-23.04470643 64.08441742 -14.57707965 64.25459788 -6.77734375 62.5 C-2.44546656 60.76330208 1.3018738 57.79246264 5 55 C8.33134241 56.40495745 10.09333146 57.98854968 12.25 60.875 C12.77078125 61.55304688 13.2915625 62.23109375 13.828125 62.9296875 C15 65 15 65 15 69 C12.67248045 70.3031685 10.33883216 71.59241462 8 72.875 C7.35160156 73.23980469 6.70320313 73.60460937 6.03515625 73.98046875 C-5.36112453 80.18636422 -19.9219023 81.13441341 -32.5 78 C-41.22918701 74.7494461 -49.61061591 68.28478605 -54 60 C-59.2102457 48.45252755 -60.0548029 34.66729158 -56.4375 22.5 C-52.20952727 11.83431269 -45.05745487 3.00177943 -34.6640625 -2.16015625 C-23.64252844 -6.09641841 -10.43690087 -5.21845044 0 0 Z M-35.80078125 20.890625 C-37.52526479 23.62417477 -37.52526479 23.62417477 -38 30 C-25.79 30 -13.58 30 -1 30 C-2.98107905 21.08514426 -3.44558194 19.19119089 -10.296875 14.390625 C-19.81190632 9.49560889 -29.20391264 13.61848638 -35.80078125 20.890625 Z " fill="#2A383F" transform="translate(491,140)"/>
<path d="M0 0 C0.33 0.66 0.66 1.32 1 2 C1.61875 2.144375 2.2375 2.28875 2.875 2.4375 C5.41780199 3.11059465 6.40690667 3.92897868 8 6 C8 6.99 8 7.98 8 9 C7.34 9 6.68 9 6 9 C5.87625 9.804375 5.7525 10.60875 5.625 11.4375 C5.315625 12.7059375 5.315625 12.7059375 5 14 C4.01 14.495 4.01 14.495 3 15 C1.00703873 18.86136245 0.36541376 22.95176811 -0.4296875 27.1796875 C-1.04297646 30.21252744 -1.78913984 33.19166791 -2.5625 36.1875 C-5.32338128 47.14736204 -7.03122031 58.45631221 -2 69 C-0.24953928 71.76034191 0.80921286 72.71289322 3.9765625 73.4765625 C8.59264634 73.90485894 11.47086007 73.13448661 15.0625 70.1875 C22.31840373 63.01797608 27.40136383 54.41129444 32.40234375 45.60546875 C34.31506227 42.48619429 36.24036347 40.37635368 39 38 C39.556875 37.401875 40.11375 36.80375 40.6875 36.1875 C42 35 42 35 44 35 C44.33 33.02 44.66 31.04 45 29 C45.99 29 46.98 29 48 29 C48 28.34 48 27.68 48 27 C49.65 26.67 51.3 26.34 53 26 C53.99 28.475 53.99 28.475 55 31 C55.66 31 56.32 31 57 31 C57.495 32.98 57.495 32.98 58 35 C57.34 35 56.68 35 56 35 C56 36.98 56 38.96 56 41 C54.68 41 53.36 41 52 41 C52 42.65 52 44.3 52 46 C51.01 46.495 51.01 46.495 50 47 C49.34786708 49.02463255 49.34786708 49.02463255 49 51 C48.34 51 47.68 51 47 51 C46.98219482 51.5561499 46.96438965 52.1122998 46.94604492 52.68530273 C46.53257088 58.92698024 44.79457766 62.93323836 41.3125 68.0625 C40.85552734 68.75786865 40.39855469 69.4532373 39.92773438 70.16967773 C39.02888932 71.52766687 38.12183264 72.88026642 37.20556641 74.2265625 C36.23320391 75.6569475 35.28963724 77.10688353 34.35546875 78.5625 C29.539085 85.66909505 22.31734425 90.84667529 14 93 C11.30592016 93.21103169 8.75131473 93.32521909 6.0625 93.3125 C5.04639648 93.33666992 5.04639648 93.33666992 4.00976562 93.36132812 C-4.84864397 93.36982133 -10.56743456 89.3762875 -16.76171875 83.4921875 C-24.36771471 75.02338223 -25.21426953 61.75826709 -24.9453125 50.76464844 C-24.08310908 36.6207085 -20.61219015 22.5610885 -14 10 C-13.51660156 9.07445312 -13.03320312 8.14890625 -12.53515625 7.1953125 C-11.77525391 6.10863281 -11.77525391 6.10863281 -11 5 C-10.01 5 -9.02 5 -8 5 C-7.67 4.34 -7.34 3.68 -7 3 C-7 3.66 -7 4.32 -7 5 C-6.34 5 -5.68 5 -5 5 C-4.67 3.68 -4.34 2.36 -4 1 C-2.68 1.33 -1.36 1.66 0 2 C0 1.34 0 0.68 0 0 Z " fill="#047AF1" transform="translate(133,126)"/>
<path d="M0 0 C0.79792969 0.00386719 1.59585938 0.00773437 2.41796875 0.01171875 C3.61486328 0.00591797 3.61486328 0.00591797 4.8359375 0 C10.79136108 0.01011108 10.79136108 0.01011108 11.91796875 1.13671875 C12.00497217 2.77144757 12.02497938 4.4098593 12.015625 6.046875 C12.01312744 6.93769775 12.01062988 7.82852051 12.00805664 8.74633789 C11.99895264 9.88578857 11.98984863 11.02523926 11.98046875 12.19921875 C11.95984375 15.80859375 11.93921875 19.41796875 11.91796875 23.13671875 C19.50796875 23.13671875 27.09796875 23.13671875 34.91796875 23.13671875 C34.91796875 28.41671875 34.91796875 33.69671875 34.91796875 39.13671875 C27.32796875 39.13671875 19.73796875 39.13671875 11.91796875 39.13671875 C11.99208438 44.86662345 12.07501847 50.59500026 12.18041992 56.32421875 C12.2136014 58.27172843 12.24165432 60.21933272 12.2644043 62.16699219 C12.29807509 64.9724139 12.35039702 67.77697403 12.40625 70.58203125 C12.41263992 71.44788849 12.41902985 72.31374573 12.4256134 73.20584106 C12.54679086 78.22821678 13.11385044 81.79595724 15.91796875 86.13671875 C19.86598005 88.55669065 23.68828374 88.3466194 28.23046875 88.26171875 C30.43734375 88.22046875 32.64421875 88.17921875 34.91796875 88.13671875 C34.91796875 92.75671875 34.91796875 97.37671875 34.91796875 102.13671875 C26.07659789 105.08384237 15.77273968 105.80910289 6.9140625 102.2421875 C0.36112729 98.61306682 -3.83504381 94.27420825 -6.08203125 87.13671875 C-7.40067461 82.21205982 -7.20822625 77.30028393 -7.1796875 72.2421875 C-7.17827255 71.29483231 -7.1768576 70.34747711 -7.17539978 69.37141418 C-7.16981736 66.3556498 -7.15726807 63.33996057 -7.14453125 60.32421875 C-7.13951398 58.2753917 -7.13495147 56.22656348 -7.13085938 54.17773438 C-7.11985368 49.16403369 -7.10260113 44.15038895 -7.08203125 39.13671875 C-12.03203125 39.13671875 -16.98203125 39.13671875 -22.08203125 39.13671875 C-22.10265625 36.68234375 -22.12328125 34.22796875 -22.14453125 31.69921875 C-22.15363525 30.92521729 -22.16273926 30.15121582 -22.17211914 29.35375977 C-22.17928038 27.61450158 -22.13227827 25.87526571 -22.08203125 24.13671875 C-21.08203125 23.13671875 -21.08203125 23.13671875 -17.921875 23.0390625 C-16.63410156 23.05066406 -15.34632813 23.06226563 -14.01953125 23.07421875 C-12.72917969 23.08324219 -11.43882812 23.09226563 -10.109375 23.1015625 C-9.11035156 23.11316406 -8.11132812 23.12476563 -7.08203125 23.13671875 C-7.08726807 22.47551025 -7.09250488 21.81430176 -7.09790039 21.13305664 C-7.11860781 18.15512024 -7.13167137 15.17719893 -7.14453125 12.19921875 C-7.15291016 11.15830078 -7.16128906 10.11738281 -7.16992188 9.04492188 C-7.17314453 8.05556641 -7.17636719 7.06621094 -7.1796875 6.046875 C-7.18492432 5.13043213 -7.19016113 4.21398926 -7.19555664 3.26977539 C-6.95612427 -1.22897869 -3.77381682 0.00640716 0 0 Z " fill="#2B3840" transform="translate(533.08203125,114.86328125)"/>
<path d="M0 0 C7.00570457 3.93110068 13.11921445 9.45988834 18.4921875 15.3984375 C18.4921875 16.0584375 18.4921875 16.7184375 18.4921875 17.3984375 C12.7421875 15.7734375 12.7421875 15.7734375 10.4921875 12.3984375 C9.1721875 12.3984375 7.8521875 12.3984375 6.4921875 12.3984375 C6.0590625 13.790625 6.0590625 13.790625 5.6171875 15.2109375 C4.4921875 18.3984375 4.4921875 18.3984375 2.4921875 21.3984375 C2.80059349 23.55118698 2.80059349 23.55118698 3.4921875 25.3984375 C2.8321875 25.3984375 2.1721875 25.3984375 1.4921875 25.3984375 C1.4921875 24.4084375 1.4921875 23.4184375 1.4921875 22.3984375 C0.7084375 22.5015625 -0.0753125 22.6046875 -0.8828125 22.7109375 C-4.61745669 22.38898541 -6.1788019 21.62583231 -9.3828125 19.8359375 C-13.36378762 17.75321509 -16.07150001 16.63776924 -20.51171875 17.65625 C-30.88046385 21.5115564 -34.78076709 28.9958676 -39.5078125 38.3984375 C-40.59565585 35.08447764 -40.58043794 34.56263415 -39.0703125 31.1484375 C-38.5546875 30.2409375 -38.0390625 29.3334375 -37.5078125 28.3984375 C-36.8478125 28.3984375 -36.1878125 28.3984375 -35.5078125 28.3984375 C-35.1778125 26.7484375 -34.8478125 25.0984375 -34.5078125 23.3984375 C-33.8478125 23.3984375 -33.1878125 23.3984375 -32.5078125 23.3984375 C-32.5078125 22.4084375 -32.5078125 21.4184375 -32.5078125 20.3984375 C-34.1578125 19.7384375 -35.8078125 19.0784375 -37.5078125 18.3984375 C-37.5078125 17.7384375 -37.5078125 17.0784375 -37.5078125 16.3984375 C-39.8178125 16.3984375 -42.1278125 16.3984375 -44.5078125 16.3984375 C-44.8378125 17.3884375 -45.1678125 18.3784375 -45.5078125 19.3984375 C-47.1578125 19.3984375 -48.8078125 19.3984375 -50.5078125 19.3984375 C-45.96876535 8.80732748 -39.10784036 2.78530516 -28.5078125 -1.6015625 C-19.92504704 -4.46248432 -8.23636465 -3.52987057 0 0 Z " fill="#0664DD" transform="translate(173.5078125,111.6015625)"/>
<path d="M0 0 C2.59358978 1.88223041 4.7212618 3.7212618 7 6 C7 6.66 7 7.32 7 8 C5.68 8 4.36 8 3 8 C3 6.68 3 5.36 3 4 C2.01 4 1.02 4 0 4 C0 3.34 0 2.68 0 2 C-1.7015625 1.566875 -1.7015625 1.566875 -3.4375 1.125 C-4.613125 0.75375 -5.78875 0.3825 -7 0 C-7.495 -0.99 -7.495 -0.99 -8 -2 C-11.02934491 -2.65772428 -11.02934491 -2.65772428 -14 -3 C-14 -3.66 -14 -4.32 -14 -5 C-16.06277107 -4.85805236 -18.12521031 -4.71127784 -20.1875 -4.5625 C-21.33605469 -4.48128906 -22.48460937 -4.40007812 -23.66796875 -4.31640625 C-26.53099517 -4.04453621 -29.22478677 -3.75088036 -32 -3 C-33.05021103 -1.15028304 -33.05021103 -1.15028304 -34 1 C-35.64295195 2.36244796 -37.30824337 3.69864875 -39 5 C-39.33 5.66 -39.66 6.32 -40 7 C-42.62581138 8.57548683 -43.87099787 9 -47 9 C-47.061875 9.763125 -47.12375 10.52625 -47.1875 11.3125 C-48 14 -48 14 -50.375 15.875 C-53 17 -53 17 -56 16 C-55 14 -55 14 -52 13 C-51.05986337 11.58979506 -50.12388206 10.17654271 -49.21484375 8.74609375 C-44.5427076 2.03083697 -37.97228989 -2.99196327 -30.19921875 -5.60546875 C-18.9951761 -7.61543022 -9.56061551 -6.41243104 0 0 Z " fill="#3C92E4" transform="translate(248,115)"/>
<path d="M0 0 C11.40014036 13.80358875 9.93579935 37.24352006 9 54 C8.26551061 60.97483511 6.85499651 67.08252636 3 73 C2.01 72.67 1.02 72.34 0 72 C0.680625 71.4121875 0.680625 71.4121875 1.375 70.8125 C3.87109164 68.02839779 4.95423926 65.2633944 5.08984375 61.51953125 C5.01443359 60.17955078 5.01443359 60.17955078 4.9375 58.8125 C4.75816594 50.38379929 6.45966617 42.25178839 8 34 C7.34 34 6.68 34 6 34 C6 29.05 6 24.1 6 19 C5.34 19 4.68 19 4 19 C3.87882812 18.33613281 3.75765625 17.67226562 3.6328125 16.98828125 C2.76607061 12.4212182 1.77342285 8.30688405 0 4 C0 2.68 0 1.36 0 0 Z " fill="#3A91DF" transform="translate(265,137)"/>
<path d="M0 0 C0.33 1.32 0.66 2.64 1 4 C0.34 4 -0.32 4 -1 4 C-2.15774649 8.63098598 -3.19218189 14.61563621 -1 19 C-3.10257811 23.00491069 -4.60557573 25.53519191 -9 27 C-9.99 33.6 -10.98 40.2 -12 47 C-12.33 47 -12.66 47 -13 47 C-13.9874595 31.69437774 -9.46279018 12.26657986 0 0 Z " fill="#3A80D5" transform="translate(122,131)"/>
<path d="M0 0 C0.268125 1.11375 0.53625 2.2275 0.8125 3.375 C2.0396543 8.3012741 3.50869129 13.14827565 5 18 C2.50447597 15.72402354 0.93377014 13.39278822 -0.6875 10.4375 C-1.12449219 9.65246094 -1.56148437 8.86742187 -2.01171875 8.05859375 C-3 6 -3 6 -3 4 C-3.66 4 -4.32 4 -5 4 C-5.20625 4.804375 -5.4125 5.60875 -5.625 6.4375 C-7.13687292 10.3546253 -9.15823474 13.37397123 -11.53515625 16.80859375 C-13.30127293 19.4507043 -14.67012076 22.11859499 -16 25 C-16.33 25 -16.66 25 -17 25 C-17 22.03 -17 19.06 -17 16 C-16.01 16.33 -15.02 16.66 -14 17 C-13.67 15.35 -13.34 13.7 -13 12 C-12.34 12 -11.68 12 -11 12 C-11 10.35 -11 8.7 -11 7 C-9.68 7 -8.36 7 -7 7 C-7 5.02 -7 3.04 -7 1 C-2.25 0 -2.25 0 0 0 Z " fill="#499DEB" transform="translate(196,160)"/>
<path d="M0 0 C3.31164966 4.00478563 6.24425998 8.18316407 9.125 12.5 C9.78822266 13.47646484 9.78822266 13.47646484 10.46484375 14.47265625 C12.74554169 17.88336767 14.66081178 21.08776475 16 25 C15.34 25 14.68 25 14 25 C14 24.34 14 23.68 14 23 C13.01 22.67 12.02 22.34 11 22 C11 21.34 11 20.68 11 20 C9.02 20 7.04 20 5 20 C4.66666667 18.66666667 4.33333333 17.33333333 4 16 C3.79375 15.319375 3.5875 14.63875 3.375 13.9375 C3 12 3 12 4 9 C3.34 9 2.68 9 2 9 C2 8.34 2 7.68 2 7 C1.34 6.67 0.68 6.34 0 6 C0 4.02 0 2.04 0 0 Z " fill="#0D6EDD" transform="translate(221,172)"/>
<path d="M0 0 C0.66 0 1.32 0 2 0 C4.29648649 2.5614657 5 3.47967572 5 7 C6.65 7.33 8.3 7.66 10 8 C9.01 8.495 9.01 8.495 8 9 C8 9.99 8 10.98 8 12 C8.99 11.67 9.98 11.34 11 11 C11.33 12.65 11.66 14.3 12 16 C12.99 16.33 13.98 16.66 15 17 C15.33 17.99 15.66 18.98 16 20 C17.49985609 21.66710346 17.49985609 21.66710346 19 23 C18.34 24.32 17.68 25.64 17 27 C0 3.87726358 0 3.87726358 0 0 Z " fill="#5B94DB" transform="translate(201,179)"/>
<path d="M0 0 C7.95824704 2.85322038 14.38072575 8.80438993 20 15 C20 15.66 20 16.32 20 17 C14.25 15.375 14.25 15.375 12 12 C9.94074861 11.27617533 9.94074861 11.27617533 8 11 C8.33 9.68 8.66 8.36 9 7 C6.525 6.01 6.525 6.01 4 5 C4 4.34 4 3.68 4 3 C2.68 3.33 1.36 3.66 0 4 C0 2.68 0 1.36 0 0 Z " fill="#4D8ED9" transform="translate(172,112)"/>
<path d="M0 0 C0.99 0.495 0.99 0.495 2 1 C2.37890625 3.546875 2.37890625 3.546875 2.5625 6.75 C2.79453493 10.59515022 3.15708034 14.23820976 4 18 C4.66 18 5.32 18 6 18 C6.2475 18.94875 6.495 19.8975 6.75 20.875 C7.6857077 24.08693191 7.6857077 24.08693191 10.125 25.375 C11.053125 25.684375 11.053125 25.684375 12 26 C11.67 27.32 11.34 28.64 11 30 C3.93619524 23.43224894 0.57146847 15.80141168 -0.23828125 6.1640625 C-0.2480109 4.10786341 -0.13908561 2.05151275 0 0 Z " fill="#4B9BDD" transform="translate(109,183)"/>
<path d="M0 0 C0.33 1.32 0.66 2.64 1 4 C0.34 4 -0.32 4 -1 4 C-2.15774649 8.63098598 -3.19218189 14.61563621 -1 19 C-2.43257963 21.72872311 -3.81722366 23.81722366 -6 26 C-6.33 24.35 -6.66 22.7 -7 21 C-6.34 20.67 -5.68 20.34 -5 20 C-5.05800781 19.31035156 -5.11601563 18.62070313 -5.17578125 17.91015625 C-5.528719 10.55896701 -4.17570237 6.03985522 0 0 Z " fill="#056ADD" transform="translate(122,131)"/>
<path d="M0 0 C0.33 0 0.66 0 1 0 C1.43535798 4.35357983 1.38921814 7.04099736 -1.375 10.4375 C-4 13 -4 13 -6 13 C-6.0825 13.61875 -6.165 14.2375 -6.25 14.875 C-7 17 -7 17 -8.875 18.25 C-11 19 -11 19 -14 19 C-13.40832031 18.38253906 -12.81664062 17.76507813 -12.20703125 17.12890625 C-7.20390016 11.76665971 -3.18144132 6.61867691 0 0 Z " fill="#74B3EA" transform="translate(162,177)"/>
<path d="M0 0 C0.33 0 0.66 0 1 0 C1.05896868 3.14575207 1.09391603 6.2913586 1.125 9.4375 C1.14175781 10.31599609 1.15851563 11.19449219 1.17578125 12.09960938 C1.23382985 19.96519527 0.67353009 27.41457124 -4 34 C-4.99 33.67 -5.98 33.34 -7 33 C-6.319375 32.4121875 -6.319375 32.4121875 -5.625 31.8125 C-2.27600437 28.0770818 -1.78569339 24.37547546 -2 19.5 C-2.13246796 12.84348494 -1.18080327 6.53658952 0 0 Z " fill="#2C8DE4" transform="translate(272,176)"/>
<path d="M0 0 C0.66 0 1.32 0 2 0 C7.8548693 10.32932226 5.10019664 26.45118169 5 38 C4.34 38 3.68 38 3 38 C3.03480469 36.84886719 3.06960938 35.69773438 3.10546875 34.51171875 C3.34574509 22.69437762 2.18341812 11.60590705 0 0 Z " fill="#5B9FD7" transform="translate(253,153)"/>
<path d="M0 0 C1.4540625 0.0309375 1.4540625 0.0309375 2.9375 0.0625 C-3.43495739 10.31098818 -3.43495739 10.31098818 -8.0625 13.0625 C-9.0525 12.7325 -10.0425 12.4025 -11.0625 12.0625 C-11.0625 11.4025 -11.0625 10.7425 -11.0625 10.0625 C-10.4025 10.0625 -9.7425 10.0625 -9.0625 10.0625 C-9.0625 9.4025 -9.0625 8.7425 -9.0625 8.0625 C-7.4125 8.0625 -5.7625 8.0625 -4.0625 8.0625 C-4.083125 6.928125 -4.10375 5.79375 -4.125 4.625 C-4.04530802 0.08255731 -4.04530802 0.08255731 0 0 Z " fill="#53A4E5" transform="translate(166.0625,200.9375)"/>
<path d="M0 0 C-5.79377164 3.70157633 -10.18211828 4.18132438 -17 4.1875 C-17.7115625 4.19974609 -18.423125 4.21199219 -19.15625 4.22460938 C-22.934487 4.2351828 -25.79693658 4.11035168 -29 2 C-27.22882813 2.03480469 -27.22882813 2.03480469 -25.421875 2.0703125 C-23.86458967 2.08907497 -22.30729748 2.10727466 -20.75 2.125 C-19.58404297 2.15013672 -19.58404297 2.15013672 -18.39453125 2.17578125 C-14.38944564 2.21001275 -11.47124713 2.22731353 -8 0 C-4.64057132 -0.90131013 -3.36400208 -1.12133403 0 0 Z " fill="#569AD9" transform="translate(156,215)"/>
<path d="M0 0 C3.71080883 4.42442592 6.84577733 9.17403931 10 14 C9.67 14.66 9.34 15.32 9 16 C7.02 15.01 5.04 14.02 3 13 C3.33 11.68 3.66 10.36 4 9 C3.34 9 2.68 9 2 9 C2 8.34 2 7.68 2 7 C1.34 6.67 0.68 6.34 0 6 C0 4.02 0 2.04 0 0 Z " fill="#629CE0" transform="translate(221,172)"/>
<path d="M0 0 C-1.34964844 0.76570312 -1.34964844 0.76570312 -2.7265625 1.546875 C-6.52970688 4.08230459 -8.29414004 7.26640817 -10.375 11.25 C-10.72949219 11.8996875 -11.08398438 12.549375 -11.44921875 13.21875 C-12.31256879 14.80544737 -13.1581601 16.40178618 -14 18 C-15.08784335 14.68604014 -15.07262544 14.16419665 -13.5625 10.75 C-13.046875 9.8425 -12.53125 8.935 -12 8 C-11.34 8 -10.68 8 -10 8 C-9.67 6.35 -9.34 4.7 -9 3 C-8.34 3 -7.68 3 -7 3 C-7 2.01 -7 1.02 -7 0 C-3.98968256 -0.93423645 -3.13349732 -1.04449911 0 0 Z " fill="#3376CC" transform="translate(148,132)"/>
<path d="M0 0 C2.63884562 2.40111178 4.36413529 5.00555028 6.1875 8.0625 C6.71730469 8.94035156 7.24710938 9.81820312 7.79296875 10.72265625 C9 13 9 13 9 15 C6.26214592 14.64899307 5.25118702 14.31993294 3.515625 12.109375 C2.88914063 10.94148437 2.88914063 10.94148437 2.25 9.75 C1.82203125 8.98171875 1.3940625 8.2134375 0.953125 7.421875 C-0.09006898 4.77113619 -0.18016322 2.8225571 0 0 Z " fill="#5995DA" transform="translate(205,147)"/>
<path d="M0 0 C0.33 0.66 0.66 1.32 1 2 C2.65 1.67 4.3 1.34 6 1 C6 2.32 6 3.64 6 5 C7.32 5.66 8.64 6.32 10 7 C10 7.99 10 8.98 10 10 C6.7451198 9.41978222 5.06347592 8.47352859 2.75 6.125 C2.22921875 5.61195313 1.7084375 5.09890625 1.171875 4.5703125 C0 3 0 3 0 0 Z " fill="#5F696D" transform="translate(529,205)"/>
<path d="M0 0 C0.66 0 1.32 0 2 0 C2.268125 1.11375 2.53625 2.2275 2.8125 3.375 C4.0396543 8.3012741 5.50869129 13.14827565 7 18 C4.57294972 15.76512086 2.94073833 13.4903083 1.3125 10.625 C0.87550781 9.87476563 0.43851563 9.12453125 -0.01171875 8.3515625 C-1.12495997 5.70266442 -1.25917883 3.84607694 -1 1 C-0.67 0.67 -0.34 0.34 0 0 Z " fill="#4789DB" transform="translate(194,160)"/>
<path d="M0 0 C1.9375 0.3125 1.9375 0.3125 4 1 C4.66666667 3 5.33333333 5 6 7 C7.32 7.33 8.64 7.66 10 8 C10.66 11.63 11.32 15.26 12 19 C11.34 19 10.68 19 10 19 C9.78085938 18.38253906 9.56171875 17.76507813 9.3359375 17.12890625 C6.96474574 10.79608922 3.96359994 5.46976792 0 0 Z " fill="#2F8BDE" transform="translate(242,132)"/>
<path d="M0 0 C3.82707697 1.3833389 7.41022712 3.08909428 11 5 C11 5.66 11 6.32 11 7 C8.14478396 5.87521792 5.42700085 4.70809477 2.6875 3.3125 C-2.67937731 1.40225553 -6.5897636 2.19658787 -12 4 C-12.33 3.34 -12.66 2.68 -13 2 C-8.69059734 -0.87293511 -5.06019016 -0.71397204 0 0 Z " fill="#4382CD" transform="translate(160,127)"/>
<path d="M0 0 C0 0.66 0 1.32 0 2 C-0.66 2 -1.32 2 -2 2 C-2 2.66 -2 3.32 -2 4 C-7.75 7 -7.75 7 -10 7 C-10.33 8.65 -10.66 10.3 -11 12 C-11.66 11.67 -12.32 11.34 -13 11 C-13 8 -13 8 -11.609375 6.46484375 C-10.99578125 5.96082031 -10.3821875 5.45679687 -9.75 4.9375 C-9.14671875 4.43089844 -8.5434375 3.92429687 -7.921875 3.40234375 C-5.38026495 1.54779495 -3.20227224 0 0 0 Z " fill="#5D93D5" transform="translate(144,111)"/>
<path d="M0 0 C0.66 0.33 1.32 0.66 2 1 C-2.455 7.93 -2.455 7.93 -7 15 C-8.33332095 12.3333581 -7.67102033 10.83319697 -7 8 C-6.01 8 -5.02 8 -4 8 C-4.33 6.35 -4.66 4.7 -5 3 C-4.360625 2.87625 -3.72125 2.7525 -3.0625 2.625 C-2.0415625 2.315625 -2.0415625 2.315625 -1 2 C-0.67 1.34 -0.34 0.68 0 0 Z " fill="#56A5EB" transform="translate(177,185)"/>
<path d="M0 0 C0.99 0.33 1.98 0.66 3 1 C3.66666667 3 4.33333333 5 5 7 C5.99 7.33 6.98 7.66 8 8 C8.33 8.99 8.66 9.98 9 11 C8.67 11.66 8.34 12.32 8 13 C7.01 12.67 6.02 12.34 5 12 C5 11.34 5 10.68 5 10 C4.34 10 3.68 10 3 10 C2.01 6.7 1.02 3.4 0 0 Z " fill="#1167D0" transform="translate(198,169)"/>
<path d="M0 0 C0.66 0 1.32 0 2 0 C2.66 6.27 3.32 12.54 4 19 C0.81924189 14.22886284 -0.25165051 11.57592361 -0.125 5.75 C-0.10695313 4.67234375 -0.08890625 3.5946875 -0.0703125 2.484375 C-0.04710938 1.66453125 -0.02390625 0.8446875 0 0 Z " fill="#2181D8" transform="translate(125,175)"/>
<path d="M0 0 C1 2 1 2 0.3984375 3.98828125 C-1.99998864 9.4350887 -4.42690899 14.2134545 -10 17 C-8.51364884 12.78345644 -6.38750841 9.37521395 -3.875 5.6875 C-3.15054688 4.61886719 -2.42609375 3.55023438 -1.6796875 2.44921875 C-0.84824219 1.23685547 -0.84824219 1.23685547 0 0 Z " fill="#79B4EE" transform="translate(180,150)"/>
<path d="M0 0 C0.33 0.66 0.66 1.32 1 2 C1.66 2.33 2.32 2.66 3 3 C3.9375 4.75 3.9375 4.75 4 7 C1.5625 9.75 1.5625 9.75 -1 12 C-0.125 8.125 -0.125 8.125 1 7 C-0.32 7 -1.64 7 -3 7 C-1.125 2.25 -1.125 2.25 0 0 Z " fill="#333D44" transform="translate(379,147)"/>
<path d="M0 0 C1 2 1 2 0.375 4.9375 C-1.23078503 8.5140212 -2.41502041 9.51354505 -6 11 C-6.99 10.67 -7.98 10.34 -9 10 C-8 8 -8 8 -5 7 C-3.61061923 5.03852126 -2.2739589 3.03833424 -1 1 C-0.67 0.67 -0.34 0.34 0 0 Z " fill="#5DA9EB" transform="translate(201,121)"/>
<path d="M0 0 C1.46224799 0.42423244 2.91973412 0.86490245 4.375 1.3125 C5.18710937 1.55613281 5.99921875 1.79976562 6.8359375 2.05078125 C9 3 9 3 11 6 C4.67741935 6.36476427 4.67741935 6.36476427 1.5625 4.6875 C0 3 0 3 0 0 Z " fill="#1F2930" transform="translate(481,138)"/>
<path d="M0 0 C0.33 0.99 0.66 1.98 1 3 C0.67 3.66 0.34 4.32 0 5 C0.66 5.33 1.32 5.66 2 6 C1.01 6 0.02 6 -1 6 C-1 7.32 -1 8.64 -1 10 C-2.65 10 -4.3 10 -6 10 C-5.38003922 8.70590711 -4.75383647 7.41480327 -4.125 6.125 C-3.77695313 5.40570313 -3.42890625 4.68640625 -3.0703125 3.9453125 C-2 2 -2 2 0 0 Z " fill="#3A7FD8" transform="translate(129,121)"/>
<path d="M0 0 C0.99 0.33 1.98 0.66 3 1 C3.33 1.99 3.66 2.98 4 4 C5.49985609 5.66710346 5.49985609 5.66710346 7 7 C6.34 8.32 5.68 9.64 5 11 C1.7089159 7.39042389 0.45336079 4.87362847 0 0 Z " fill="#3984DA" transform="translate(213,195)"/>
<path d="M0 0 C0.99 0.33 1.98 0.66 3 1 C2.67 2.65 2.34 4.3 2 6 C2.99 6.33 3.98 6.66 5 7 C1.25 10 1.25 10 -1 10 C-0.67 6.7 -0.34 3.4 0 0 Z " fill="#0968DB" transform="translate(211,161)"/>
<path d="M0 0 C2.59937954 2.46941056 4.79020692 5.18060883 7 8 C6.67 8.66 6.34 9.32 6 10 C4.68 9.67 3.36 9.34 2 9 C2 7.68 2 6.36 2 5 C1.01 5 0.02 5 -1 5 C-0.67 3.35 -0.34 1.7 0 0 Z " fill="#5898DD" transform="translate(214,162)"/>
<path d="M0 0 C1.32 0 2.64 0 4 0 C4 0.99 4 1.98 4 3 C6.475 3.99 6.475 3.99 9 5 C8.34 6.32 7.68 7.64 7 9 C5.83037314 7.69013727 4.66437056 6.3770374 3.5 5.0625 C2.8503125 4.33160156 2.200625 3.60070312 1.53125 2.84765625 C0 1 0 1 0 0 Z " fill="#4081D7" transform="translate(171,134)"/>
<path d="M0 0 C4.67105792 1.55701931 8.08705685 4.08447373 12 7 C11.01 7.495 11.01 7.495 10 8 C7.96855359 7.06553465 5.96466413 6.06775224 4 5 C4 4.34 4 3.68 4 3 C2.68 3.33 1.36 3.66 0 4 C0 2.68 0 1.36 0 0 Z " fill="#6498D5" transform="translate(172,112)"/>
<path d="M0 0 C2.97 0.99 5.94 1.98 9 3 C9 4.32 9 5.64 9 7 C9.66 7.33 10.32 7.66 11 8 C7.24026115 8 6.54322371 7.03457593 3.8125 4.5625 C3.09707031 3.92441406 2.38164062 3.28632813 1.64453125 2.62890625 C1.10183594 2.09136719 0.55914062 1.55382812 0 1 C0 0.67 0 0.34 0 0 Z " fill="#488ED9" transform="translate(219,206)"/>
<path d="M0 0 C3.95677402 1.67401978 6.84464213 4.13149285 10 7 C10 7.66 10 8.32 10 9 C8.68 9 7.36 9 6 9 C6 7.68 6 6.36 6 5 C5.01 5 4.02 5 3 5 C3 4.34 3 3.68 3 3 C2.01 2.67 1.02 2.34 0 2 C0 1.34 0 0.68 0 0 Z " fill="#65A9E2" transform="translate(245,114)"/>
<path d="M0 0 C0.66 0.99 1.32 1.98 2 3 C2.33 2.34 2.66 1.68 3 1 C3 1.99 3 2.98 3 4 C1.35 4.33 -0.3 4.66 -2 5 C-2.103125 5.639375 -2.20625 6.27875 -2.3125 6.9375 C-2.539375 7.618125 -2.76625 8.29875 -3 9 C-3.99 9.33 -4.98 9.66 -6 10 C-4.6302836 6.00499382 -2.74277578 3.19990508 0 0 Z " fill="#58A7EE" transform="translate(169,167)"/>
<path d="M0 0 C0.33 0 0.66 0 1 0 C1.33 2.64 1.66 5.28 2 8 C0.68 8 -0.64 8 -2 8 C-2.66 9.32 -3.32 10.64 -4 12 C-3.45660208 7.43545749 -2.20536179 4.0271824 0 0 Z " fill="#61696D" transform="translate(580,153)"/>
<path d="M0 0 C1.875 0.625 1.875 0.625 4 2 C5.25 5.125 5.25 5.125 6 8 C4.68 8.33 3.36 8.66 2 9 C2 9.66 2 10.32 2 11 C1.34 10.67 0.68 10.34 0 10 C0.33 9.34 0.66 8.68 1 8 C1.24787017 3.85496339 1.24787017 3.85496339 0 0 Z " fill="#3D90E8" transform="translate(179,144)"/>
<path d="M0 0 C0.33 0 0.66 0 1 0 C1.36923077 6.52307692 1.36923077 6.52307692 -0.5 8.9375 C-0.995 9.288125 -1.49 9.63875 -2 10 C-2.17942163 6.05272412 -2.09350689 3.4019487 0 0 Z M-4 10 C-3.34 10.33 -2.68 10.66 -2 11 C-2.99 11.66 -3.98 12.32 -5 13 C-4.67 12.01 -4.34 11.02 -4 10 Z " fill="#439AED" transform="translate(162,177)"/>
<path d="M0 0 C0.33 0 0.66 0 1 0 C0.38461538 7.50769231 0.38461538 7.50769231 -1.5625 10 C-2.036875 10.33 -2.51125 10.66 -3 11 C-4 9 -4 9 -3.1875 5.5 C-2 2 -2 2 0 0 Z " fill="#1D292F" transform="translate(452,161)"/>
<path d="M0 0 C4.77576339 0.4682121 8.04476345 1.24331998 12 4 C9.4137465 5.29312675 8.23583025 4.84290464 5.4375 4.25 C4.63183594 4.09015625 3.82617188 3.9303125 2.99609375 3.765625 C2.00802734 3.38664063 2.00802734 3.38664063 1 3 C0.67 2.01 0.34 1.02 0 0 Z " fill="#6C7580" transform="translate(618,137)"/>
<path d="M0 0 C2.31 0.33 4.62 0.66 7 1 C5.1875 3 5.1875 3 3 5 C2.01 5 1.02 5 0 5 C0 3.35 0 1.7 0 0 Z " fill="#479DE5" transform="translate(256,212)"/>
<path d="M0 0 C2.59937954 2.46941056 4.79020692 5.18060883 7 8 C3.62537285 7.45276317 1.91765 6.9451 -1 5 C-1.33 4.01 -1.66 3.02 -2 2 C-1.34 2 -0.68 2 0 2 C0 1.34 0 0.68 0 0 Z " fill="#5E656B" transform="translate(596,193)"/>
<path d="M0 0 C1.5625 1.125 1.5625 1.125 3 3 C2.8125 6.125 2.8125 6.125 2 9 C1.01 9.495 1.01 9.495 0 10 C-1 7 -1 7 -0.0625 4.8125 C0.288125 4.214375 0.63875 3.61625 1 3 C-0.32 3 -1.64 3 -3 3 C-3 2.34 -3 1.68 -3 1 C-2.01 0.67 -1.02 0.34 0 0 Z " fill="#0481F4" transform="translate(265,143)"/>
<path d="M0 0 C0 7 0 7 -1 9 C-1.33 9.33 -1.66 9.66 -2 10 C-2.66 10 -3.32 10 -4 10 C-4.25 6.6875 -4.25 6.6875 -4 3 C-2 1.0625 -2 1.0625 0 0 Z " fill="#5799E5" transform="translate(205,138)"/>
<path d="M0 0 C4.95 1.98 4.95 1.98 10 4 C10 4.66 10 5.32 10 6 C8.68 6 7.36 6 6 6 C5.67 5.34 5.34 4.68 5 4 C1.97065509 3.34227572 1.97065509 3.34227572 -1 3 C-0.67 2.01 -0.34 1.02 0 0 Z " fill="#4A9EE0" transform="translate(235,109)"/>
<path d="M0 0 C1.98 0 3.96 0 6 0 C4.515 2.475 4.515 2.475 3 5 C1.68 4.67 0.36 4.34 -1 4 C-0.67 2.68 -0.34 1.36 0 0 Z " fill="#2F96E9" transform="translate(163,201)"/>
<path d="M0 0 C0.99 0.66 1.98 1.32 3 2 C2.67 3.98 2.34 5.96 2 8 C0.35 6.35 -1.3 4.7 -3 3 C-2.67 2.34 -2.34 1.68 -2 1 C-1.34 1.33 -0.68 1.66 0 2 C0 1.34 0 0.68 0 0 Z " fill="#565E67" transform="translate(442,200)"/>
<path d="M0 0 C1.485 0.99 1.485 0.99 3 2 C5.74518321 2.24187651 5.74518321 2.24187651 8.6875 2.125 C9.68136719 2.10695312 10.67523438 2.08890625 11.69921875 2.0703125 C12.45847656 2.04710937 13.21773437 2.02390625 14 2 C14 2.66 14 3.32 14 4 C9.38 4 4.76 4 0 4 C0 2.68 0 1.36 0 0 Z " fill="#4592DA" transform="translate(238,197)"/>
<path d="M0 0 C1.65 0 3.3 0 5 0 C5.33 0.66 5.66 1.32 6 2 C5.34 2 4.68 2 4 2 C4 2.66 4 3.32 4 4 C2.35 4 0.7 4 -1 4 C-0.67 2.68 -0.34 1.36 0 0 Z " fill="#1F2A33" transform="translate(474,137)"/>
<path d="M0 0 C2.99324263 1.0975223 3.84610901 1.67682892 5.25 4.625 C5.4975 5.40875 5.745 6.1925 6 7 C3.69 6.01 1.38 5.02 -1 4 C-0.67 2.68 -0.34 1.36 0 0 Z " fill="#4C97E1" transform="translate(225,181)"/>
<path d="M0 0 C0.33 1.32 0.66 2.64 1 4 C0.34 4 -0.32 4 -1 4 C-1.33 5.65 -1.66 7.3 -2 9 C-2.99 9 -3.98 9 -5 9 C-3.35 6.03 -1.7 3.06 0 0 Z " fill="#4884D0" transform="translate(122,131)"/>
<path d="M0 0 C-2.64 1.65 -5.28 3.3 -8 5 C-8 3.35 -8 1.7 -8 0 C-4.63458162 -1.08174162 -3.70152678 -0.92538169 0 0 Z " fill="#4298E7" transform="translate(221,126)"/>
<path d="M0 0 C5.57142857 5.14285714 5.57142857 5.14285714 6 9 C5.34 9 4.68 9 4 9 C4 8.34 4 7.68 4 7 C3.01 6.67 2.02 6.34 1 6 C0.67 4.02 0.34 2.04 0 0 Z " fill="#5B9DD9" transform="translate(231,188)"/>
<path d="M0 0 C0.99 0.66 1.98 1.32 3 2 C2.67 3.32 2.34 4.64 2 6 C0.68 6 -0.64 6 -2 6 C-1.34 4.02 -0.68 2.04 0 0 Z " fill="#1469D5" transform="translate(202,145)"/>
<path d="M0 0 C3.875 0.875 3.875 0.875 5 2 C5.04080783 3.99958364 5.04254356 6.00045254 5 8 C2.5 5.6875 2.5 5.6875 0 3 C0 2.01 0 1.02 0 0 Z " fill="#1066D7" transform="translate(179,141)"/>
<path d="M0 0 C4.875 4.75 4.875 4.75 6 7 C4.35 6.67 2.7 6.34 1 6 C0.4465236 3.92446352 0 2.15634036 0 0 Z " fill="#3C99E3" transform="translate(255,123)"/>
<path d="M0 0 C1.32 0.33 2.64 0.66 4 1 C4.33 2.32 4.66 3.64 5 5 C3.68 4.67 2.36 4.34 1 4 C0.67 2.68 0.34 1.36 0 0 Z " fill="#424A51" transform="translate(534,210)"/>
<path d="M0 0 C2.71435596 0.93305986 3.78043163 1.62673377 5.25 4.125 C5.4975 4.74375 5.745 5.3625 6 6 C4.35 5.67 2.7 5.34 1 5 C1.33 4.01 1.66 3.02 2 2 C0.68 1.67 -0.64 1.34 -2 1 C-1.34 0.67 -0.68 0.34 0 0 Z " fill="#686F75" transform="translate(496,195)"/>
<path d="M0 0 C1.33333333 2.66666667 2.66666667 5.33333333 4 8 C2.35 7.67 0.7 7.34 -1 7 C-0.67 4.69 -0.34 2.38 0 0 Z " fill="#656C70" transform="translate(453,189)"/>
<path d="M0 0 C0.33 0.99 0.66 1.98 1 3 C1.66 3 2.32 3 3 3 C3 3.99 3 4.98 3 6 C1.35 6 -0.3 6 -2 6 C-2 4.68 -2 3.36 -2 2 C-1.34 2 -0.68 2 0 2 C0 1.34 0 0.68 0 0 Z " fill="#0962D5" transform="translate(125,129)"/>
<path d="M0 0 C0.66 0 1.32 0 2 0 C2.33 1.98 2.66 3.96 3 6 C1.35 6 -0.3 6 -2 6 C-2 2 -2 2 0 0 Z " fill="#046EE9" transform="translate(125,169)"/>
<path d="M0 0 C2.475 0.99 2.475 0.99 5 2 C5 2.99 5 3.98 5 5 C3.02 4.34 1.04 3.68 -1 3 C-0.67 2.01 -0.34 1.02 0 0 Z " fill="#4990E0" transform="translate(231,213)"/>
<path d="M0 0 C2.50037734 2.17424117 3.43628586 3.73045798 4 7 C3.01 7 2.02 7 1 7 C0 2.25 0 2.25 0 0 Z " fill="#758184" transform="translate(355,159)"/>
<path d="M0 0 C0.66 0.33 1.32 0.66 2 1 C0.68 3.64 -0.64 6.28 -2 9 C-2.33 9 -2.66 9 -3 9 C-3.26218749 5.85375007 -3.24754367 4.38162983 -1.5 1.6875 C-1.005 1.130625 -0.51 0.57375 0 0 Z " fill="#454C53" transform="translate(392,153)"/>
<path d="M0 0 C1.10844919 3.32534757 0.84454356 5.62182575 0 9 C-0.33 8.34 -0.66 7.68 -1 7 C-1.66 7 -2.32 7 -3 7 C-1.125 1.125 -1.125 1.125 0 0 Z " fill="#686F7A" transform="translate(396,115)"/>
<path d="" fill="#000000" transform="translate(0,0)"/>
</svg>
