<?xml version="1.0" encoding="UTF-8"?>
<svg version="1.1" xmlns="http://www.w3.org/2000/svg" width="632" height="395">
<path d="M0 0 C11.08692363 0.18323792 11.08692363 0.18323792 15.1003418 3.08862305 C18.87513119 7.29853038 21.06651782 11.54148943 23.0222168 16.8112793 C23.6822168 16.8112793 24.3422168 16.8112793 25.0222168 16.8112793 C26.56313494 18.63152722 27.98588148 20.45611435 29.3972168 22.3737793 C30.28619225 23.55991321 31.17689433 24.74475454 32.0690918 25.9284668 C32.54282227 26.55720703 33.01655273 27.18594727 33.50463867 27.83374023 C36.66306218 31.94944655 39.96457565 35.95513607 43.26196289 39.95996094 C47.0222168 44.59266784 47.0222168 44.59266784 47.0222168 46.8112793 C47.6822168 46.8112793 48.3422168 46.8112793 49.0222168 46.8112793 C50.39356123 48.56941319 51.75172506 50.33868093 53.0612793 52.14331055 C55.42209249 55.35533328 57.86936968 58.49166302 60.3347168 61.6237793 C60.81078369 62.22891357 61.28685059 62.83404785 61.77734375 63.45751953 C66.12329121 68.96581507 70.559128 74.39756869 75.0222168 79.8112793 C80.76960149 86.81924278 86.49208133 93.84715365 92.20458984 100.88354492 C96.16390489 105.75906029 100.13605112 110.62372612 104.11987305 115.47924805 C106.103318 117.91069905 108.06349551 120.35989067 110.0222168 122.8112793 C110.02083411 121.87725957 110.02083411 121.87725957 110.01942348 120.92437077 C109.99736798 105.7941724 109.98080511 90.66397894 109.97040462 75.53376865 C109.96524173 68.21700527 109.95819917 60.9002526 109.94677734 53.58349609 C109.93683029 47.20844912 109.93036332 40.83340989 109.9281283 34.45835537 C109.92682123 31.08079916 109.92373561 27.70326514 109.91648674 24.32571602 C109.90928067 20.56120587 109.90822567 16.79674244 109.90869141 13.03222656 C109.90509613 11.90438248 109.90150085 10.77653839 109.89779663 9.61451721 C109.8991713 8.59502991 109.90054596 7.5755426 109.90196228 6.52516174 C109.90057959 5.18810102 109.90057959 5.18810102 109.89916897 3.82402897 C110.0222168 1.8112793 110.0222168 1.8112793 111.0222168 0.8112793 C112.46435679 0.71569894 113.91115759 0.68939535 115.35646057 0.69102478 C116.75947922 0.68896278 116.75947922 0.68896278 118.19084167 0.68685913 C119.22517838 0.69045441 120.25951508 0.69404968 121.32519531 0.69775391 C122.40798767 0.69760788 123.49078003 0.69746185 124.60638428 0.6973114 C128.20465054 0.69801107 131.80286577 0.70580596 135.40112305 0.71362305 C137.88834098 0.71548704 140.37555928 0.71691103 142.86277771 0.71791077 C148.75242871 0.7213458 154.6420607 0.72923652 160.53170389 0.73926026 C167.89247054 0.75151683 175.25323944 0.75690139 182.61401367 0.76245117 C195.75009078 0.77319115 208.88615262 0.7900784 222.0222168 0.8112793 C225.45085436 7.66855443 222.38688294 16.15329024 222.0222168 23.8112793 C192.9822168 23.8112793 163.9422168 23.8112793 134.0222168 23.8112793 C134.0222168 33.7112793 134.0222168 43.6112793 134.0222168 53.8112793 C157.4522168 53.8112793 180.8822168 53.8112793 205.0222168 53.8112793 C205.0222168 61.4012793 205.0222168 68.9912793 205.0222168 76.8112793 C181.5922168 76.8112793 158.1622168 76.8112793 134.0222168 76.8112793 C134.0222168 87.0412793 134.0222168 97.2712793 134.0222168 107.8112793 C163.0622168 107.8112793 192.1022168 107.8112793 222.0222168 107.8112793 C222.99778243 110.73797621 223.0828509 112.25189251 222.90112305 115.26049805 C222.8527832 116.10805664 222.80444336 116.95561523 222.75463867 117.82885742 C222.69856445 118.70993164 222.64249023 119.59100586 222.5847168 120.4987793 C222.53250977 121.39145508 222.48030273 122.28413086 222.42651367 123.20385742 C222.296935 125.4066949 222.16197434 127.60906803 222.0222168 129.8112793 C203.98531609 129.95143575 185.94855668 130.05724336 167.91122913 130.12215233 C159.53617463 130.15309173 151.16145844 130.19527336 142.78662109 130.26391602 C135.48715846 130.32371606 128.18794082 130.36242785 120.88824004 130.37581027 C117.02288495 130.38363324 113.15823079 130.40201903 109.29310036 130.44565964 C105.6543247 130.48641132 102.01653803 130.49894389 98.37755585 130.48992538 C96.40672181 130.49236106 94.43599534 130.52463681 92.46543884 130.55780029 C84.03384542 130.49868668 84.03384542 130.49868668 81.09253502 128.50004959 C79.25044175 126.39139571 78.0222168 124.67266404 78.0222168 121.8112793 C77.3622168 121.8112793 76.7022168 121.8112793 76.0222168 121.8112793 C74.99609731 120.16056534 73.99913537 118.49157924 73.0222168 116.8112793 C72.02804755 115.80548234 71.0269226 114.80655124 70.0222168 113.8112793 C66.96716719 110.18981023 64.00102594 106.49559587 61.0222168 102.8112793 C60.4034668 102.0481543 59.7847168 101.2850293 59.1472168 100.4987793 C55.97810539 96.56470996 52.85262945 92.59902392 49.76049805 88.60424805 C49.17179932 87.84378174 48.58310059 87.08331543 47.9765625 86.29980469 C46.75979377 84.72773234 45.54348295 83.15530546 44.32763672 81.58251953 C39.93539371 75.92398009 35.3999047 70.4188923 30.7175293 64.9987793 C29.0222168 62.8112793 29.0222168 62.8112793 29.0222168 60.8112793 C28.3622168 60.8112793 27.7022168 60.8112793 27.0222168 60.8112793 C26.04189912 59.39339494 25.06926339 57.96925982 24.14624023 56.51342773 C22.36025519 53.80884743 20.24634842 51.40161456 18.1472168 48.9362793 C14.22891861 44.3301294 10.66986182 39.67480599 7.0222168 34.8112793 C6.6922168 66.1612793 6.3622168 97.5112793 6.0222168 129.8112793 C-1.8977832 129.8112793 -9.8177832 129.8112793 -17.9777832 129.8112793 C-19.64138946 128.14767304 -19.10384389 126.16356447 -19.10476685 123.87634277 C-19.10758667 122.8078157 -19.11040649 121.73928864 -19.11331177 120.63838196 C-19.11128754 119.45600449 -19.10926331 118.27362701 -19.10717773 117.05541992 C-19.10893005 115.81817673 -19.11068237 114.58093353 -19.11248779 113.30619812 C-19.11614607 109.90338488 -19.11527283 106.5006321 -19.11210871 103.09782219 C-19.10958479 99.54417715 -19.11192273 95.99053478 -19.11349487 92.43688965 C-19.11531648 86.46809422 -19.1129105 80.49931114 -19.1081543 74.53051758 C-19.10271169 67.62033361 -19.10447435 60.71017915 -19.1099807 53.7999959 C-19.1145121 47.87728894 -19.11516225 41.95459089 -19.11254203 36.03188276 C-19.1109794 32.49002568 -19.11078511 28.94818249 -19.11407852 25.40632629 C-19.11749149 21.45991867 -19.11276707 17.51354434 -19.10717773 13.56713867 C-19.10920197 12.3847612 -19.1112262 11.20238373 -19.11331177 9.98417664 C-19.11049194 8.91564957 -19.10767212 7.8471225 -19.10476685 6.74621582 C-19.10438982 5.81189476 -19.10401279 4.8775737 -19.10362434 3.91493988 C-18.74385468 -2.099256 -5.00981591 0.05017787 0 0 Z " fill="#191919" transform="translate(31.977783203125,131.188720703125)"/>
<path d="M0 0 C4.24951208 -0.29939657 8.49328711 -0.51550918 12.75024414 -0.65917969 C14.19338918 -0.71910266 15.63581839 -0.80069404 17.07641602 -0.90527344 C21.95841818 -1.2504826 26.243996 -1.27033436 31 0 C34.95405691 3.50661177 37.36700342 7.46219104 40 12 C41.30396053 13.7102985 42.63213903 15.40286438 44 17.0625 C45.97097562 19.5125322 46.99266341 20.97799023 48 24 C48.66 24 49.32 24 50 24 C51.86613769 26.21566824 53.6331788 28.43979503 55.375 30.75 C59.13947096 35.73127016 59.13947096 35.73127016 63.3515625 40.328125 C65 42 65 42 65 44 C68.74496696 40.34355044 72.2281543 36.54297688 75.625 32.5625 C76.14425049 31.95559326 76.66350098 31.34868652 77.19848633 30.72338867 C81.22241876 25.98680225 85.10678202 21.15234387 88.90673828 16.23461914 C89.75079182 15.14344791 90.60881382 14.06298229 91.47827148 12.99194336 C93.11770124 10.90621429 93.11770124 10.90621429 94.80493164 8.15063477 C100.06903084 0.49449143 100.06903084 0.49449143 105.44067383 -0.88110352 C109.36946214 -1.08171494 113.13894718 -0.96402442 117.0625 -0.6875 C118.41841933 -0.6322126 119.77455741 -0.58204168 121.13085938 -0.53710938 C124.42623303 -0.40810898 127.71023838 -0.22794646 131 0 C131.5949707 1.8515625 131.5949707 1.8515625 132 4 C130.48046875 6.375 130.48046875 6.375 128.1875 9 C127.35476563 9.97195312 126.52203125 10.94390625 125.6640625 11.9453125 C125.22352539 12.4496582 124.78298828 12.95400391 124.32910156 13.47363281 C115.24817724 23.90235045 106.73191636 34.75592836 98.6875 46 C96.03352165 49.68578556 93.25795533 52.82778034 90 56 C88.82318817 57.30607263 87.67877469 58.64182379 86.5625 60 C85.76005859 60.9590625 85.76005859 60.9590625 84.94140625 61.9375 C83.7444932 64.0051001 83.7444932 64.0051001 84.5546875 66.3984375 C86.26507004 69.47712607 88.2634178 71.95533022 90.5625 74.625 C91.47565586 75.69758012 92.3884088 76.7705034 93.30078125 77.84375 C93.75791504 78.37742187 94.21504883 78.91109375 94.68603516 79.4609375 C101.29619648 87.20349733 107.52637006 95.23323779 113.75219727 103.28417969 C118.05584967 108.83191607 122.47221789 114.26133943 127.01171875 119.6171875 C127.66785156 120.40351563 128.32398438 121.18984375 129 122 C129.58394531 122.68320313 130.16789063 123.36640625 130.76953125 124.0703125 C132 126 132 126 132 130 C127.96174934 130.12406007 123.92424362 130.21455045 119.88452148 130.2746582 C118.51192898 130.29972617 117.13946898 130.33379082 115.76733398 130.37719727 C113.78949304 130.43817531 111.81065816 130.46361009 109.83203125 130.48828125 C108.04889526 130.52755737 108.04889526 130.52755737 106.22973633 130.56762695 C102.05576937 129.83405123 100.68480105 128.19522062 98 125 C97.23558594 124.1028125 96.47117187 123.205625 95.68359375 122.28125 C94.94238281 121.3634375 94.20117188 120.445625 93.4375 119.5 C92.69371094 118.5821875 91.94992187 117.664375 91.18359375 116.71875 C90.46300781 115.8215625 89.74242187 114.924375 89 114 C87.87271484 112.65421875 87.87271484 112.65421875 86.72265625 111.28125 C85 109 85 109 85 107 C84.34 107 83.68 107 83 107 C81.546875 105.41015625 81.546875 105.41015625 79.75 103.0625 C75.91261014 98.13971702 71.97934188 93.30878942 68 88.5 C62.94563009 82.37550394 57.92379821 76.230311 53 70 C52.60280762 69.50000488 52.20561523 69.00000977 51.79638672 68.48486328 C46.41958327 61.71489633 41.14952569 54.88207458 36 47.9375 C31.4116222 41.7636017 26.60269171 35.84446006 21.5859375 30.015625 C18.41767334 26.32091212 15.34314533 22.55643137 12.28125 18.7734375 C10.61797811 16.751309 8.93691702 14.76330249 7.21875 12.7890625 C6.7554126 12.25095947 6.2920752 11.71285645 5.81469727 11.15844727 C4.50681966 9.64283019 3.18921789 8.13562045 1.87109375 6.62890625 C0 4 0 4 0 0 Z " fill="#181818" transform="translate(279,132)"/>
<path d="M0 0 C36.96 0 73.92 0 112 0 C113.19219354 2.38438709 113.12916022 3.87656002 113.1328125 6.53515625 C113.13410156 7.42654297 113.13539063 8.31792969 113.13671875 9.23632812 C113.13285156 10.16896484 113.12898437 11.10160156 113.125 12.0625 C113.12886719 12.99900391 113.13273438 13.93550781 113.13671875 14.90039062 C113.13542969 15.79048828 113.13414062 16.68058594 113.1328125 17.59765625 C113.13168457 18.41758057 113.13055664 19.23750488 113.12939453 20.08227539 C113 22 113 22 112 23 C110.64905018 23.09268999 109.29332909 23.11747326 107.93920898 23.11352539 C107.07839218 23.11344986 106.21757538 23.11337433 105.33067322 23.11329651 C104.39526199 23.10813522 103.45985077 23.10297394 102.49609375 23.09765625 C101.54307877 23.0962413 100.59006378 23.09482635 99.60816956 23.09336853 C96.55124835 23.08775152 93.49439923 23.07519616 90.4375 23.0625 C88.37044376 23.05748719 86.30338638 23.05292391 84.23632812 23.04882812 C79.15752412 23.03777656 74.0787743 23.02050055 69 23 C69.00222061 24.31322739 69.00444122 25.62645477 69.00672913 26.97947693 C69.02695802 39.32601074 69.04197092 51.6725412 69.05181217 64.01908779 C69.05704164 70.36730576 69.06414044 76.7155104 69.07543945 83.0637207 C69.08626606 89.18448582 69.09227635 95.30523809 69.09487724 101.42601204 C69.0967319 103.76690943 69.10035329 106.10780609 69.10573006 108.44869804 C69.11293748 111.71508202 69.11399107 114.98141215 69.11352539 118.24780273 C69.11712067 119.226035 69.12071594 120.20426727 69.12442017 121.21214294 C69.1230455 122.09700378 69.12167084 122.98186462 69.12025452 123.89353943 C69.12117631 124.66692374 69.1220981 125.44030806 69.12304783 126.23712826 C69 128 69 128 68 129 C60.08 129 52.16 129 44 129 C44 94.02 44 59.04 44 23 C29.48 23 14.96 23 0 23 C0 15.41 0 7.82 0 0 Z " fill="#1E1E1E" transform="translate(433,132)"/>
<path d="M0 0 C3.60236599 3.53096774 7.02969747 7.16763201 10.3125 11 C10.76689453 11.50789062 11.22128906 12.01578125 11.68945312 12.5390625 C13.6089467 14.79049857 14.90847461 16.6221644 15.609375 19.515625 C14.72530514 23.11990981 12.4900653 25.20653033 9.9375 27.75 C8.91550603 28.81535129 7.89597653 29.88307215 6.87890625 30.953125 C6.38148926 31.47326172 5.88407227 31.99339844 5.37158203 32.52929688 C2.31379864 35.80805927 -0.32946567 39.40573318 -3 43 C-4.19599099 44.60060486 -5.39202322 46.20117947 -6.58935547 47.80078125 C-7.75704891 49.36329958 -8.91966896 50.9296055 -10.08203125 52.49609375 C-12 55 -12 55 -14 57 C-16.88916016 57.22705078 -16.88916016 57.22705078 -20.5390625 57.1953125 C-22.49199219 57.18564453 -22.49199219 57.18564453 -24.484375 57.17578125 C-25.86458595 57.15906929 -27.24479429 57.14213939 -28.625 57.125 C-30.01301452 57.11497006 -31.40103589 57.10584423 -32.7890625 57.09765625 C-36.19288026 57.07401863 -39.59635506 57.04106867 -43 57 C-43.6015625 55.1550293 -43.6015625 55.1550293 -44 53 C-42.375 50.51953125 -42.375 50.51953125 -40 47.8125 C-36.29375734 43.51071445 -32.78957631 39.14384887 -29.41015625 34.58203125 C-28.71212891 33.79892578 -28.71212891 33.79892578 -28 33 C-27.34 33 -26.68 33 -26 33 C-25.74863281 32.43667969 -25.49726563 31.87335938 -25.23828125 31.29296875 C-23.81554502 28.65843826 -22.1225327 26.59935683 -20.1875 24.3125 C-15.38007037 18.54201851 -10.84073885 12.58944027 -6.3425293 6.57543945 C-5.80797119 5.86734131 -5.27341309 5.15924316 -4.72265625 4.4296875 C-4.24578369 3.79272949 -3.76891113 3.15577148 -3.27758789 2.49951172 C-2 1 -2 1 0 0 Z " fill="#171717" transform="translate(323,205)"/>
<path d="M0 0 C2.63561512 2.01837505 3.67361272 4.16169485 4.66796875 7.27734375 C4.33796875 8.26734375 4.00796875 9.25734375 3.66796875 10.27734375 C1.02796875 10.27734375 -1.61203125 10.27734375 -4.33203125 10.27734375 C-4.66203125 9.28734375 -4.99203125 8.29734375 -5.33203125 7.27734375 C-8.96203125 7.27734375 -12.59203125 7.27734375 -16.33203125 7.27734375 C-16.33203125 8.59734375 -16.33203125 9.91734375 -16.33203125 11.27734375 C-15.47480469 11.43589844 -14.61757813 11.59445313 -13.734375 11.7578125 C-6.75277503 13.18246819 -1.70067956 14.51876911 3.66796875 19.27734375 C5.40060787 22.74262199 5.13994615 26.48841403 4.66796875 30.27734375 C2.90970302 33.33802853 1.52425335 34.78803827 -1.51953125 36.52734375 C-9.1297682 38.55674027 -15.10129034 38.76954527 -22.33203125 35.27734375 C-25.76798277 32.87217769 -26.23086292 31.73649232 -27.14453125 27.58984375 C-27.20640625 26.49671875 -27.26828125 25.40359375 -27.33203125 24.27734375 C-26.33203125 23.27734375 -26.33203125 23.27734375 -22.89453125 23.15234375 C-19.33203125 23.27734375 -19.33203125 23.27734375 -17.33203125 24.27734375 C-17.00203125 25.26734375 -16.67203125 26.25734375 -16.33203125 27.27734375 C-13.37538606 28.75566635 -10.58973388 28.33767158 -7.33203125 28.27734375 C-6.67203125 26.95734375 -6.01203125 25.63734375 -5.33203125 24.27734375 C-6.03328125 24.035 -6.73453125 23.79265625 -7.45703125 23.54296875 C-23.17440053 17.99063721 -23.17440053 17.99063721 -25.89453125 13.96484375 C-26.48075854 10.36373328 -26.2790389 7.81283899 -25.33203125 4.27734375 C-18.7250791 -3.98134644 -9.05565803 -5.07912157 0 0 Z " fill="#242426" transform="translate(613.33203125,224.72265625)"/>
<path d="M0 0 C2.97 0 5.94 0 9 0 C11.67283331 2.67283331 10.23509897 10.46948989 10.25 14.0625 C10.270625 15.27873047 10.29125 16.49496094 10.3125 17.74804688 C10.34180325 24.49878421 10.25190457 29.99811526 7 36 C3.47487817 39.01302643 0.56276359 39.40991911 -4 39.375 C-5.010625 39.38273437 -6.02125 39.39046875 -7.0625 39.3984375 C-10.39940083 38.94582595 -12.28498679 37.95711199 -15 36 C-16.88140361 33.43444962 -17.05884307 32.43151585 -16.625 29.25 C-16.41875 28.5075 -16.2125 27.765 -16 27 C-12.67212881 25.8907096 -11.3006216 25.98442412 -8 27 C-7.34 27.99 -6.68 28.98 -6 30 C-4.35 29.67 -2.7 29.34 -1 29 C-0.67 19.43 -0.34 9.86 0 0 Z " fill="#2B2B2B" transform="translate(573,223)"/>
<path d="M0 0 C6.0546875 -0.1953125 6.0546875 -0.1953125 8 0 C10 2 10 2 10.4375 5.5 C10.623125 6.655 10.80875 7.81 11 9 C11.99 9.66 12.98 10.32 14 11 C13.979375 9.906875 13.95875 8.81375 13.9375 7.6875 C14 4 14 4 15 1 C15.99 1 16.98 1 18 1 C18.62108626 8.91884984 18.62108626 8.91884984 16.3125 12.9375 C11.66432483 17.08316975 6.12085375 18.07936277 0 18 C-4.33348931 17.16797005 -7.88506686 15.7804532 -11.5 13.25 C-13.52548901 10.21176649 -13.79578285 7.6078364 -14 4 C-13 3 -13 3 -9.5625 2.875 C-6 3 -6 3 -4 4 C-3.67 4.99 -3.34 5.98 -3 7 C-0.04335481 8.4783226 2.74229737 8.06032783 6 8 C6.66 6.68 7.32 5.36 8 4 C5.36 3.01 2.72 2.02 0 1 C0 0.67 0 0.34 0 0 Z " fill="#2E2E2E" transform="translate(600,245)"/>
<path d="M0 0 C1.98 0 3.96 0 6 0 C6 0.66 6 1.32 6 2 C6.96099609 2.16435547 6.96099609 2.16435547 7.94140625 2.33203125 C14.89053372 3.60586535 21.63243971 5.06184453 27 10 C27 10.66 27 11.32 27 12 C26.34 12 25.68 12 25 12 C25.020625 13.27875 25.04125 14.5575 25.0625 15.875 C25.125 19.75 25.125 19.75 24 22 C22.0625 21.4375 22.0625 21.4375 20 20 C19.3125 16.4375 19.3125 16.4375 19 13 C17.29020752 11.29020752 14.96069337 11.67165201 12.625 11.5 C9.47979491 11.26763656 7.00372093 11.00124031 4 10 C2.83203125 8.22265625 2.83203125 8.22265625 1.8125 6.0625 C1.46832031 5.35222656 1.12414062 4.64195312 0.76953125 3.91015625 C0 2 0 2 0 0 Z " fill="#0D0D0F" transform="translate(590,234)"/>
<path d="M0 0 C3.125 0.3125 3.125 0.3125 5 2.3125 C5.556875 3.3025 5.556875 3.3025 6.125 4.3125 C8.105 3.9825 10.085 3.6525 12.125 3.3125 C11.795 4.3025 11.465 5.2925 11.125 6.3125 C9.805 6.3125 8.485 6.3125 7.125 6.3125 C7.455 6.9725 7.785 7.6325 8.125 8.3125 C9.115 8.6425 10.105 8.9725 11.125 9.3125 C9.145 10.3025 9.145 10.3025 7.125 11.3125 C7.455 11.9725 7.785 12.6325 8.125 13.3125 C3.48025026 13.63655231 0.83394272 13.19723323 -2.875 10.3125 C-4.72266589 7.7929556 -4.92596932 6.75083616 -4.5625 3.625 C-3.5752245 0.30416422 -3.55033631 0.38590612 0 0 Z " fill="#323235" transform="translate(560.875,248.6875)"/>
<path d="M0 0 C1.875 1.5 1.875 1.5 3 3 C2.34 4.32 1.68 5.64 1 7 C-1.97 7 -4.94 7 -8 7 C-8 6.34 -8 5.68 -8 5 C-8.61875 5.495 -9.2375 5.99 -9.875 6.5 C-12 8 -12 8 -14 8 C-14.33 6.35 -14.66 4.7 -15 3 C-10.4277653 -0.04815647 -5.43788102 -0.4833672 0 0 Z " fill="#151517" transform="translate(605,223)"/>
<path d="M0 0 C0.66 1.32 1.32 2.64 2 4 C2.928125 3.2575 2.928125 3.2575 3.875 2.5 C6 1 6 1 8 1 C8 1.66 8 2.32 8 3 C10.97 3 13.94 3 17 3 C17 3.33 17 3.66 17 4 C12.545 4.495 12.545 4.495 8 5 C7.67 6.32 7.34 7.64 7 9 C7 8.34 7 7.68 7 7 C5.35 7.33 3.7 7.66 2 8 C2.99 10.64 3.98 13.28 5 16 C1.91157003 15.1059808 0.36600955 14.58228792 -1.375 11.8125 C-2.29434229 7.6754597 -1.90584733 3.81169466 0 0 Z " fill="#2C2C2D" transform="translate(589,227)"/>
<path d="M0 0 C3 0.25 3 0.25 5 2.25 C5.25 5.25 5.25 5.25 5 8.25 C3 10.25 3 10.25 0 10.5 C-3 10.25 -3 10.25 -5 8.25 C-5.25 5.25 -5.25 5.25 -5 2.25 C-3 0.25 -3 0.25 0 0 Z " fill="#08080B" transform="translate(548,251.75)"/>
<path d="M0 0 C2.31 0 4.62 0 7 0 C7.33 1.32 7.66 2.64 8 4 C12.455 4.99 12.455 4.99 17 6 C17 6.66 17 7.32 17 8 C13.24543433 10.50304378 11.45254066 10.45280074 7 10 C3.5625 8.125 3.5625 8.125 1 6 C1 4 1 4 2 3 C1.01 3 0.02 3 -1 3 C-0.67 2.01 -0.34 1.02 0 0 Z " fill="#0F0F10" transform="translate(588,249)"/>
<path d="M0 0 C3.13740458 6.06564885 3.13740458 6.06564885 2.6875 9.125 C2 11 2 11 0 12 C-1.54613014 11.91348369 -3.08909387 11.75997364 -4.625 11.5625 C-5.44226563 11.46066406 -6.25953125 11.35882813 -7.1015625 11.25390625 C-7.72804688 11.17011719 -8.35453125 11.08632813 -9 11 C-8.01 10.01 -7.02 9.02 -6 8 C-6.33 7.01 -6.66 6.02 -7 5 C-6.401875 4.9175 -5.80375 4.835 -5.1875 4.75 C-2.4033704 3.79544128 -1.56688858 2.42867729 0 0 Z " fill="#171717" transform="translate(575,250)"/>
<path d="M0 0 C1.07174763 3.65188082 0.76411467 6.26432828 0 10 C-0.99 9.67 -1.98 9.34 -3 9 C-3 9.66 -3 10.32 -3 11 C6.24 10.67 15.48 10.34 25 10 C24.67 10.66 24.34 11.32 24 12 C14.43 12 4.86 12 -5 12 C-6 8 -6 8 -4.78515625 5.859375 C-4.21667969 5.16328125 -3.64820313 4.4671875 -3.0625 3.75 C-2.49660156 3.04359375 -1.93070312 2.3371875 -1.34765625 1.609375 C-0.90292969 1.07828125 -0.45820313 0.5471875 0 0 Z " fill="#555556" transform="translate(285,250)"/>
<path d="M0 0 C4.67692308 1.47692308 4.67692308 1.47692308 6.3125 4.125 C6.539375 4.74375 6.76625 5.3625 7 6 C6.34 6 5.68 6 5 6 C5.020625 7.27875 5.04125 8.5575 5.0625 9.875 C5.125 13.75 5.125 13.75 4 16 C2.046875 15.2890625 2.046875 15.2890625 0 14 C-0.609375 11.8359375 -0.609375 11.8359375 -0.75 9.375 C-0.80671875 8.55773437 -0.8634375 7.74046875 -0.921875 6.8984375 C-0.94765625 6.27195313 -0.9734375 5.64546875 -1 5 C0.65 5 2.3 5 4 5 C4 4.34 4 3.68 4 3 C2.68 2.67 1.36 2.34 0 2 C0 1.34 0 0.68 0 0 Z " fill="#282828" transform="translate(610,240)"/>
<path d="M0 0 C0.99 0 1.98 0 3 0 C3.35813217 4.56618517 3.60240582 7.92905632 1.3125 12 C-1.21006769 14.18168017 -2.7129718 14.72608098 -6 15 C-5.195625 14.01 -4.39125 13.02 -3.5625 12 C-0.67317108 8.00880836 -0.25616233 4.86708428 0 0 Z " fill="#4A4A4A" transform="translate(615,246)"/>
<path d="M0 0 C1.134375 0.020625 2.26875 0.04125 3.4375 0.0625 C3.4375 0.3925 3.4375 0.7225 3.4375 1.0625 C2.468125 1.18625 1.49875 1.31 0.5 1.4375 C-1.0159375 1.746875 -1.0159375 1.746875 -2.5625 2.0625 C-2.8925 2.7225 -3.2225 3.3825 -3.5625 4.0625 C-1.9125 3.7325 -0.2625 3.4025 1.4375 3.0625 C1.1075 3.7225 0.7775 4.3825 0.4375 5.0625 C-0.2225 5.0625 -0.8825 5.0625 -1.5625 5.0625 C-1.5625 5.7225 -1.5625 6.3825 -1.5625 7.0625 C-0.923125 7.330625 -0.28375 7.59875 0.375 7.875 C2.4375 9.0625 2.4375 9.0625 3.4375 12.0625 C6.4075 12.5575 6.4075 12.5575 9.4375 13.0625 C9.4375 13.3925 9.4375 13.7225 9.4375 14.0625 C3.56654895 13.71024294 0.43316412 12.43870356 -3.5625 8.0625 C-4.5 4.3125 -4.5 4.3125 -4.5625 1.0625 C-3.5625 0.0625 -3.5625 0.0625 0 0 Z " fill="#656565" transform="translate(590.5625,247.9375)"/>
<path d="M0 0 C2.375 0.1875 2.375 0.1875 5 1 C6.3125 3.5625 6.3125 3.5625 7 6 C7.99 5.67 8.98 5.34 10 5 C10.33 7.97 10.66 10.94 11 14 C7.11807874 10.23225289 3.20468119 6.37202211 0 2 C0 1.34 0 0.68 0 0 Z " fill="#4B4B4B" transform="translate(84,221)"/>
<path d="M0 0 C0.99 0.33 1.98 0.66 3 1 C-0.96 5.95 -4.92 10.9 -9 16 C-9.33 14.68 -9.66 13.36 -10 12 C-9.34 12 -8.68 12 -8 12 C-8 10.02 -8 8.04 -8 6 C-7.01 6 -6.02 6 -5 6 C-4.34 5.01 -3.68 4.02 -3 3 C-2.34 3.33 -1.68 3.66 -1 4 C-0.67 2.68 -0.34 1.36 0 0 Z " fill="#626262" transform="translate(391,156)"/>
<path d="M0 0 C1.65 0.99 3.3 1.98 5 3 C4.5020163 6.73487777 4.12508244 8.81237635 2 12 C1.34 12 0.68 12 0 12 C0 8 0 4 0 0 Z " fill="#232323" transform="translate(577,248)"/>
<path d="M0 0 C1.98 0 3.96 0 6 0 C6 0.66 6 1.32 6 2 C7.32 2.33 8.64 2.66 10 3 C10 3.66 10 4.32 10 5 C5.58937864 6.0257259 3.07369424 6.03684712 -1 4 C-0.67 2.68 -0.34 1.36 0 0 Z " fill="#0B0B0C" transform="translate(604,240)"/>
<path d="M0 0 C4.29 0.99 8.58 1.98 13 3 C13 3.33 13 3.66 13 4 C11.02 4 9.04 4 7 4 C7 4.66 7 5.32 7 6 C7.66 6.33 8.32 6.66 9 7 C6.1875 7.25 6.1875 7.25 3 7 C1.125 5.1875 1.125 5.1875 0 3 C0 2.01 0 1.02 0 0 Z " fill="#39393B" transform="translate(597,236)"/>
<path d="M0 0 C0.99 0.66 1.98 1.32 3 2 C3 3.32 3 4.64 3 6 C-6.24 6 -15.48 6 -25 6 C-25 5.67 -25 5.34 -25 5 C-12.625 4.505 -12.625 4.505 0 4 C0 2.68 0 1.36 0 0 Z " fill="#5B5B5B" transform="translate(408,256)"/>
<path d="M0 0 C1.875 0.25 1.875 0.25 4 1 C5.25 3.0625 5.25 3.0625 6 5 C9.465 4.505 9.465 4.505 13 4 C13.33 4.66 13.66 5.32 14 6 C6.74 6 -0.52 6 -8 6 C-8 5.67 -8 5.34 -8 5 C-2.555 4.505 -2.555 4.505 3 4 C2.01 2.68 1.02 1.36 0 0 Z " fill="#050505" transform="translate(137,254)"/>
<path d="M0 0 C2.97 0 5.94 0 9 0 C6.125 3.875 6.125 3.875 5 5 C5.66 5.33 6.32 5.66 7 6 C6.67 6.99 6.34 7.98 6 9 C4.99406757 7.8803014 3.9954151 6.7540588 3 5.625 C2.443125 4.99851563 1.88625 4.37203125 1.3125 3.7265625 C0 2 0 2 0 0 Z " fill="#09090B" transform="translate(280,133)"/>
<path d="M0 0 C0.99 0.103125 1.98 0.20625 3 0.3125 C3.66 1.3025 4.32 2.2925 5 3.3125 C4.01 3.3125 3.02 3.3125 2 3.3125 C2 3.9725 2 4.6325 2 5.3125 C0.35 5.6425 -1.3 5.9725 -3 6.3125 C-3 5.3225 -3 4.3325 -3 3.3125 C-3.33 4.9625 -3.66 6.6125 -4 8.3125 C-4.33 8.3125 -4.66 8.3125 -5 8.3125 C-5.125 5.4375 -5.125 5.4375 -5 2.3125 C-3 0.3125 -3 0.3125 0 0 Z " fill="#525253" transform="translate(548,251.6875)"/>
<path d="M0 0 C0.66 0 1.32 0 2 0 C3.65 3.3 5.3 6.6 7 10 C6.01 10.495 6.01 10.495 5 11 C1.87729874 8.48169253 1.05476902 7.2738451 0.25 3.25 C0.1675 2.1775 0.085 1.105 0 0 Z " fill="#383839" transform="translate(587,232)"/>
<path d="M0 0 C-0.226875 0.928125 -0.45375 1.85625 -0.6875 2.8125 C-1.36319983 5.96826848 -1.36319983 5.96826848 0.4375 7.875 C0.953125 8.24625 1.46875 8.6175 2 9 C1.67 9.66 1.34 10.32 1 11 C-1.64 8.03 -4.28 5.06 -7 2 C-3 0 -3 0 0 0 Z " fill="#656566" transform="translate(334,194)"/>
<path d="M0 0 C0 0.66 0 1.32 0 2 C-0.66 2.66 -1.32 3.32 -2 4 C-2.33 4.99 -2.66 5.98 -3 7 C-4.32 6.67 -5.64 6.34 -7 6 C-6.67 4.35 -6.34 2.7 -6 1 C-3.92446352 0.4465236 -2.15634036 0 0 0 Z " fill="#0D0D0F" transform="translate(564,251)"/>
<path d="M0 0 C6.0546875 -0.1953125 6.0546875 -0.1953125 8 0 C10 2 10 2 10.125 4.625 C10.08375 5.40875 10.0425 6.1925 10 7 C8.02 7.99 8.02 7.99 6 9 C6.66 7.35 7.32 5.7 8 4 C5.36 3.01 2.72 2.02 0 1 C0 0.67 0 0.34 0 0 Z " fill="#404041" transform="translate(600,245)"/>
<path d="M0 0 C3.26008643 3.16952847 6.22237877 6.39937989 9 10 C8.67 10.66 8.34 11.32 8 12 C7.01 11.67 6.02 11.34 5 11 C4.31867549 9.33927151 3.65257873 7.672233 3 6 C2.01 5.34 1.02 4.68 0 4 C0 2.68 0 1.36 0 0 Z " fill="#505050" transform="translate(86,186)"/>
<path d="M0 0 C0.7734375 0.7115625 0.7734375 0.7115625 1.5625 1.4375 C4.66782675 3.42809407 7.36632504 3.65060818 11 4 C11 4.66 11 5.32 11 6 C7.59068103 7.13643966 6.99664544 6.86747764 3.8125 5.5625 C3.09707031 5.27503906 2.38164063 4.98757812 1.64453125 4.69140625 C0.83048828 4.34916016 0.83048828 4.34916016 0 4 C0 2.68 0 1.36 0 0 Z " fill="#080809" transform="translate(594,251)"/>
<path d="M0 0 C2.89932357 2.39509338 3.50168276 4.31245243 4 8 C2.35 8.33 0.7 8.66 -1 9 C-1 7.68 -1 6.36 -1 5 C-0.34 5 0.32 5 1 5 C0.67 3.35 0.34 1.7 0 0 Z " fill="#4C4C4E" transform="translate(614,226)"/>
<path d="M0 0 C0.66 0.33 1.32 0.66 2 1 C-0.31 3.97 -2.62 6.94 -5 10 C-5.66 8.68 -6.32 7.36 -7 6 C-2.25 2 -2.25 2 0 2 C0 1.34 0 0.68 0 0 Z " fill="#535353" transform="translate(404,141)"/>
<path d="M0 0 C1.4540625 0.0309375 1.4540625 0.0309375 2.9375 0.0625 C3.5975 1.3825 4.2575 2.7025 4.9375 4.0625 C4.2775 4.0625 3.6175 4.0625 2.9375 4.0625 C2.9375 3.4025 2.9375 2.7425 2.9375 2.0625 C-1.47772109 3.33224972 -1.47772109 3.33224972 -5.0625 6.0625 C-3.98897059 0.08140756 -3.98897059 0.08140756 0 0 Z " fill="#707072" transform="translate(561.0625,248.9375)"/>
<path d="M0 0 C0.66 0 1.32 0 2 0 C2 0.66 2 1.32 2 2 C4.97 2 7.94 2 11 2 C11 2.33 11 2.66 11 3 C10.22914063 3.06058594 9.45828125 3.12117187 8.6640625 3.18359375 C7.66117188 3.26738281 6.65828125 3.35117188 5.625 3.4375 C4.12839844 3.55931641 4.12839844 3.55931641 2.6015625 3.68359375 C0.02072387 3.84965626 0.02072387 3.84965626 -2 5 C-1.125 1.125 -1.125 1.125 0 0 Z " fill="#6B6B6C" transform="translate(595,228)"/>
<path d="M0 0 C1.32 0.33 2.64 0.66 4 1 C4.33 3.31 4.66 5.62 5 8 C2.21611025 6.29374499 1.14615794 5.52373261 0.25 2.3125 C0.1675 1.549375 0.085 0.78625 0 0 Z " fill="#3A3A3A" transform="translate(335,202)"/>
<path d="M0 0 C0.99 0.66 1.98 1.32 3 2 C2.45773019 5.79588866 0.79872437 7.47211993 -2 10 C-2 8.68 -2 7.36 -2 6 C-1.34 6 -0.68 6 0 6 C0 4.02 0 2.04 0 0 Z " fill="#515151" transform="translate(383,162)"/>
<path d="M0 0 C0.33 0.99 0.66 1.98 1 3 C-1.52788007 5.79872437 -3.20411134 7.45773019 -7 8 C-7 7.01 -7 6.02 -7 5 C-6.401875 4.9175 -5.80375 4.835 -5.1875 4.75 C-2.4033704 3.79544128 -1.56688858 2.42867729 0 0 Z " fill="#050507" transform="translate(575,250)"/>
<path d="M0 0 C2.375 0.25 2.375 0.25 5 1 C6.3125 3.0625 6.3125 3.0625 7 5 C3 5 3 5 1.25 3.625 C0 2 0 2 0 0 Z " fill="#434343" transform="translate(84,221)"/>
<path d="M0 0 C2.3125 0.125 2.3125 0.125 5 1 C6.875 3.9375 6.875 3.9375 8 7 C7.67 7.66 7.34 8.32 7 9 C5.83037314 7.69013727 4.66437056 6.3770374 3.5 5.0625 C2.8503125 4.33160156 2.200625 3.60070312 1.53125 2.84765625 C0 1 0 1 0 0 Z " fill="#828282" transform="translate(340,211)"/>
<path d="M0 0 C0.66 0.99 1.32 1.98 2 3 C1.01 3.33 0.02 3.66 -1 4 C-1.33 4.99 -1.66 5.98 -2 7 C-3.32 6.34 -4.64 5.68 -6 5 C-5.67 4.01 -5.34 3.02 -5 2 C-3.33333333 2 -1.66666667 2 0 2 C0 1.34 0 0.68 0 0 Z " fill="#0F0D0E" transform="translate(392,153)"/>
<path d="M0 0 C0 0.66 0 1.32 0 2 C-0.99 2 -1.98 2 -3 2 C-3.33 2.99 -3.66 3.98 -4 5 C-4.99 3.35 -5.98 1.7 -7 0 C-3.98968256 -0.93423645 -3.13349732 -1.04449911 0 0 Z " fill="#252525" transform="translate(382,253)"/>
<path d="M0 0 C2 1 2 1 2 1 Z M-4 1 C-2.68 1 -1.36 1 0 1 C0 1.66 0 2.32 0 3 C0.66 3 1.32 3 2 3 C1.34 4.32 0.68 5.64 0 7 C-0.66 5.68 -1.32 4.36 -2 3 C-2.66 3 -3.32 3 -4 3 C-4 2.34 -4 1.68 -4 1 Z " fill="#28282A" transform="translate(366,236)"/>
<path d="M0 0 C0.66 0 1.32 0 2 0 C1.1875 2.4375 1.1875 2.4375 0 5 C-0.99 5.33 -1.98 5.66 -3 6 C-3.33 4.68 -3.66 3.36 -4 2 C-2.68 2 -1.36 2 0 2 C0 1.34 0 0.68 0 0 Z " fill="#0C0C0E" transform="translate(594,225)"/>
<path d="M0 0 C0.33 0.66 0.66 1.32 1 2 C1.99 1.67 2.98 1.34 4 1 C3.34 2.65 2.68 4.3 2 6 C0.68 5.34 -0.64 4.68 -2 4 C-1.34 2.68 -0.68 1.36 0 0 Z " fill="#545454" transform="translate(372,177)"/>
<path d="M0 0 C1.32 1.32 2.64 2.64 4 4 C3.67 4.66 3.34 5.32 3 6 C2.34 5.67 1.68 5.34 1 5 C1 5.66 1 6.32 1 7 C0.34 6.67 -0.32 6.34 -1 6 C-0.67 5.01 -0.34 4.02 0 3 C-0.66 2.67 -1.32 2.34 -2 2 C-1.34 1.34 -0.68 0.68 0 0 Z " fill="#1D1D1D" transform="translate(318,144)"/>
<path d="M0 0 C0.33 0.99 0.66 1.98 1 3 C-5.625 3.25 -5.625 3.25 -9 1 C-2.25 0 -2.25 0 0 0 Z " fill="#141417" transform="translate(603,242)"/>
<path d="M0 0 C1.485 0.99 1.485 0.99 3 2 C3 2.66 3 3.32 3 4 C4.32 3.34 5.64 2.68 7 2 C6.34 3.32 5.68 4.64 5 6 C2.525 5.01 2.525 5.01 0 4 C0 2.68 0 1.36 0 0 Z " fill="#8A898A" transform="translate(341,172)"/>
<path d="M0 0 C0.66 1.32 1.32 2.64 2 4 C1.34 4 0.68 4 0 4 C-0.33 4.66 -0.66 5.32 -1 6 C-3.0625 7.125 -3.0625 7.125 -5 8 C-3.62845496 5.04590299 -2.01136276 2.55991624 0 0 Z " fill="#494949" transform="translate(368,148)"/>
<path d="M0 0 C0.625 1.875 0.625 1.875 1 4 C-1 6 -1 6 -4.125 6.125 C-5.548125 6.063125 -5.548125 6.063125 -7 6 C-7.33 5.34 -7.66 4.68 -8 4 C-6.8553125 4.0309375 -6.8553125 4.0309375 -5.6875 4.0625 C-2.89814214 4.12942841 -2.89814214 4.12942841 0 3 C0 2.01 0 1.02 0 0 Z " fill="#414144" transform="translate(552,256)"/>
<path d="M0 0 C1.65 0.99 3.3 1.98 5 3 C4.67 4.32 4.34 5.64 4 7 C3.34 5.68 2.68 4.36 2 3 C1.34 3 0.68 3 0 3 C0 2.01 0 1.02 0 0 Z " fill="#0C0C0C" transform="translate(392,238)"/>
</svg>
