<?xml version="1.0" encoding="UTF-8"?>
<svg version="1.1" xmlns="http://www.w3.org/2000/svg" width="3840" height="2160">
<path d="M0 0 C0.71462402 0.50354004 1.42924805 1.00708008 2.16552734 1.52587891 C12.52448231 8.82632603 22.50867352 16.46734428 32.26025391 24.56005859 C34.70011101 26.5794632 37.16419564 28.56870961 39.625 30.5625 C41.41924376 32.03853957 43.2107843 33.51786955 45 35 C45.5170752 35.42539062 46.03415039 35.85078125 46.56689453 36.2890625 C56.64473336 44.61048648 65.87898162 53.64675827 75 63 C78.03872143 61.63154975 80.23033446 60.05830686 82.64453125 57.76953125 C83.32193359 57.13080078 83.99933594 56.49207031 84.69726562 55.83398438 C85.74430664 54.83334961 85.74430664 54.83334961 86.8125 53.8125 C87.84213867 52.84086914 87.84213867 52.84086914 88.89257812 51.84960938 C92.21050131 48.7074702 95.48070265 45.52898687 98.69140625 42.27734375 C101.37283761 39.58145314 104.14725098 37.12099765 107.125 34.75 C110.59877385 31.95781913 114.02372159 29.12989298 117.39111328 26.21020508 C126.54471115 18.30666439 136.25156608 11.1471729 146 4 C146.72203613 3.46729492 147.44407227 2.93458984 148.18798828 2.38574219 C197.84347803 -34.11356604 263.32053343 -68.57194494 326.97021484 -59.22363281 C352.8993709 -54.47781958 375.1488608 -39.24884625 390.24365234 -17.79492188 C413.19408263 16.16703302 420.87953027 58.00399546 422.5625 98.3125 C422.62727539 99.70758789 422.62727539 99.70758789 422.69335938 101.13085938 C424.87931411 151.89358605 417.76969757 203.92199183 405 253 C406.49926025 253.17523193 406.49926025 253.17523193 408.02880859 253.35400391 C412.0058127 253.9259935 415.73954193 255.05429986 419.5390625 256.3359375 C420.24905899 256.57066269 420.95905548 256.80538788 421.69056702 257.04722595 C424.00464991 257.8155942 426.31510497 258.59413809 428.625 259.375 C429.42410797 259.64388031 430.22321594 259.91276062 431.04653931 260.18978882 C503.85379279 284.72580878 592.14729254 321.82257666 629.1953125 394.203125 C641.70481756 419.52099703 644.84573003 446.24255109 635.74291992 473.14501953 C630.44750006 487.89473753 622.85791882 500.824491 613 513 C612.18015625 514.02351563 611.3603125 515.04703125 610.515625 516.1015625 C600.29121354 528.64133318 588.82547441 540.12908514 576 550 C574.71312437 551.0150962 573.42669933 552.03076379 572.140625 553.046875 C562.45626334 560.63863023 552.47915041 567.55354265 542 574 C541.3306543 574.41314453 540.66130859 574.82628906 539.97167969 575.25195312 C447.38512777 632 447.38512777 632 405 632 C405.18062988 632.66491455 405.36125977 633.3298291 405.54736328 634.01489258 C413.30181547 662.90426831 418.37594513 692.19410706 421 722 C421.14139404 723.4701355 421.14139404 723.4701355 421.28564453 724.9699707 C422.32582741 737.1423433 422.24373995 749.35433302 422.25 761.5625 C422.25101212 763.3346991 422.25101212 763.3346991 422.25204468 765.1427002 C422.23589133 782.95365018 421.82024144 800.38055571 419 818 C418.8443457 819.02657715 418.68869141 820.0531543 418.52832031 821.11083984 C412.97506229 856.51978748 400.02909956 890.84176813 375 917 C374.41734375 917.63421875 373.8346875 918.2684375 373.234375 918.921875 C357.64702584 935.38328112 333.21751788 946.52289496 310.64453125 947.3359375 C278.17673946 947.76937826 248.53988043 940.20934276 219 927 C218.01418945 926.56059082 217.02837891 926.12118164 216.01269531 925.66845703 C179.29688182 909.11068886 145.70364214 885.95853381 115 860 C114.49017578 859.57364258 113.98035156 859.14728516 113.45507812 858.70800781 C101.10940794 848.37632505 89.32381135 837.44179048 78 826 C72.7797199 830.34797941 67.99371519 834.95442275 63.25 839.8125 C57.94086155 845.18387637 52.61377911 850.21933549 46.671875 854.88671875 C44.26731524 856.78857084 41.94306755 858.76019029 39.62866211 860.77001953 C30.47669287 868.68793524 20.7587052 875.85340516 11 883 C10.2673291 883.53802246 9.5346582 884.07604492 8.77978516 884.63037109 C-15.12294974 902.09839434 -40.94373213 916.98486156 -68 929 C-68.68852051 929.31275879 -69.37704102 929.62551758 -70.08642578 929.94775391 C-106.57983504 946.30566506 -156.83096303 954.53498432 -195.3125 941.75 C-223.29585338 930.91251632 -242.99938906 909.10440707 -255.08691406 882.10253906 C-287.02601516 808.55720787 -278.97604837 708.9281451 -254 634 C-255.22783203 633.72349609 -255.22783203 633.72349609 -256.48046875 633.44140625 C-319.47674 618.50551475 -378.54687575 589.02392301 -429.75 549.625 C-430.46438232 549.07851807 -431.17876465 548.53203613 -431.91479492 547.96899414 C-436.38979832 544.47166047 -440.40933104 540.71042884 -444.34472656 536.61474609 C-445.92205186 534.91212125 -445.92205186 534.91212125 -448 534 C-448 533.34 -448 532.68 -448 532 C-448.66 532 -449.32 532 -450 532 C-451.41015625 530.6015625 -451.41015625 530.6015625 -453.0625 528.625 C-455.0084297 526.31871295 -456.94938674 524.05274638 -459.0390625 521.875 C-481.7057751 498.13677008 -493.70071497 467.80496973 -493.26953125 435.21875 C-492.4543772 408.84470175 -479.11652711 384.44922196 -462 365 C-461.28199219 364.17242188 -460.56398438 363.34484375 -459.82421875 362.4921875 C-450.95493355 352.44138118 -441.56378151 343.25608976 -431 335 C-430.23018799 334.39091797 -430.23018799 334.39091797 -429.44482422 333.76953125 C-383.75276019 297.62734492 -328.72042648 274.41433789 -273.375 257.5625 C-272.62678986 257.33454742 -271.87857971 257.10659485 -271.10769653 256.87173462 C-268.9765615 256.22451101 -266.84409264 255.5819368 -264.7109375 254.94140625 C-263.46618652 254.56701416 -262.22143555 254.19262207 -260.93896484 253.80688477 C-258 253 -258 253 -256 253 C-256.24121582 251.91098389 -256.48243164 250.82196777 -256.73095703 249.69995117 C-264.24943479 215.65192044 -271.16750547 181.80244278 -274 147 C-274.07057617 146.16339844 -274.14115234 145.32679688 -274.21386719 144.46484375 C-278.68202631 89.3339069 -274.89311525 18.06797374 -237.77734375 -26.6796875 C-235.56850757 -29.17267928 -233.30129191 -31.59243173 -231 -34 C-230.38769531 -34.68707031 -229.77539062 -35.37414062 -229.14453125 -36.08203125 C-169.05948833 -101.03537189 -55.7440446 -39.73085022 0 0 Z M232 6 C230.57300781 6.70020264 230.57300781 6.70020264 229.1171875 7.41455078 C206.52323659 18.58315152 185.09101395 31.78764415 165 47 C163.8229437 47.88024448 162.64586159 48.76045446 161.46875 49.640625 C147.40945999 60.23451005 133.98217126 71.80790852 121.65234375 84.37890625 C119.13824103 86.84546093 116.46744327 89.12284988 113.80078125 91.421875 C111.7757781 93.19649815 109.86454143 95.05776935 108 97 C109.33999498 100.006818 110.79845291 101.99762609 113.1875 104.25 C117.02579223 107.98604264 120.51926019 111.93143127 124 116 C124.88403537 117.03131791 125.76815649 118.06256231 126.65234375 119.09375 C128.16020668 120.85258643 129.66732797 122.61203401 131.17236328 124.37329102 C133.8571152 127.51268524 136.55389558 130.64017978 139.27734375 133.74609375 C144.95778706 140.23066821 150.49134233 146.77612985 155.76806641 153.59423828 C159.39490128 158.27036255 163.15198825 162.82682427 166.9375 167.375 C173.57568173 175.38222233 179.84251121 183.62001908 186 192 C187.87476694 194.54655843 189.74978972 197.09292817 191.625 199.63916016 C192.84537828 201.29779407 194.06421055 202.95756698 195.28125 204.61865234 C195.838125 205.37742676 196.395 206.13620117 196.96875 206.91796875 C197.70254883 207.91993286 197.70254883 207.91993286 198.45117188 208.94213867 C198.96228516 209.62123291 199.47339844 210.30032715 200 211 C200.48380127 211.87333984 200.96760254 212.74667969 201.46606445 213.64648438 C205.54240725 217.43258559 210.18347035 217.24536981 215.57421875 217.73828125 C216.74523636 217.86470505 217.91625397 217.99112885 219.12275696 218.12138367 C221.65306532 218.39359859 224.18439882 218.65641287 226.71655273 218.91088867 C233.44590804 219.59147825 240.16603051 220.35253853 246.88671875 221.11328125 C247.56764462 221.18971989 248.24857048 221.26615852 248.95013046 221.34491348 C262.36186934 222.85451727 275.68708148 224.78149288 289 227 C289.99775452 227.16578552 290.99550903 227.33157104 292.02349854 227.50238037 C306.85524516 229.98558096 321.62954177 232.75263459 336.34960938 235.83007812 C337.0178624 235.96934219 337.68611542 236.10860626 338.37461853 236.25209045 C340.13606541 236.62110956 341.89633807 236.99572184 343.65649414 237.37084961 C347.4313409 238.08116579 351.18503609 238.55698032 355 239 C362.3260047 209.60736983 368.80308134 180.29642914 371 150 C371.05639648 149.25524414 371.11279297 148.51048828 371.17089844 147.74316406 C374.32577999 104.41487949 377.21236707 40.35998571 346.76171875 4.9140625 C346.18035156 4.28242187 345.59898437 3.65078125 345 3 C344.40832031 2.30648437 343.81664062 1.61296875 343.20703125 0.8984375 C334.0584452 -9.17443869 321.33556425 -13.33842458 308.03125 -14.28125 C281.04845134 -15.19152832 255.80727385 -5.78320196 232 6 Z M-199 5 C-217.32880133 26.82525942 -222.70495574 57.45946889 -225 85 C-225.05929687 85.69867187 -225.11859375 86.39734375 -225.1796875 87.1171875 C-229.35727106 139.03858312 -222.03170415 190.808585 -209 241 C-207.90977539 240.76708252 -206.81955078 240.53416504 -205.69628906 240.29418945 C-164.26185084 231.48265422 -122.59465257 223.4539184 -80.46484375 218.7890625 C-79.6407048 218.69766998 -78.81656586 218.60627747 -77.967453 218.51211548 C-74.14365909 218.0930952 -70.31930432 217.69379621 -66.48999023 217.32861328 C-65.47183983 217.22496964 -65.47183983 217.22496964 -64.43312073 217.11923218 C-62.63450009 216.93634557 -60.83461891 216.7659732 -59.03466797 216.59667969 C-54.36374141 215.67827707 -51.1581758 213.7365449 -48.421875 209.84765625 C-47.98810547 209.24236084 -47.55433594 208.63706543 -47.10742188 208.01342773 C-46.65947266 207.36962158 -46.21152344 206.72581543 -45.75 206.0625 C-44.77657917 204.70013662 -43.80261413 203.33816194 -42.828125 201.9765625 C-42.10979492 200.96384277 -42.10979492 200.96384277 -41.37695312 199.93066406 C-27.7170594 180.77774925 -12.67264258 162.50864305 2.60546875 144.6328125 C4.07339599 142.91406296 5.53678241 141.19151004 7 139.46875 C12.4808363 133.02955432 18.04396786 126.69114609 23.7578125 120.45703125 C26.89473675 117.01953064 29.94936419 113.51393331 33 110 C34.3119514 108.49952015 35.62444233 106.99951186 36.9375 105.5 C37.52402344 104.8296875 38.11054687 104.159375 38.71484375 103.46875 C39.13894531 102.9840625 39.56304688 102.499375 40 102 C38.50145302 98.50603246 36.49072725 96.23306746 33.81640625 93.55078125 C32.9766626 92.70700928 32.13691895 91.8632373 31.27172852 90.99389648 C29.9306604 89.66660522 29.9306604 89.66660522 28.5625 88.3125 C27.65105225 87.40636963 26.73960449 86.50023926 25.80053711 85.56665039 C20.57965266 80.4193192 15.35489951 75.49425399 9.5625 70.99609375 C7.05351468 69.04168598 4.6421347 67.00743084 2.23168945 64.93432617 C-4.29768113 59.32367059 -10.9914828 54.00580567 -18 49 C-18.6511377 48.53400391 -19.30227539 48.06800781 -19.97314453 47.58789062 C-47.17962969 28.2538405 -76.70913646 10.82395815 -108 -1 C-108.97187256 -1.36810791 -108.97187256 -1.36810791 -109.96337891 -1.74365234 C-138.6648738 -12.40252156 -175.60362956 -19.27852867 -199 5 Z M70.30078125 136.46875 C65.69229559 141.17682965 61.27680904 145.98978826 57 151 C56.10573172 152.04189244 55.21117767 153.08353963 54.31640625 154.125 C52.27101808 156.5070525 50.22837135 158.89142048 48.1875 161.27734375 C46.08768 163.73163705 43.98347363 166.1820438 41.875 168.62890625 C35.81164781 175.6699391 29.83457376 182.76705733 24 190 C23.50935059 190.60553711 23.01870117 191.21107422 22.51318359 191.83496094 C20.90152393 193.8249931 19.29398297 195.8182873 17.6875 197.8125 C16.93146484 198.74630493 16.93146484 198.74630493 16.16015625 199.69897461 C15.43699219 200.60015015 15.43699219 200.60015015 14.69921875 201.51953125 C14.27471436 202.04651611 13.85020996 202.57350098 13.4128418 203.11645508 C11.50010231 205.66644387 9.76818161 208.34772758 8 211 C50.9 211 93.8 211 138 211 C134.17992017 205.26988025 130.62804441 200.13876659 126.125 195.0625 C125.06381351 193.84617691 124.00391963 192.6287249 122.9453125 191.41015625 C122.43774414 190.82637207 121.93017578 190.24258789 121.40722656 189.64111328 C119.54709546 187.4718209 117.76781899 185.24490822 116 183 C111.3536708 177.12488952 106.44976582 171.47842846 101.55566406 165.81005859 C100.04636553 164.05394758 98.54859789 162.28874085 97.0546875 160.51953125 C91.62432764 154.10051634 86.07783186 147.80392368 80.375 141.625 C79.77059082 140.9637915 79.16618164 140.30258301 78.54345703 139.62133789 C77.07068612 138.04096247 75.54019683 136.51473904 74 135 C71.8778477 134.78202107 71.8778477 134.78202107 70.30078125 136.46875 Z M14.1875 260.875 C13.19832581 260.91420563 12.20915161 260.95341125 11.19000244 260.99380493 C5.71346633 261.21861874 0.24383392 261.50142084 -5.22671509 261.84164429 C-8.23251627 262.01327678 -11.23864878 262.13259869 -14.24682617 262.25512695 C-16.32091536 262.36985452 -18.39489496 262.4865837 -20.46875 262.60546875 C-21.90218498 262.64841568 -21.90218498 262.64841568 -23.36457825 262.69223022 C-28.4448025 263.03356662 -31.30814305 263.70623399 -34.83325195 267.51464844 C-36.94183589 270.2412571 -38.83257369 273.01535518 -40.38671875 276.09765625 C-42.55781225 280.21887308 -44.93863663 284.11605193 -47.47558594 288.02099609 C-49.01279537 290.39475864 -50.51271862 292.78850553 -52.00390625 295.19140625 C-53.97158845 298.3577546 -55.95706829 301.51126411 -57.96484375 304.65234375 C-64.99824899 315.6653279 -71.72299808 326.83842568 -78.31591797 338.12011719 C-80.01957139 341.03346827 -81.73002487 343.94274549 -83.44140625 346.8515625 C-96.54595252 369.16619761 -109.15454586 391.74827721 -121.22363281 414.63916016 C-122.3954499 416.85620716 -123.57434459 419.06952966 -124.76074219 421.27880859 C-126.3813474 424.30080446 -127.97539887 427.33530655 -129.5625 430.375 C-130.28796021 431.71147583 -130.28796021 431.71147583 -131.02807617 433.07495117 C-131.4532251 433.90357666 -131.87837402 434.73220215 -132.31640625 435.5859375 C-132.69224854 436.2979834 -133.06809082 437.0100293 -133.45532227 437.74365234 C-134.75214859 443.11580333 -130.67084982 448.9511569 -128.2890625 453.6875 C-127.92508362 454.41827759 -127.56110474 455.14905518 -127.18609619 455.90197754 C-126.00397529 458.27048038 -124.81516311 460.63552912 -123.625 463 C-123.01425629 464.21683472 -123.01425629 464.21683472 -122.39117432 465.45825195 C-115.86197084 478.45827364 -109.1616837 491.3351512 -102 504 C-101.4107373 505.04430176 -100.82147461 506.08860352 -100.21435547 507.16455078 C-95.5194696 515.46811141 -90.77510311 523.74236433 -86 532 C-85.64170105 532.6197168 -85.2834021 533.23943359 -84.91424561 533.87792969 C-76.40609595 548.58344382 -67.81310552 563.2132665 -58.60888672 577.49755859 C-56.77292827 580.35318441 -54.95056588 583.21726362 -53.12890625 586.08203125 C-49.10673621 592.40149023 -45.06023587 598.70494136 -41 605 C-40.39462402 605.94085449 -39.78924805 606.88170898 -39.16552734 607.85107422 C-37.51574574 610.40710635 -35.85424028 612.95500383 -34.1875 615.5 C-33.70216797 616.2535376 -33.21683594 617.0070752 -32.71679688 617.78344727 C-30.16029679 621.8561501 -30.16029679 621.8561501 -26 624 C-24.56632177 624.14087617 -23.12769218 624.23436761 -21.68847656 624.29711914 C-20.81192917 624.33707001 -19.93538177 624.37702087 -19.03227234 624.41818237 C-18.07802872 624.45678375 -17.1237851 624.49538513 -16.140625 624.53515625 C-14.64285271 624.5998259 -14.64285271 624.5998259 -13.11482239 624.665802 C-9.82677822 624.80457358 -6.53849097 624.93477122 -3.25 625.0625 C-2.11690399 625.10702301 -0.98380798 625.15154602 0.18362427 625.19741821 C20.16270567 625.96892199 40.08743232 626.2899137 60.07824707 626.03643799 C63.29920444 625.99626854 66.52019844 625.9607577 69.74121094 625.92529297 C99.85334243 625.5818643 129.99179034 625.19980125 160.04980469 623.21606445 C162.54209645 623.07974318 165.04042213 623.01630598 167.53613281 623.05541992 C173.26410345 623.07503044 173.26410345 623.07503044 178.0065918 620.21337891 C179.88277822 617.67291322 181.38158713 615.09498618 182.875 612.3125 C184.06518301 610.27402489 185.25662251 608.23628296 186.44921875 606.19921875 C187.04009277 605.15813965 187.6309668 604.11706055 188.23974609 603.04443359 C190.37493222 599.35153887 192.66975111 595.78466556 195 592.21289062 C203.57533115 579.0620645 211.49905889 565.51410384 219.46539307 551.99021912 C222.05547984 547.59447391 224.66025372 543.20784082 227.27734375 538.828125 C236.11289344 524.02678171 244.7018041 509.10944544 253 494 C253.57991699 492.94458008 254.15983398 491.88916016 254.75732422 490.80175781 C258.9022487 483.23455499 262.9678919 475.62780241 267 468 C267.63623942 466.80761098 268.2728016 465.61539412 268.90966797 464.42333984 C270.79971208 460.87909382 272.6513833 457.31603154 274.5 453.75 C275.08273682 452.66082275 275.66547363 451.57164551 276.26586914 450.44946289 C277.04692017 448.91986938 277.04692017 448.91986938 277.84375 447.359375 C278.54274414 446.02084473 278.54274414 446.02084473 279.25585938 444.65527344 C280.75070882 439.32128965 277.39396182 434.55584382 274.98046875 429.87890625 C274.3769458 428.70779297 273.77342285 427.53667969 273.15161133 426.33007812 C272.49737952 425.07397282 271.84266423 423.81811922 271.1875 422.5625 C270.85430756 421.92094971 270.52111511 421.27939941 270.17782593 420.6184082 C264.2285024 409.17099733 258.00218345 397.8984939 251.56298828 386.71875 C249.97909912 383.96364383 248.40780724 381.20169686 246.83984375 378.4375 C242.22100288 370.30285751 237.56265163 362.20469027 232.70068359 354.21264648 C229.51004272 348.93054959 226.47224758 343.56474529 223.43261719 338.19482422 C215.92545848 324.93558421 208.13701034 311.9055747 199.94580078 299.05322266 C198.22657297 296.3555234 196.5138817 293.6537906 194.80368042 290.95036316 C193.01884828 288.13109476 191.22810285 285.31560714 189.4375 282.5 C188.45523438 280.95082886 188.45523438 280.95082886 187.453125 279.37036133 C186.21872275 277.43906265 184.96693938 275.51872968 183.69555664 273.61157227 C182 271 182 271 180.72436523 268.55834961 C179.32891395 266.14253357 178.25074539 264.66204645 176 263 C171.10096344 261.74195459 166.21826996 261.64651499 161.1875 261.5625 C159.22032373 261.48483537 157.25314782 261.40715762 155.28601074 261.32850647 C153.13227829 261.2503427 150.97869897 261.19386325 148.82421875 261.14038086 C145.42314362 261.05101128 142.02722878 260.91547969 138.62890625 260.75219727 C119.96031351 259.86882382 101.31000577 259.80206279 82.625 259.8125 C80.94577026 259.81244381 79.26654053 259.81238273 77.58731079 259.81231689 C56.44019161 259.8184739 35.32008122 260.01767405 14.1875 260.875 Z M-99.19384766 270.515625 C-100.02047409 270.63024582 -100.84710052 270.74486664 -101.69877625 270.86296082 C-103.04284294 271.05454521 -103.04284294 271.05454521 -104.4140625 271.25 C-105.36074295 271.38372513 -106.3074234 271.51745026 -107.28279114 271.65522766 C-110.39760634 272.09845415 -113.5114167 272.54820377 -116.625 273 C-118.21769211 273.23026382 -118.21769211 273.23026382 -119.84255981 273.46517944 C-140.97300567 276.5394597 -161.99510438 280.20314125 -182.89865112 284.57046509 C-184.42356697 284.88217182 -185.95328927 285.1706512 -187.48538208 285.44491577 C-188.30239594 285.60126495 -189.11940979 285.75761414 -189.96118164 285.91870117 C-190.70928604 286.05418869 -191.45739044 286.18967621 -192.22816467 286.32926941 C-192.81287033 286.5506105 -193.39757599 286.7719516 -194 287 C-195.2988053 290.89641589 -194.17002581 293.31775565 -192.89453125 297.04296875 C-192.54209602 298.10442108 -192.54209602 298.10442108 -192.18254089 299.18731689 C-191.40261179 301.5242356 -190.60842656 303.85598511 -189.8125 306.1875 C-189.26105704 307.81973923 -188.70962488 309.45198212 -188.15820312 311.08422852 C-179.42738899 336.79267704 -169.57417769 361.99824653 -159 387 C-156.59514037 383.97121066 -154.77437523 380.86071966 -152.98828125 377.43359375 C-152.40377197 376.32242188 -151.8192627 375.21125 -151.21704102 374.06640625 C-150.90759552 373.47617676 -150.59815002 372.88594727 -150.27932739 372.27783203 C-144.195584 360.69757695 -137.78834142 349.37486887 -131.05615234 338.15673828 C-126.57767064 330.68826565 -122.22294981 323.16309048 -117.93829346 315.58282471 C-111.81695952 304.75466767 -105.46681368 294.12572266 -98.78295898 283.63598633 C-95.9469364 279.17770409 -93.22229134 274.79758202 -91 270 C-93.88980107 270 -96.36917897 270.12086713 -99.19384766 270.515625 Z M242 271 C243.40743748 274.81789631 245.18183948 278.13301082 247.31640625 281.59375 C247.98969971 282.69203125 248.66299316 283.7903125 249.35668945 284.921875 C249.71558258 285.50388672 250.07447571 286.08589844 250.44424438 286.68554688 C252.37342187 289.8157812 254.28882675 292.95440046 256.203125 296.09375 C256.59977859 296.74408203 256.99643219 297.39441406 257.40510559 298.06445312 C261.62229963 304.99539454 265.72500233 311.99203088 269.8125 319 C274.57167035 327.15800074 279.3586912 335.29516724 284.25 343.375 C290.274087 353.33719356 295.97923497 363.4755577 301.65649414 373.63842773 C303.06616183 376.11629718 304.52441389 378.56090951 306 381 C308.89300857 377.59117118 310.43014205 373.85722675 312.01171875 369.73046875 C312.29739212 368.99735977 312.58306549 368.26425079 312.87739563 367.50892639 C313.82257741 365.071626 314.75611738 362.63010467 315.6875 360.1875 C316.00904053 359.34884399 316.33058105 358.51018799 316.66186523 357.64611816 C322.41009969 342.61939899 327.778708 327.46696171 333 312.25 C333.36064545 311.20742035 333.72129089 310.1648407 334.09286499 309.09066772 C335.11381045 306.13152455 336.12169626 303.16828938 337.125 300.203125 C337.43254715 299.31424088 337.7400943 298.42535675 338.05696106 297.50953674 C338.32949203 296.69331345 338.60202301 295.87709015 338.8828125 295.03613281 C339.12402832 294.32547668 339.36524414 293.61482056 339.61376953 292.88262939 C340.20720988 290.78757627 340.20720988 290.78757627 339 288 C336.10314529 286.94583806 336.10314529 286.94583806 332.4609375 286.23828125 C331.76851959 286.08651428 331.07610168 285.93474731 330.36270142 285.77838135 C328.03643283 285.27455297 325.7062805 284.79256809 323.375 284.3125 C322.57288086 284.14313934 321.77076172 283.97377869 320.94433594 283.79928589 C306.3568813 280.72049689 291.69329746 278.08113982 277 275.5625 C275.99684753 275.38933258 274.99369507 275.21616516 273.96014404 275.03775024 C263.32328795 273.21218715 252.79699236 271.48764718 242 271 Z M-251.9296875 302.01953125 C-252.62328369 302.23352066 -253.31687988 302.44751007 -254.03149414 302.66798401 C-256.31480234 303.37617087 -258.59524492 304.09296063 -260.875 304.8125 C-261.65909241 305.05953674 -262.44318481 305.30657349 -263.2510376 305.56109619 C-315.41339248 322.06041848 -371.46603982 344.63408016 -411.72265625 382.84375 C-413.79392875 384.80488623 -415.92749558 386.62123904 -418.125 388.4375 C-432.23066109 400.72586733 -444.21404983 419.01356796 -446.3203125 437.8671875 C-447.14423109 458.57500814 -434.90413179 475.98600132 -421.8125 490.875 C-420.21821275 492.59255688 -418.6130707 494.30007165 -417 496 C-416.52530273 496.51256348 -416.05060547 497.02512695 -415.56152344 497.55322266 C-371.41191837 545.02455991 -302.50135655 572.0407089 -241 588 C-238.74495847 582.1157709 -236.71208275 576.18913055 -234.76953125 570.1953125 C-222.20624858 531.76216145 -208.69028691 493.67396179 -191.671875 456.953125 C-191.33099854 456.20756348 -190.99012207 455.46200195 -190.63891602 454.69384766 C-189.7784069 452.82267644 -188.89630911 450.96147044 -188.01171875 449.1015625 C-186.26728445 443.75376007 -188.02426759 439.47534173 -190.34375 434.546875 C-190.83955566 433.47445557 -191.33536133 432.40203613 -191.84619141 431.29711914 C-192.39194824 430.12656982 -192.93770508 428.95602051 -193.5 427.75 C-211.61614842 388.24865784 -226.41608023 347.42768385 -239.95947266 306.16918945 C-240.63513 304.11130395 -241.31506164 302.05481509 -242 300 C-245.57225755 300 -248.55825874 300.96580496 -251.9296875 302.01953125 Z M390 302 C389.82841873 302.53615433 389.65683746 303.07230865 389.48005676 303.62471008 C378.77606445 337.03979322 367.70396495 370.124355 354.22363281 402.5300293 C353.26295677 404.84379394 352.3109521 407.1609969 351.359375 409.47851562 C348.72127995 415.85532415 346.06102063 422.082548 342.69921875 428.12109375 C338.01752544 436.37764605 338.01752544 436.37764605 337.41162109 445.59423828 C339.26912041 451.69839971 342.28187638 457.19044161 345.31933594 462.77539062 C348.01260355 467.94283377 350.22866892 473.30680137 352.45037842 478.68881226 C353.25968973 480.64846252 354.07767815 482.60431941 354.89697266 484.55981445 C368.58451708 517.35319109 380.78934012 550.95949474 391 585 C448.1852618 567.1791149 508.27338005 545.48531266 552.875 503.97265625 C554.88921659 502.10284121 556.96037089 500.33206572 559.0625 498.5625 C574.24596167 485.23885994 588.60292613 465.52494501 591 445 C591.75667213 425.56298459 581.19105932 410.22391696 569.62890625 395.6953125 C569.09136719 395.13585938 568.55382813 394.57640625 568 394 C567.34 394 566.68 394 566 394 C565.76152344 393.43023438 565.52304688 392.86046875 565.27734375 392.2734375 C538.03835051 343.79302751 446.70579954 316.71633097 396.29370117 302.50024414 C393.73991398 301.85794276 393.73991398 301.85794276 390 302 Z M-160 499 C-171.32931185 525.7499592 -181.20186232 553.0620174 -190.26974487 580.65686035 C-190.71112559 581.99909667 -191.15551269 583.3403485 -191.60305786 584.68054199 C-192.21380759 586.51648213 -192.80850763 588.35773834 -193.40234375 590.19921875 C-193.73741943 591.22877686 -194.07249512 592.25833496 -194.41772461 593.3190918 C-195.02067757 596.09520351 -194.777755 597.34300413 -194 600 C-168.81559179 605.2646723 -143.63635136 610.30224319 -118.1875 614.125 C-117.19723816 614.27470245 -116.20697632 614.42440491 -115.18670654 614.5786438 C-112.38967541 614.99882037 -109.59172513 615.41179892 -106.79296875 615.8203125 C-105.97121658 615.94169083 -105.14946442 616.06306915 -104.30281067 616.18812561 C-100.50155292 616.72879086 -96.85183134 617.14560684 -93 617 C-94.41170165 613.16381629 -96.20095978 609.84365573 -98.3515625 606.37109375 C-99.02985107 605.26805908 -99.70813965 604.16502441 -100.40698242 603.02856445 C-100.94843399 602.15248032 -100.94843399 602.15248032 -101.50082397 601.25869751 C-110.69070423 586.37082705 -119.40907204 571.23911713 -128 556 C-128.60440918 554.93152832 -129.20881836 553.86305664 -129.83154297 552.76220703 C-151.13872848 515.08366152 -151.13872848 515.08366152 -159 499 C-159.33 499 -159.66 499 -160 499 Z M307 504 C306.62939453 504.70680908 306.25878906 505.41361816 305.87695312 506.1418457 C298.19567136 520.746388 290.27283282 535.11861942 281.77563477 549.26635742 C277.66098885 556.13647649 273.71820195 563.06602136 269.9375 570.125 C264.96408332 579.40682336 259.63034321 588.44171368 254.16186523 597.43994141 C250.64529978 603.22753332 247.23047648 609.04745295 244 615 C255.05530151 614.35061165 265.94396244 612.63841476 276.875 610.9375 C278.33785431 610.71148102 278.33785431 610.71148102 279.83026123 610.480896 C311.29135094 605.93946368 311.29135094 605.93946368 342 598 C340.74047782 591.78782729 339.08845702 585.83124463 337.05078125 579.83203125 C336.76113998 578.97018219 336.47149872 578.10833313 336.17308044 577.22036743 C335.22644657 574.41535111 334.27071203 571.613581 333.3125 568.8125 C332.82203186 567.37392136 332.82203186 567.37392136 332.32165527 565.90628052 C327.44003582 551.62785454 322.27226062 537.48051593 316.75 523.4375 C316.43044342 522.61859283 316.11088684 521.79968567 315.78164673 520.95596313 C314.87971528 518.65285995 313.96598633 516.35488702 313.046875 514.05859375 C312.78184677 513.38253082 312.51681854 512.7064679 312.24375916 512.00991821 C310.92656283 508.77098328 309.75248733 506.22549171 307 504 Z M-209 646 C-210.71531901 652.32113304 -212.37388809 658.65535019 -214 665 C-214.21350098 665.82338867 -214.42700195 666.64677734 -214.64697266 667.49511719 C-217.7673097 679.69747053 -219.89188353 691.983115 -221.6875 704.4375 C-221.7901416 705.13915283 -221.8927832 705.84080566 -221.99853516 706.5637207 C-224.98066014 727.15194543 -226.35557245 747.62966661 -226.31567383 768.43310547 C-226.31250841 771.86588212 -226.33612028 775.29779712 -226.36132812 778.73046875 C-226.46519012 814.93114024 -222.20032451 856.50766638 -196.09765625 884.00390625 C-184.27962225 895.19357853 -168.56003478 897.04525145 -153 897 C-86.79614213 894.62159856 -24.28123447 846.75085537 22.76171875 804.01953125 C24.87977448 802.10847573 27.02714567 800.23794417 29.1875 798.375 C32.96848935 795.08684837 36.50742009 791.59080872 40 788 C36.3852717 782.8517506 32.48830907 778.36642015 27.98828125 773.9765625 C24.80359483 770.81064633 21.91360363 767.41420349 19 764 C18.11741203 762.96985967 17.23458026 761.9399282 16.3515625 760.91015625 C14.84407602 759.15188457 13.33710266 757.39318752 11.83178711 755.63305664 C8.56474176 751.81501649 5.27792239 748.0150445 1.9777832 744.22558594 C-3.80603487 737.58110589 -9.47816458 730.86527047 -15 724 C-15.65226563 723.19433594 -16.30453125 722.38867188 -16.9765625 721.55859375 C-21.88541408 715.46653293 -26.66993174 709.28128746 -31.42041016 703.06542969 C-32.57773692 701.55213997 -33.73646479 700.03992151 -34.89599609 698.52832031 C-36.99536984 695.79139596 -39.09169001 693.05215401 -41.1875 690.3125 C-42.18523437 689.01252075 -42.18523437 689.01252075 -43.203125 687.6862793 C-43.85152344 686.83718994 -44.49992188 685.98810059 -45.16796875 685.11328125 C-45.81813965 684.27619629 -46.46831055 683.43911133 -47.13818359 682.57666016 C-49 680 -49 680 -50.55322266 677.20068359 C-52.79022123 673.30011425 -54.40619876 670.56187912 -58.75830078 669.02758789 C-61.76894631 668.58487235 -64.7442845 668.31773724 -67.78192139 668.15112305 C-72.06323757 667.85942665 -76.31107907 667.24621169 -80.56640625 666.703125 C-82.51570643 666.46634866 -84.46517439 666.23095014 -86.41479492 665.99682617 C-119.61574679 661.97731219 -152.33928216 656.74917932 -185.0925293 649.9831543 C-186.01799057 649.79309814 -186.94345184 649.60304199 -187.8969574 649.40722656 C-189.62002859 649.05263553 -191.34239766 648.69460579 -193.06385803 648.33227539 C-198.36475768 647.24157299 -203.61306447 646.52894192 -209 646 Z M347.65429688 645.80688477 C346.36363815 646.07369049 346.36363815 646.07369049 345.04690552 646.34588623 C344.1136142 646.54240784 343.18032288 646.73892944 342.21875 646.94140625 C340.18159407 647.36164769 338.14431636 647.78129914 336.10693359 648.20043945 C334.49319855 648.53381821 334.49319855 648.53381821 332.84686279 648.87393188 C298.22116486 655.99766328 263.47914584 661.56845689 228.38261414 665.77816772 C226.87570313 665.95929169 225.36917999 666.14367932 223.8631134 666.33169556 C220.94010025 666.69022853 218.05290598 666.99817288 215.10864258 667.09985352 C212.1106466 667.20664681 209.73114056 667.3976405 207.36303711 669.34863281 C205.75535008 671.21248264 204.40972588 673.12794235 203.0625 675.1875 C202.55581787 675.91074463 202.04913574 676.63398926 201.52709961 677.37915039 C200.48962458 678.86392782 199.4635717 680.35675318 198.44921875 681.85742188 C196.37515369 684.92379569 194.21875293 687.92868296 192.0625 690.9375 C191.66482422 691.49848389 191.26714844 692.05946777 190.85742188 692.63745117 C177.21925737 711.82219883 162.3323251 730.24128638 147.0859375 748.16210938 C144.17412087 751.59040745 141.32236523 755.05974315 138.5 758.5625 C134.38129488 763.62599769 130.01597652 768.4182016 125.58203125 773.203125 C120.86369742 778.31405847 116.28351342 783.51710283 112 789 C113.32210335 791.95583107 114.72041916 793.93870379 117.08984375 796.13671875 C117.70359863 796.7093042 118.31735352 797.28188965 118.94970703 797.87182617 C119.60567871 798.47099854 120.26165039 799.0701709 120.9375 799.6875 C121.61409668 800.31180908 122.29069336 800.93611816 122.98779297 801.5793457 C127.62564015 805.82695509 132.37632689 809.8931708 137.29296875 813.81640625 C139.69717499 815.7557299 142.04008341 817.75103301 144.37353516 819.77441406 C153.53198747 827.68333667 163.24176445 834.8537491 173 842 C174.09900635 842.80703369 174.09900635 842.80703369 175.22021484 843.63037109 C214.79566227 872.5519501 266.02955321 904.32463594 317.234375 897.71142578 C330.54777458 895.14983418 340.96675705 886.51940466 349 876 C367.03961487 848.89234342 373.04523746 813.6146684 373.203125 781.515625 C373.21371445 780.06724998 373.21371445 780.06724998 373.22451782 778.58961487 C373.34885068 756.53731685 373.07718123 734.87212149 370 713 C369.90054077 712.28644348 369.80108154 711.57288696 369.6986084 710.83770752 C366.0857473 676.99339776 366.0857473 676.99339776 356 645 C352.89480241 645 350.62516792 645.18403969 347.65429688 645.80688477 Z M127.57095337 673.03796387 C126.51935028 673.04637802 125.46774719 673.05479218 124.38427734 673.0634613 C123.24635742 673.07281204 122.1084375 673.08216278 120.93603516 673.09179688 C119.72571625 673.10155045 118.51539734 673.11130402 117.2684021 673.12135315 C113.96307624 673.14803687 110.65775225 673.17493479 107.35242891 673.20192909 C103.89310628 673.23013007 100.43378142 673.2580556 96.97445679 673.28601074 C90.42978426 673.33894054 83.88511377 673.39211693 77.34044397 673.4453826 C69.88700195 673.50603251 62.43355771 673.56640648 54.98011327 673.62675762 C39.65340635 673.75086538 24.32670226 673.87531851 9 674 C12.11476567 678.72086296 12.11476567 678.72086296 15.48046875 683.26171875 C15.91762207 683.81754639 16.35477539 684.37337402 16.80517578 684.94604492 C17.26134277 685.5207251 17.71750977 686.09540527 18.1875 686.6875 C18.91042236 687.60269409 18.91042236 687.60269409 19.64794922 688.53637695 C23.32956454 693.18482597 27.06216364 697.78996772 30.83203125 702.3671875 C32.27314373 704.11729526 33.70809403 705.87249612 35.13671875 707.6328125 C43.71035088 718.19207936 52.54308794 728.50796729 61.74609375 738.5234375 C64.37262234 741.40943252 66.91430674 744.36068538 69.4296875 747.34375 C71.14198339 749.14975363 72.97380392 750.5614885 75 752 C80.35187765 746.91061226 85.10224328 741.53508914 89.72265625 735.77734375 C91.86490351 733.16475747 94.08640571 730.67190984 96.375 728.1875 C100.35508466 723.81491564 104.01347497 719.25830709 107.63452148 714.59008789 C111.16511804 710.04188102 114.78508327 705.57572058 118.4375 701.125 C122.96703866 695.58324741 127.38104693 689.9670181 131.6875 684.25 C132.4453479 683.24864014 132.4453479 683.24864014 133.21850586 682.22705078 C133.68651611 681.60040527 134.15452637 680.97375977 134.63671875 680.328125 C135.25099731 679.50683105 135.25099731 679.50683105 135.87768555 678.66894531 C137.10133957 676.8493023 138.05900525 674.97848796 139 673 C135.19005856 672.99660238 131.38076614 673.00705261 127.57095337 673.03796387 Z " fill="#00D8FE" transform="translate(517,635)"/>
<path d="M0 0 C1.02625876 -0.00322445 2.05251752 -0.00644889 3.10987502 -0.00977105 C4.25125637 -0.00822245 5.39263772 -0.00667385 6.56860638 -0.00507832 C7.77068711 -0.00734387 8.97276785 -0.00960943 10.21127528 -0.01194364 C13.56404696 -0.01720278 16.91676527 -0.01792439 20.26953733 -0.01674926 C23.88086325 -0.01654597 27.49218105 -0.02205788 31.10350323 -0.02680683 C38.19210203 -0.03513602 45.28069253 -0.03786289 52.36929581 -0.03841921 C58.14372833 -0.03889428 63.91815811 -0.04094866 69.69258976 -0.04411983 C86.09076545 -0.05294062 102.48893458 -0.0575382 118.88711265 -0.05678936 C119.77230267 -0.0567494 120.65749269 -0.05670945 121.56950665 -0.05666828 C122.45579027 -0.0566274 123.34207389 -0.05658652 124.25521459 -0.0565444 C138.54990292 -0.05613983 152.84456465 -0.0656576 167.13924531 -0.07980665 C181.84313541 -0.09424447 196.54701263 -0.10107246 211.25090998 -0.10021287 C219.49465598 -0.09988294 227.73837428 -0.10253821 235.98211384 -0.11339092 C243.01869256 -0.12259484 250.0552311 -0.12459238 257.0918133 -0.1178815 C260.66991294 -0.11466232 264.24793599 -0.11438718 267.82602787 -0.12323475 C332.11398524 -0.27175257 397.0634274 10.83916683 445.98478985 56.0153532 C448.06342344 57.92459051 450.18977855 59.74840089 452.3480711 61.56613445 C490.50180594 94.97932508 509.34479436 148.92943541 513.2855711 198.12863445 C513.42778695 201.2360093 513.47140905 204.33858502 513.4886961 207.44894695 C513.49571041 208.3023164 513.50272472 209.15568584 513.50995159 210.03491497 C513.52735124 212.77454255 513.53380422 215.51395364 513.5355711 218.25363445 C513.53658321 219.66074688 513.53658321 219.66074688 513.53761578 221.09628582 C513.52101913 235.62998441 513.00127524 249.81238311 510.2855711 264.12863445 C510.0361375 265.47731609 510.0361375 265.47731609 509.78166485 266.85324383 C500.75823092 314.0758814 477.29864337 357.14222684 439.2855711 387.12863445 C437.87598125 388.24625164 437.87598125 388.24625164 436.43791485 389.38644695 C409.54415813 410.1630504 376.85328622 423.26470354 343.4730711 429.00363445 C342.77480206 429.1239201 342.07653301 429.24420574 341.3571043 429.36813641 C336.29886496 430.15405372 331.40251332 430.21884499 326.2855711 430.12863445 C329.88516902 436.90386156 333.93060061 443.27438768 338.2230711 449.62863445 C339.6581148 451.76785818 341.09300198 453.90718691 342.5277586 456.0466032 C343.30339446 457.20079127 344.07911242 458.35492418 344.85490704 459.50900555 C349.20048669 465.97666557 353.52417385 472.45896805 357.8480711 478.94113445 C358.30797436 479.63031963 358.76787762 480.31950481 359.24171734 481.02957439 C367.04949683 492.73285436 374.78912734 504.47991261 382.50496197 516.24396038 C388.64541881 525.60529204 394.8121105 534.94718934 401.0355711 544.25363445 C408.67389248 555.67596548 416.2350236 567.1481378 423.7855711 578.62863445 C431.253674 589.98352332 438.73062609 601.33129632 446.2855711 612.62863445 C453.60426291 623.57644371 460.85854404 634.56584422 468.0980711 645.56613445 C468.66169353 646.4224345 469.22531597 647.27873455 469.80601788 648.16098309 C475.26802103 656.4596871 480.72792963 664.75976817 486.18645 673.06076336 C489.46021579 678.03910709 492.73554608 683.01641877 496.01173687 687.99316692 C497.26039431 689.89062614 498.50847818 691.78846296 499.75593853 693.6867094 C501.50657588 696.35058586 503.25878377 699.01341765 505.0121336 701.67550945 C505.55679775 702.50285091 506.10146191 703.33019238 506.66263103 704.18260479 C510.59499979 710.13503242 514.64098849 715.99608474 518.78703594 721.80148602 C520.2855711 724.12863445 520.2855711 724.12863445 520.2855711 726.12863445 C506.58614741 726.3604263 492.88719076 726.53806376 479.18620491 726.64675617 C472.82400938 726.69892661 466.46315613 726.76967468 460.10173321 726.88302898 C453.96135642 726.99175857 447.82226971 727.05149173 441.68100452 727.07740688 C439.33927948 727.09587182 436.99762441 727.13193207 434.65644932 727.18593502 C416.29917323 727.59249867 416.29917323 727.59249867 411.36920452 724.00847149 C409.52254759 721.41651502 408.41418264 719.09122259 407.2855711 716.12863445 C406.25669333 714.47140791 405.1988431 712.831511 404.10197735 711.2184782 C403.01515352 709.50241431 401.9306085 707.78490556 400.8480711 706.06613445 C399.61793712 704.12321412 398.3874548 702.1805143 397.15666485 700.23800945 C396.52228497 699.23576336 395.88790508 698.23351727 395.23430157 697.20090008 C391.97518548 692.06274963 388.69273974 686.93957841 385.4105711 681.81613445 C384.74501202 680.77666668 384.07945293 679.73719891 383.3937254 678.66623211 C381.35795366 675.48685367 379.32181611 672.3077098 377.2855711 669.12863445 C369.03005339 656.23975681 360.78193191 643.34644498 352.56975079 630.42990398 C345.4996395 619.31374087 338.39113546 608.22215431 331.2855711 597.12863445 C323.03005339 584.23975681 314.78193191 571.34644498 306.56975079 558.42990398 C299.4996395 547.31374087 292.39113546 536.22215431 285.2855711 525.12863445 C277.03520432 512.24779866 268.79214114 499.36258632 260.58513165 486.45407391 C256.05930758 479.33820468 251.51913323 472.23158975 246.9730711 465.12863445 C246.02270977 463.64363445 246.02270977 463.64363445 245.05314922 462.12863445 C243.82492623 460.21041286 242.56829717 458.3100053 241.28047466 456.43127728 C239.2855711 453.12863445 239.2855711 453.12863445 238.08327007 449.52984905 C236.21169929 444.94699117 234.56400914 441.77456437 230.2855711 439.12863445 C220.59927327 436.52233506 209.94719191 437.3232027 199.99172497 437.50807476 C196.35319503 437.56275543 192.71662219 437.54103369 189.07768536 437.52585125 C178.45920914 437.52556834 167.8410112 437.64693297 157.2230711 437.75363445 C133.4836961 437.87738445 109.7443211 438.00113445 85.2855711 438.12863445 C85.2855711 533.16863445 85.2855711 628.20863445 85.2855711 726.12863445 C55.2555711 726.12863445 25.2255711 726.12863445 -5.7144289 726.12863445 C-5.72253382 692.98562166 -5.72253382 692.98562166 -5.7255373 680.13029766 C-5.7257243 679.33006382 -5.72591129 678.52982997 -5.72610395 677.70534661 C-5.73846209 624.74129456 -5.74963508 571.77724255 -5.75677204 518.81318951 C-5.7569101 517.79126785 -5.75704816 516.76934618 -5.7571904 515.7164572 C-5.76018294 493.5101561 -5.76295317 471.30385498 -5.76549423 449.09755382 C-5.76674163 438.20841859 -5.76803817 427.31928335 -5.76936054 416.43014812 C-5.7694913 415.34651793 -5.76962206 414.26288774 -5.76975678 413.14642027 C-5.77402213 377.98959735 -5.78153641 342.83277603 -5.79072612 307.67595408 C-5.80014851 271.56359505 -5.80631197 235.4512369 -5.80834389 199.33887666 C-5.80863207 194.24440665 -5.80895771 189.14993665 -5.80930614 184.05546665 C-5.80937357 183.05274998 -5.80944099 182.0500333 -5.80951046 181.01693127 C-5.81069459 164.84175033 -5.81533915 148.66657213 -5.82126094 132.49139231 C-5.8271335 116.2506067 -5.82940058 100.00982382 -5.82793028 83.76903719 C-5.82716666 74.10670073 -5.8292244 64.4443742 -5.83522644 54.78203952 C-5.83895653 48.34012172 -5.83910663 41.89821047 -5.83626072 35.45629222 C-5.83474063 31.77777643 -5.8348575 28.09927952 -5.83931208 24.42076571 C-5.84405807 20.47192709 -5.84119551 16.52311622 -5.83747673 12.57427597 C-5.84010374 11.41375254 -5.84273076 10.25322911 -5.84543738 9.0575383 C-5.84319008 8.01606354 -5.84094279 6.97458877 -5.8386274 5.90155417 C-5.83878338 4.99702253 -5.83893936 4.09249089 -5.83910007 3.1605492 C-5.59893636 -0.75368524 -3.39592369 0.00267961 0 0 Z M85.2855711 82.12863445 C85.2855711 173.20863445 85.2855711 264.28863445 85.2855711 358.12863445 C134.8474461 358.22144695 134.8474461 358.22144695 185.4105711 358.31613445 C201.00717999 358.35710247 201.00717999 358.35710247 216.91887188 358.39889812 C226.31363053 358.40893706 226.31363053 358.40893706 235.70839214 358.41496563 C239.86330849 358.41773845 244.01810755 358.42889153 248.17299175 358.44536114 C253.49996014 358.46619165 258.82676202 358.4720619 264.15376735 358.46785128 C266.09179648 358.46872958 268.02983244 358.47452674 269.96782613 358.48627985 C312.25361143 358.73046799 351.37121352 346.94585074 382.4105711 317.44113445 C397.58486347 301.64392367 408.04510423 283.05542289 414.2855711 262.12863445 C414.48521465 261.46460613 414.68485821 260.80057781 414.89055157 260.11642742 C425.34410971 224.13325134 421.2350312 182.82515273 403.4496336 149.8434782 C397.6562376 139.6341557 390.38630847 130.59619766 382.2855711 122.12863445 C381.72611797 121.51761883 381.16666485 120.9066032 380.5902586 120.27707195 C358.88972684 97.31853835 322.38884066 83.33937807 291.09431255 82.03747451 C288.83121147 82.00413532 286.57012528 81.99995927 284.30679607 82.00837994 C283.45177502 82.00752392 282.59675396 82.0066679 281.71582317 82.00578594 C278.86722451 82.00414244 276.0186858 82.00963523 273.17009258 82.01510906 C271.08643661 82.01541565 269.00278053 82.01528147 266.9191246 82.0147438 C261.35461139 82.01451866 255.79011981 82.02030173 250.22561169 82.02735424 C244.99824234 82.03306201 239.77087818 82.03331806 234.54350567 82.03402996 C219.27002463 82.03927094 203.99654759 82.05323215 188.7230711 82.06613445 C137.5215086 82.09707195 137.5215086 82.09707195 85.2855711 82.12863445 Z " fill="#00D8FE" transform="translate(1308.7144289016724,707.8713655471802)"/>
<path d="M0 0 C1.42481689 0.26538574 1.42481689 0.26538574 2.87841797 0.53613281 C37.13339 7.07648856 69.57602974 19.54311087 98 40 C98.55880859 40.40186523 99.11761719 40.80373047 99.69335938 41.21777344 C108.37080467 47.53002995 116.28185188 54.55717227 124 62 C124.55751953 62.53560547 125.11503906 63.07121094 125.68945312 63.62304688 C180.15461233 116.21225341 204.03400943 193.78385593 206 268 C206 278.56 206 289.12 206 300 C65.75 300 -74.5 300 -219 300 C-216.89199992 318.61662637 -216.89199992 318.61662637 -213.25 336.8125 C-212.99250977 337.8447168 -212.73501953 338.87693359 -212.46972656 339.94042969 C-204.66266478 370.24082673 -190.32380958 397.32540381 -170 421 C-169.3188916 421.8029248 -169.3188916 421.8029248 -168.62402344 422.62207031 C-162.6819611 429.591267 -156.25229161 435.42592463 -149 441 C-148.06414063 441.73992187 -147.12828125 442.47984375 -146.1640625 443.2421875 C-105.95237034 474.39816346 -54.3134645 484.61396005 -4.375 478.875 C47.45367394 472.1948598 91.93926109 450.26323779 130 415 C138.88774487 423.59044355 145.84738496 434.07070294 153.01025391 444.1027832 C155.78479555 447.97899319 158.60048798 451.80650442 161.53125 455.56640625 C162.09279785 456.29174561 162.6543457 457.01708496 163.23291016 457.7644043 C164.30526499 459.14271347 165.38788885 460.51311103 166.48193359 461.87426758 C170.05768582 466.48777184 170.05768582 466.48777184 169.76879883 469.05297852 C166.11213328 478.31366692 150.88903026 487.09238167 143 493 C142.3596582 493.48082031 141.71931641 493.96164062 141.05957031 494.45703125 C103.73942103 522.23186989 59.78141934 539.55640232 14 547 C12.97688721 547.16991455 12.97688721 547.16991455 11.93310547 547.34326172 C-48.98892528 557.06437225 -116.84646528 546.47879863 -171 517 C-171.60344238 516.67290039 -172.20688477 516.34580078 -172.82861328 516.00878906 C-194.9107846 503.94042031 -214.0874993 488.59848376 -232 471 C-232.56468994 470.47817139 -233.12937988 469.95634277 -233.71118164 469.41870117 C-235 468 -235 468 -235 466 C-235.66 466 -236.32 466 -237 466 C-240.25390531 462.55640515 -243.09114007 458.73701246 -246 455 C-246.70987061 454.09241943 -246.70987061 454.09241943 -247.43408203 453.16650391 C-280.71732234 410.39264066 -299.32189282 359.74927511 -305 306 C-305.0942627 305.15969238 -305.18852539 304.31938477 -305.28564453 303.45361328 C-306.29175878 293.28627988 -306.24366494 283.08207235 -306.25 272.875 C-306.25067474 271.89679291 -306.25134949 270.91858582 -306.25204468 269.91073608 C-306.23509453 254.40990849 -305.63784107 239.30917238 -303 224 C-302.82307617 222.96472168 -302.64615234 221.92944336 -302.46386719 220.86279297 C-293.91130733 172.30227392 -274.89584671 125.9684386 -243 88 C-242.56220215 87.47341797 -242.1244043 86.94683594 -241.67333984 86.40429688 C-232.5636663 75.46652303 -223.01605217 65.0686738 -212 56 C-211.01902344 55.19175781 -210.03804687 54.38351562 -209.02734375 53.55078125 C-195.02759268 42.20341935 -179.96204565 32.35581699 -164 24 C-163.32018066 23.63841797 -162.64036133 23.27683594 -161.93994141 22.90429688 C-140.2665266 11.51784685 -116.06089097 4.17660749 -92 0 C-90.71101807 -0.24121582 -90.71101807 -0.24121582 -89.39599609 -0.48730469 C-60.94831501 -5.66349127 -28.38317724 -5.41180256 0 0 Z M-168.65844727 114.81469727 C-185.34840316 133.70825069 -198.12531136 154.37475683 -207 178 C-207.27537598 178.721875 -207.55075195 179.44375 -207.83447266 180.1875 C-214.90242594 199.00129247 -219 218.92181615 -219 239 C-105.48 239 8.04 239 125 239 C122.53508025 209.42096301 117.95487684 183.49692606 105 157 C104.67773438 156.33629395 104.35546875 155.67258789 104.0234375 154.98876953 C99.25955301 145.3036568 93.5543232 136.56358215 87 128 C86.28070312 127.05511719 85.56140625 126.11023437 84.8203125 125.13671875 C71.08970442 107.75970376 54.53600105 94.33984285 35 84 C34.07574219 83.48050781 33.15148438 82.96101562 32.19921875 82.42578125 C-30.74614293 48.50473061 -120.33829038 61.94207455 -168.65844727 114.81469727 Z " fill="#00D8FE" transform="translate(2215,899)"/>
<path d="M0 0 C1.61399185 0.00323273 1.61399185 0.00323273 3.2605896 0.00653076 C55.39058952 0.17379228 109.28177909 10.62402926 149.9375 45.3125 C150.46182617 45.75706543 150.98615234 46.20163086 151.52636719 46.65966797 C184.12995275 74.5983072 200.17483381 115.19641812 203.9375 157.3125 C204.18998896 162.77808238 204.20086359 168.23144569 204.17800903 173.70080566 C204.1788837 175.28616419 204.18063945 176.87152242 204.18318737 178.45687914 C204.18761368 182.76476718 204.17972305 187.07255388 204.16963124 191.38042903 C204.16093018 196.04413113 204.16392158 200.70782831 204.16543579 205.37153625 C204.16648046 213.43564693 204.16024775 221.49972503 204.14896011 229.56382751 C204.13265113 241.22291661 204.1274916 252.88199009 204.12498413 264.54108936 C204.12061547 283.4608328 204.10732893 302.38055892 204.08837891 321.30029297 C204.0699986 339.67040928 204.05585264 358.04052087 204.04736328 376.41064453 C204.04683783 377.54448627 204.04631239 378.67832801 204.04577102 379.84652859 C204.04316079 385.53512956 204.04063341 391.22373056 204.03814721 396.91233158 C204.01744054 444.04573644 203.98058475 491.17910924 203.9375 538.3125 C176.8775 538.3125 149.8175 538.3125 121.9375 538.3125 C121.6075 519.5025 121.2775 500.6925 120.9375 481.3125 C115.6575 486.5925 110.3775 491.8725 104.9375 497.3125 C100.32787114 501.12045428 95.76192423 504.80718764 90.9375 508.3125 C89.89335937 509.07820313 88.84921875 509.84390625 87.7734375 510.6328125 C58.93059408 531.17349751 26.77057859 544.04366905 -8.0625 550.3125 C-9.34382813 550.54582031 -10.62515625 550.77914062 -11.9453125 551.01953125 C-66.3804992 559.48316766 -124.63671182 548.2743667 -169.53515625 515.83984375 C-207.42302757 487.71959061 -229.04765139 448.49848015 -236.37939453 402.31640625 C-237.43012866 394.45187749 -237.30633377 386.48286938 -237.3125 378.5625 C-237.31317474 377.78382568 -237.31384949 377.00515137 -237.31454468 376.20288086 C-237.25759095 334.74908145 -224.69546273 294.15352912 -196.015625 263.41796875 C-194.42189276 261.69992539 -192.94791074 259.96384665 -191.5 258.125 C-188.31225489 254.44683257 -184.82017921 251.39697935 -181.0625 248.3125 C-180.14726562 247.5596875 -179.23203125 246.806875 -178.2890625 246.03125 C-142.07152412 217.20318419 -97.12471332 203.78765366 -51.1875 204 C-50.34110962 204.00215515 -49.49471924 204.0043103 -48.62268066 204.00653076 C3.57621808 204.21834315 56.1187951 217.52251033 96.9375 251.3125 C97.51483887 251.7883252 98.09217773 252.26415039 98.68701172 252.75439453 C100.50818917 254.2639319 102.31893804 255.78491765 104.125 257.3125 C104.65899414 257.76230225 105.19298828 258.21210449 105.74316406 258.67553711 C109.3771242 261.80160125 112.77910844 265.11866074 116.16137695 268.515625 C117.05717972 269.41442383 117.95298248 270.31322266 118.87593079 271.23925781 C119.55624863 271.92342773 120.23656647 272.60759766 120.9375 273.3125 C120.98404354 260.66357966 121.01948038 248.01468004 121.04112434 235.36569118 C121.05151752 229.49091482 121.06559427 223.61619748 121.08837891 217.74145508 C121.11026765 212.06152334 121.12210212 206.38164802 121.12725449 200.70167732 C121.13092167 198.5453916 121.13808188 196.38910862 121.14896011 194.23284721 C121.28941435 165.21198141 117.04023556 138.80063718 98.9375 115.3125 C98.36257813 114.56484375 97.78765625 113.8171875 97.1953125 113.046875 C76.37757211 87.74684601 41.89107885 76.37821217 10.4140625 72.75 C3.55961911 72.10796454 -3.30766647 72.06849351 -10.1875 72.0625 C-10.88847809 72.06182526 -11.58945618 72.06115051 -12.31167603 72.06045532 C-58.94708092 72.13120419 -103.88845155 86.47142756 -140.0625 116.3125 C-140.60793457 116.7564209 -141.15336914 117.2003418 -141.71533203 117.65771484 C-151.803294 125.90304706 -160.97230418 134.99086559 -170.0625 144.3125 C-174.47805215 140.25212938 -177.61990465 135.76910301 -180.875 130.75 C-181.67091553 129.53920776 -181.67091553 129.53920776 -182.48291016 128.30395508 C-183.54013756 126.69562661 -184.59521235 125.08588072 -185.64794922 123.47460938 C-187.39443301 120.80514779 -189.16358362 118.15129618 -190.9375 115.5 C-196.97916667 106.4375 -203.02083333 97.375 -209.0625 88.3125 C-205.80104981 83.7765797 -202.63519898 79.59736533 -198.375 75.9375 C-195.76944579 73.67447802 -193.17897935 71.4230696 -190.67578125 69.046875 C-176.72632353 55.82007364 -160.78792989 44.72622979 -144.0625 35.3125 C-143.19286621 34.82152832 -142.32323242 34.33055664 -141.42724609 33.82470703 C-115.23439052 19.21028947 -87.22866132 9.86342265 -57.75 4.5 C-56.67911133 4.3050293 -55.60822266 4.11005859 -54.50488281 3.90917969 C-36.36759 0.81256872 -18.37385405 -0.06646183 0 0 Z M-120.0625 300.3125 C-120.81144531 301.01246094 -121.56039062 301.71242188 -122.33203125 302.43359375 C-127.37726929 307.2280169 -131.28503375 312.48109229 -135.0625 318.3125 C-135.57683594 319.08207031 -136.09117187 319.85164063 -136.62109375 320.64453125 C-145.83043926 335.06851916 -151.47905532 353.1981227 -152.0625 370.3125 C-152.1140625 371.611875 -152.165625 372.91125 -152.21875 374.25 C-153.01933252 404.21371103 -143.67802226 430.6678941 -124.0625 453.3125 C-123.41925781 454.05757812 -122.77601563 454.80265625 -122.11328125 455.5703125 C-100.74002844 478.47353786 -66.99607507 491.08763223 -36.17041016 492.48950195 C-34.81422475 492.51559323 -33.45791598 492.53578682 -32.1015625 492.55078125 C-31.3619931 492.5605751 -30.62242371 492.57036896 -29.86044312 492.58045959 C21.6817484 493.12126257 70.0208525 479.60817558 107.9375 443.3125 C108.56914062 442.72082031 109.20078125 442.12914062 109.8515625 441.51953125 C110.98392726 440.42956782 112.0915243 439.31286099 113.16416931 438.16407776 C114.9375 436.3125 114.9375 436.3125 116.75831604 434.78184509 C123.46802898 428.16139837 122.8760621 420.28814608 122.93577576 411.45521545 C122.92656335 409.3464364 122.91537093 407.23766519 122.90234375 405.12890625 C122.90960763 402.94611408 122.91879931 400.76332756 122.92982483 398.58055115 C122.94462147 394.0151896 122.93372702 389.45078654 122.9050293 384.88549805 C122.87076112 379.0531973 122.90408733 373.22357494 122.95723629 367.3914957 C122.99014186 362.88642361 122.98512974 358.38198436 122.9690876 353.87684441 C122.96627931 351.72758073 122.97549975 349.57826455 122.99729729 347.42910957 C123.51340918 333.95716917 123.51340918 333.95716917 118.02954102 322.11694336 C116.69900634 320.81371292 115.33880265 319.53931824 113.9375 318.3125 C113.08439974 317.26580489 112.24844772 316.20468258 111.4375 315.125 C108.19964341 311.48241134 104.69143181 308.4130576 100.9375 305.3125 C99.9371875 304.47460938 98.936875 303.63671875 97.90625 302.7734375 C40.21797053 255.36154413 -64.17518802 244.92641952 -120.0625 300.3125 Z " fill="#00D8FE" transform="translate(2726.0625,895.6875)"/>
<path d="M0 0 C0.98373596 0.00182281 1.96747192 0.00364563 2.98101807 0.00552368 C26.58408877 0.07894993 49.00176854 2.57194851 71.9375 8.3125 C72.68225586 8.49506348 73.42701172 8.67762695 74.19433594 8.86572266 C107.35836865 17.1759141 136.68384232 34.64143164 161.9375 57.3125 C162.4830957 57.79638184 163.02869141 58.28026367 163.59082031 58.77880859 C169.01452726 63.59214613 174.35312442 68.41603837 179 74.00390625 C180.65007926 75.97002892 182.34004088 77.87520731 184.0625 79.77734375 C185.18766904 81.03891176 186.31266784 82.30063162 187.4375 83.5625 C187.99115234 84.16553955 188.54480469 84.7685791 189.11523438 85.38989258 C190.65625 87.140625 190.65625 87.140625 192.9375 90.3125 C192.47111884 94.23396529 190.77817954 95.67205563 187.8125 98.1875 C186.45898438 99.363125 186.45898438 99.363125 185.078125 100.5625 C184.32692383 101.21412109 184.32692383 101.21412109 183.56054688 101.87890625 C180.50009503 104.58212124 177.53836823 107.39194151 174.5625 110.1875 C169.04932182 115.34988979 163.50666875 120.4769719 157.9296875 125.5703125 C155.75880021 127.55508219 153.59955689 129.55186721 151.4453125 131.5546875 C150.86023926 132.09786621 150.27516602 132.64104492 149.67236328 133.20068359 C148.54689291 134.24632888 147.42278489 135.29344317 146.30029297 136.34228516 C143.6171802 138.83272085 140.92174041 141.18909817 137.9375 143.3125 C137.34324219 142.51328125 136.74898437 141.7140625 136.13671875 140.890625 C109.47421085 105.40416148 73.50006052 82.10487612 29.20703125 75.77978516 C24.97969214 75.26791968 20.79422677 75.11843657 16.5390625 75.07421875 C15.75496506 75.0644249 14.97086761 75.05463104 14.16300964 75.04454041 C-35.82292799 74.54955694 -81.99508019 86.42329466 -118.68603516 121.98730469 C-119.84924126 123.10718456 -121.03726283 124.20120269 -122.23046875 125.2890625 C-132.74006232 135.12690885 -140.94128251 147.89909351 -148.0625 160.3125 C-148.70574219 161.40046875 -149.34898437 162.4884375 -150.01171875 163.609375 C-167.11222443 193.3773897 -175.27466293 230.19572954 -176.0625 264.3125 C-176.0931958 265.5799707 -176.0931958 265.5799707 -176.12451172 266.87304688 C-177.23674449 320.14991566 -165.86707611 376.99401917 -130.0625 418.3125 C-129.35609375 419.12847656 -128.6496875 419.94445313 -127.921875 420.78515625 C-125.67170254 423.3303688 -123.37964546 425.82817794 -121.0625 428.3125 C-120.31484375 429.12589844 -119.5671875 429.93929688 -118.796875 430.77734375 C-93.72536477 457.05261854 -58.32313942 470.88438694 -23.0625 476.3125 C-22.40000244 476.4170752 -21.73750488 476.52165039 -21.05493164 476.62939453 C-13.01279495 477.71200848 -4.85006044 477.55546537 3.25 477.5625 C4.05263275 477.56350708 4.8552655 477.56451416 5.68222046 477.56555176 C17.98890717 477.55510844 29.88999129 477.03722017 41.9375 474.3125 C42.59862793 474.16796387 43.25975586 474.02342773 43.94091797 473.87451172 C64.60374126 469.22962015 84.32360717 460.5111722 100.9375 447.3125 C102.23494141 446.31863281 102.23494141 446.31863281 103.55859375 445.3046875 C116.42177893 435.18589742 127.18960907 423.40252497 136.9375 410.3125 C140.85079453 410.85895104 142.52468985 412.61185613 145.1875 415.4375 C148.57545561 419.01092763 152.12695262 422.2594364 155.84521484 425.47851562 C159.18241223 428.40372295 162.40002272 431.45226354 165.625 434.5 C167.02180284 435.81415567 168.41894326 437.1279526 169.81640625 438.44140625 C170.85112061 439.41424561 170.85112061 439.41424561 171.90673828 440.40673828 C174.94853537 443.26130285 178.00163612 446.1034001 181.0625 448.9375 C181.56998779 449.40953857 182.07747559 449.88157715 182.6003418 450.36791992 C185.95611888 453.46954747 189.40880539 456.41205963 192.9375 459.3125 C190.17178937 477.89461831 158.83308294 499.27611559 144.6875 509.8125 C137.38932266 515.1599825 129.79850822 519.8458284 121.9375 524.3125 C121.36128906 524.64846191 120.78507812 524.98442383 120.19140625 525.33056641 C85.31979784 545.60314828 43.03966821 554.58938496 2.9375 553.3125 C2.12587402 553.29316406 1.31424805 553.27382812 0.47802734 553.25390625 C-73.54628161 551.42315411 -139.87820172 524.73304301 -191.3515625 471.13720703 C-195.17726275 467.05711519 -198.65005162 462.74349285 -202.0625 458.3125 C-202.82304687 457.38050781 -203.58359375 456.44851563 -204.3671875 455.48828125 C-244.70841088 405.1584163 -262.26942216 339.39495162 -262.3125 275.75 C-262.31317474 274.84821014 -262.31384949 273.94642029 -262.31454468 273.01730347 C-262.27542449 239.90809468 -257.2967681 207.83381995 -247.0625 176.3125 C-246.79743652 175.49265625 -246.53237305 174.6728125 -246.25927734 173.828125 C-235.97949509 142.68586303 -219.48297288 113.13807578 -198.0625 88.3125 C-197.41667969 87.55582031 -196.77085937 86.79914063 -196.10546875 86.01953125 C-185.08465329 73.43936523 -173.25349004 61.43955218 -159.7421875 51.54345703 C-158.0654241 50.31464293 -156.40762847 49.06305492 -154.75 47.80859375 C-133.45515693 31.91659559 -109.29604613 20.38489339 -84.0625 12.3125 C-83.36801758 12.08224121 -82.67353516 11.85198242 -81.95800781 11.61474609 C-72.83942791 8.59955337 -63.60775925 6.48160754 -54.1875 4.625 C-52.66552002 4.32118408 -52.66552002 4.32118408 -51.11279297 4.01123047 C-34.12836385 0.80878818 -17.25140366 -0.06666768 0 0 Z " fill="#00D8FE" transform="translate(3269.0625,895.6875)"/>
<path d="M0 0 C27.06 0 54.12 0 82 0 C82 47.19 82 94.38 82 143 C117.31 143 152.62 143 189 143 C189 167.09 189 191.18 189 216 C153.69 216 118.38 216 82 216 C82.08348565 258.56614045 82.17402182 301.13223919 82.28005161 343.6983282 C82.29256998 348.72743346 82.30500284 353.75653893 82.31738281 358.78564453 C82.31984881 359.78681875 82.3223148 360.78799297 82.32485552 361.8195058 C82.36454326 378.01515414 82.39730822 394.21080943 82.42749982 410.40647794 C82.45865033 427.03356882 82.49727506 443.66063032 82.54279006 460.28768814 C82.57062487 470.54153591 82.59267955 480.79536227 82.60726251 491.04923759 C82.61783164 498.08752621 82.63568254 505.1257733 82.65916704 512.16403057 C82.67248961 516.22036035 82.68269038 520.2766321 82.68421364 524.33298492 C82.68568288 528.05559563 82.69641201 531.77806691 82.71413441 535.50063466 C82.72118999 537.46664221 82.71866741 539.43267719 82.71566427 541.39869511 C82.82571806 559.0635682 85.60081093 576.3014046 96 591 C96.42667969 591.63292969 96.85335937 592.26585937 97.29296875 592.91796875 C102.96559213 600.45374116 112.55676675 605.44866224 121.6328125 607.56640625 C144.75988684 610.54448659 166.6715758 605.75506125 185.390625 591.85546875 C188 590 188 590 191 589 C193.85834384 596.06460251 196.7100833 603.13184006 199.55351925 610.20245552 C200.87418395 613.48588734 202.19706869 616.76838696 203.52514648 620.04882812 C205.05345213 623.82413117 206.57187884 627.60333969 208.08984375 631.3828125 C208.56590561 632.55490265 209.04196747 633.7269928 209.53245544 634.93460083 C209.97283646 636.035289 210.41321747 637.13597717 210.86694336 638.27001953 C211.25555038 639.23376495 211.64415741 640.19751038 212.04454041 641.19046021 C213.04884739 644.1436363 213.66879494 646.89884587 214 650 C203.40677044 666.44268966 171.72523842 677.00440615 153.69140625 681 C118.22438248 688.26188038 77.63019676 684.31820748 46 666 C42.47763186 663.5265365 39.23614367 660.83304508 36 658 C35.32710937 657.47019531 34.65421875 656.94039062 33.9609375 656.39453125 C12.50014218 639.08054299 3.76353188 609.99081569 0.37005329 583.71263695 C-0.86185649 571.35324474 -0.52575891 558.8466035 -0.46426249 546.44077682 C-0.44673503 541.99126157 -0.45285175 537.54176426 -0.45587158 533.09222412 C-0.45795322 525.41181294 -0.44557001 517.73153931 -0.42292023 510.05116272 C-0.39019546 498.94711046 -0.37997245 487.84312365 -0.37496826 476.73902839 C-0.36624744 458.71660638 -0.33971979 440.69425743 -0.30175781 422.671875 C-0.26495405 405.18099326 -0.23668341 387.69013147 -0.21972656 370.19921875 C-0.21815022 368.57777721 -0.21815022 368.57777721 -0.21654204 366.92357928 C-0.2113213 361.49987269 -0.20626661 356.07616596 -0.20129442 350.65245914 C-0.15993259 305.76824117 -0.08624934 260.88415857 0 216 C-29.04 216 -58.08 216 -88 216 C-88.020625 204.140625 -88.04125 192.28125 -88.0625 180.0625 C-88.071604 176.31269775 -88.08070801 172.56289551 -88.09008789 168.69946289 C-88.09460449 164.13366699 -88.09460449 164.13366699 -88.09544373 161.99876404 C-88.09698308 160.5021383 -88.10050784 159.00551383 -88.10557556 157.50889587 C-88.11285459 155.24687533 -88.11390737 152.98493082 -88.11352539 150.72290039 C-88.115746 149.44604874 -88.11796661 148.16919708 -88.12025452 146.85365295 C-88 144 -88 144 -87 143 C-84.29158206 142.90485278 -81.60884954 142.87446375 -78.90014648 142.88647461 C-78.0376658 142.88635407 -77.17518511 142.88623354 -76.28656864 142.88610935 C-73.48138454 142.88685861 -70.67626604 142.8944874 -67.87109375 142.90234375 C-66.14457227 142.90381313 -64.41805034 142.90483386 -62.69152832 142.90539551 C-56.27351211 142.91064884 -49.85550542 142.92460992 -43.4375 142.9375 C-29.103125 142.958125 -14.76875 142.97875 0 143 C0 95.81 0 48.62 0 0 Z " fill="#00D8FE" transform="translate(3593,765)"/>
<path d="M0 0 C5.66878833 5.59283425 10.52998722 11.39955646 14.75708008 18.171875 C15.25336914 18.88859375 15.7496582 19.6053125 16.26098633 20.34375 C30.07774474 41.26730059 33.76350865 68.62100251 29.16552734 92.93334961 C25.112884 112.41349031 16.57364553 128.17707688 3.75708008 143.171875 C3.18602539 143.84605469 2.6149707 144.52023437 2.02661133 145.21484375 C-11.05839311 159.37624959 -29.74770496 168.60812066 -48.24291992 173.171875 C-49.57709961 173.50832031 -49.57709961 173.50832031 -50.93823242 173.8515625 C-77.99384223 179.47851269 -105.32752106 172.89293425 -128.24291992 158.171875 C-131.38834956 155.98714248 -134.32844505 153.65398272 -137.24291992 151.171875 C-138.02924805 150.54152344 -138.81557617 149.91117188 -139.62573242 149.26171875 C-159.04064152 132.98119153 -170.03038076 108.31187018 -172.96166992 83.48046875 C-175.28703237 56.12516333 -167.17756658 29.4185454 -149.80151367 8.16796875 C-131.81757019 -12.89109179 -107.18931983 -25.77734767 -79.61962891 -28.5 C-49.99188246 -30.66282849 -21.42942512 -20.45329985 0 0 Z " fill="#00D8FE" transform="translate(661.242919921875,1002.828125)"/>
</svg>
