<?xml version="1.0" encoding="UTF-8"?>
<svg version="1.1" xmlns="http://www.w3.org/2000/svg" width="432" height="360">
<path d="M0 0 C0.66 0 1.32 0 2 0 C1.25 6.75 1.25 6.75 -1 9 C-3.48934617 12.67573494 -3.48934617 12.67573494 -4 17 C-2.67099798 18.33765062 -1.33689045 19.6702333 0 21 C1.66796875 23.875 1.66796875 23.875 3.1875 27 C3.69667969 28.03125 4.20585937 29.0625 4.73046875 30.125 C9.20353655 40.25477816 8.58281635 54.23715209 4.6875 64.4375 C3.04824871 68.13443009 1.12726011 71.562697 -1 75 C4.3230885 81.46668047 4.3230885 81.46668047 12 84 C13.32 84 14.64 84 16 84 C16.33 84.99 16.66 85.98 17 87 C18.485 87.99 18.485 87.99 20 89 C20 89.66 20 90.32 20 91 C21.98 91.495 21.98 91.495 24 92 C24 92.99 24 93.98 24 95 C24.66 95 25.32 95 26 95 C26 95.66 26 96.32 26 97 C26.66 97 27.32 97 28 97 C29.2340748 98.43419504 30.46215372 99.87445743 31.64453125 101.3515625 C34.3997306 104.70226603 37.5757548 107.62289316 40.8125 110.5 C43 113 43 113 43.37890625 115.42578125 C42.88369013 118.79018767 41.75609947 119.60415611 39.125 121.6875 C38.40570313 122.26886719 37.68640625 122.85023438 36.9453125 123.44921875 C36.30335938 123.96097656 35.66140625 124.47273438 35 125 C34.34 125.66 33.68 126.32 33 127 C27.69355779 126.87939904 24.605409 124.65223249 21 121 C19.44084662 119.2623176 17.9316729 117.49300444 16.4375 115.69921875 C13.74037904 112.51104588 10.87137577 109.67028906 7.5625 107.125 C4.27781525 104.40111509 1.24153925 101.66449591 -1 98 C-1.0777346 95.66796188 -1.08967728 93.33160941 -1 91 C-2.76975869 89.23513282 -2.76975869 89.23513282 -5 88 C-6.04115841 86.69855198 -7.05377841 85.37202131 -8 84 C-11.56327184 85.09639134 -14.89118165 86.40113087 -18.25 88 C-29.7396775 93.15784518 -40.9765006 93.22620592 -52.81640625 89.265625 C-60.39692126 86.25202149 -66.66269037 82.18004273 -72 76 C-72 75.34 -72 74.68 -72 74 C-72.66 74 -73.32 74 -74 74 C-80.91457091 60.95363979 -84.61948719 49.22459656 -80.84375 34.34375 C-79.04387341 29.3440928 -76.51349803 24.67131237 -74 20 C-73.34 20 -72.68 20 -72 20 C-71.73832031 19.40960938 -71.47664062 18.81921875 -71.20703125 18.2109375 C-66.7994177 10.13744472 -57.32131251 5.84676481 -49 3 C-37.15823549 0.38311624 -23.01272171 2.31221283 -12.69921875 8.81640625 C-11.85810547 9.40228516 -11.85810547 9.40228516 -11 10 C-10.01 10.66 -9.02 11.32 -8 12 C-7.18278283 10.89932004 -6.37140549 9.79430269 -5.5625 8.6875 C-5.11003906 8.07261719 -4.65757812 7.45773438 -4.19140625 6.82421875 C-2.82663692 4.90322899 -2.82663692 4.90322899 -2 2 C-1.34 2 -0.68 2 0 2 C0 1.34 0 0.68 0 0 Z M-10 14 C-9 16 -9 16 -9 16 Z M-12 16 C-12.33 17.65 -12.66 19.3 -13 21 C-12.01 19.68 -11.02 18.36 -10 17 C-10.66 16.67 -11.32 16.34 -12 16 Z M-60.45703125 29.66015625 C-64.76153701 36.18774854 -66.87600896 43.24106353 -66 51 C-65.15854693 54.06769746 -64.1526499 57.03604312 -63 60 C-60.04086421 56.39438634 -57.34824456 52.68580902 -54.75 48.8125 C-53.69039063 47.24435547 -53.69039063 47.24435547 -52.609375 45.64453125 C-50.82671104 43.23120831 -50.82671104 43.23120831 -51 41 C-50.34 41 -49.68 41 -49 41 C-48.34 39.88625 -47.68 38.7725 -47 37.625 C-46.62875 36.99851562 -46.2575 36.37203125 -45.875 35.7265625 C-44.84931652 34.02527333 -44.84931652 34.02527333 -45 32 C-44.34 32 -43.68 32 -43 32 C-42.34 30.68 -41.68 29.36 -41 28 C-40.34 28 -39.68 28 -39 28 C-38.5875 29.175625 -38.175 30.35125 -37.75 31.5625 C-35.69548309 37.02829027 -33.2937313 41.9380326 -29 46 C-27.53914338 43.7516034 -26.08124864 41.50137827 -24.625 39.25 C-24.2125 38.61578125 -23.8 37.9815625 -23.375 37.328125 C-21.41058376 34.28644824 -19.51579092 31.29809453 -18 28 C-21.72778437 22.46893783 -25.11136499 20.00414256 -31.61328125 18.4296875 C-42.65324628 16.44213242 -53.48495771 21.09264255 -60.45703125 29.66015625 Z M-7 19 C-6 21 -6 21 -6 21 Z M-8 21 C-7 23 -7 23 -7 23 Z M-16 22 C-15.67 22.66 -15.34 23.32 -15 24 C-14.67 23.34 -14.34 22.68 -14 22 C-14.66 22 -15.32 22 -16 22 Z M-9 23 C-8 25 -8 25 -8 25 Z M-17 24 C-17.33 25.32 -17.66 26.64 -18 28 C-17.34 26.68 -16.68 25.36 -16 24 C-16.33 24 -16.66 24 -17 24 Z M-13 30 C-12.67 30.99 -12.34 31.98 -12 33 C-12 32.01 -12 31.02 -12 30 C-12.33 30 -12.66 30 -13 30 Z M-14 33 C-14.83001302 34.66002604 -15.65997967 36.32007529 -16.48974609 37.98022461 C-17.20934382 39.41892875 -17.92973117 40.85723819 -18.65087891 42.29516602 C-20.45891181 45.90288706 -22.25582313 49.51490905 -24.01953125 53.14453125 C-24.33269287 53.78438965 -24.64585449 54.42424805 -24.96850586 55.08349609 C-25.83444466 56.85455434 -26.69470727 58.62838453 -27.5546875 60.40234375 C-29 63 -29 63 -31 64 C-31 63.34 -31 62.68 -31 62 C-31.66 62 -32.32 62 -33 62 C-33.0825 61.154375 -33.165 60.30875 -33.25 59.4375 C-34.1647723 55.24479363 -35.76346923 52.65977762 -38 49 C-38.6802367 47.67353844 -39.35492261 46.34391123 -40 45 C-43.54684416 46.18228139 -43.63609661 46.68128978 -45.25 49.875 C-52.38392857 63.38392857 -52.38392857 63.38392857 -57 68 C-50.57202385 73.17032864 -43.83310893 76.57498143 -35.375 75.875 C-26.0690867 74.30493378 -19.1906947 70.55993158 -13.421875 62.90625 C-9.76759864 57.27782434 -8.85964078 53.18787851 -8.875 46.4375 C-8.87242187 45.30183594 -8.86984375 44.16617188 -8.8671875 42.99609375 C-8.8652772 39.94766002 -8.8652772 39.94766002 -10 37 C-10.66 37 -11.32 37 -12 37 C-12.495 35.02 -12.495 35.02 -13 33 C-13.33 33 -13.66 33 -14 33 Z M-62 60 C-61.67 60.99 -61.34 61.98 -61 63 C-60.34 62.67 -59.68 62.34 -59 62 C-59.33 61.34 -59.66 60.68 -60 60 C-60.66 60 -61.32 60 -62 60 Z " fill="#E94031" transform="translate(324,125)"/>
<path d="M0 0 C20.79 0 41.58 0 63 0 C63 0.66 63 1.32 63 2 C63.99 2.495 63.99 2.495 65 3 C64.88658509 5.48020497 64.75985314 7.95844969 64.625 10.4375 C64.5940625 11.14455078 64.563125 11.85160156 64.53125 12.58007812 C64.42719371 14.39239188 64.22080108 16.19817988 64 18 C61.68780587 19.15609707 60.48269304 19.09085101 57.91748047 19.02172852 C56.65639969 18.99158409 56.65639969 18.99158409 55.36984253 18.96083069 C54.00727829 18.92027809 54.00727829 18.92027809 52.6171875 18.87890625 C51.68778351 18.85529526 50.75837952 18.83168427 49.80081177 18.80735779 C46.82538894 18.7306391 43.85022104 18.64665009 40.875 18.5625 C38.86068966 18.50928753 36.84636678 18.45654708 34.83203125 18.40429688 C29.88785868 18.27501284 24.94390273 18.13920707 20 18 C19.67 18.66 19.34 19.32 19 20 C19 19.34 19 18.68 19 18 C18.34 18 17.68 18 17 18 C17 23.94 17 29.88 17 36 C39.275 35.505 39.275 35.505 62 35 C62.495 42.92 62.495 42.92 63 51 C58.49028824 53.25485588 55.07916765 53.27321034 50.18359375 53.23046875 C48.90428734 53.22978142 48.90428734 53.22978142 47.59913635 53.2290802 C45.79955653 53.22606404 43.99997918 53.21819676 42.20043945 53.20581055 C39.44407926 53.1875436 36.68805507 53.18530105 33.93164062 53.18554688 C32.18228876 53.1806317 30.43293917 53.17480338 28.68359375 53.16796875 C27.85854843 53.16685593 27.03350311 53.1657431 26.18345642 53.16459656 C22.87390571 53.13709204 20.16109686 53.05369895 17 52 C17 57.61 17 63.22 17 69 C18.38823975 68.99476318 19.77647949 68.98952637 21.20678711 68.98413086 C26.33731445 68.96608654 31.46783897 68.95457008 36.59838867 68.94506836 C38.82267732 68.94002683 41.04696263 68.93319377 43.27124023 68.92456055 C46.46078309 68.91248702 49.65028229 68.90677004 52.83984375 68.90234375 C54.34139259 68.89460182 54.34139259 68.89460182 55.87327576 68.88670349 C56.79415482 68.88662796 57.71503387 68.88655243 58.66381836 68.88647461 C59.47878281 68.884254 60.29374725 68.88203339 61.13340759 68.87974548 C63 69 63 69 64 70 C64.23678716 72.69235776 64.42198025 75.36498156 64.5625 78.0625 C64.62727539 79.20041992 64.62727539 79.20041992 64.69335938 80.36132812 C64.79973633 82.24065438 64.90039934 84.12030244 65 86 C62.25334611 87.37332694 60.06375932 87.11964892 56.98974609 87.11352539 C55.72858978 87.11344986 54.46743347 87.11337433 53.1680603 87.11329651 C51.78651897 87.10818949 50.40497804 87.10297349 49.0234375 87.09765625 C47.6138209 87.09579144 46.20420366 87.09436783 44.79458618 87.09336853 C41.08246068 87.08954833 37.37037422 87.07972228 33.65826416 87.06866455 C29.87113981 87.05843975 26.08400917 87.05386862 22.296875 87.04882812 C14.86456552 87.03809958 7.43228823 87.02102911 0 87 C-1.27051345 83.10286021 -1.14047665 79.19277038 -1.12939453 75.14208984 C-1.13202301 73.96097374 -1.13202301 73.96097374 -1.13470459 72.7559967 C-1.13910007 70.15762111 -1.13619378 67.55931376 -1.1328125 64.9609375 C-1.13348607 63.15540555 -1.13445653 61.34987368 -1.13571167 59.54434204 C-1.1371854 55.76327652 -1.13504397 51.98223464 -1.13037109 48.20117188 C-1.12466583 43.3475221 -1.1279599 38.49392753 -1.13394356 33.64027977 C-1.13755094 29.91376324 -1.13640991 26.18725987 -1.13381577 22.46074295 C-1.13314741 20.67051817 -1.13397174 18.88029221 -1.13629532 17.09006882 C-1.13882561 14.59305383 -1.13497627 12.09612932 -1.12939453 9.59912109 C-1.13141876 8.855186 -1.13344299 8.11125092 -1.13552856 7.34477234 C-1.11426611 2.22853222 -1.11426611 2.22853222 0 0 Z " fill="#FABC04" transform="translate(172,128)"/>
<path d="M0 0 C3.56271152 3.05594652 6.61490915 6.55620944 9.5 10.25 C8.44768703 13.21676187 7.68219261 14.14604626 4.8984375 15.734375 C3.90070313 16.15203125 2.90296875 16.5696875 1.875 17 C0.87210938 17.42796875 -0.13078125 17.8559375 -1.1640625 18.296875 C-1.93492187 18.61140625 -2.70578125 18.9259375 -3.5 19.25 C-3.995 18.26 -3.995 18.26 -4.5 17.25 C-5.16 17.25 -5.82 17.25 -6.5 17.25 C-6.5 16.59 -6.5 15.93 -6.5 15.25 C-7.221875 14.96125 -7.94375 14.6725 -8.6875 14.375 C-10.39431703 13.69227319 -12.08772134 12.97246492 -13.75 12.1875 C-20.8204834 9.77710793 -27.43031272 9.86982472 -34.5 12.25 C-37.0404226 13.31809828 -37.0404226 13.31809828 -38.5 15.25 C-39.39956201 18.26995819 -39.70361843 20.35916936 -39 23.4375 C-34.94421679 28.33823804 -27.61991938 28.91903386 -21.6875 29.75 C-10.60871412 31.4701687 -0.40534747 33.34465253 7.8125 41.5625 C11.96020827 48.16810947 13.53829697 54.45097391 12.5 62.25 C10.71678769 69.35100616 7.5472126 75.00615259 1.5 79.25 C-4.53852014 82.40873676 -10.6454808 84.88923583 -17.5 85.25 C-18.44230469 85.30027344 -19.38460937 85.35054688 -20.35546875 85.40234375 C-31.48916006 85.73489128 -43.47833842 84.35850767 -52.5 77.25 C-57.09572177 72.55889533 -59.73812871 68.86875679 -60.5 62.25 C-58.75877451 61.21427104 -57.00663405 60.1968748 -55.25 59.1875 C-54.27546875 58.61902344 -53.3009375 58.05054688 -52.296875 57.46484375 C-49.5 56.25 -49.5 56.25 -47.2734375 56.359375 C-45.5 57.25 -45.5 57.25 -43.375 60.5625 C-40.10555614 65.36295231 -36.07405108 67.01132198 -30.5 68.25 C-22.87052778 68.99599284 -16.27128439 69.01182466 -9.5 65.25 C-8.51 64.92 -7.52 64.59 -6.5 64.25 C-5.24567369 58.16689354 -5.24567369 58.16689354 -6.9375 52.375 C-12.50797436 47.75558224 -19.35242526 46.76824532 -26.3125 45.8125 C-36.50302876 44.23854009 -46.43404793 42.40612753 -53.5 34.25 C-57.51076366 27.5653939 -58.54555384 20.82280199 -57.109375 13.16796875 C-55.27117731 7.19382625 -51.48053176 2.92630086 -46.5 -0.75 C-32.93198845 -7.33475526 -12.85396435 -9.1743944 0 0 Z " fill="#4085F1" transform="translate(148.5,131.75)"/>
<path d="M0 0 C0.66 0 1.32 0 2 0 C1.25 6.75 1.25 6.75 -1 9 C-1.72652999 10.29130425 -2.41080735 11.6068576 -3.0625 12.9375 C-3.57490234 13.97197266 -3.57490234 13.97197266 -4.09765625 15.02734375 C-5.10490785 17.13629709 -5.10490785 17.13629709 -6 20 C-8.68831169 25.84415584 -8.68831169 25.84415584 -11 27 C-11.13277344 27.53109375 -11.26554687 28.0621875 -11.40234375 28.609375 C-12.26709697 32.06838787 -13.94416969 35.0945801 -15.5625 38.25 C-16.28695021 39.67292676 -17.01089296 41.09611198 -17.734375 42.51953125 C-18.10755859 43.25252441 -18.48074219 43.98551758 -18.86523438 44.74072266 C-20.00350102 47.00697041 -21.1077515 49.28696522 -22.203125 51.57421875 C-22.55689209 52.30543945 -22.91065918 53.03666016 -23.27514648 53.79003906 C-23.95676992 55.20109101 -24.63100715 56.61573937 -25.29711914 58.03417969 C-26.12292244 59.72820109 -27.05393612 61.37008506 -28 63 C-28.99 63.33 -29.98 63.66 -31 64 C-31 63.34 -31 62.68 -31 62 C-31.66 62 -32.32 62 -33 62 C-35.37482656 56.68376389 -37.72013426 51.3576845 -40 46 C-40.66 46 -41.32 46 -42 46 C-42.27972656 46.52207031 -42.55945313 47.04414063 -42.84765625 47.58203125 C-45.31676035 52.11533813 -47.88540425 56.58625377 -50.5625 61 C-51.12066406 61.928125 -51.67882812 62.85625 -52.25390625 63.8125 C-54 66 -54 66 -56.21484375 66.8125 C-56.80394531 66.874375 -57.39304687 66.93625 -58 67 C-59.4606285 64.35261084 -60 63.10551666 -60 60 C-60.66 60 -61.32 60 -62 60 C-60.41145659 55.48473802 -58.07705734 51.68482058 -55.5 47.6875 C-55.09652344 47.04232422 -54.69304687 46.39714844 -54.27734375 45.73242188 C-53.24154258 44.11718738 -52.12659452 42.55327117 -51 41 C-50.34 41 -49.68 41 -49 41 C-48.566875 39.88625 -48.566875 39.88625 -48.125 38.75 C-47.17697356 36.43260203 -46.15154089 34.22082885 -45 32 C-44.34 32 -43.68 32 -43 32 C-42.67 30.68 -42.34 29.36 -42 28 C-40.68 28 -39.36 28 -38 28 C-37.5875 29.175625 -37.175 30.35125 -36.75 31.5625 C-34.90172642 36.49414941 -32.76613768 41.23386232 -29 45 C-27.70623653 42.91794343 -26.41493446 40.83442696 -25.125 38.75 C-24.76019531 38.16347656 -24.39539063 37.57695312 -24.01953125 36.97265625 C-22.20714706 34.0398891 -20.46799733 31.12142589 -19 28 C-22.3715707 22.94264396 -25.26828739 20.87503981 -31.19140625 19.4140625 C-39.78773093 18.1467323 -46.661176 19.46501217 -53.875 24.33203125 C-59.41434362 28.68000869 -61.82970317 33.37488336 -64 40 C-64.33 40 -64.66 40 -65 40 C-64.49202991 35.6822542 -63.80317221 31.96697886 -62 28 C-63.32 27.67 -64.64 27.34 -66 27 C-65.34 28.32 -64.68 29.64 -64 31 C-64.99 31 -65.98 31 -67 31 C-67.33 29.35 -67.66 27.7 -68 26 C-69.11375 26.33 -70.2275 26.66 -71.375 27 C-75 28 -75 28 -77 28 C-77 29.32 -77 30.64 -77 32 C-77.66 32 -78.32 32 -79 32 C-77.86726461 27.55619192 -76.71682385 23.73563279 -74 20 C-73.34 20 -72.68 20 -72 20 C-71.73832031 19.40960938 -71.47664062 18.81921875 -71.20703125 18.2109375 C-66.7994177 10.13744472 -57.32131251 5.84676481 -49 3 C-37.15823549 0.38311624 -23.01272171 2.31221283 -12.69921875 8.81640625 C-11.85810547 9.40228516 -11.85810547 9.40228516 -11 10 C-10.01 10.66 -9.02 11.32 -8 12 C-7.18278283 10.89932004 -6.37140549 9.79430269 -5.5625 8.6875 C-5.11003906 8.07261719 -4.65757812 7.45773438 -4.19140625 6.82421875 C-2.82663692 4.90322899 -2.82663692 4.90322899 -2 2 C-1.34 2 -0.68 2 0 2 C0 1.34 0 0.68 0 0 Z M-10 14 C-9 16 -9 16 -9 16 Z M-12 16 C-12.33 17.65 -12.66 19.3 -13 21 C-12.01 19.68 -11.02 18.36 -10 17 C-10.66 16.67 -11.32 16.34 -12 16 Z M-16 22 C-15.67 22.66 -15.34 23.32 -15 24 C-14.67 23.34 -14.34 22.68 -14 22 C-14.66 22 -15.32 22 -16 22 Z M-17 24 C-17.33 25.32 -17.66 26.64 -18 28 C-17.34 26.68 -16.68 25.36 -16 24 C-16.33 24 -16.66 24 -17 24 Z " fill="#E74132" transform="translate(324,125)"/>
<path d="M0 0 C0.33 0.99 0.66 1.98 1 3 C1.99 3.66 2.98 4.32 4 5 C4 5.66 4 6.32 4 7 C5.32 7.33 6.64 7.66 8 8 C8 8.99 8 9.98 8 11 C8.66 11 9.32 11 10 11 C10 11.66 10 12.32 10 13 C10.66 13 11.32 13 12 13 C13.2340748 14.43419504 14.46215372 15.87445743 15.64453125 17.3515625 C18.3997306 20.70226603 21.5757548 23.62289316 24.8125 26.5 C27 29 27 29 27.37890625 31.42578125 C26.88369013 34.79018767 25.75609947 35.60415611 23.125 37.6875 C22.40570313 38.26886719 21.68640625 38.85023438 20.9453125 39.44921875 C20.30335938 39.96097656 19.66140625 40.47273438 19 41 C18.34 41.66 17.68 42.32 17 43 C11.69355779 42.87939904 8.605409 40.65223249 5 37 C3.44084662 35.2623176 1.9316729 33.49300444 0.4375 31.69921875 C-2.25962096 28.51104588 -5.12862423 25.67028906 -8.4375 23.125 C-11.72266141 20.4007198 -14.83738065 17.72279473 -17 14 C-16.875 10.0625 -16.875 10.0625 -16 7 C-15.01 6.67 -14.02 6.34 -13 6 C-11.63823419 4.01924973 -10.30406884 2.01920337 -9 0 C-5.93109813 -1.53445094 -3.29905734 -0.54984289 0 0 Z " fill="#5A5A5A" transform="translate(340,209)"/>
<path d="M0 0 C0.66 0 1.32 0 2 0 C1.25 6.75 1.25 6.75 -1 9 C-1.72652999 10.29130425 -2.41080735 11.6068576 -3.0625 12.9375 C-3.40410156 13.62714844 -3.74570312 14.31679687 -4.09765625 15.02734375 C-5.10490785 17.13629709 -5.10490785 17.13629709 -6 20 C-8.68831169 25.84415584 -8.68831169 25.84415584 -11 27 C-11.13277344 27.53109375 -11.26554687 28.0621875 -11.40234375 28.609375 C-12.26709697 32.06838787 -13.94416969 35.0945801 -15.5625 38.25 C-16.28695021 39.67292676 -17.01089296 41.09611198 -17.734375 42.51953125 C-18.10755859 43.25252441 -18.48074219 43.98551758 -18.86523438 44.74072266 C-20.00350102 47.00697041 -21.1077515 49.28696522 -22.203125 51.57421875 C-22.55689209 52.30543945 -22.91065918 53.03666016 -23.27514648 53.79003906 C-23.95676992 55.20109101 -24.63100715 56.61573937 -25.29711914 58.03417969 C-26.12292244 59.72820109 -27.05393612 61.37008506 -28 63 C-28.99 63.33 -29.98 63.66 -31 64 C-31 63.34 -31 62.68 -31 62 C-31.66 62 -32.32 62 -33 62 C-35.37482656 56.68376389 -37.72013426 51.3576845 -40 46 C-40.66 46 -41.32 46 -42 46 C-42.27972656 46.52207031 -42.55945313 47.04414063 -42.84765625 47.58203125 C-45.31676035 52.11533813 -47.88540425 56.58625377 -50.5625 61 C-51.12066406 61.928125 -51.67882812 62.85625 -52.25390625 63.8125 C-54 66 -54 66 -56.21484375 66.8125 C-56.80394531 66.874375 -57.39304687 66.93625 -58 67 C-59.4606285 64.35261084 -60 63.10551666 -60 60 C-60.66 60 -61.32 60 -62 60 C-60.41145659 55.48473802 -58.07705734 51.68482058 -55.5 47.6875 C-55.09652344 47.04232422 -54.69304687 46.39714844 -54.27734375 45.73242188 C-53.24154258 44.11718738 -52.12659452 42.55327117 -51 41 C-50.34 41 -49.68 41 -49 41 C-48.566875 39.88625 -48.566875 39.88625 -48.125 38.75 C-47.17697356 36.43260203 -46.15154089 34.22082885 -45 32 C-44.34 32 -43.68 32 -43 32 C-42.67 30.68 -42.34 29.36 -42 28 C-40.68 28 -39.36 28 -38 28 C-37.5875 29.175625 -37.175 30.35125 -36.75 31.5625 C-34.90172642 36.49414941 -32.76613768 41.23386232 -29 45 C-28.50371094 44.17757812 -28.00742187 43.35515625 -27.49609375 42.5078125 C-23.775087 36.39321696 -19.960897 30.4429981 -15.796875 24.6171875 C-12.9558827 20.47922046 -10.38596879 16.18070819 -7.796875 11.8828125 C-6 9 -6 9 -4.328125 6.8046875 C-2.8057036 4.92980212 -2.8057036 4.92980212 -2 2 C-1.34 2 -0.68 2 0 2 C0 1.34 0 0.68 0 0 Z " fill="#35A554" transform="translate(324,125)"/>
<path d="M0 0 C0.33 0 0.66 0 1 0 C1 1.98 1 3.96 1 6 C-0.32 6 -1.64 6 -3 6 C-3 6.66 -3 7.32 -3 8 C-1.35 8 0.3 8 2 8 C0.68 9.32 -0.64 10.64 -2 12 C-1.01 12.33 -0.02 12.66 1 13 C0.0409375 13.7115625 0.0409375 13.7115625 -0.9375 14.4375 C-2.88293306 15.83738726 -2.88293306 15.83738726 -4 17 C-6.86267567 17.07325168 -9.700719 17.09238205 -12.5625 17.0625 C-13.36880859 17.05798828 -14.17511719 17.05347656 -15.00585938 17.04882812 C-17.00393756 17.03700518 -19.00197783 17.01906914 -21 17 C-21 17.66 -21 18.32 -21 19 C-23.64 18.67 -26.28 18.34 -29 18 C-29 17.01 -29 16.02 -29 15 C-31.31 14.67 -33.62 14.34 -36 14 C-36.66 12.02 -37.32 10.04 -38 8 C-36.25705322 7.13153169 -34.50531337 6.28069373 -32.75 5.4375 C-31.77546875 4.96183594 -30.8009375 4.48617187 -29.796875 3.99609375 C-26.68676998 2.88844461 -26.02556402 3.02114105 -23 4 C-20.41343327 4.22288501 -17.84047222 4.41314385 -15.25 4.5625 C-14.55261719 4.60568359 -13.85523437 4.64886719 -13.13671875 4.69335938 C-11.42468078 4.79889596 -9.71236439 4.8998991 -8 5 C-8 4.34 -8 3.68 -8 3 C-5.36 2.67 -2.72 2.34 0 2 C0 1.34 0 0.68 0 0 Z " fill="#4085F3" transform="translate(141,198)"/>
<path d="M0 0 C20.79 0 41.58 0 63 0 C63 0.66 63 1.32 63 2 C63.99 2.495 63.99 2.495 65 3 C64.88658509 5.48020497 64.75985314 7.95844969 64.625 10.4375 C64.5940625 11.14455078 64.563125 11.85160156 64.53125 12.58007812 C64.42719371 14.39239188 64.22080108 16.19817988 64 18 C61.68780587 19.15609707 60.48269304 19.09085101 57.91748047 19.02172852 C56.65639969 18.99158409 56.65639969 18.99158409 55.36984253 18.96083069 C54.00727829 18.92027809 54.00727829 18.92027809 52.6171875 18.87890625 C51.68778351 18.85529526 50.75837952 18.83168427 49.80081177 18.80735779 C46.82538894 18.7306391 43.85022104 18.64665009 40.875 18.5625 C38.86068966 18.50928753 36.84636678 18.45654708 34.83203125 18.40429688 C29.88785868 18.27501284 24.94390273 18.13920707 20 18 C19.67 18.66 19.34 19.32 19 20 C19 19.34 19 18.68 19 18 C18.34 18 17.68 18 17 18 C17 23.94 17 29.88 17 36 C16.34 36 15.68 36 15 36 C14.97309896 33.20826945 14.95320947 30.41679652 14.9375 27.625 C14.92912109 26.8309375 14.92074219 26.036875 14.91210938 25.21875 C14.88671875 19.2265625 14.88671875 19.2265625 16 17 C31.51 17 47.02 17 63 17 C62.67 12.38 62.34 7.76 62 3 C42.86 3 23.72 3 4 3 C4 3.66 4 4.32 4 5 C3.01 5 2.02 5 1 5 C1 29.75 1 54.5 1 80 C0.34 80 -0.32 80 -1 80 C-1.02313729 69.86460923 -1.04092219 59.72922471 -1.05181217 49.59381294 C-1.05703795 44.88789057 -1.0641301 40.18198622 -1.07543945 35.47607422 C-1.08627912 30.93736468 -1.09227914 26.3986725 -1.09487724 21.85995102 C-1.09672954 20.12554526 -1.10034643 18.39114049 -1.10573006 16.6567421 C-1.11295478 14.23354259 -1.11399033 11.81041552 -1.11352539 9.38720703 C-1.11712067 8.66503998 -1.12071594 7.94287292 -1.12442017 7.19882202 C-1.11405216 2.22810432 -1.11405216 2.22810432 0 0 Z " fill="#EABC39" transform="translate(172,128)"/>
<path d="M0 0 C0.495 7.92 0.495 7.92 1 16 C-3.50971176 18.25485588 -6.92083235 18.27321034 -11.81640625 18.23046875 C-13.09571266 18.22978142 -13.09571266 18.22978142 -14.40086365 18.2290802 C-16.20044347 18.22606404 -18.00002082 18.21819676 -19.79956055 18.20581055 C-22.55592074 18.1875436 -25.31194493 18.18530105 -28.06835938 18.18554688 C-29.81771124 18.1806317 -31.56706083 18.17480338 -33.31640625 18.16796875 C-34.14145157 18.16685593 -34.96649689 18.1657431 -35.81654358 18.16459656 C-39.12609429 18.13709204 -41.83890314 18.05369895 -45 17 C-45 22.61 -45 28.22 -45 34 C-43.61176025 33.99476318 -42.22352051 33.98952637 -40.79321289 33.98413086 C-35.66268555 33.96608654 -30.53216103 33.95457008 -25.40161133 33.94506836 C-23.17732268 33.94002683 -20.95303737 33.93319377 -18.72875977 33.92456055 C-15.53921691 33.91248702 -12.34971771 33.90677004 -9.16015625 33.90234375 C-7.65860741 33.89460182 -7.65860741 33.89460182 -6.12672424 33.88670349 C-5.20584518 33.88662796 -4.28496613 33.88655243 -3.33618164 33.88647461 C-2.11373497 33.88314369 -2.11373497 33.88314369 -0.86659241 33.87974548 C1 34 1 34 2 35 C2.23678716 37.69235776 2.42198025 40.36498156 2.5625 43.0625 C2.60568359 43.82111328 2.64886719 44.57972656 2.69335938 45.36132812 C2.79973633 47.24065438 2.90039934 49.12030244 3 51 C0.25334611 52.37332694 -1.93624068 52.11964892 -5.01025391 52.11352539 C-6.27141022 52.11344986 -7.53256653 52.11337433 -8.8319397 52.11329651 C-10.21348103 52.10818949 -11.59502196 52.10297349 -12.9765625 52.09765625 C-14.3861791 52.09579144 -15.79579634 52.09436783 -17.20541382 52.09336853 C-20.91753932 52.08954833 -24.62962578 52.07972228 -28.34173584 52.06866455 C-32.12886019 52.05843975 -35.91599083 52.05386862 -39.703125 52.04882812 C-47.13543448 52.03809958 -54.56771177 52.02102911 -62 52 C-62.33 50.68 -62.66 49.36 -63 48 C-62.34 48.66 -61.68 49.32 -61 50 C-58.32895651 50.29332671 -58.32895651 50.29332671 -55.17333984 50.22705078 C-53.95222504 50.22689972 -52.73111023 50.22674866 -51.47299194 50.22659302 C-50.13563882 50.21637903 -48.79828735 50.20594702 -47.4609375 50.1953125 C-46.09616299 50.1915828 -44.73138581 50.18873563 -43.36660767 50.18673706 C-39.77279277 50.17909714 -36.17913927 50.15944572 -32.58538818 50.1373291 C-28.91892683 50.11687832 -25.25243943 50.107737 -21.5859375 50.09765625 C-14.39054286 50.07620001 -7.1953146 50.04101512 0 50 C0.33 45.38 0.66 40.76 1 36 C-0.38300293 36.04600342 -1.76600586 36.09200684 -3.19091797 36.1394043 C-8.30803711 36.30561332 -13.42556353 36.45188199 -18.54345703 36.59204102 C-20.7610684 36.65558242 -22.97853037 36.72457641 -25.19580078 36.79907227 C-28.37769719 36.90504065 -31.55961076 36.99157179 -34.7421875 37.07421875 C-36.23599442 37.1302552 -36.23599442 37.1302552 -37.75997925 37.18742371 C-38.68078278 37.20767105 -39.6015863 37.2279184 -40.55029297 37.2487793 C-41.3630368 37.27320602 -42.17578064 37.29763275 -43.01315308 37.32279968 C-43.66881256 37.21627579 -44.32447205 37.10975189 -45 37 C-47.06723714 33.89914429 -47.24497423 33.27068319 -47.1953125 29.76953125 C-47.18886719 28.96708984 -47.18242187 28.16464844 -47.17578125 27.33789062 C-47.15902344 26.50451172 -47.14226562 25.67113281 -47.125 24.8125 C-47.11597656 23.96751953 -47.10695312 23.12253906 -47.09765625 22.25195312 C-47.07410703 20.16784757 -47.03823647 18.08388783 -47 16 C-44.17382044 15.05794015 -42.61949582 14.90153823 -39.7121582 14.97827148 C-38.42115959 15.00841591 -38.42115959 15.00841591 -37.1040802 15.03916931 C-35.71644722 15.07972191 -35.71644722 15.07972191 -34.30078125 15.12109375 C-33.35059616 15.14470474 -32.40041107 15.16831573 -31.4214325 15.19264221 C-28.38496854 15.26924835 -25.34876157 15.35328603 -22.3125 15.4375 C-20.25456989 15.49072373 -18.19662722 15.54346411 -16.13867188 15.59570312 C-11.09228501 15.72485945 -6.04611612 15.86068132 -1 16 C-1 11.38 -1 6.76 -1 2 C-15.52 2 -30.04 2 -45 2 C-45 1.67 -45 1.34 -45 1 C-38.9127673 0.85728897 -32.82552764 0.71487989 -26.73828125 0.57275391 C-24.66633919 0.52433493 -22.59439908 0.47583262 -20.52246094 0.42724609 C-17.54883317 0.35752946 -14.5751986 0.28810998 -11.6015625 0.21875 C-10.67131256 0.19687622 -9.74106262 0.17500244 -8.78262329 0.15246582 C-7.92188202 0.13244507 -7.06114075 0.11242432 -6.17431641 0.09179688 C-5.41486725 0.07403198 -4.65541809 0.05626709 -3.87295532 0.03796387 C-2.58217333 0.01180036 -1.29104713 0 0 0 Z " fill="#EAC041" transform="translate(234,163)"/>
<path d="M0 0 C1 3 1 3 0.875 6.625 C0.80339866 11.48494127 2.25224809 15.51552437 4 20 C4.391875 21.010625 4.78375 22.02125 5.1875 23.0625 C5.455625 23.701875 5.72375 24.34125 6 25 C6.66 25 7.32 25 8 25 C8.70125 25.7425 9.4025 26.485 10.125 27.25 C14.61515369 31.54492962 19.77593293 34.22199162 26 35 C26 35.33 26 35.66 26 36 C19.17239363 35.56650118 14.08651891 34.08829712 8 31 C7.34 30.67 6.68 30.34 6 30 C6 30.66 6 31.32 6 32 C6.66 32 7.32 32 8 32 C8 32.99 8 33.98 8 35 C6.02 35.495 6.02 35.495 4 36 C4.33 36.556875 4.66 37.11375 5 37.6875 C6.1309601 40.30284522 6.15662974 42.1806646 6 45 C2.76138697 43.55575365 0.38030837 41.74227753 -2.25 39.375 C-2.95640625 38.74335938 -3.6628125 38.11171875 -4.390625 37.4609375 C-4.92171875 36.97882813 -5.4528125 36.49671875 -6 36 C-5.67 35.01 -5.34 34.02 -5 33 C-4.34 33 -3.68 33 -3 33 C-3.33 31.68 -3.66 30.36 -4 29 C-3.360625 28.79375 -2.72125 28.5875 -2.0625 28.375 C0.31251699 27.11641628 0.31251699 27.11641628 0.8125 24.0625 C1.19391798 20.95906921 1.19391798 20.95906921 0 18 C-0.66 17.67 -1.32 17.34 -2 17 C-1.85978195 14.35375716 -1.71310224 11.70815422 -1.5625 9.0625 C-1.52318359 8.30775391 -1.48386719 7.55300781 -1.44335938 6.77539062 C-1.11328125 1.11328125 -1.11328125 1.11328125 0 0 Z " fill="#E24436" transform="translate(258,165)"/>
<path d="M0 0 C4.99625107 1.66541702 6.68034483 6.48032804 9 11 C9.8813794 13.35034506 10.46533976 15.5405629 11 18 C8 17 8 17 6 14 C4.68 15.32 3.36 16.64 2 18 C2 16.02 2 14.04 2 12 C1.01 11.67 0.02 11.34 -1 11 C-0.67 12.32 -0.34 13.64 0 15 C-0.99 15 -1.98 15 -3 15 C-2.84144531 15.78246094 -2.68289063 16.56492188 -2.51953125 17.37109375 C-1.86370012 21.95204955 -1.73821857 26.44034773 -1.6875 31.0625 C-1.65849609 31.94744141 -1.62949219 32.83238281 -1.59960938 33.74414062 C-1.55771773 38.039645 -1.62047721 40.37476555 -3.89453125 44.12109375 C-6 46 -6 46 -8 46 C-7.7834375 45.46375 -7.566875 44.9275 -7.34375 44.375 C-4.45498151 36.24365165 -4.71524979 28.50032106 -5 20 C-5.66 20 -6.32 20 -7 20 C-8.12377697 16.69564916 -7.89554742 14.9493138 -6.5625 11.75 C-6.27503906 11.04359375 -5.98757813 10.3371875 -5.69140625 9.609375 C-5.46324219 9.07828125 -5.23507812 8.5471875 -5 8 C-4.34 8 -3.68 8 -3 8 C-1.92474806 5.34771188 -0.90543849 2.71631546 0 0 Z " fill="#E34231" transform="translate(319,142)"/>
<path d="M0 0 C0.66 0 1.32 0 2 0 C1.25 6.75 1.25 6.75 -1 9 C-1.72652999 10.29130425 -2.41080735 11.6068576 -3.0625 12.9375 C-3.40410156 13.62714844 -3.74570312 14.31679687 -4.09765625 15.02734375 C-5.10490785 17.13629709 -5.10490785 17.13629709 -6 20 C-8.68831169 25.84415584 -8.68831169 25.84415584 -11 27 C-11.34342449 28.33076989 -11.67619874 29.66431979 -12 31 C-12.66 31.66 -13.32 32.32 -14 33 C-14 31.35 -14 29.7 -14 28 C-15.98 28.99 -15.98 28.99 -18 30 C-16.71517436 25.39604147 -15.00103442 22.66793096 -12 19 C-10.44171646 16.4928404 -8.94756171 13.95482108 -7.46484375 11.40234375 C-6 9 -6 9 -4.37890625 6.87890625 C-2.81100394 4.94359897 -2.81100394 4.94359897 -2 2 C-1.34 2 -0.68 2 0 2 C0 1.34 0 0.68 0 0 Z " fill="#4A9A56" transform="translate(324,125)"/>
<path d="M0 0 C0.33 0.66 0.66 1.32 1 2 C1.63292969 2.26941406 2.26585937 2.53882813 2.91796875 2.81640625 C5.71442929 4.40613898 6.18227104 5.96573969 7.3125 8.9375 C7.83263672 10.25041016 7.83263672 10.25041016 8.36328125 11.58984375 C9 14 9 14 8 17 C8.33 17.33 8.66 17.66 9 18 C7 21 7 21 4.875 21.6875 C4.25625 21.790625 3.6375 21.89375 3 22 C2 20 1 18 0 16 C-0.36996094 15.39027344 -0.73992187 14.78054687 -1.12109375 14.15234375 C-2.27117052 11.33593352 -2.02079565 9.32019205 -1.6875 6.3125 C-1.58824219 5.33925781 -1.48898437 4.36601562 -1.38671875 3.36328125 C-1 1 -1 1 0 0 Z " fill="#2FA94F" transform="translate(287,162)"/>
<path d="M0 0 C-0.03255208 1.953125 -0.06510417 3.90625 -0.09765625 5.859375 C-0.07727894 7.97304715 -0.07727894 7.97304715 0.49121094 9.84692383 C1.42972924 13.81851352 1.26874145 17.8737892 1.3125 21.9375 C1.34150391 22.83146484 1.37050781 23.72542969 1.40039062 24.64648438 C1.44212547 28.97085655 1.38956989 31.35660725 -0.89453125 35.12890625 C-3 37 -3 37 -5 37 C-4.7834375 36.46375 -4.566875 35.9275 -4.34375 35.375 C-1.45498151 27.24365165 -1.71524979 19.50032106 -2 11 C-2.66 11 -3.32 11 -4 11 C-5.46534385 7.19010598 -4.55203911 4.6758821 -3 1 C-1 0 -1 0 0 0 Z " fill="#DA4D2F" transform="translate(316,151)"/>
<path d="M0 0 C0.66 0 1.32 0 2 0 C2 1.32 2 2.64 2 4 C1.34 4 0.68 4 0 4 C-0.25030977 6.41619823 -0.25030977 6.41619823 0 9 C0.99 9.66 1.98 10.32 3 11 C1.35 11.66 -0.3 12.32 -2 13 C-2 12.34 -2 11.68 -2 11 C-2.66 11 -3.32 11 -4 11 C-4 10.34 -4 9.68 -4 9 C-8.58335908 7.07794619 -13.27934033 5.54269924 -18 4 C-18 3.67 -18 3.34 -18 3 C-14.7 3 -11.4 3 -8 3 C-8 2.67 -8 2.34 -8 2 C-7.05125 2.04125 -6.1025 2.0825 -5.125 2.125 C-1.89755144 2.34973818 -1.89755144 2.34973818 0 0 Z " fill="#4180E9" transform="translate(146,138)"/>
<path d="M0 0 C0.33 1.32 0.66 2.64 1 4 C-1.38564077 3.42415568 -3.66682784 2.77772405 -6 2 C-6.99 2.33 -7.98 2.66 -9 3 C-9.73323796 5.01508358 -9.73323796 5.01508358 -10 7 C-11.32 7.33 -12.64 7.66 -14 8 C-13.67 8.99 -13.34 9.98 -13 11 C-12.34 11.33 -11.68 11.66 -11 12 C-11.33 12.66 -11.66 13.32 -12 14 C-10.02 16.97 -10.02 16.97 -8 20 C-8.99 20.33 -9.98 20.66 -11 21 C-13.27898575 18.82670635 -15.32219519 16.67416275 -17 14 C-16.875 10.0625 -16.875 10.0625 -16 7 C-15.01 6.67 -14.02 6.34 -13 6 C-11.63823419 4.01924973 -10.30406884 2.01920337 -9 0 C-5.93109813 -1.53445094 -3.29905734 -0.54984289 0 0 Z " fill="#534F50" transform="translate(340,209)"/>
<path d="M0 0 C10.58123101 0.61741589 17.49258726 3.41098495 25 11 C26.02531141 12.31396891 27.03324647 13.64236773 28 15 C27.375 16.875 27.375 16.875 26 19 C22.875 20.25 22.875 20.25 20 21 C20.25 19.125 20.25 19.125 21 17 C23.0625 15.75 23.0625 15.75 25 15 C18.92015653 6.1335616 9.96417655 3.71888354 0 1 C0 0.67 0 0.34 0 0 Z " fill="#467ED2" transform="translate(130,127)"/>
<path d="M0 0 C2.32783257 1.16391628 3.34167872 2.44336866 5 4.4375 C6.61903915 6.37629938 8.21204833 8.21204833 10 10 C9.66306057 13.36939433 8.11180592 15.42910583 6 18 C4.35 17.67 2.7 17.34 1 17 C1.53625 16.505 2.0725 16.01 2.625 15.5 C4.24816144 12.54879737 3.99726437 11.89970418 3.1875 8.75 C2.795625 7.5125 2.40375 6.275 2 5 C1.34 5 0.68 5 0 5 C0 3.35 0 1.7 0 0 Z " fill="#D84539" transform="translate(321,198)"/>
<path d="M0 0 C0.66 0 1.32 0 2 0 C2.84454356 3.37817425 3.10844919 5.67465243 2 9 C1.34 9 0.68 9 0 9 C-0.12375 9.61875 -0.2475 10.2375 -0.375 10.875 C-1 13 -1 13 -3 15 C-3 13.35 -3 11.7 -3 10 C-4.98 10.99 -4.98 10.99 -7 12 C-5.6393389 6.80474854 -3.64232612 3.82444243 0 0 Z " fill="#4C974C" transform="translate(313,143)"/>
<path d="M0 0 C-10.36021148 5.77526682 -19.2017902 7.40374102 -31 7 C-31 6.34 -31 5.68 -31 5 C-29.85660156 4.95101562 -28.71320313 4.90203125 -27.53515625 4.8515625 C-26.04424527 4.77654811 -24.55336108 4.70099972 -23.0625 4.625 C-22.30775391 4.5940625 -21.55300781 4.563125 -20.77539062 4.53125 C-18.84492605 4.4273685 -16.92057919 4.22104386 -15 4 C-14.67 3.34 -14.34 2.68 -14 2 C-13.01 2 -12.02 2 -11 2 C-10.34 1.34 -9.68 0.68 -9 0 C-5.42460821 -0.83679382 -3.52044638 -1.17348213 0 0 Z " fill="#4480D4" transform="translate(151,210)"/>
<path d="M0 0 C2.64049181 4.62614166 2.61727514 8.78662807 2 14 C0.5930781 18.91383068 -0.935382 23.68216221 -5 27 C-5.66 27 -6.32 27 -7 27 C-6.0022242 24.00667261 -5.2477975 23.05233685 -3 21 C-3.66 21 -4.32 21 -5 21 C-5 18 -5 18 -3.5625 16.4375 C-3.046875 15.963125 -2.53125 15.48875 -2 15 C-0.58365167 12.16730334 -0.6536995 9.52533562 -0.4375 6.375 C-0.31181641 4.59222656 -0.31181641 4.59222656 -0.18359375 2.7734375 C-0.12300781 1.85820312 -0.06242188 0.94296875 0 0 Z " fill="#4A7ED1" transform="translate(159,180)"/>
<path d="M0 0 C0.66 0.33 1.32 0.66 2 1 C2.33 1.99 2.66 2.98 3 4 C3.928125 3.2575 3.928125 3.2575 4.875 2.5 C7 1 7 1 9 1 C9.41176754 4.60296594 9.1535853 5.78402067 7 8.8125 C6.34 9.534375 5.68 10.25625 5 11 C2 10 2 10 0 9 C0 7.35 0 5.7 0 4 C-0.66 4 -1.32 4 -2 4 C-1.34 2.68 -0.68 1.36 0 0 Z " fill="#4A9256" transform="translate(264,181)"/>
<path d="M0 0 C4.875 2.625 4.875 2.625 6 6 C5.54625 6.391875 5.0925 6.78375 4.625 7.1875 C2.72357081 9.30832487 1.93795972 11.33042235 1 14 C0.34 14 -0.32 14 -1 14 C-1.66 15.98 -2.32 17.96 -3 20 C-7.875 15.25 -7.875 15.25 -9 13 C-6.69 13 -4.38 13 -2 13 C-1.5978125 11.8553125 -1.5978125 11.8553125 -1.1875 10.6875 C-0.05575888 8.12619116 0.91223401 6.80307062 3 5 C2.505 4.54625 2.01 4.0925 1.5 3.625 C0 2 0 2 0 0 Z " fill="#BE6251" transform="translate(309,133)"/>
<path d="M0 0 C0.33 0 0.66 0 1 0 C2.19518149 25.15193053 2.19518149 25.15193053 -5.66796875 33.84375 C-6.10753906 34.2253125 -6.54710937 34.606875 -7 35 C-6.505 32.03 -6.505 32.03 -6 29 C-6.66 28.67 -7.32 28.34 -8 28 C-7.360625 27.7525 -6.72125 27.505 -6.0625 27.25 C-3.81258459 26.18437567 -3.81258459 26.18437567 -3.25 23.875 C-3.1675 23.25625 -3.085 22.6375 -3 22 C-2.34 22 -1.68 22 -1 22 C-0.67 14.74 -0.34 7.48 0 0 Z " fill="#D34D43" transform="translate(330,163)"/>
<path d="M0 0 C-0.66 2.31 -1.32 4.62 -2 7 C-2.66 7 -3.32 7 -4 7 C-4 8.65 -4 10.3 -4 12 C-4.99 12 -5.98 12 -7 12 C-7.66 10.02 -8.32 8.04 -9 6 C-8.07213211 4.99105628 -7.13231567 3.99309093 -6.1875 3 C-5.66542969 2.443125 -5.14335937 1.88625 -4.60546875 1.3125 C-3 0 -3 0 0 0 Z " fill="#2DA84D" transform="translate(305,164)"/>
<path d="M0 0 C2.69725519 1.88807863 4.13216429 3.19824644 6 6 C6.804375 6.144375 7.60875 6.28875 8.4375 6.4375 C11 7 11 7 12.8125 9.0625 C13.204375 9.701875 13.59625 10.34125 14 11 C12.25390625 11.6640625 12.25390625 11.6640625 10 12 C5.16664472 9.53229846 1.31947343 5.92888103 -1 1 C-0.67 0.67 -0.34 0.34 0 0 Z " fill="#4282E8" transform="translate(94,161)"/>
<path d="M0 0 C0.226875 0.598125 0.45375 1.19625 0.6875 1.8125 C3.60543469 6.67572449 8.78140016 7.66976867 14 9 C14 9.66 14 10.32 14 11 C7.82085856 10.60558672 3.07104639 8.57348687 -2 5 C-2.66 4.01 -3.32 3.02 -4 2 C-2.68 1.34 -1.36 0.68 0 0 Z " fill="#477AD0" transform="translate(98,204)"/>
<path d="M0 0 C0.33 2.31 0.66 4.62 1 7 C2.32 6.67 3.64 6.34 5 6 C3.79618552 8.49361571 2.54571278 10.68143083 1 13 C0.15556432 11.75747321 -0.6751458 10.5056114 -1.5 9.25 C-1.9640625 8.55390625 -2.428125 7.8578125 -2.90625 7.140625 C-4 5 -4 5 -4 1 C-2 0 -2 0 0 0 Z " fill="#437EDB" transform="translate(92,193)"/>
<path d="M0 0 C-2.49142269 3.73713403 -4.28678678 4.57948403 -8.578125 5.6328125 C-9.45984375 5.79523438 -10.3415625 5.95765625 -11.25 6.125 C-12.58804688 6.37636719 -12.58804688 6.37636719 -13.953125 6.6328125 C-14.96632813 6.81457031 -14.96632813 6.81457031 -16 7 C-16 6.01 -16 5.02 -16 4 C-14.274773 3.32320342 -12.54461061 2.65898 -10.8125 2 C-9.84957031 1.62875 -8.88664062 1.2575 -7.89453125 0.875 C-5.07817642 0.02363228 -2.91835561 -0.17072647 0 0 Z " fill="#4A80D6" transform="translate(118,127)"/>
<path d="M0 0 C0.825 0.763125 1.65 1.52625 2.5 2.3125 C10.13191039 8.54876011 18.49815805 8.61298677 28 9 C28 9.33 28 9.66 28 10 C19.21243296 11.16492243 11.75935737 11.84959836 4 7 C1.375 4.375 1.375 4.375 0 2 C0 1.34 0 0.68 0 0 Z " fill="#4C7DC8" transform="translate(104,192)"/>
<path d="M0 0 C0.33 0.66 0.66 1.32 1 2 C1.66 2 2.32 2 3 2 C3.70125 2.7425 4.4025 3.485 5.125 4.25 C9.61515369 8.54492962 14.77593293 11.22199162 21 12 C21 12.33 21 12.66 21 13 C13.57528653 12.52858962 6.47131374 11.36612242 0.9375 6 C0 4 0 4 0 0 Z " fill="#CA5245" transform="translate(263,188)"/>
<path d="M0 0 C0.99 0 1.98 0 3 0 C3.33 1.32 3.66 2.64 4 4 C4.66 4 5.32 4 6 4 C6 3.34 6 2.68 6 2 C6.99 2.33 7.98 2.66 9 3 C10.1875 6.5625 10.1875 6.5625 11 10 C8 9 8 9 6 6 C4.68 7.32 3.36 8.64 2 10 C2.0928125 8.576875 2.0928125 8.576875 2.1875 7.125 C2.125625 6.09375 2.06375 5.0625 2 4 C1.01 3.34 0.02 2.68 -1 2 C-0.67 1.34 -0.34 0.68 0 0 Z " fill="#DB4335" transform="translate(319,150)"/>
<path d="M0 0 C0.66 0.99 1.32 1.98 2 3 C2.66 3.33 3.32 3.66 4 4 C3.67 4.66 3.34 5.32 3 6 C4.98 8.97 4.98 8.97 7 12 C6.01 12.33 5.02 12.66 4 13 C-1.88183807 6.92560175 -1.88183807 6.92560175 -2.375 3.0625 C-2.25125 2.381875 -2.1275 1.70125 -2 1 C-1.34 0.67 -0.68 0.34 0 0 Z " fill="#575353" transform="translate(325,217)"/>
<path d="M0 0 C1.625 0.9375 1.625 0.9375 2.625 3.9375 C1.635 3.9375 0.645 3.9375 -0.375 3.9375 C-1.365 5.4225 -1.365 5.4225 -2.375 6.9375 C-3.035 6.9375 -3.695 6.9375 -4.375 6.9375 C-5.365 7.4325 -5.365 7.4325 -6.375 7.9375 C-6.375 7.2775 -6.375 6.6175 -6.375 5.9375 C-7.365 5.2775 -8.355 4.6175 -9.375 3.9375 C-3.04421899 -0.08011103 -3.04421899 -0.08011103 0 0 Z " fill="#457DD6" transform="translate(101.375,188.0625)"/>
<path d="M0 0 C2.0625 0.4375 2.0625 0.4375 4 1 C3.67 1.99 3.34 2.98 3 4 C1.22265625 4.765625 1.22265625 4.765625 -0.9375 5.25 C-1.64777344 5.42015625 -2.35804688 5.5903125 -3.08984375 5.765625 C-5 6 -5 6 -7 5 C-7 5.66 -7 6.32 -7 7 C-11.29 7 -15.58 7 -20 7 C-20 6.67 -20 6.34 -20 6 C-16.04 6 -12.08 6 -8 6 C-8 5.34 -8 4.68 -8 4 C-6.865625 3.525625 -5.73125 3.05125 -4.5625 2.5625 C-1.24259834 1.36377917 -1.24259834 1.36377917 0 0 Z " fill="#447EDE" transform="translate(140,196)"/>
<path d="M0 0 C0.33 0 0.66 0 1 0 C1.2766209 2.8954992 1.52198324 5.78811046 1.75 8.6875 C1.83121094 9.50412109 1.91242188 10.32074219 1.99609375 11.16210938 C2.30245311 15.36604058 2.37485646 17.37865179 0.140625 21.08203125 C-2 23 -2 23 -4 23 C-3.79503906 22.42894531 -3.59007812 21.85789063 -3.37890625 21.26953125 C-1.03126261 14.20413485 -0.33709974 7.41619434 0 0 Z " fill="#CC5140" transform="translate(315,165)"/>
<path d="M0 0 C7.16300229 -0.46715232 13.98067039 0.98711359 20 5 C20 5.66 20 6.32 20 7 C17.525 6.505 17.525 6.505 15 6 C15 5.34 15 4.68 15 4 C11.7 3.67 8.4 3.34 5 3 C5 2.67 5 2.34 5 2 C3.35 1.67 1.7 1.34 0 1 C0 0.67 0 0.34 0 0 Z " fill="#D24B42" transform="translate(289,128)"/>
<path d="M0 0 C0.93065133 2.60582371 1.14917407 3.64198224 0.0625 6.25 C-0.4634375 7.11625 -0.4634375 7.11625 -1 8 C-0.34 8 0.32 8 1 8 C0.67 8.66 0.34 9.32 0 10 C-2.475 9.01 -2.475 9.01 -5 8 C-5 8.66 -5 9.32 -5 10 C-5.66 10 -6.32 10 -7 10 C-5.6062718 5.56541027 -3.39417765 3.12621626 0 0 Z " fill="#4680D8" transform="translate(100,133)"/>
<path d="M0 0 C0.86625 0.845625 1.7325 1.69125 2.625 2.5625 C5.29015261 4.82153412 5.66887413 5.01839588 9.375 4.8125 C10.24125 4.544375 11.1075 4.27625 12 4 C12 6.31 12 8.62 12 11 C8.81293058 9.56438314 6.37830895 7.79733671 3.75 5.5 C3.04359375 4.8915625 2.3371875 4.283125 1.609375 3.65625 C0 2 0 2 0 0 Z " fill="#D74D43" transform="translate(252,199)"/>
<path d="M0 0 C0.66 0.33 1.32 0.66 2 1 C1.67 6.28 1.34 11.56 1 17 C0.34 17 -0.32 17 -1 17 C-1.02721176 15.10424749 -1.04649136 13.20838021 -1.0625 11.3125 C-1.07410156 10.25675781 -1.08570313 9.20101562 -1.09765625 8.11328125 C-1.00865425 5.27589738 -0.64939838 2.7561081 0 0 Z " fill="#D74B39" transform="translate(243,161)"/>
<path d="M0 0 C0.99 0.99 1.98 1.98 3 3 C4.32 2.01 5.64 1.02 7 0 C6.875 1.875 6.875 1.875 6 4 C3.25822503 5.16671276 0.99432393 6 -2 6 C-2 7.32 -2 8.64 -2 10 C-2.66 10 -3.32 10 -4 10 C-2.99806563 6.20696275 -2.18975773 3.28463659 0 0 Z " fill="#D5463A" transform="translate(249,147)"/>
<path d="M0 0 C1.2065625 0.0309375 1.2065625 0.0309375 2.4375 0.0625 C1.90125 1.073125 1.365 2.08375 0.8125 3.125 C-1.06224625 7.3976775 -0.2116828 9.80934436 1.4375 14.0625 C-0.5 13.375 -0.5 13.375 -2.5625 12.0625 C-3.49830311 9.18310581 -3.93495106 7.80740212 -2.5625 5.0625 C-2.88630126 3.72681979 -3.21907551 2.39326989 -3.5625 1.0625 C-2.5625 0.0625 -2.5625 0.0625 0 0 Z " fill="#447AD3" transform="translate(109.5625,143.9375)"/>
<path d="M0 0 C0.125 5.75 0.125 5.75 -1 8 C-3 7 -5 6 -7 5 C-6 2 -6 2 -4.0625 0.8125 C-2 0 -2 0 0 0 Z " fill="#44A376" transform="translate(330,119)"/>
<path d="M0 0 C2.83374881 3.20336822 3.5205537 5.78087253 4 10 C5.32 10.33 6.64 10.66 8 11 C6.02 11.99 6.02 11.99 4 13 C3.566875 12.38125 3.13375 11.7625 2.6875 11.125 C1.00259517 8.7802755 1.00259517 8.7802755 -2 7 C-1.34 6.67 -0.68 6.34 0 6 C-0.2784375 5.071875 -0.2784375 5.071875 -0.5625 4.125 C-1 2 -1 2 0 0 Z " fill="#E1493F" transform="translate(315,200)"/>
<path d="M0 0 C0.33 1.98 0.66 3.96 1 6 C-2.52948291 7.66670026 -4.28272326 8.13583456 -8 7 C-6.8572081 5.83035398 -5.71068285 4.66435444 -4.5625 3.5 C-3.92441406 2.8503125 -3.28632813 2.200625 -2.62890625 1.53125 C-1 0 -1 0 0 0 Z " fill="#D74741" transform="translate(311,188)"/>
<path d="M0 0 C5.41110091 1.31978071 9.26441506 3.93285427 13 8 C13 8.66 13 9.32 13 10 C10 9 10 9 8.1875 7.0625 C5.61249585 4.63463895 3.38036363 3.92191735 0 3 C0 2.01 0 1.02 0 0 Z " fill="#497CCF" transform="translate(144,166)"/>
<path d="M0 0 C0.41176754 3.60296594 0.1535853 4.78402067 -2 7.8125 C-2.66 8.534375 -3.32 9.25625 -4 10 C-5.3442623 4.62295082 -5.3442623 4.62295082 -3.6875 1.625 C-2 0 -2 0 0 0 Z " fill="#30A54E" transform="translate(310,153)"/>
<path d="M0 0 C1.1446875 0.2784375 1.1446875 0.2784375 2.3125 0.5625 C5.08967375 1.22819173 5.08967375 1.22819173 8 0 C8 0.99 8 1.98 8 3 C8.99 3.66 9.98 4.32 11 5 C9.35 5.66 7.7 6.32 6 7 C6 6.34 6 5.68 6 5 C5.34 5 4.68 5 4 5 C4 4.34 4 3.68 4 3 C2.68 2.34 1.36 1.68 0 1 C0 0.67 0 0.34 0 0 Z " fill="#427ADB" transform="translate(138,144)"/>
<path d="M0 0 C1.43836751 0.11458693 2.87570966 0.24209116 4.3125 0.375 C5.51326172 0.47941406 5.51326172 0.47941406 6.73828125 0.5859375 C9 1 9 1 12 3 C10.9275 3.144375 9.855 3.28875 8.75 3.4375 C6.08337051 3.83749442 3.58600271 4.27591924 1 5 C0.67 3.35 0.34 1.7 0 0 Z " fill="#4986DF" transform="translate(132,163)"/>
<path d="M0 0 C2.69082872 0.17635452 5.32851446 0.61835921 8 1 C7.67 1.66 7.34 2.32 7 3 C4.03 2.505 4.03 2.505 1 2 C0.67 5.96 0.34 9.92 0 14 C-0.33 14 -0.66 14 -1 14 C-1.02685938 11.85423363 -1.04633088 9.70837355 -1.0625 7.5625 C-1.07410156 6.36753906 -1.08570313 5.17257813 -1.09765625 3.94140625 C-1 1 -1 1 0 0 Z " fill="#F5B730" transform="translate(188,178)"/>
<path d="M0 0 C2.3431213 0.25561323 4.67843403 0.59270772 7 1 C7.33 1.66 7.66 2.32 8 3 C6.68 2.67 5.36 2.34 4 2 C4 2.66 4 3.32 4 4 C4.99 4.33 5.98 4.66 7 5 C6.01 5.495 6.01 5.495 5 6 C2.64018187 5.06421005 0.30368736 4.06652192 -2 3 C-1.34 2.01 -0.68 1.02 0 0 Z " fill="#DF473B" transform="translate(268,209)"/>
<path d="M0 0 C2.5570851 2.22355226 3.24170912 3.75018193 4 7 C4.66 7.33 5.32 7.66 6 8 C6.73075648 10.3140622 7.40138258 12.64828869 8 15 C7.34 15 6.68 15 6 15 C4.99267601 13.06629769 3.99436712 11.12789694 3 9.1875 C2.443125 8.10855469 1.88625 7.02960938 1.3125 5.91796875 C0 3 0 3 0 0 Z " fill="#CD5045" transform="translate(244,184)"/>
<path d="M0 0 C7.26 0 14.52 0 22 0 C21.67 0.99 21.34 1.98 21 3 C20.01 2.67 19.02 2.34 18 2 C16.59335074 1.85507877 15.1818867 1.75371069 13.76953125 1.68359375 C12.56586914 1.62075195 12.56586914 1.62075195 11.33789062 1.55664062 C10.50451172 1.51732422 9.67113281 1.47800781 8.8125 1.4375 C7.96751953 1.39431641 7.12253906 1.35113281 6.25195312 1.30664062 C4.16815567 1.20068482 2.08409897 1.0998498 0 1 C0 0.67 0 0.34 0 0 Z " fill="#F8B80E" transform="translate(208,165)"/>
<path d="M0 0 C0.66 0.66 1.32 1.32 2 2 C1.401875 2.66 0.80375 3.32 0.1875 4 C-2.42425831 7.58183997 -3.58094144 10.81377726 -5 15 C-5.33 15 -5.66 15 -6 15 C-5.29822868 9.03494376 -4.71046098 4.0681254 0 0 Z " fill="#CB4C3E" transform="translate(265,150)"/>
<path d="M0 0 C0.99 0.33 1.98 0.66 3 1 C4.1875 3.5625 4.1875 3.5625 5 6 C3.02 6 1.04 6 -1 6 C-1 6.66 -1 7.32 -1 8 C-1.66 8 -2.32 8 -3 8 C-2.690625 7.236875 -2.38125 6.47375 -2.0625 5.6875 C-1.32106407 3.81210323 -0.63771783 1.91315348 0 0 Z " fill="#BE6442" transform="translate(319,142)"/>
<path d="M0 0 C1.98 0.66 3.96 1.32 6 2 C6 2.66 6 3.32 6 4 C2.7 4.66 -0.6 5.32 -4 6 C-1.125 1.125 -1.125 1.125 0 0 Z " fill="#4582DE" transform="translate(116,138)"/>
<path d="M0 0 C0.66 0.33 1.32 0.66 2 1 C0.6875 4.4375 0.6875 4.4375 -1 8 C-1.99 8.33 -2.98 8.66 -4 9 C-5.20882096 11.00016466 -5.20882096 11.00016466 -6 13 C-6 9.32965255 -4.9247108 7.9000569 -3 4.8125 C-2.443125 3.91144531 -1.88625 3.01039063 -1.3125 2.08203125 C-0.6628125 1.05142578 -0.6628125 1.05142578 0 0 Z " fill="#43995D" transform="translate(273,166)"/>
<path d="M0 0 C3.79448125 2.35519526 5.20578369 4.9630133 7 9 C2.79373966 7.49776416 1.26099979 4.71449966 -1 1 C-0.67 0.67 -0.34 0.34 0 0 Z " fill="#4078D0" transform="translate(94,161)"/>
<path d="M0 0 C2.64 0 5.28 0 8 0 C7.38722388 2.96175123 6.74627478 4.38058783 5 7 C3.35 4.69 1.7 2.38 0 0 Z " fill="#B25F47" transform="translate(300,146)"/>
<path d="M0 0 C0.99 0.33 1.98 0.66 3 1 C3.33 2.65 3.66 4.3 4 6 C1.03 5.505 1.03 5.505 -2 5 C-1.125 1.125 -1.125 1.125 0 0 Z " fill="#3F8D59" transform="translate(283,152)"/>
<path d="M0 0 C-2.88087546 2.40072955 -5.56404834 4.47291037 -9 6 C-8.67 4.35 -8.34 2.7 -8 1 C-5.07175348 0.02391783 -3.04386724 -0.08226668 0 0 Z " fill="#D3493D" transform="translate(276,145)"/>
<path d="M0 0 C4.41889613 1.35021826 6.34345343 3.26115668 9 7 C8.01 7.33 7.02 7.66 6 8 C4.02 5.36 2.04 2.72 0 0 Z " fill="#4C4C4C" transform="translate(339,238)"/>
<path d="M0 0 C0.33 0 0.66 0 1 0 C1.33 4.62 1.66 9.24 2 14 C1.01 14 0.02 14 -1 14 C-1.33 12.35 -1.66 10.7 -2 9 C-1.34 9 -0.68 9 0 9 C0 6.03 0 3.06 0 0 Z " fill="#F2C10D" transform="translate(173,199)"/>
<path d="M0 0 C0 3 0 3 -2 6 C-2.66 6 -3.32 6 -4 6 C-4 5.34 -4 4.68 -4 4 C-4.66 4 -5.32 4 -6 4 C-6 3.01 -6 2.02 -6 1 C-4.7934375 1.0309375 -4.7934375 1.0309375 -3.5625 1.0625 C-1.06645115 1.29633621 -1.06645115 1.29633621 0 0 Z " fill="#43935C" transform="translate(297,183)"/>
<path d="M0 0 C0.66 0 1.32 0 2 0 C1.67 2.31 1.34 4.62 1 7 C0.01 7.33 -0.98 7.66 -2 8 C-3 5 -3 5 -2 2 C-1.34 2 -0.68 2 0 2 C0 1.34 0 0.68 0 0 Z " fill="#4DAC80" transform="translate(324,125)"/>
<path d="M0 0 C0.66 0.33 1.32 0.66 2 1 C2.1875 3.375 2.1875 3.375 2 6 C1.01 6.66 0.02 7.32 -1 8 C-1.99 7.67 -2.98 7.34 -4 7 C-3.01 6.67 -2.02 6.34 -1 6 C-1.33 4.68 -1.66 3.36 -2 2 C-1.34 2 -0.68 2 0 2 C0 1.34 0 0.68 0 0 Z " fill="#525252" transform="translate(365,237)"/>
<path d="M0 0 C1 3 1 3 -0.125 5.625 C-2 8 -2 8 -4.6875 8.8125 C-5.450625 8.874375 -6.21375 8.93625 -7 9 C-7 8.34 -7 7.68 -7 7 C-6.01 6.67 -5.02 6.34 -4 6 C-2.60287726 4.04402816 -1.26220093 2.04563599 0 0 Z " fill="#76504E" transform="translate(331,209)"/>
<path d="M0 0 C5.75 3.625 5.75 3.625 8 7 C7.01 7.33 6.02 7.66 5 8 C0 2.25 0 2.25 0 0 Z " fill="#4B4B4A" transform="translate(324,222)"/>
<path d="M0 0 C0 3.20395416 -0.74335022 5.09399739 -2 8 C-3.32 8 -4.64 8 -6 8 C-6 7.34 -6 6.68 -6 6 C-5.34 6 -4.68 6 -4 6 C-3.71125 5.38125 -3.4225 4.7625 -3.125 4.125 C-2 2 -2 2 0 0 Z " fill="#CA4A40" transform="translate(256,139)"/>
<path d="M0 0 C0.598125 0.20625 1.19625 0.4125 1.8125 0.625 C1.4825 1.615 1.1525 2.605 0.8125 3.625 C-1.1675 3.625 -3.1475 3.625 -5.1875 3.625 C-5.1875 2.965 -5.1875 2.305 -5.1875 1.625 C-2.1875 -0.375 -2.1875 -0.375 0 0 Z " fill="#377EE6" transform="translate(142.1875,196.375)"/>
<path d="M0 0 C0.99 0 1.98 0 3 0 C3.66 2.97 4.32 5.94 5 9 C4.34 8.67 3.68 8.34 3 8 C3 7.34 3 6.68 3 6 C2.34 6 1.68 6 1 6 C0.67 4.02 0.34 2.04 0 0 Z " fill="#DD3C30" transform="translate(242,178)"/>
<path d="M0 0 C2.1875 0.3125 2.1875 0.3125 4 1 C3.01 2.485 3.01 2.485 2 4 C0.35 3.67 -1.3 3.34 -3 3 C-1.75 1.4375 -1.75 1.4375 0 0 Z " fill="#CD4B3F" transform="translate(325,212)"/>
<path d="M0 0 C1.32 0.66 2.64 1.32 4 2 C-1.75 5 -1.75 5 -4 5 C-4 4.01 -4 3.02 -4 2 C-2.68 2 -1.36 2 0 2 C0 1.34 0 0.68 0 0 Z " fill="#D64A45" transform="translate(308,208)"/>
<path d="M0 0 C0.33 0 0.66 0 1 0 C1.33 3.63 1.66 7.26 2 11 C1.67 10.01 1.34 9.02 1 8 C0.34 8 -0.32 8 -1 8 C-1.93065133 5.39417629 -2.14917407 4.35801776 -1.0625 1.75 C-0.711875 1.1725 -0.36125 0.595 0 0 Z " fill="#C2573F" transform="translate(313,154)"/>
<path d="M0 0 C0.33 0.66 0.66 1.32 1 2 C-2.75 7.875 -2.75 7.875 -5 9 C-3.90931332 5.22454612 -3.0916909 2.52956528 0 0 Z " fill="#519559" transform="translate(311,146)"/>
<path d="M0 0 C0.66 1.32 1.32 2.64 2 4 C0.68 4.33 -0.64 4.66 -2 5 C-2.66 4.01 -3.32 3.02 -4 2 C-2.68 1.34 -1.36 0.68 0 0 Z " fill="#3D7CDE" transform="translate(98,204)"/>
<path d="M0 0 C-0.375 2.4375 -0.375 2.4375 -1 5 C-1.99 5.495 -1.99 5.495 -3 6 C-3 5.34 -3 4.68 -3 4 C-3.99 3.34 -4.98 2.68 -6 2 C-3 0 -3 0 0 0 Z " fill="#5081D8" transform="translate(98,190)"/>
<path d="M0 0 C2 1 2 1 2 1 Z " fill="#C5AC8C" transform="translate(235,215)"/>
<path d="" fill="#2AB82A" transform="translate(0,0)"/>
<path d="" fill="#808080" transform="translate(0,0)"/>
<path d="" fill="#000000" transform="translate(0,0)"/>
<path d="" fill="#666666" transform="translate(0,0)"/>
<path d="" fill="#555555" transform="translate(0,0)"/>
<path d="" fill="#000000" transform="translate(0,0)"/>
<path d="" fill="#808080" transform="translate(0,0)"/>
<path d="" fill="#808080" transform="translate(0,0)"/>
<path d="" fill="#000000" transform="translate(0,0)"/>
<path d="" fill="#404040" transform="translate(0,0)"/>
<path d="" fill="#808080" transform="translate(0,0)"/>
<path d="" fill="#000000" transform="translate(0,0)"/>
<path d="" fill="#AAAAAA" transform="translate(0,0)"/>
<path d="" fill="#FF0000" transform="translate(0,0)"/>
<path d="" fill="#FFFF00" transform="translate(0,0)"/>
<path d="" fill="#996666" transform="translate(0,0)"/>
<path d="" fill="#FF8080" transform="translate(0,0)"/>
<path d="" fill="#00FF00" transform="translate(0,0)"/>
<path d="" fill="#555555" transform="translate(0,0)"/>
<path d="" fill="#FFFF00" transform="translate(0,0)"/>
<path d="" fill="#FFFF00" transform="translate(0,0)"/>
<path d="" fill="#FF0000" transform="translate(0,0)"/>
<path d="" fill="#00FF00" transform="translate(0,0)"/>
</svg>
