<svg version="1.1" id="Layer_1" xmlns="http://www.w3.org/2000/svg" xmlns:xlink="http://www.w3.org/1999/xlink" x="0px" y="0px"
	 width="100%" viewBox="0 0 632 395" enable-background="new 0 0 632 395" xml:space="preserve">
<path fill="#000000" opacity="1.000000" stroke="none" 
	d="
M1.000003,251.000000 
	C1.000000,167.684280 1.000000,84.368568 1.000000,1.026427 
	C211.604507,1.026427 422.209015,1.026427 632.906738,1.026427 
	C632.906738,132.576614 632.906738,264.153320 632.906738,395.864990 
	C422.333405,395.864990 211.666702,395.864990 1.000000,395.864990 
	C1.000000,354.579163 1.000000,313.254578 1.402235,271.478760 
	C20.423773,274.688354 39.046741,278.330750 57.660877,282.017639 
	C67.369614,283.940704 77.050201,286.007446 86.767647,287.884247 
	C92.828453,289.054810 98.928711,290.027954 105.028458,290.979584 
	C105.651390,291.076752 106.392464,290.416626 107.499802,290.066895 
	C114.838409,288.682983 121.774864,287.429901 128.669205,285.976990 
	C140.109573,283.565979 151.522873,281.026489 163.008163,278.527954 
	C161.633514,270.645172 160.156860,263.121613 159.039078,255.545090 
	C157.386627,244.344696 156.085648,233.092636 154.453140,221.889069 
	C153.106750,212.649200 151.427292,203.458359 150.018631,194.226990 
	C147.670410,178.838425 145.587997,163.407242 143.058441,148.049225 
	C141.806976,140.451019 141.160721,140.369064 133.520081,140.929382 
	C129.342484,141.235748 125.690712,140.758957 122.697502,136.705902 
	C120.322205,133.489548 116.361511,131.444016 112.880188,128.570068 
	C110.166359,128.498352 107.677094,128.735199 105.119720,128.613373 
	C103.705704,126.127235 102.359795,123.999771 100.994476,121.671326 
	C100.975067,121.470352 100.847626,121.087166 100.840118,120.731598 
	C98.567879,118.547470 96.303131,116.718903 94.027695,114.933563 
	C94.016998,114.976784 94.103508,114.997871 94.014786,114.741570 
	C93.611984,114.380959 93.297920,114.276657 92.648132,113.995773 
	C88.775085,111.950211 85.277527,110.000664 81.691292,108.230782 
	C76.052094,105.447754 70.487595,106.143295 64.848274,108.541885 
	C48.818539,115.359879 43.398335,130.106628 38.152313,144.710876 
	C35.994682,150.717422 34.784935,152.859634 27.964142,153.998016 
	C17.749699,155.702805 15.551247,157.468246 13.992031,167.030579 
	C11.468055,182.509598 9.154805,198.027390 7.053911,213.569534 
	C5.450317,225.432709 4.340683,237.362289 2.893993,249.248047 
	C2.814734,249.899216 1.656175,250.419037 1.000003,251.000000 
z"/>
<path fill="#96BD49" opacity="1.000000" stroke="none" 
	d="
M100.847626,121.087166 
	C100.847626,121.087166 100.975067,121.470352 101.025696,122.056808 
	C102.446823,124.752846 103.817322,126.862442 105.187828,128.972046 
	C107.677094,128.735199 110.166359,128.498352 112.878853,129.044373 
	C112.727875,138.801956 112.380302,147.777893 111.973564,156.751129 
	C111.265533,172.371689 110.561630,187.992645 109.782867,203.609772 
	C108.399597,231.349579 106.942802,259.085724 105.618179,286.828278 
	C105.567207,287.895813 106.568008,289.013580 107.078705,290.107941 
	C106.392464,290.416626 105.651390,291.076752 105.028458,290.979584 
	C98.928711,290.027954 92.828453,289.054810 86.767647,287.884247 
	C77.050201,286.007446 67.369614,283.940704 57.660877,282.017639 
	C39.046741,278.330750 20.423773,274.688354 1.402235,271.013733 
	C1.000000,264.645599 1.000000,258.291199 1.000003,251.468414 
	C1.656175,250.419037 2.814734,249.899216 2.893993,249.248047 
	C4.340683,237.362289 5.450317,225.432709 7.053911,213.569534 
	C9.154805,198.027390 11.468055,182.509598 13.992031,167.030579 
	C15.551247,157.468246 17.749699,155.702805 27.964142,153.998016 
	C34.784935,152.859634 35.994682,150.717422 38.152313,144.710876 
	C43.398335,130.106628 48.818539,115.359879 64.848274,108.541885 
	C70.487595,106.143295 76.052094,105.447754 81.691292,108.230782 
	C85.277527,110.000664 88.775085,111.950211 92.822266,114.150055 
	C93.581047,114.665497 93.838173,114.837807 94.103508,114.997871 
	C94.103508,114.997871 94.016998,114.976784 94.111450,115.266579 
	C96.419807,117.399971 98.633713,119.243568 100.847626,121.087166 
M96.956985,126.329056 
	C95.680328,124.203430 94.633080,121.871315 93.004753,120.062225 
	C92.421219,119.413918 90.435112,120.028038 89.089157,120.065971 
	C89.342628,121.406593 89.596092,122.747223 90.241188,124.761978 
	C90.432770,126.513519 90.624352,128.265060 90.415627,130.200195 
	C90.548798,130.811478 90.681969,131.422775 90.968246,132.432968 
	C90.968246,132.432968 91.025177,132.856430 91.077980,133.494934 
	C93.725357,137.122467 96.958946,134.629730 98.835358,133.257767 
	C100.925301,131.729660 100.107208,129.059174 97.025635,127.563995 
	C97.025635,127.563995 96.966103,127.096848 96.956985,126.329056 
M27.130440,251.606232 
	C31.445898,256.959198 37.754215,259.227417 43.900009,260.637451 
	C48.956261,261.797485 54.784424,261.580597 59.847820,260.301239 
	C69.870926,257.768646 75.030083,249.779037 76.619255,240.258057 
	C78.241669,230.537903 77.269073,221.037201 67.954498,214.455566 
	C63.291061,211.160446 58.795914,207.428970 55.000183,203.198929 
	C53.420742,201.438751 52.823231,197.464844 53.680771,195.225906 
	C54.535580,192.994125 57.686508,190.372345 59.981579,190.221832 
	C64.996056,189.892975 70.274010,188.801697 75.258522,191.459976 
	C76.153961,191.937531 79.104370,190.607834 79.570503,189.478683 
	C81.291496,185.309708 82.406395,180.885864 83.672127,176.535431 
	C84.371498,174.131668 84.050659,172.186600 80.976128,171.943390 
	C76.893288,171.620407 72.781479,170.842331 68.730865,171.082352 
	C54.787872,171.908585 41.959259,179.393906 37.731564,193.547150 
	C34.018478,205.977600 35.953476,213.454666 45.571785,222.111053 
	C49.029045,225.222534 52.731850,228.510178 54.844669,232.500061 
	C56.135704,234.938095 55.631687,239.513535 54.081230,241.950150 
	C52.382805,244.619324 48.470543,245.477112 44.604324,243.244064 
	C42.712719,242.300217 40.746048,241.479614 38.946861,240.384003 
	C36.155224,238.684067 33.657360,234.234909 30.198400,237.286652 
	C28.308746,238.953873 28.654770,243.155060 27.966644,246.594910 
	C27.966644,246.594910 27.822474,246.948990 27.302666,247.049072 
	C27.141016,248.359879 26.979366,249.670700 27.130440,251.606232 
M57.502075,125.026726 
	C52.818855,131.617889 48.725227,138.479950 47.169388,146.684235 
	C54.714294,146.672745 58.343197,144.632172 59.749058,138.364883 
	C61.885857,128.839096 66.944763,121.408485 75.081734,114.829437 
	C67.134865,115.357002 62.364983,119.565697 57.502075,125.026726 
M76.398872,138.929825 
	C84.105927,136.516418 84.823372,134.038864 81.145042,121.896255 
	C74.620193,126.638847 69.837288,132.231873 69.041298,140.588074 
	C71.509590,139.957748 73.536415,139.440155 76.398872,138.929825 
z"/>
<path fill="#5F8D3E" opacity="1.000000" stroke="none" 
	d="
M107.499794,290.066895 
	C106.568008,289.013580 105.567207,287.895813 105.618179,286.828278 
	C106.942802,259.085724 108.399597,231.349579 109.782867,203.609772 
	C110.561630,187.992645 111.265533,172.371689 111.973564,156.751129 
	C112.380302,147.777893 112.727875,138.801956 113.103409,129.352936 
	C116.361511,131.444016 120.322205,133.489548 122.697502,136.705902 
	C125.690712,140.758957 129.342484,141.235748 133.520081,140.929382 
	C141.160721,140.369064 141.806976,140.451019 143.058441,148.049225 
	C145.587997,163.407242 147.670410,178.838425 150.018631,194.226990 
	C151.427292,203.458359 153.106750,212.649200 154.453140,221.889069 
	C156.085648,233.092636 157.386627,244.344696 159.039078,255.545090 
	C160.156860,263.121613 161.633514,270.645172 163.008163,278.527954 
	C151.522873,281.026489 140.109573,283.565979 128.669205,285.976990 
	C121.774864,287.429901 114.838409,288.682983 107.499794,290.066895 
z"/>
<path fill="#9EBB5E" opacity="1.000000" stroke="none" 
	d="
M100.840118,120.731598 
	C98.633713,119.243568 96.419807,117.399971 94.122147,115.223358 
	C96.303131,116.718903 98.567879,118.547470 100.840118,120.731598 
z"/>
<path fill="#9EBB5E" opacity="1.000000" stroke="none" 
	d="
M105.119720,128.613373 
	C103.817322,126.862442 102.446823,124.752846 101.045105,122.257782 
	C102.359795,123.999771 103.705704,126.127235 105.119720,128.613373 
z"/>
<path fill="#9EBB5E" opacity="1.000000" stroke="none" 
	d="
M94.014786,114.741570 
	C93.838173,114.837807 93.581047,114.665497 93.157990,114.326637 
	C93.297920,114.276657 93.611984,114.380959 94.014786,114.741570 
z"/>
<path fill="#000000" opacity="1.000000" stroke="none" 
	d="
M27.822475,246.948990 
	C27.822474,246.948990 27.966644,246.594910 28.341118,246.214401 
	C29.293379,243.223831 29.871162,240.613770 30.378012,238.324142 
	C35.498119,240.254974 40.214066,242.033371 44.930012,243.811783 
	C48.470543,245.477112 52.382805,244.619324 54.081230,241.950150 
	C55.631687,239.513535 56.135704,234.938095 54.844669,232.500061 
	C52.731850,228.510178 49.029045,225.222534 45.571785,222.111053 
	C35.953476,213.454666 34.018478,205.977600 37.731564,193.547150 
	C41.959259,179.393906 54.787872,171.908585 68.730865,171.082352 
	C72.781479,170.842331 76.893288,171.620407 80.976128,171.943390 
	C84.050659,172.186600 84.371498,174.131668 83.672127,176.535431 
	C82.406395,180.885864 81.291496,185.309708 79.570503,189.478683 
	C79.104370,190.607834 76.153961,191.937531 75.258522,191.459976 
	C70.274010,188.801697 64.996056,189.892975 59.981579,190.221832 
	C57.686508,190.372345 54.535580,192.994125 53.680771,195.225906 
	C52.823231,197.464844 53.420742,201.438751 55.000183,203.198929 
	C58.795914,207.428970 63.291061,211.160446 67.954498,214.455566 
	C77.269073,221.037201 78.241669,230.537903 76.619255,240.258057 
	C75.030083,249.779037 69.870926,257.768646 59.847820,260.301239 
	C54.784424,261.580597 48.956261,261.797485 43.900009,260.637451 
	C37.754215,259.227417 31.445898,256.959198 27.135643,250.968140 
	C27.368055,249.203018 27.595266,248.076004 27.822475,246.948990 
z"/>
<path fill="#000000" opacity="1.000000" stroke="none" 
	d="
M57.753929,124.761154 
	C62.364983,119.565697 67.134865,115.357002 75.081734,114.829437 
	C66.944763,121.408485 61.885857,128.839096 59.749058,138.364883 
	C58.343197,144.632172 54.714294,146.672745 47.169388,146.684235 
	C48.725227,138.479950 52.818855,131.617889 57.753929,124.761154 
z"/>
<path fill="#000000" opacity="1.000000" stroke="none" 
	d="
M75.981056,138.926193 
	C73.536415,139.440155 71.509590,139.957748 69.041298,140.588074 
	C69.837288,132.231873 74.620193,126.638847 81.145042,121.896255 
	C84.823372,134.038864 84.105927,136.516418 75.981056,138.926193 
z"/>
<path fill="#000000" opacity="1.000000" stroke="none" 
	d="
M90.815926,130.016602 
	C90.624352,128.265060 90.432770,126.513519 90.118767,124.070930 
	C90.469254,119.460541 92.398895,122.329987 93.177452,122.933815 
	C94.638039,124.066589 95.724213,125.682106 96.966103,127.096848 
	C96.966103,127.096848 97.025635,127.563995 97.042282,128.163239 
	C98.369835,131.494492 98.006401,133.173584 94.479790,132.933853 
	C93.331802,132.855804 92.176910,132.879349 91.025177,132.856430 
	C91.025177,132.856430 90.968246,132.432968 90.955872,131.898804 
	C90.900970,130.915298 90.858444,130.465942 90.815926,130.016602 
z"/>
<path fill="#A0BA69" opacity="1.000000" stroke="none" 
	d="
M44.767166,243.527924 
	C40.214066,242.033371 35.498119,240.254974 30.378012,238.324142 
	C29.871162,240.613770 29.293379,243.223831 28.354080,246.023697 
	C28.654770,243.155060 28.308746,238.953873 30.198400,237.286652 
	C33.657360,234.234909 36.155224,238.684067 38.946861,240.384003 
	C40.746048,241.479614 42.712719,242.300217 44.767166,243.527924 
z"/>
<path fill="#9EBB5E" opacity="1.000000" stroke="none" 
	d="
M96.961548,126.712952 
	C95.724213,125.682106 94.638039,124.066589 93.177452,122.933815 
	C92.398895,122.329987 90.469254,119.460541 89.922951,123.733864 
	C89.596092,122.747223 89.342628,121.406593 89.089157,120.065971 
	C90.435112,120.028038 92.421219,119.413918 93.004753,120.062225 
	C94.633080,121.871315 95.680328,124.203430 96.961548,126.712952 
z"/>
<path fill="#9BBD5A" opacity="1.000000" stroke="none" 
	d="
M91.051575,133.175690 
	C92.176910,132.879349 93.331802,132.855804 94.479790,132.933853 
	C98.006401,133.173584 98.369835,131.494492 97.117844,128.386230 
	C100.107208,129.059174 100.925301,131.729660 98.835358,133.257767 
	C96.958946,134.629730 93.725357,137.122467 91.051575,133.175690 
z"/>
<path fill="#A0BA69" opacity="1.000000" stroke="none" 
	d="
M27.562572,246.999023 
	C27.595266,248.076004 27.368055,249.203018 26.979280,250.655762 
	C26.979366,249.670700 27.141016,248.359879 27.562572,246.999023 
z"/>
<path fill="#9BBD5A" opacity="1.000000" stroke="none" 
	d="
M90.615776,130.108398 
	C90.858444,130.465942 90.900970,130.915298 90.879318,131.699341 
	C90.681969,131.422775 90.548798,130.811478 90.615776,130.108398 
z"/>
</svg>