<svg version="1.1" id="Layer_1" xmlns="http://www.w3.org/2000/svg" xmlns:xlink="http://www.w3.org/1999/xlink" x="0px" y="0px"
	 width="100%" viewBox="0 0 2000 1080" enable-background="new 0 0 2000 1080" xml:space="preserve">
<path fill="#000101" opacity="1.000000" stroke="none" 
	d="
M1200.000000,1081.000000 
	C800.000061,1081.000000 400.500153,1081.000000 1.000161,1081.000000 
	C1.000107,721.000122 1.000107,361.000275 1.000054,1.000306 
	C667.666443,1.000204 1334.332886,1.000204 2000.999512,1.000102 
	C2000.999634,360.999664 2000.999634,720.999329 2000.999756,1080.999512 
	C1734.166626,1081.000000 1467.333374,1081.000000 1200.000000,1081.000000 
M937.701782,608.942505 
	C970.536621,619.338074 1003.967346,621.587402 1037.805908,615.424805 
	C1085.002441,606.829285 1124.547852,584.454773 1156.377441,548.463318 
	C1172.216919,530.552551 1184.433716,510.452393 1193.271118,488.296082 
	C1204.171143,460.968842 1208.273071,432.570435 1207.293213,403.181671 
	C1206.367432,375.419128 1199.878540,349.125366 1188.194824,324.119873 
	C1176.515015,299.122681 1160.392212,277.330414 1139.736816,258.858826 
	C1126.242798,246.791504 1111.733887,236.281174 1095.608032,228.120728 
	C1065.200562,212.733078 1033.043945,205.307159 998.797913,205.648102 
	C967.357056,205.961105 937.705200,212.785660 909.628784,226.549667 
	C886.242004,238.014618 865.802246,253.452652 848.227051,272.826263 
	C837.185364,284.997864 827.488525,298.072235 819.661438,312.411163 
	C798.596313,351.001892 790.801392,392.400482 795.830200,435.966522 
	C801.866943,488.264679 824.819458,532.011597 864.212463,567.040222 
	C885.543823,586.008240 909.803284,599.871704 937.701782,608.942505 
M786.602600,721.841431 
	C777.164917,717.261658 767.007141,715.280640 756.709045,715.124695 
	C732.381531,714.756165 708.044617,715.003845 683.711548,715.004822 
	C680.378296,715.004944 677.039917,715.137695 673.713196,714.993835 
	C670.305054,714.846375 668.718689,716.243958 669.023621,719.687683 
	C669.165405,721.289551 669.263550,722.895325 669.420471,725.029724 
	C673.093506,725.029724 676.402344,724.902527 679.698303,725.054443 
	C688.320374,725.451782 695.325500,730.191833 696.709595,737.176270 
	C697.893738,743.151917 698.840942,749.281921 698.902344,755.353760 
	C699.146606,779.517639 699.118958,803.686523 698.914429,827.851196 
	C698.868591,833.272400 697.800293,838.698181 697.026184,844.096558 
	C696.041382,850.964417 691.735413,855.132446 685.320801,856.904053 
	C681.203003,858.041199 676.876343,858.570618 672.605652,858.957397 
	C669.293213,859.257385 669.066528,861.194092 669.015625,863.745056 
	C668.957031,866.683105 670.167175,867.980652 673.151306,867.976807 
	C701.317444,867.940186 729.483521,867.953430 757.649658,867.965881 
	C760.097412,867.966980 761.922974,867.390320 761.937561,864.415894 
	C761.950623,861.747498 761.833435,859.343323 758.305969,859.024536 
	C756.005371,858.816650 753.738647,858.161011 751.438599,858.033569 
	C740.874817,857.448547 733.967896,851.424805 733.096802,840.776245 
	C732.271423,830.686707 732.239014,820.525513 732.109619,810.392578 
	C732.087952,808.697327 733.515808,805.481567 733.986084,805.534302 
	C736.401123,805.805115 739.595154,806.198425 740.942078,807.840698 
	C755.837646,826.002014 770.596191,844.282532 784.999512,862.835266 
	C788.049377,866.763672 791.135864,868.088440 795.873474,868.072998 
	C837.872620,867.935913 879.872742,867.883118 921.871643,868.056274 
	C936.077148,868.114807 950.116943,867.185242 963.689209,862.870239 
	C986.836304,855.511292 1004.556519,841.960022 1013.082275,818.291016 
	C1018.065125,804.457703 1018.057007,790.231812 1015.941284,775.998047 
	C1013.450500,759.240601 1005.220581,745.584900 991.997314,734.970947 
	C974.627319,721.028442 954.033020,715.889221 932.533691,715.229431 
	C904.060791,714.355774 875.540833,715.032654 847.041260,714.984497 
	C843.548401,714.978638 840.933472,715.173462 840.917542,719.902100 
	C840.902283,724.425842 843.079468,725.049255 846.800049,725.040955 
	C864.928101,725.000305 869.396851,733.472229 869.762817,747.875549 
	C870.499207,776.856445 870.233093,805.873108 869.766052,834.865112 
	C869.677185,840.378601 867.761536,846.453491 864.911255,851.202454 
	C859.771729,859.765564 850.017029,858.866882 841.931274,858.583313 
	C831.735718,858.225769 821.888489,854.202759 814.191162,847.397522 
	C802.546204,837.102051 791.658997,825.940063 780.615356,814.979370 
	C777.166260,811.556213 774.252075,807.593933 771.025452,803.799072 
	C771.788574,803.326050 772.180054,802.989197 772.633972,802.821899 
	C773.558533,802.481140 774.513184,802.219238 775.461731,801.946594 
	C786.600647,798.744812 796.635254,793.797729 804.068726,784.468018 
	C813.196411,773.011841 815.320801,760.256714 810.636108,746.604614 
	C806.666443,735.036316 798.539246,726.989929 786.602600,721.841431 
M1214.105225,725.040710 
	C1225.267944,726.935242 1229.832153,730.913879 1231.713257,741.013611 
	C1232.500122,745.238159 1232.926147,749.590576 1232.945557,753.887451 
	C1233.058105,778.884949 1233.056152,803.883423 1232.948242,828.880920 
	C1232.929810,833.163818 1232.480469,837.488586 1231.767334,841.715942 
	C1230.125366,851.450928 1224.365234,857.015015 1215.472900,857.952820 
	C1212.672729,858.248169 1209.888550,858.870300 1207.087280,858.938782 
	C1203.656982,859.022583 1203.026001,860.866882 1203.002441,863.796082 
	C1202.974854,867.225098 1204.781250,867.996338 1207.728882,867.992493 
	C1235.226562,867.956299 1262.724365,867.969055 1290.222046,867.976562 
	C1292.751343,867.977234 1294.894043,867.681763 1294.961548,864.340454 
	C1295.020874,861.410095 1294.825195,859.001526 1290.977051,858.882202 
	C1288.680420,858.810974 1286.407227,858.171875 1284.107422,857.986206 
	C1275.568115,857.296936 1270.684448,853.531311 1268.117676,845.488037 
	C1264.377808,833.768494 1266.541504,821.703308 1266.165161,809.792725 
	C1266.117920,808.303650 1267.428589,805.505859 1268.135620,805.497681 
	C1270.203369,805.473572 1273.094116,805.895386 1274.236206,807.301086 
	C1288.187134,824.472534 1302.100708,841.684814 1315.529907,859.263916 
	C1320.524170,865.801758 1325.962891,868.274597 1334.365845,868.212036 
	C1390.691528,867.793030 1447.021851,867.995422 1503.350586,867.988525 
	C1505.349121,867.988281 1507.485474,868.327576 1509.302002,867.730713 
	C1510.732910,867.260681 1512.737671,865.665039 1512.831421,864.442261 
	C1513.744873,852.536194 1514.336182,840.604797 1514.949463,828.676941 
	C1515.063354,826.460449 1514.964355,824.301147 1511.799438,824.049683 
	C1508.892456,823.818787 1506.999878,824.672424 1506.216187,827.642639 
	C1505.412354,830.688782 1504.462524,833.696472 1503.571533,836.719482 
	C1501.183472,844.821716 1496.028687,850.176636 1487.480713,850.850342 
	C1474.438354,851.878174 1461.342651,852.808411 1448.275024,852.742004 
	C1438.885498,852.694336 1432.970337,847.694214 1431.954224,838.351257 
	C1430.505249,825.024963 1430.601318,811.526855 1430.212891,798.097046 
	C1430.185791,797.162231 1431.558350,795.402649 1432.369873,795.347412 
	C1442.177490,794.680359 1452.054321,794.799133 1460.889160,799.658020 
	C1467.152466,803.102600 1467.083984,809.749634 1466.977661,815.970947 
	C1466.918579,819.437439 1467.052002,822.101990 1471.834717,822.085388 
	C1476.301147,822.069824 1477.052734,819.983215 1477.033203,816.223145 
	C1476.933838,797.058594 1476.929321,777.892822 1477.036133,758.728271 
	C1477.057373,754.911621 1476.196777,752.888916 1471.779785,752.925049 
	C1467.469360,752.960266 1466.772583,755.117554 1466.984863,758.590576 
	C1467.096558,760.415771 1467.167114,762.281494 1466.922119,764.083557 
	C1466.070190,770.345703 1463.855347,775.988220 1456.895752,777.288879 
	C1449.771851,778.620300 1442.495850,779.147583 1435.281006,779.979675 
	C1431.475586,780.418579 1429.912354,778.774963 1429.957031,774.835510 
	C1430.106201,761.671631 1430.092896,748.504272 1429.960571,735.339966 
	C1429.922729,731.573059 1431.127075,729.913635 1435.119019,729.974304 
	C1446.115479,730.141418 1457.187866,729.225220 1468.098755,730.203796 
	C1485.169556,731.734924 1492.011353,733.629211 1496.312256,752.846802 
	C1496.456421,753.491089 1496.830444,754.106812 1496.866333,754.748718 
	C1497.066284,758.341125 1499.386719,758.965637 1502.376343,758.942383 
	C1506.179932,758.912903 1506.093872,756.228455 1505.953003,753.708984 
	C1505.333130,742.608459 1504.685181,731.508179 1503.879150,720.420105 
	C1503.597656,716.546570 1501.502075,714.909363 1497.277344,714.924255 
	C1456.114624,715.069702 1414.950928,715.037842 1373.787720,714.969055 
	C1370.039673,714.962769 1367.873779,715.671875 1367.925293,720.157349 
	C1367.974487,724.421936 1370.080811,724.977966 1373.573120,725.041809 
	C1389.459717,725.331848 1396.453491,731.105530 1396.768677,746.649475 
	C1397.373291,776.467834 1397.332031,806.313660 1396.802612,836.134705 
	C1396.522217,851.923096 1386.450439,860.092407 1371.824219,857.806519 
	C1363.004761,856.428101 1354.606079,853.217957 1348.048828,847.250427 
	C1335.552002,835.877380 1323.640747,823.857056 1311.605347,811.984863 
	C1309.184204,809.596619 1307.292236,806.672180 1304.819092,803.572205 
	C1306.565918,802.944153 1307.893311,802.387695 1309.265869,801.985901 
	C1319.462524,799.001404 1328.487305,794.320068 1336.124146,786.550903 
	C1350.109131,772.323608 1349.596069,746.752380 1336.215820,732.688904 
	C1324.168823,720.026611 1308.477905,715.715637 1292.042480,715.236511 
	C1264.234985,714.425964 1236.386475,715.066040 1208.555908,714.957458 
	C1204.555298,714.941833 1202.925415,716.155579 1202.919189,720.382935 
	C1202.912476,724.880554 1205.406860,725.154968 1208.702881,725.005920 
	C1210.199341,724.938171 1211.701904,725.009155 1214.105225,725.040710 
M341.844482,778.287964 
	C346.486206,764.407715 351.127899,750.527466 356.200684,735.358154 
	C357.449554,738.505432 358.261414,740.277771 358.866272,742.118103 
	C364.928314,760.562500 370.981415,779.009949 376.987762,797.472534 
	C384.995331,822.086487 392.942169,846.720276 400.958069,871.331482 
	C402.330292,875.544617 405.898987,877.632629 408.602875,875.485657 
	C410.216888,874.204041 411.009247,871.643005 411.722107,869.507263 
	C425.913544,826.991455 439.887939,784.402466 454.259338,741.947815 
	C459.414612,726.718689 465.239075,711.699463 471.254242,696.784485 
	C474.625122,688.426147 481.454529,683.357483 490.189209,681.252869 
	C494.670685,680.173035 499.295532,679.310425 503.882751,679.155884 
	C508.273621,679.007874 509.092896,677.025085 509.034668,673.216675 
	C508.968628,668.898132 506.249084,669.005066 503.292419,669.006042 
	C478.132629,669.014343 452.972809,669.008728 427.813019,669.012634 
	C424.925598,669.013062 422.071136,668.752197 421.977905,673.124390 
	C421.898010,676.868286 422.579041,679.287903 427.019501,679.183167 
	C429.124695,679.133484 431.244629,679.730652 433.358643,680.029480 
	C447.145538,681.978516 453.095795,686.868042 449.099426,701.302673 
	C443.709442,720.770752 436.792786,739.818604 430.446686,759.018799 
	C425.624603,773.608215 420.670624,788.153992 415.322662,804.066040 
	C414.079865,801.544617 413.379852,800.473511 412.999115,799.298889 
	C408.188995,784.458557 403.551331,769.561218 398.621674,754.761047 
	C389.546143,727.513855 380.251434,700.339722 371.202606,673.083801 
	C370.062439,669.649597 368.004639,669.029907 364.852203,668.944275 
	C361.637390,668.856934 360.076263,670.138611 359.069092,673.098572 
	C354.526611,686.448181 349.669373,699.691650 345.207550,713.067444 
	C335.698975,741.572693 326.369263,770.137512 316.949615,798.672424 
	C316.423523,800.266052 315.746338,801.809814 314.750641,804.380798 
	C313.794006,802.155396 313.263458,801.142761 312.912415,800.071289 
	C307.544464,783.685974 301.979462,767.360840 296.909149,750.883606 
	C291.314362,732.702087 285.977020,714.434631 280.953949,696.087830 
	C279.241760,689.834167 283.203125,683.727234 289.492371,681.896606 
	C294.078918,680.561707 298.848724,679.526184 303.596985,679.178406 
	C307.620758,678.883728 309.114288,677.605042 309.060028,673.496399 
	C308.999634,668.920105 306.226349,668.994629 303.061035,668.998718 
	C286.732178,669.019592 270.403290,669.002197 254.074402,669.002502 
	C240.244843,669.002808 226.415253,669.028015 212.585770,668.998047 
	C209.525330,668.991455 206.951645,669.120483 206.970779,673.346619 
	C206.986511,676.817322 207.495972,679.016479 211.735596,679.159790 
	C215.502182,679.287048 219.301712,680.050598 222.977173,680.970764 
	C235.421234,684.086182 241.986725,693.393860 245.882751,704.553040 
	C254.248276,728.513733 262.153748,752.637512 270.040802,776.762146 
	C280.347839,808.288940 290.401764,839.898682 300.783234,871.400696 
	C301.389038,873.238953 303.719360,875.133972 305.651825,875.767029 
	C308.732178,876.776001 309.858948,874.096069 310.692444,871.592957 
	C320.967987,840.733582 331.258850,809.879395 341.844482,778.287964 
M1061.003906,755.500000 
	C1061.003540,774.990601 1061.307007,794.488159 1060.864868,813.968750 
	C1060.666748,822.694702 1059.522217,831.496338 1057.807617,840.063599 
	C1056.071411,848.739502 1050.668091,854.905762 1041.585327,856.776428 
	C1037.722900,857.571960 1033.710327,857.918823 1029.763062,857.940674 
	C1025.936157,857.961792 1024.937622,859.687439 1024.969238,863.163086 
	C1024.999512,866.482910 1026.097046,868.011169 1029.605713,868.004211 
	C1061.923096,867.940002 1094.240479,867.940063 1126.557861,868.004089 
	C1129.964233,868.010864 1131.257202,866.763916 1131.236206,863.300659 
	C1131.215088,859.811951 1130.178711,857.868835 1126.427002,858.027893 
	C1124.931396,858.091248 1123.408569,858.155762 1121.933472,857.956787 
	C1107.802002,856.050415 1099.812866,853.971375 1096.975220,837.431946 
	C1095.246582,827.357422 1094.570557,817.055054 1094.118164,806.824219 
	C1093.783325,799.249695 1094.570679,791.625610 1094.858154,784.023560 
	C1102.437378,783.681152 1110.024170,783.454407 1117.593994,782.965637 
	C1126.019653,782.421570 1134.521484,782.198914 1142.827148,780.839539 
	C1158.524658,778.270264 1172.295898,771.451538 1182.431885,758.907227 
	C1191.935669,747.145142 1195.229492,733.507446 1193.097168,718.399414 
	C1191.062012,703.979614 1184.206665,692.430969 1172.811401,683.831055 
	C1159.068481,673.459473 1142.746216,669.560608 1126.014404,669.209595 
	C1094.210449,668.542297 1062.382812,669.023193 1030.564941,668.996826 
	C1027.488159,668.994324 1025.031738,669.165955 1024.950317,673.364136 
	C1024.873169,677.339478 1026.045898,679.282288 1030.276611,679.105774 
	C1032.223022,679.024597 1034.190063,679.753723 1036.163818,679.964050 
	C1050.405029,681.481934 1056.202637,687.102051 1058.732178,700.782776 
	C1060.320312,709.372742 1060.587769,718.248657 1060.925659,727.016418 
	C1061.278076,736.165039 1061.004150,745.337769 1061.003906,755.500000 
M484.821899,821.572937 
	C499.877899,853.422058 526.080139,869.974731 560.078186,873.669495 
	C585.915039,876.477356 610.246460,870.546082 630.994995,853.661377 
	C653.136108,835.643677 664.636169,812.991882 662.128906,783.846252 
	C660.750183,767.819641 654.403931,753.764648 644.328613,741.987671 
	C627.094238,721.842468 604.438782,710.735352 577.965149,709.194580 
	C547.529053,707.423157 520.704224,716.583923 499.358093,739.189453 
	C491.175812,747.854492 485.299469,757.978516 481.916870,769.460083 
	C476.780426,786.894958 477.697540,804.049438 484.821899,821.572937 
z"/>
<path fill="#0B0C0E" opacity="1.000000" stroke="none" 
	d="
M937.327393,608.811768 
	C909.803284,599.871704 885.543823,586.008240 864.212463,567.040222 
	C824.819458,532.011597 801.866943,488.264679 795.830200,435.966522 
	C790.801392,392.400482 798.596313,351.001892 819.661438,312.411163 
	C827.488525,298.072235 837.185364,284.997864 848.227051,272.826263 
	C865.802246,253.452652 886.242004,238.014618 909.628784,226.549667 
	C937.705200,212.785660 967.357056,205.961105 998.797913,205.648102 
	C1033.043945,205.307159 1065.200562,212.733078 1095.608032,228.120728 
	C1111.733887,236.281174 1126.242798,246.791504 1139.736816,258.858826 
	C1160.392212,277.330414 1176.515015,299.122681 1188.194824,324.119873 
	C1199.878540,349.125366 1206.367432,375.419128 1207.293213,403.181671 
	C1208.273071,432.570435 1204.171143,460.968842 1193.271118,488.296082 
	C1184.433716,510.452393 1172.216919,530.552551 1156.377441,548.463318 
	C1124.547852,584.454773 1085.002441,606.829285 1037.805908,615.424805 
	C1003.967346,621.587402 970.536621,619.338074 937.327393,608.811768 
M1088.693237,559.838257 
	C1097.967163,553.176453 1107.869873,547.226624 1116.384399,539.705200 
	C1134.262695,523.912170 1148.033325,504.826569 1157.874146,483.019226 
	C1166.854126,463.119049 1171.872314,442.224609 1172.859253,420.434937 
	C1174.079468,393.493835 1169.413330,367.548523 1158.733032,342.755707 
	C1157.004028,338.742065 1154.702271,334.975159 1152.665405,331.094177 
	C1153.188965,355.872772 1152.384277,370.469757 1144.471436,393.999115 
	C1132.778809,428.768555 1120.156372,463.224396 1108.088745,497.869110 
	C1102.405762,514.184448 1097.069580,530.620972 1091.626953,547.019409 
	C1090.227539,551.235901 1089.021606,555.516541 1087.679810,559.911682 
	C1087.679810,559.911682 1087.799438,560.117981 1087.799438,560.117981 
	C1087.799438,560.117981 1088.017334,560.022949 1088.693237,559.838257 
M1096.715820,486.157349 
	C1102.874390,464.946930 1109.734009,443.904541 1114.877197,422.450714 
	C1117.227539,412.646820 1117.295044,401.939178 1116.439087,391.806885 
	C1115.160889,376.675323 1107.797363,363.489441 1100.055542,350.618988 
	C1093.915283,340.410889 1087.690796,330.321472 1086.565308,317.807648 
	C1085.504639,306.013977 1093.804321,291.597809 1105.127075,287.983582 
	C1108.670898,286.852417 1112.275757,285.912781 1116.741699,284.630188 
	C1106.781860,275.464081 1096.456177,267.957916 1085.227783,261.779266 
	C1052.003296,243.496643 1016.342712,236.293701 978.860962,241.403336 
	C927.627563,248.387634 887.332031,273.701874 857.422729,316.926849 
	C859.244934,317.430817 860.005005,317.838806 860.753784,317.819122 
	C877.864258,317.369904 894.981873,317.060120 912.078308,316.286133 
	C918.088379,316.014069 923.109558,320.173523 920.526611,324.799316 
	C919.129089,327.302094 915.282654,328.883423 912.215881,329.882782 
	C909.145813,330.883240 905.648499,330.490601 902.378052,330.975403 
	C895.688904,331.966827 895.667542,332.051331 897.877441,338.644257 
	C917.207397,396.311829 936.549316,453.975403 955.892029,511.638702 
	C956.444092,513.284485 957.044617,514.914001 958.074768,517.831848 
	C959.306091,515.296997 960.063354,514.095215 960.500366,512.786438 
	C971.966003,478.445740 983.490601,444.123932 994.682922,409.694153 
	C995.716492,406.514526 995.391296,402.376984 994.333069,399.128540 
	C990.890442,388.560516 986.803772,378.202698 982.984802,367.756744 
	C979.171143,357.325256 975.397461,346.879120 971.571594,336.452087 
	C970.359558,333.148865 968.625061,330.919678 964.418335,330.892792 
	C959.823792,330.863464 955.225891,329.860382 950.648071,329.160339 
	C946.941284,328.593475 944.934753,326.244873 945.434753,322.569244 
	C945.992981,318.466400 948.531067,315.937500 952.910339,316.081238 
	C970.008606,316.642395 987.101135,317.626862 1004.201904,317.782623 
	C1016.146973,317.891418 1028.112427,317.074646 1040.047485,316.329865 
	C1044.755737,316.036102 1049.387817,318.144531 1049.904297,321.764130 
	C1050.450439,325.591766 1047.071167,329.268982 1042.258057,329.927856 
	C1040.616699,330.152527 1038.921753,329.963654 1037.270386,330.141388 
	C1033.215210,330.577789 1029.171265,331.117523 1024.168579,331.733093 
	C1044.944458,393.483734 1065.478271,454.515076 1086.012085,515.546448 
	C1086.484497,515.460510 1086.956909,515.374573 1087.429321,515.288635 
	C1090.429077,505.828278 1093.428833,496.367920 1096.715820,486.157349 
M1044.947510,537.628662 
	C1031.594604,501.142914 1018.241638,464.657166 1004.888672,428.171448 
	C1004.440002,428.168579 1003.991333,428.165710 1003.542664,428.162872 
	C1001.961182,432.249786 1000.246033,436.290649 998.820129,440.431091 
	C990.336670,465.064117 981.933594,489.724731 973.476624,514.366882 
	C966.905640,533.513611 960.398926,552.683716 953.622986,571.757874 
	C952.107300,576.024292 953.146484,577.867249 957.427246,578.564880 
	C966.234985,580.000305 974.973572,581.982056 983.825684,582.999756 
	C1007.571411,585.729431 1030.856689,583.322449 1053.629150,575.907898 
	C1057.199951,574.745361 1057.949463,572.930115 1056.719482,569.646973 
	C1052.821411,559.242126 1048.993286,548.811035 1044.947510,537.628662 
M845.841736,345.326385 
	C845.273132,344.633026 844.704529,343.939697 843.402100,342.351532 
	C821.965698,395.352509 823.916992,446.323151 850.692322,495.789825 
	C867.665466,527.147095 892.613831,550.546326 924.584961,566.066162 
	C925.064453,565.692078 925.543945,565.317993 926.023438,564.943909 
	C899.348877,491.957001 872.674255,418.970062 845.841736,345.326385 
z"/>
<path fill="#32373C" opacity="1.000000" stroke="none" 
	d="
M786.951172,721.985779 
	C798.539246,726.989929 806.666443,735.036316 810.636108,746.604614 
	C815.320801,760.256714 813.196411,773.011841 804.068726,784.468018 
	C796.635254,793.797729 786.600647,798.744812 775.461731,801.946594 
	C774.513184,802.219238 773.558533,802.481140 772.633972,802.821899 
	C772.180054,802.989197 771.788574,803.326050 771.025452,803.799072 
	C774.252075,807.593933 777.166260,811.556213 780.615356,814.979370 
	C791.658997,825.940063 802.546204,837.102051 814.191162,847.397522 
	C821.888489,854.202759 831.735718,858.225769 841.931274,858.583313 
	C850.017029,858.866882 859.771729,859.765564 864.911255,851.202454 
	C867.761536,846.453491 869.677185,840.378601 869.766052,834.865112 
	C870.233093,805.873108 870.499207,776.856445 869.762817,747.875549 
	C869.396851,733.472229 864.928101,725.000305 846.800049,725.040955 
	C843.079468,725.049255 840.902283,724.425842 840.917542,719.902100 
	C840.933472,715.173462 843.548401,714.978638 847.041260,714.984497 
	C875.540833,715.032654 904.060791,714.355774 932.533691,715.229431 
	C954.033020,715.889221 974.627319,721.028442 991.997314,734.970947 
	C1005.220581,745.584900 1013.450500,759.240601 1015.941284,775.998047 
	C1018.057007,790.231812 1018.065125,804.457703 1013.082275,818.291016 
	C1004.556519,841.960022 986.836304,855.511292 963.689209,862.870239 
	C950.116943,867.185242 936.077148,868.114807 921.871643,868.056274 
	C879.872742,867.883118 837.872620,867.935913 795.873474,868.072998 
	C791.135864,868.088440 788.049377,866.763672 784.999512,862.835266 
	C770.596191,844.282532 755.837646,826.002014 740.942078,807.840698 
	C739.595154,806.198425 736.401123,805.805115 733.986084,805.534302 
	C733.515808,805.481567 732.087952,808.697327 732.109619,810.392578 
	C732.239014,820.525513 732.271423,830.686707 733.096802,840.776245 
	C733.967896,851.424805 740.874817,857.448547 751.438599,858.033569 
	C753.738647,858.161011 756.005371,858.816650 758.305969,859.024536 
	C761.833435,859.343323 761.950623,861.747498 761.937561,864.415894 
	C761.922974,867.390320 760.097412,867.966980 757.649658,867.965881 
	C729.483521,867.953430 701.317444,867.940186 673.151306,867.976807 
	C670.167175,867.980652 668.957031,866.683105 669.015625,863.745056 
	C669.066528,861.194092 669.293213,859.257385 672.605652,858.957397 
	C676.876343,858.570618 681.203003,858.041199 685.320801,856.904053 
	C691.735413,855.132446 696.041382,850.964417 697.026184,844.096558 
	C697.800293,838.698181 698.868591,833.272400 698.914429,827.851196 
	C699.118958,803.686523 699.146606,779.517639 698.902344,755.353760 
	C698.840942,749.281921 697.893738,743.151917 696.709595,737.176270 
	C695.325500,730.191833 688.320374,725.451782 679.698303,725.054443 
	C676.402344,724.902527 673.093506,725.029724 669.420471,725.029724 
	C669.263550,722.895325 669.165405,721.289551 669.023621,719.687683 
	C668.718689,716.243958 670.305054,714.846375 673.713196,714.993835 
	C677.039917,715.137695 680.378296,715.004944 683.711548,715.004822 
	C708.044617,715.003845 732.381531,714.756165 756.709045,715.124695 
	C767.007141,715.280640 777.164917,717.261658 786.951172,721.985779 
M903.768677,840.576843 
	C904.882019,848.305115 907.846863,852.182922 914.604858,852.736755 
	C926.244629,853.690674 937.840698,853.285522 948.987183,848.990479 
	C965.628052,842.578308 974.204712,829.508667 977.881409,812.976685 
	C981.575439,796.366638 981.559631,779.560120 976.076416,763.287354 
	C970.577271,746.967468 959.799500,735.276367 942.358948,732.211182 
	C931.661316,730.330994 920.578552,730.519958 909.656616,730.084167 
	C903.102539,729.822632 903.015137,730.117126 903.011536,736.803101 
	C902.994263,769.302551 902.996887,801.802002 903.023254,834.301453 
	C903.024719,836.121216 903.301636,837.940735 903.768677,840.576843 
M777.926208,749.887634 
	C774.878357,739.132935 767.817688,732.267395 756.929810,730.417480 
	C750.609253,729.343567 743.971313,730.251770 737.488403,729.978149 
	C733.384888,729.804932 731.900269,731.351807 731.952393,735.472900 
	C732.121155,748.795288 731.837585,762.123901 732.047180,775.445068 
	C732.316040,792.526062 728.788391,790.059998 747.378418,789.820251 
	C755.257202,789.718689 763.388184,788.789001 769.650574,782.815674 
	C779.052612,773.847534 780.472290,762.786011 777.926208,749.887634 
z"/>
<path fill="#32373C" opacity="1.000000" stroke="none" 
	d="
M1213.653564,725.028931 
	C1211.701904,725.009155 1210.199341,724.938171 1208.702881,725.005920 
	C1205.406860,725.154968 1202.912476,724.880554 1202.919189,720.382935 
	C1202.925415,716.155579 1204.555298,714.941833 1208.555908,714.957458 
	C1236.386475,715.066040 1264.234985,714.425964 1292.042480,715.236511 
	C1308.477905,715.715637 1324.168823,720.026611 1336.215820,732.688904 
	C1349.596069,746.752380 1350.109131,772.323608 1336.124146,786.550903 
	C1328.487305,794.320068 1319.462524,799.001404 1309.265869,801.985901 
	C1307.893311,802.387695 1306.565918,802.944153 1304.819092,803.572205 
	C1307.292236,806.672180 1309.184204,809.596619 1311.605347,811.984863 
	C1323.640747,823.857056 1335.552002,835.877380 1348.048828,847.250427 
	C1354.606079,853.217957 1363.004761,856.428101 1371.824219,857.806519 
	C1386.450439,860.092407 1396.522217,851.923096 1396.802612,836.134705 
	C1397.332031,806.313660 1397.373291,776.467834 1396.768677,746.649475 
	C1396.453491,731.105530 1389.459717,725.331848 1373.573120,725.041809 
	C1370.080811,724.977966 1367.974487,724.421936 1367.925293,720.157349 
	C1367.873779,715.671875 1370.039673,714.962769 1373.787720,714.969055 
	C1414.950928,715.037842 1456.114624,715.069702 1497.277344,714.924255 
	C1501.502075,714.909363 1503.597656,716.546570 1503.879150,720.420105 
	C1504.685181,731.508179 1505.333130,742.608459 1505.953003,753.708984 
	C1506.093872,756.228455 1506.179932,758.912903 1502.376343,758.942383 
	C1499.386719,758.965637 1497.066284,758.341125 1496.866333,754.748718 
	C1496.830444,754.106812 1496.456421,753.491089 1496.312256,752.846802 
	C1492.011353,733.629211 1485.169556,731.734924 1468.098755,730.203796 
	C1457.187866,729.225220 1446.115479,730.141418 1435.119019,729.974304 
	C1431.127075,729.913635 1429.922729,731.573059 1429.960571,735.339966 
	C1430.092896,748.504272 1430.106201,761.671631 1429.957031,774.835510 
	C1429.912354,778.774963 1431.475586,780.418579 1435.281006,779.979675 
	C1442.495850,779.147583 1449.771851,778.620300 1456.895752,777.288879 
	C1463.855347,775.988220 1466.070190,770.345703 1466.922119,764.083557 
	C1467.167114,762.281494 1467.096558,760.415771 1466.984863,758.590576 
	C1466.772583,755.117554 1467.469360,752.960266 1471.779785,752.925049 
	C1476.196777,752.888916 1477.057373,754.911621 1477.036133,758.728271 
	C1476.929321,777.892822 1476.933838,797.058594 1477.033203,816.223145 
	C1477.052734,819.983215 1476.301147,822.069824 1471.834717,822.085388 
	C1467.052002,822.101990 1466.918579,819.437439 1466.977661,815.970947 
	C1467.083984,809.749634 1467.152466,803.102600 1460.889160,799.658020 
	C1452.054321,794.799133 1442.177490,794.680359 1432.369873,795.347412 
	C1431.558350,795.402649 1430.185791,797.162231 1430.212891,798.097046 
	C1430.601318,811.526855 1430.505249,825.024963 1431.954224,838.351257 
	C1432.970337,847.694214 1438.885498,852.694336 1448.275024,852.742004 
	C1461.342651,852.808411 1474.438354,851.878174 1487.480713,850.850342 
	C1496.028687,850.176636 1501.183472,844.821716 1503.571533,836.719482 
	C1504.462524,833.696472 1505.412354,830.688782 1506.216187,827.642639 
	C1506.999878,824.672424 1508.892456,823.818787 1511.799438,824.049683 
	C1514.964355,824.301147 1515.063354,826.460449 1514.949463,828.676941 
	C1514.336182,840.604797 1513.744873,852.536194 1512.831421,864.442261 
	C1512.737671,865.665039 1510.732910,867.260681 1509.302002,867.730713 
	C1507.485474,868.327576 1505.349121,867.988281 1503.350586,867.988525 
	C1447.021851,867.995422 1390.691528,867.793030 1334.365845,868.212036 
	C1325.962891,868.274597 1320.524170,865.801758 1315.529907,859.263916 
	C1302.100708,841.684814 1288.187134,824.472534 1274.236206,807.301086 
	C1273.094116,805.895386 1270.203369,805.473572 1268.135620,805.497681 
	C1267.428589,805.505859 1266.117920,808.303650 1266.165161,809.792725 
	C1266.541504,821.703308 1264.377808,833.768494 1268.117676,845.488037 
	C1270.684448,853.531311 1275.568115,857.296936 1284.107422,857.986206 
	C1286.407227,858.171875 1288.680420,858.810974 1290.977051,858.882202 
	C1294.825195,859.001526 1295.020874,861.410095 1294.961548,864.340454 
	C1294.894043,867.681763 1292.751343,867.977234 1290.222046,867.976562 
	C1262.724365,867.969055 1235.226562,867.956299 1207.728882,867.992493 
	C1204.781250,867.996338 1202.974854,867.225098 1203.002441,863.796082 
	C1203.026001,860.866882 1203.656982,859.022583 1207.087280,858.938782 
	C1209.888550,858.870300 1212.672729,858.248169 1215.472900,857.952820 
	C1224.365234,857.015015 1230.125366,851.450928 1231.767334,841.715942 
	C1232.480469,837.488586 1232.929810,833.163818 1232.948242,828.880920 
	C1233.056152,803.883423 1233.058105,778.884949 1232.945557,753.887451 
	C1232.926147,749.590576 1232.500122,745.238159 1231.713257,741.013611 
	C1229.832153,730.913879 1225.267944,726.935242 1213.653564,725.028931 
M1267.260132,789.348206 
	C1272.050049,789.552917 1276.896729,790.328308 1281.619873,789.859558 
	C1298.516235,788.182739 1308.017334,785.689270 1312.409058,765.728699 
	C1315.219360,752.956116 1310.226929,734.297791 1291.899536,730.697510 
	C1285.483765,729.437134 1278.662476,730.355286 1272.044189,729.971863 
	C1267.549805,729.711426 1265.892212,731.292542 1265.971924,735.923950 
	C1266.209595,749.718994 1266.011963,763.520935 1266.078979,777.319763 
	C1266.097290,781.117920 1266.446533,784.914429 1267.260132,789.348206 
z"/>
<path fill="#32373C" opacity="1.000000" stroke="none" 
	d="
M341.695129,778.655884 
	C331.258850,809.879395 320.967987,840.733582 310.692444,871.592957 
	C309.858948,874.096069 308.732178,876.776001 305.651825,875.767029 
	C303.719360,875.133972 301.389038,873.238953 300.783234,871.400696 
	C290.401764,839.898682 280.347839,808.288940 270.040802,776.762146 
	C262.153748,752.637512 254.248276,728.513733 245.882751,704.553040 
	C241.986725,693.393860 235.421234,684.086182 222.977173,680.970764 
	C219.301712,680.050598 215.502182,679.287048 211.735596,679.159790 
	C207.495972,679.016479 206.986511,676.817322 206.970779,673.346619 
	C206.951645,669.120483 209.525330,668.991455 212.585770,668.998047 
	C226.415253,669.028015 240.244843,669.002808 254.074402,669.002502 
	C270.403290,669.002197 286.732178,669.019592 303.061035,668.998718 
	C306.226349,668.994629 308.999634,668.920105 309.060028,673.496399 
	C309.114288,677.605042 307.620758,678.883728 303.596985,679.178406 
	C298.848724,679.526184 294.078918,680.561707 289.492371,681.896606 
	C283.203125,683.727234 279.241760,689.834167 280.953949,696.087830 
	C285.977020,714.434631 291.314362,732.702087 296.909149,750.883606 
	C301.979462,767.360840 307.544464,783.685974 312.912415,800.071289 
	C313.263458,801.142761 313.794006,802.155396 314.750641,804.380798 
	C315.746338,801.809814 316.423523,800.266052 316.949615,798.672424 
	C326.369263,770.137512 335.698975,741.572693 345.207550,713.067444 
	C349.669373,699.691650 354.526611,686.448181 359.069092,673.098572 
	C360.076263,670.138611 361.637390,668.856934 364.852203,668.944275 
	C368.004639,669.029907 370.062439,669.649597 371.202606,673.083801 
	C380.251434,700.339722 389.546143,727.513855 398.621674,754.761047 
	C403.551331,769.561218 408.188995,784.458557 412.999115,799.298889 
	C413.379852,800.473511 414.079865,801.544617 415.322662,804.066040 
	C420.670624,788.153992 425.624603,773.608215 430.446686,759.018799 
	C436.792786,739.818604 443.709442,720.770752 449.099426,701.302673 
	C453.095795,686.868042 447.145538,681.978516 433.358643,680.029480 
	C431.244629,679.730652 429.124695,679.133484 427.019501,679.183167 
	C422.579041,679.287903 421.898010,676.868286 421.977905,673.124390 
	C422.071136,668.752197 424.925598,669.013062 427.813019,669.012634 
	C452.972809,669.008728 478.132629,669.014343 503.292419,669.006042 
	C506.249084,669.005066 508.968628,668.898132 509.034668,673.216675 
	C509.092896,677.025085 508.273621,679.007874 503.882751,679.155884 
	C499.295532,679.310425 494.670685,680.173035 490.189209,681.252869 
	C481.454529,683.357483 474.625122,688.426147 471.254242,696.784485 
	C465.239075,711.699463 459.414612,726.718689 454.259338,741.947815 
	C439.887939,784.402466 425.913544,826.991455 411.722107,869.507263 
	C411.009247,871.643005 410.216888,874.204041 408.602875,875.485657 
	C405.898987,877.632629 402.330292,875.544617 400.958069,871.331482 
	C392.942169,846.720276 384.995331,822.086487 376.987762,797.472534 
	C370.981415,779.009949 364.928314,760.562500 358.866272,742.118103 
	C358.261414,740.277771 357.449554,738.505432 356.200684,735.358154 
	C351.127899,750.527466 346.486206,764.407715 341.695129,778.655884 
z"/>
<path fill="#32373C" opacity="1.000000" stroke="none" 
	d="
M1061.003906,755.000000 
	C1061.004150,745.337769 1061.278076,736.165039 1060.925659,727.016418 
	C1060.587769,718.248657 1060.320312,709.372742 1058.732178,700.782776 
	C1056.202637,687.102051 1050.405029,681.481934 1036.163818,679.964050 
	C1034.190063,679.753723 1032.223022,679.024597 1030.276611,679.105774 
	C1026.045898,679.282288 1024.873169,677.339478 1024.950317,673.364136 
	C1025.031738,669.165955 1027.488159,668.994324 1030.564941,668.996826 
	C1062.382812,669.023193 1094.210449,668.542297 1126.014404,669.209595 
	C1142.746216,669.560608 1159.068481,673.459473 1172.811401,683.831055 
	C1184.206665,692.430969 1191.062012,703.979614 1193.097168,718.399414 
	C1195.229492,733.507446 1191.935669,747.145142 1182.431885,758.907227 
	C1172.295898,771.451538 1158.524658,778.270264 1142.827148,780.839539 
	C1134.521484,782.198914 1126.019653,782.421570 1117.593994,782.965637 
	C1110.024170,783.454407 1102.437378,783.681152 1094.858154,784.023560 
	C1094.570679,791.625610 1093.783325,799.249695 1094.118164,806.824219 
	C1094.570557,817.055054 1095.246582,827.357422 1096.975220,837.431946 
	C1099.812866,853.971375 1107.802002,856.050415 1121.933472,857.956787 
	C1123.408569,858.155762 1124.931396,858.091248 1126.427002,858.027893 
	C1130.178711,857.868835 1131.215088,859.811951 1131.236206,863.300659 
	C1131.257202,866.763916 1129.964233,868.010864 1126.557861,868.004089 
	C1094.240479,867.940063 1061.923096,867.940002 1029.605713,868.004211 
	C1026.097046,868.011169 1024.999512,866.482910 1024.969238,863.163086 
	C1024.937622,859.687439 1025.936157,857.961792 1029.763062,857.940674 
	C1033.710327,857.918823 1037.722900,857.571960 1041.585327,856.776428 
	C1050.668091,854.905762 1056.071411,848.739502 1057.807617,840.063599 
	C1059.522217,831.496338 1060.666748,822.694702 1060.864868,813.968750 
	C1061.307007,794.488159 1061.003540,774.990601 1061.003906,755.000000 
M1094.000000,696.573181 
	C1094.002563,717.393005 1094.105957,738.213745 1093.928833,759.032043 
	C1093.890137,763.596191 1095.424316,765.229370 1099.981689,765.065735 
	C1107.633667,764.791077 1115.313599,765.247925 1122.961060,764.916870 
	C1131.217041,764.559448 1138.965454,762.394287 1145.103638,756.349792 
	C1157.601440,744.042725 1159.183838,729.070923 1155.003052,713.090271 
	C1151.997314,701.601074 1145.742554,691.403503 1133.485352,689.205261 
	C1121.382202,687.034668 1108.758911,687.723999 1096.357788,687.362732 
	C1095.636963,687.341736 1094.444946,689.057739 1094.208496,690.128113 
	C1093.820923,691.881958 1094.038208,693.769470 1094.000000,696.573181 
z"/>
<path fill="#32373C" opacity="1.000000" stroke="none" 
	d="
M484.627899,821.242188 
	C477.697540,804.049438 476.780426,786.894958 481.916870,769.460083 
	C485.299469,757.978516 491.175812,747.854492 499.358093,739.189453 
	C520.704224,716.583923 547.529053,707.423157 577.965149,709.194580 
	C604.438782,710.735352 627.094238,721.842468 644.328613,741.987671 
	C654.403931,753.764648 660.750183,767.819641 662.128906,783.846252 
	C664.636169,812.991882 653.136108,835.643677 630.994995,853.661377 
	C610.246460,870.546082 585.915039,876.477356 560.078186,873.669495 
	C526.080139,869.974731 499.877899,853.422058 484.627899,821.242188 
M515.518738,805.862000 
	C516.377625,809.743225 517.012024,813.690796 518.135925,817.493713 
	C522.108032,830.933594 529.119934,842.560364 541.040283,850.196838 
	C551.893921,857.149902 564.071106,859.307617 577.100952,858.136169 
	C597.823853,856.273193 613.637451,843.027893 621.021118,824.195801 
	C626.960266,809.047913 628.466797,793.372131 626.012207,777.265930 
	C623.781860,762.631409 618.688232,749.102356 607.993591,738.780701 
	C593.940308,725.217529 576.607605,721.425232 557.719421,725.710449 
	C536.178589,730.597412 524.296509,745.597473 518.164856,765.692444 
	C514.263916,778.476807 512.720642,791.656738 515.518738,805.862000 
z"/>
<path fill="#32373C" opacity="1.000000" stroke="none" 
	d="
M1096.572266,486.532471 
	C1093.428833,496.367920 1090.429077,505.828278 1087.429321,515.288635 
	C1086.956909,515.374573 1086.484497,515.460510 1086.012085,515.546448 
	C1065.478271,454.515076 1044.944458,393.483734 1024.168579,331.733093 
	C1029.171265,331.117523 1033.215210,330.577789 1037.270386,330.141388 
	C1038.921753,329.963654 1040.616699,330.152527 1042.258057,329.927856 
	C1047.071167,329.268982 1050.450439,325.591766 1049.904297,321.764130 
	C1049.387817,318.144531 1044.755737,316.036102 1040.047485,316.329865 
	C1028.112427,317.074646 1016.146973,317.891418 1004.201904,317.782623 
	C987.101135,317.626862 970.008606,316.642395 952.910339,316.081238 
	C948.531067,315.937500 945.992981,318.466400 945.434753,322.569244 
	C944.934753,326.244873 946.941284,328.593475 950.648071,329.160339 
	C955.225891,329.860382 959.823792,330.863464 964.418335,330.892792 
	C968.625061,330.919678 970.359558,333.148865 971.571594,336.452087 
	C975.397461,346.879120 979.171143,357.325256 982.984802,367.756744 
	C986.803772,378.202698 990.890442,388.560516 994.333069,399.128540 
	C995.391296,402.376984 995.716492,406.514526 994.682922,409.694153 
	C983.490601,444.123932 971.966003,478.445740 960.500366,512.786438 
	C960.063354,514.095215 959.306091,515.296997 958.074768,517.831848 
	C957.044617,514.914001 956.444092,513.284485 955.892029,511.638702 
	C936.549316,453.975403 917.207397,396.311829 897.877441,338.644257 
	C895.667542,332.051331 895.688904,331.966827 902.378052,330.975403 
	C905.648499,330.490601 909.145813,330.883240 912.215881,329.882782 
	C915.282654,328.883423 919.129089,327.302094 920.526611,324.799316 
	C923.109558,320.173523 918.088379,316.014069 912.078308,316.286133 
	C894.981873,317.060120 877.864258,317.369904 860.753784,317.819122 
	C860.005005,317.838806 859.244934,317.430817 857.422729,316.926849 
	C887.332031,273.701874 927.627563,248.387634 978.860962,241.403336 
	C1016.342712,236.293701 1052.003296,243.496643 1085.227783,261.779266 
	C1096.456177,267.957916 1106.781860,275.464081 1116.741699,284.630188 
	C1112.275757,285.912781 1108.670898,286.852417 1105.127075,287.983582 
	C1093.804321,291.597809 1085.504639,306.013977 1086.565308,317.807648 
	C1087.690796,330.321472 1093.915283,340.410889 1100.055542,350.618988 
	C1107.797363,363.489441 1115.160889,376.675323 1116.439087,391.806885 
	C1117.295044,401.939178 1117.227539,412.646820 1114.877197,422.450714 
	C1109.734009,443.904541 1102.874390,464.946930 1096.572266,486.532471 
z"/>
<path fill="#32373C" opacity="1.000000" stroke="none" 
	d="
M1045.042725,538.009399 
	C1048.993286,548.811035 1052.821411,559.242126 1056.719482,569.646973 
	C1057.949463,572.930115 1057.199951,574.745361 1053.629150,575.907898 
	C1030.856689,583.322449 1007.571411,585.729431 983.825684,582.999756 
	C974.973572,581.982056 966.234985,580.000305 957.427246,578.564880 
	C953.146484,577.867249 952.107300,576.024292 953.622986,571.757874 
	C960.398926,552.683716 966.905640,533.513611 973.476624,514.366882 
	C981.933594,489.724731 990.336670,465.064117 998.820129,440.431091 
	C1000.246033,436.290649 1001.961182,432.249786 1003.542664,428.162872 
	C1003.991333,428.165710 1004.440002,428.168579 1004.888672,428.171448 
	C1018.241638,464.657166 1031.594604,501.142914 1045.042725,538.009399 
z"/>
<path fill="#32373C" opacity="1.000000" stroke="none" 
	d="
M845.920654,345.654785 
	C872.674255,418.970062 899.348877,491.957001 926.023438,564.943909 
	C925.543945,565.317993 925.064453,565.692078 924.584961,566.066162 
	C892.613831,550.546326 867.665466,527.147095 850.692322,495.789825 
	C823.916992,446.323151 821.965698,395.352509 843.402100,342.351532 
	C844.704529,343.939697 845.273132,344.633026 845.920654,345.654785 
z"/>
<path fill="#32373C" opacity="1.000000" stroke="none" 
	d="
M1087.726807,559.767761 
	C1089.021606,555.516541 1090.227539,551.235901 1091.626953,547.019409 
	C1097.069580,530.620972 1102.405762,514.184448 1108.088745,497.869110 
	C1120.156372,463.224396 1132.778809,428.768555 1144.471436,393.999115 
	C1152.384277,370.469757 1153.188965,355.872772 1152.665405,331.094177 
	C1154.702271,334.975159 1157.004028,338.742065 1158.733032,342.755707 
	C1169.413330,367.548523 1174.079468,393.493835 1172.859253,420.434937 
	C1171.872314,442.224609 1166.854126,463.119049 1157.874146,483.019226 
	C1148.033325,504.826569 1134.262695,523.912170 1116.384399,539.705200 
	C1107.869873,547.226624 1097.967163,553.176453 1088.282471,559.867004 
	C1087.871704,559.895752 1087.726807,559.767761 1087.726807,559.767761 
z"/>
<path fill="#32373C" opacity="1.000000" stroke="none" 
	d="
M1087.944580,559.959351 
	C1088.017334,560.022949 1087.799438,560.117981 1087.799438,560.117981 
	C1087.799438,560.117981 1087.679810,559.911682 1087.703369,559.839722 
	C1087.726807,559.767761 1087.871704,559.895752 1087.944580,559.959351 
z"/>
<path fill="#000000" opacity="1.000000" stroke="none" 
	d="
M903.609497,840.168579 
	C903.301636,837.940735 903.024719,836.121216 903.023254,834.301453 
	C902.996887,801.802002 902.994263,769.302551 903.011536,736.803101 
	C903.015137,730.117126 903.102539,729.822632 909.656616,730.084167 
	C920.578552,730.519958 931.661316,730.330994 942.358948,732.211182 
	C959.799500,735.276367 970.577271,746.967468 976.076416,763.287354 
	C981.559631,779.560120 981.575439,796.366638 977.881409,812.976685 
	C974.204712,829.508667 965.628052,842.578308 948.987183,848.990479 
	C937.840698,853.285522 926.244629,853.690674 914.604858,852.736755 
	C907.846863,852.182922 904.882019,848.305115 903.609497,840.168579 
z"/>
<path fill="#000000" opacity="1.000000" stroke="none" 
	d="
M777.970276,750.304077 
	C780.472290,762.786011 779.052612,773.847534 769.650574,782.815674 
	C763.388184,788.789001 755.257202,789.718689 747.378418,789.820251 
	C728.788391,790.059998 732.316040,792.526062 732.047180,775.445068 
	C731.837585,762.123901 732.121155,748.795288 731.952393,735.472900 
	C731.900269,731.351807 733.384888,729.804932 737.488403,729.978149 
	C743.971313,730.251770 750.609253,729.343567 756.929810,730.417480 
	C767.817688,732.267395 774.878357,739.132935 777.970276,750.304077 
z"/>
<path fill="#000000" opacity="1.000000" stroke="none" 
	d="
M1266.952026,789.029968 
	C1266.446533,784.914429 1266.097290,781.117920 1266.078979,777.319763 
	C1266.011963,763.520935 1266.209595,749.718994 1265.971924,735.923950 
	C1265.892212,731.292542 1267.549805,729.711426 1272.044189,729.971863 
	C1278.662476,730.355286 1285.483765,729.437134 1291.899536,730.697510 
	C1310.226929,734.297791 1315.219360,752.956116 1312.409058,765.728699 
	C1308.017334,785.689270 1298.516235,788.182739 1281.619873,789.859558 
	C1276.896729,790.328308 1272.050049,789.552917 1266.952026,789.029968 
z"/>
<path fill="#000000" opacity="1.000000" stroke="none" 
	d="
M1094.000244,696.086914 
	C1094.038208,693.769470 1093.820923,691.881958 1094.208496,690.128113 
	C1094.444946,689.057739 1095.636963,687.341736 1096.357788,687.362732 
	C1108.758911,687.723999 1121.382202,687.034668 1133.485352,689.205261 
	C1145.742554,691.403503 1151.997314,701.601074 1155.003052,713.090271 
	C1159.183838,729.070923 1157.601440,744.042725 1145.103638,756.349792 
	C1138.965454,762.394287 1131.217041,764.559448 1122.961060,764.916870 
	C1115.313599,765.247925 1107.633667,764.791077 1099.981689,765.065735 
	C1095.424316,765.229370 1093.890137,763.596191 1093.928833,759.032043 
	C1094.105957,738.213745 1094.002563,717.393005 1094.000244,696.086914 
z"/>
<path fill="#000000" opacity="1.000000" stroke="none" 
	d="
M515.383423,805.444092 
	C512.720642,791.656738 514.263916,778.476807 518.164856,765.692444 
	C524.296509,745.597473 536.178589,730.597412 557.719421,725.710449 
	C576.607605,721.425232 593.940308,725.217529 607.993591,738.780701 
	C618.688232,749.102356 623.781860,762.631409 626.012207,777.265930 
	C628.466797,793.372131 626.960266,809.047913 621.021118,824.195801 
	C613.637451,843.027893 597.823853,856.273193 577.100952,858.136169 
	C564.071106,859.307617 551.893921,857.149902 541.040283,850.196838 
	C529.119934,842.560364 522.108032,830.933594 518.135925,817.493713 
	C517.012024,813.690796 516.377625,809.743225 515.383423,805.444092 
z"/>
</svg>